M48
; DRILL file {KiCad (5.1.10)-1} date 01/07/22 13:00:08
; FORMAT={-:-/ absolute / metric / decimal}
; #@! TF.CreationDate,2022-01-07T13:00:08+03:00
; #@! TF.GenerationSoftware,Kicad,Pcbnew,(5.1.10)-1
; #@! TF.FileFunction,Plated,1,2,PTH
FMAT,2
METRIC
T1C0.200
T2C0.400
T3C0.600
T4C0.850
T5C0.950
T6C1.000
%
G90
G05
T1
X30.36Y-145.785
X30.36Y-146.965
X31.54Y-145.785
X31.54Y-146.965
X42.2Y-134.45
X42.775Y-133.5
X42.775Y-135.4
X43.35Y-134.45
T2
X14.35Y-129.225
X14.35Y-142.75
X14.45Y-125.95
X15.775Y-148.875
X16.375Y-130.275
X17.525Y-143.75
X21.155Y-128.975
X21.325Y-146.55
X21.775Y-126.825
X22.1Y-129.4
X23.3Y-139.0
X23.9Y-130.225
X24.9Y-144.8
X25.075Y-146.8
X25.125Y-134.6
X26.1Y-141.925
X27.497Y-144.575
X28.823Y-147.912
X29.65Y-148.475
X31.525Y-135.4
X31.95Y-148.425
X32.6Y-144.8
X33.3Y-149.175
X34.089Y-143.192
X34.137Y-148.45
X35.025Y-143.875
X35.625Y-132.25
X36.665Y-146.615
X37.275Y-132.0
X37.325Y-130.125
X37.6Y-127.6
X37.75Y-148.125
X38.525Y-125.725
X39.15Y-145.498
X39.2Y-146.948
X39.425Y-138.65
X41.347Y-144.6
X41.55Y-125.7
X41.775Y-145.175
X41.9Y-136.625
X42.425Y-132.15
X42.582Y-141.955
X43.468Y-145.891
X43.5Y-139.45
X43.75Y-148.55
X43.9Y-143.125
X44.617Y-148.036
X44.675Y-125.725
X45.35Y-149.075
X46.025Y-131.3
X46.4Y-143.725
X47.075Y-125.7
X47.15Y-135.275
X47.375Y-140.125
X47.563Y-148.158
X47.625Y-127.9
X47.675Y-131.6
X48.4Y-143.525
X48.572Y-139.872
X48.618Y-148.392
X49.904Y-142.077
X50.07Y-140.3
X50.675Y-126.775
X51.025Y-130.35
X51.25Y-143.25
X51.42Y-141.066
X51.882Y-144.296
X52.783Y-141.123
X53.176Y-143.851
X54.95Y-131.75
T4
X16.162Y-134.55
X16.162Y-139.55
T5
X26.2Y-127.725
X28.7Y-127.725
X31.2Y-127.725
X33.7Y-127.725
T6
X51.625Y-134.025
X51.625Y-136.565
X51.625Y-139.105
X54.165Y-134.025
X54.165Y-136.565
X54.165Y-139.105
T3
G00X13.112Y-133.55
M15
G01X13.812Y-133.55
M16
G05
G00X13.812Y-140.55
M15
G01X13.112Y-140.55
M16
G05
T0
M30
