%TF.GenerationSoftware,KiCad,Pcbnew,(5.1.10)-1*%
%TF.CreationDate,2022-01-07T12:59:57+03:00*%
%TF.ProjectId,calve_heater,63616c76-655f-4686-9561-7465722e6b69,rev?*%
%TF.SameCoordinates,Original*%
%TF.FileFunction,Copper,L1,Top*%
%TF.FilePolarity,Positive*%
%FSLAX46Y46*%
G04 Gerber Fmt 4.6, Leading zero omitted, Abs format (unit mm)*
G04 Created by KiCad (PCBNEW (5.1.10)-1) date 2022-01-07 12:59:57*
%MOMM*%
%LPD*%
G01*
G04 APERTURE LIST*
%TA.AperFunction,SMDPad,CuDef*%
%ADD10R,0.450000X0.600000*%
%TD*%
%TA.AperFunction,SMDPad,CuDef*%
%ADD11R,1.900000X1.500000*%
%TD*%
%TA.AperFunction,ComponentPad*%
%ADD12C,1.450000*%
%TD*%
%TA.AperFunction,SMDPad,CuDef*%
%ADD13R,1.350000X0.400000*%
%TD*%
%TA.AperFunction,ComponentPad*%
%ADD14O,1.900000X1.200000*%
%TD*%
%TA.AperFunction,SMDPad,CuDef*%
%ADD15R,1.900000X1.200000*%
%TD*%
%TA.AperFunction,ComponentPad*%
%ADD16O,1.700000X1.950000*%
%TD*%
%TA.AperFunction,SMDPad,CuDef*%
%ADD17R,0.900000X0.800000*%
%TD*%
%TA.AperFunction,SMDPad,CuDef*%
%ADD18R,0.800000X0.900000*%
%TD*%
%TA.AperFunction,SMDPad,CuDef*%
%ADD19C,1.000000*%
%TD*%
%TA.AperFunction,SMDPad,CuDef*%
%ADD20R,1.680000X1.680000*%
%TD*%
%TA.AperFunction,ComponentPad*%
%ADD21C,0.500000*%
%TD*%
%TA.AperFunction,SMDPad,CuDef*%
%ADD22C,0.100000*%
%TD*%
%TA.AperFunction,ComponentPad*%
%ADD23C,0.300000*%
%TD*%
%TA.AperFunction,SMDPad,CuDef*%
%ADD24R,3.100000X3.100000*%
%TD*%
%TA.AperFunction,SMDPad,CuDef*%
%ADD25R,0.400000X0.600000*%
%TD*%
%TA.AperFunction,SMDPad,CuDef*%
%ADD26R,0.500000X0.700000*%
%TD*%
%TA.AperFunction,SMDPad,CuDef*%
%ADD27R,1.300000X1.000000*%
%TD*%
%TA.AperFunction,SMDPad,CuDef*%
%ADD28R,2.350000X3.500000*%
%TD*%
%TA.AperFunction,ComponentPad*%
%ADD29R,1.700000X1.700000*%
%TD*%
%TA.AperFunction,ComponentPad*%
%ADD30O,1.700000X1.700000*%
%TD*%
%TA.AperFunction,SMDPad,CuDef*%
%ADD31R,0.650000X1.050000*%
%TD*%
%TA.AperFunction,ViaPad*%
%ADD32C,0.800000*%
%TD*%
%TA.AperFunction,Conductor*%
%ADD33C,0.250000*%
%TD*%
%TA.AperFunction,Conductor*%
%ADD34C,0.500000*%
%TD*%
%TA.AperFunction,Conductor*%
%ADD35C,0.254000*%
%TD*%
%TA.AperFunction,Conductor*%
%ADD36C,0.100000*%
%TD*%
G04 APERTURE END LIST*
%TO.P,R12,2*%
%TO.N,/controller/reset*%
%TA.AperFunction,SMDPad,CuDef*%
G36*
G01*
X52260000Y-141890000D02*
X52260000Y-142260000D01*
G75*
G02*
X52125000Y-142395000I-135000J0D01*
G01*
X51855000Y-142395000D01*
G75*
G02*
X51720000Y-142260000I0J135000D01*
G01*
X51720000Y-141890000D01*
G75*
G02*
X51855000Y-141755000I135000J0D01*
G01*
X52125000Y-141755000D01*
G75*
G02*
X52260000Y-141890000I0J-135000D01*
G01*
G37*
%TD.AperFunction*%
%TO.P,R12,1*%
%TO.N,+3V3*%
%TA.AperFunction,SMDPad,CuDef*%
G36*
G01*
X53280000Y-141890000D02*
X53280000Y-142260000D01*
G75*
G02*
X53145000Y-142395000I-135000J0D01*
G01*
X52875000Y-142395000D01*
G75*
G02*
X52740000Y-142260000I0J135000D01*
G01*
X52740000Y-141890000D01*
G75*
G02*
X52875000Y-141755000I135000J0D01*
G01*
X53145000Y-141755000D01*
G75*
G02*
X53280000Y-141890000I0J-135000D01*
G01*
G37*
%TD.AperFunction*%
%TD*%
%TO.P,C1,2*%
%TO.N,GND*%
%TA.AperFunction,SMDPad,CuDef*%
G36*
G01*
X45855000Y-134145000D02*
X46195000Y-134145000D01*
G75*
G02*
X46335000Y-134285000I0J-140000D01*
G01*
X46335000Y-134565000D01*
G75*
G02*
X46195000Y-134705000I-140000J0D01*
G01*
X45855000Y-134705000D01*
G75*
G02*
X45715000Y-134565000I0J140000D01*
G01*
X45715000Y-134285000D01*
G75*
G02*
X45855000Y-134145000I140000J0D01*
G01*
G37*
%TD.AperFunction*%
%TO.P,C1,1*%
%TO.N,/PWR_OUT*%
%TA.AperFunction,SMDPad,CuDef*%
G36*
G01*
X45855000Y-133185000D02*
X46195000Y-133185000D01*
G75*
G02*
X46335000Y-133325000I0J-140000D01*
G01*
X46335000Y-133605000D01*
G75*
G02*
X46195000Y-133745000I-140000J0D01*
G01*
X45855000Y-133745000D01*
G75*
G02*
X45715000Y-133605000I0J140000D01*
G01*
X45715000Y-133325000D01*
G75*
G02*
X45855000Y-133185000I140000J0D01*
G01*
G37*
%TD.AperFunction*%
%TD*%
%TO.P,C2,2*%
%TO.N,GND*%
%TA.AperFunction,SMDPad,CuDef*%
G36*
G01*
X46955000Y-134155000D02*
X47295000Y-134155000D01*
G75*
G02*
X47435000Y-134295000I0J-140000D01*
G01*
X47435000Y-134575000D01*
G75*
G02*
X47295000Y-134715000I-140000J0D01*
G01*
X46955000Y-134715000D01*
G75*
G02*
X46815000Y-134575000I0J140000D01*
G01*
X46815000Y-134295000D01*
G75*
G02*
X46955000Y-134155000I140000J0D01*
G01*
G37*
%TD.AperFunction*%
%TO.P,C2,1*%
%TO.N,/PWR_OUT*%
%TA.AperFunction,SMDPad,CuDef*%
G36*
G01*
X46955000Y-133195000D02*
X47295000Y-133195000D01*
G75*
G02*
X47435000Y-133335000I0J-140000D01*
G01*
X47435000Y-133615000D01*
G75*
G02*
X47295000Y-133755000I-140000J0D01*
G01*
X46955000Y-133755000D01*
G75*
G02*
X46815000Y-133615000I0J140000D01*
G01*
X46815000Y-133335000D01*
G75*
G02*
X46955000Y-133195000I140000J0D01*
G01*
G37*
%TD.AperFunction*%
%TD*%
%TO.P,C3,1*%
%TO.N,/PWR_OUT*%
%TA.AperFunction,SMDPad,CuDef*%
G36*
G01*
X48080000Y-133185000D02*
X48420000Y-133185000D01*
G75*
G02*
X48560000Y-133325000I0J-140000D01*
G01*
X48560000Y-133605000D01*
G75*
G02*
X48420000Y-133745000I-140000J0D01*
G01*
X48080000Y-133745000D01*
G75*
G02*
X47940000Y-133605000I0J140000D01*
G01*
X47940000Y-133325000D01*
G75*
G02*
X48080000Y-133185000I140000J0D01*
G01*
G37*
%TD.AperFunction*%
%TO.P,C3,2*%
%TO.N,GND*%
%TA.AperFunction,SMDPad,CuDef*%
G36*
G01*
X48080000Y-134145000D02*
X48420000Y-134145000D01*
G75*
G02*
X48560000Y-134285000I0J-140000D01*
G01*
X48560000Y-134565000D01*
G75*
G02*
X48420000Y-134705000I-140000J0D01*
G01*
X48080000Y-134705000D01*
G75*
G02*
X47940000Y-134565000I0J140000D01*
G01*
X47940000Y-134285000D01*
G75*
G02*
X48080000Y-134145000I140000J0D01*
G01*
G37*
%TD.AperFunction*%
%TD*%
%TO.P,C4,1*%
%TO.N,VBUS*%
%TA.AperFunction,SMDPad,CuDef*%
G36*
G01*
X33225000Y-143600000D02*
X32725000Y-143600000D01*
G75*
G02*
X32500000Y-143375000I0J225000D01*
G01*
X32500000Y-142925000D01*
G75*
G02*
X32725000Y-142700000I225000J0D01*
G01*
X33225000Y-142700000D01*
G75*
G02*
X33450000Y-142925000I0J-225000D01*
G01*
X33450000Y-143375000D01*
G75*
G02*
X33225000Y-143600000I-225000J0D01*
G01*
G37*
%TD.AperFunction*%
%TO.P,C4,2*%
%TO.N,GND*%
%TA.AperFunction,SMDPad,CuDef*%
G36*
G01*
X33225000Y-142050000D02*
X32725000Y-142050000D01*
G75*
G02*
X32500000Y-141825000I0J225000D01*
G01*
X32500000Y-141375000D01*
G75*
G02*
X32725000Y-141150000I225000J0D01*
G01*
X33225000Y-141150000D01*
G75*
G02*
X33450000Y-141375000I0J-225000D01*
G01*
X33450000Y-141825000D01*
G75*
G02*
X33225000Y-142050000I-225000J0D01*
G01*
G37*
%TD.AperFunction*%
%TD*%
%TO.P,C5,1*%
%TO.N,Net-(C5-Pad1)*%
%TA.AperFunction,SMDPad,CuDef*%
G36*
G01*
X42955000Y-137120000D02*
X43295000Y-137120000D01*
G75*
G02*
X43435000Y-137260000I0J-140000D01*
G01*
X43435000Y-137540000D01*
G75*
G02*
X43295000Y-137680000I-140000J0D01*
G01*
X42955000Y-137680000D01*
G75*
G02*
X42815000Y-137540000I0J140000D01*
G01*
X42815000Y-137260000D01*
G75*
G02*
X42955000Y-137120000I140000J0D01*
G01*
G37*
%TD.AperFunction*%
%TO.P,C5,2*%
%TO.N,GND*%
%TA.AperFunction,SMDPad,CuDef*%
G36*
G01*
X42955000Y-138080000D02*
X43295000Y-138080000D01*
G75*
G02*
X43435000Y-138220000I0J-140000D01*
G01*
X43435000Y-138500000D01*
G75*
G02*
X43295000Y-138640000I-140000J0D01*
G01*
X42955000Y-138640000D01*
G75*
G02*
X42815000Y-138500000I0J140000D01*
G01*
X42815000Y-138220000D01*
G75*
G02*
X42955000Y-138080000I140000J0D01*
G01*
G37*
%TD.AperFunction*%
%TD*%
%TO.P,C6,1*%
%TO.N,/PWR_OUT*%
%TA.AperFunction,SMDPad,CuDef*%
G36*
G01*
X25300000Y-136050000D02*
X25300000Y-136550000D01*
G75*
G02*
X25075000Y-136775000I-225000J0D01*
G01*
X24625000Y-136775000D01*
G75*
G02*
X24400000Y-136550000I0J225000D01*
G01*
X24400000Y-136050000D01*
G75*
G02*
X24625000Y-135825000I225000J0D01*
G01*
X25075000Y-135825000D01*
G75*
G02*
X25300000Y-136050000I0J-225000D01*
G01*
G37*
%TD.AperFunction*%
%TO.P,C6,2*%
%TO.N,GND*%
%TA.AperFunction,SMDPad,CuDef*%
G36*
G01*
X23750000Y-136050000D02*
X23750000Y-136550000D01*
G75*
G02*
X23525000Y-136775000I-225000J0D01*
G01*
X23075000Y-136775000D01*
G75*
G02*
X22850000Y-136550000I0J225000D01*
G01*
X22850000Y-136050000D01*
G75*
G02*
X23075000Y-135825000I225000J0D01*
G01*
X23525000Y-135825000D01*
G75*
G02*
X23750000Y-136050000I0J-225000D01*
G01*
G37*
%TD.AperFunction*%
%TD*%
%TO.P,C7,2*%
%TO.N,GND*%
%TA.AperFunction,SMDPad,CuDef*%
G36*
G01*
X27500000Y-139925002D02*
X27500000Y-138074998D01*
G75*
G02*
X27749998Y-137825000I249998J0D01*
G01*
X28575002Y-137825000D01*
G75*
G02*
X28825000Y-138074998I0J-249998D01*
G01*
X28825000Y-139925002D01*
G75*
G02*
X28575002Y-140175000I-249998J0D01*
G01*
X27749998Y-140175000D01*
G75*
G02*
X27500000Y-139925002I0J249998D01*
G01*
G37*
%TD.AperFunction*%
%TO.P,C7,1*%
%TO.N,/PWR_OUT*%
%TA.AperFunction,SMDPad,CuDef*%
G36*
G01*
X24425000Y-139925002D02*
X24425000Y-138074998D01*
G75*
G02*
X24674998Y-137825000I249998J0D01*
G01*
X25500002Y-137825000D01*
G75*
G02*
X25750000Y-138074998I0J-249998D01*
G01*
X25750000Y-139925002D01*
G75*
G02*
X25500002Y-140175000I-249998J0D01*
G01*
X24674998Y-140175000D01*
G75*
G02*
X24425000Y-139925002I0J249998D01*
G01*
G37*
%TD.AperFunction*%
%TD*%
%TO.P,C8,2*%
%TO.N,Net-(C8-Pad2)*%
%TA.AperFunction,SMDPad,CuDef*%
G36*
G01*
X48350000Y-138075000D02*
X47850000Y-138075000D01*
G75*
G02*
X47625000Y-137850000I0J225000D01*
G01*
X47625000Y-137400000D01*
G75*
G02*
X47850000Y-137175000I225000J0D01*
G01*
X48350000Y-137175000D01*
G75*
G02*
X48575000Y-137400000I0J-225000D01*
G01*
X48575000Y-137850000D01*
G75*
G02*
X48350000Y-138075000I-225000J0D01*
G01*
G37*
%TD.AperFunction*%
%TO.P,C8,1*%
%TO.N,+5V*%
%TA.AperFunction,SMDPad,CuDef*%
G36*
G01*
X48350000Y-139625000D02*
X47850000Y-139625000D01*
G75*
G02*
X47625000Y-139400000I0J225000D01*
G01*
X47625000Y-138950000D01*
G75*
G02*
X47850000Y-138725000I225000J0D01*
G01*
X48350000Y-138725000D01*
G75*
G02*
X48575000Y-138950000I0J-225000D01*
G01*
X48575000Y-139400000D01*
G75*
G02*
X48350000Y-139625000I-225000J0D01*
G01*
G37*
%TD.AperFunction*%
%TD*%
%TO.P,C9,2*%
%TO.N,GND*%
%TA.AperFunction,SMDPad,CuDef*%
G36*
G01*
X26750000Y-147450000D02*
X26750000Y-147950000D01*
G75*
G02*
X26525000Y-148175000I-225000J0D01*
G01*
X26075000Y-148175000D01*
G75*
G02*
X25850000Y-147950000I0J225000D01*
G01*
X25850000Y-147450000D01*
G75*
G02*
X26075000Y-147225000I225000J0D01*
G01*
X26525000Y-147225000D01*
G75*
G02*
X26750000Y-147450000I0J-225000D01*
G01*
G37*
%TD.AperFunction*%
%TO.P,C9,1*%
%TO.N,vbat+*%
%TA.AperFunction,SMDPad,CuDef*%
G36*
G01*
X28300000Y-147450000D02*
X28300000Y-147950000D01*
G75*
G02*
X28075000Y-148175000I-225000J0D01*
G01*
X27625000Y-148175000D01*
G75*
G02*
X27400000Y-147950000I0J225000D01*
G01*
X27400000Y-147450000D01*
G75*
G02*
X27625000Y-147225000I225000J0D01*
G01*
X28075000Y-147225000D01*
G75*
G02*
X28300000Y-147450000I0J-225000D01*
G01*
G37*
%TD.AperFunction*%
%TD*%
%TO.P,C10,1*%
%TO.N,+5V*%
%TA.AperFunction,SMDPad,CuDef*%
G36*
G01*
X39480000Y-134885000D02*
X39820000Y-134885000D01*
G75*
G02*
X39960000Y-135025000I0J-140000D01*
G01*
X39960000Y-135305000D01*
G75*
G02*
X39820000Y-135445000I-140000J0D01*
G01*
X39480000Y-135445000D01*
G75*
G02*
X39340000Y-135305000I0J140000D01*
G01*
X39340000Y-135025000D01*
G75*
G02*
X39480000Y-134885000I140000J0D01*
G01*
G37*
%TD.AperFunction*%
%TO.P,C10,2*%
%TO.N,GND*%
%TA.AperFunction,SMDPad,CuDef*%
G36*
G01*
X39480000Y-135845000D02*
X39820000Y-135845000D01*
G75*
G02*
X39960000Y-135985000I0J-140000D01*
G01*
X39960000Y-136265000D01*
G75*
G02*
X39820000Y-136405000I-140000J0D01*
G01*
X39480000Y-136405000D01*
G75*
G02*
X39340000Y-136265000I0J140000D01*
G01*
X39340000Y-135985000D01*
G75*
G02*
X39480000Y-135845000I140000J0D01*
G01*
G37*
%TD.AperFunction*%
%TD*%
%TO.P,C11,1*%
%TO.N,/VBAT_OUT*%
%TA.AperFunction,SMDPad,CuDef*%
G36*
G01*
X33650000Y-147625000D02*
X33650000Y-147125000D01*
G75*
G02*
X33875000Y-146900000I225000J0D01*
G01*
X34325000Y-146900000D01*
G75*
G02*
X34550000Y-147125000I0J-225000D01*
G01*
X34550000Y-147625000D01*
G75*
G02*
X34325000Y-147850000I-225000J0D01*
G01*
X33875000Y-147850000D01*
G75*
G02*
X33650000Y-147625000I0J225000D01*
G01*
G37*
%TD.AperFunction*%
%TO.P,C11,2*%
%TO.N,GND*%
%TA.AperFunction,SMDPad,CuDef*%
G36*
G01*
X35200000Y-147625000D02*
X35200000Y-147125000D01*
G75*
G02*
X35425000Y-146900000I225000J0D01*
G01*
X35875000Y-146900000D01*
G75*
G02*
X36100000Y-147125000I0J-225000D01*
G01*
X36100000Y-147625000D01*
G75*
G02*
X35875000Y-147850000I-225000J0D01*
G01*
X35425000Y-147850000D01*
G75*
G02*
X35200000Y-147625000I0J225000D01*
G01*
G37*
%TD.AperFunction*%
%TD*%
%TO.P,C12,2*%
%TO.N,GND*%
%TA.AperFunction,SMDPad,CuDef*%
G36*
G01*
X37755000Y-135930000D02*
X38095000Y-135930000D01*
G75*
G02*
X38235000Y-136070000I0J-140000D01*
G01*
X38235000Y-136350000D01*
G75*
G02*
X38095000Y-136490000I-140000J0D01*
G01*
X37755000Y-136490000D01*
G75*
G02*
X37615000Y-136350000I0J140000D01*
G01*
X37615000Y-136070000D01*
G75*
G02*
X37755000Y-135930000I140000J0D01*
G01*
G37*
%TD.AperFunction*%
%TO.P,C12,1*%
%TO.N,+5V*%
%TA.AperFunction,SMDPad,CuDef*%
G36*
G01*
X37755000Y-134970000D02*
X38095000Y-134970000D01*
G75*
G02*
X38235000Y-135110000I0J-140000D01*
G01*
X38235000Y-135390000D01*
G75*
G02*
X38095000Y-135530000I-140000J0D01*
G01*
X37755000Y-135530000D01*
G75*
G02*
X37615000Y-135390000I0J140000D01*
G01*
X37615000Y-135110000D01*
G75*
G02*
X37755000Y-134970000I140000J0D01*
G01*
G37*
%TD.AperFunction*%
%TD*%
%TO.P,C13,1*%
%TO.N,+5V*%
%TA.AperFunction,SMDPad,CuDef*%
G36*
G01*
X37095000Y-134115000D02*
X36755000Y-134115000D01*
G75*
G02*
X36615000Y-133975000I0J140000D01*
G01*
X36615000Y-133695000D01*
G75*
G02*
X36755000Y-133555000I140000J0D01*
G01*
X37095000Y-133555000D01*
G75*
G02*
X37235000Y-133695000I0J-140000D01*
G01*
X37235000Y-133975000D01*
G75*
G02*
X37095000Y-134115000I-140000J0D01*
G01*
G37*
%TD.AperFunction*%
%TO.P,C13,2*%
%TO.N,GND*%
%TA.AperFunction,SMDPad,CuDef*%
G36*
G01*
X37095000Y-133155000D02*
X36755000Y-133155000D01*
G75*
G02*
X36615000Y-133015000I0J140000D01*
G01*
X36615000Y-132735000D01*
G75*
G02*
X36755000Y-132595000I140000J0D01*
G01*
X37095000Y-132595000D01*
G75*
G02*
X37235000Y-132735000I0J-140000D01*
G01*
X37235000Y-133015000D01*
G75*
G02*
X37095000Y-133155000I-140000J0D01*
G01*
G37*
%TD.AperFunction*%
%TD*%
%TO.P,C14,2*%
%TO.N,GND*%
%TA.AperFunction,SMDPad,CuDef*%
G36*
G01*
X38470000Y-133130000D02*
X38130000Y-133130000D01*
G75*
G02*
X37990000Y-132990000I0J140000D01*
G01*
X37990000Y-132710000D01*
G75*
G02*
X38130000Y-132570000I140000J0D01*
G01*
X38470000Y-132570000D01*
G75*
G02*
X38610000Y-132710000I0J-140000D01*
G01*
X38610000Y-132990000D01*
G75*
G02*
X38470000Y-133130000I-140000J0D01*
G01*
G37*
%TD.AperFunction*%
%TO.P,C14,1*%
%TO.N,+5V*%
%TA.AperFunction,SMDPad,CuDef*%
G36*
G01*
X38470000Y-134090000D02*
X38130000Y-134090000D01*
G75*
G02*
X37990000Y-133950000I0J140000D01*
G01*
X37990000Y-133670000D01*
G75*
G02*
X38130000Y-133530000I140000J0D01*
G01*
X38470000Y-133530000D01*
G75*
G02*
X38610000Y-133670000I0J-140000D01*
G01*
X38610000Y-133950000D01*
G75*
G02*
X38470000Y-134090000I-140000J0D01*
G01*
G37*
%TD.AperFunction*%
%TD*%
%TO.P,C15,1*%
%TO.N,+5V*%
%TA.AperFunction,SMDPad,CuDef*%
G36*
G01*
X39770000Y-134115000D02*
X39430000Y-134115000D01*
G75*
G02*
X39290000Y-133975000I0J140000D01*
G01*
X39290000Y-133695000D01*
G75*
G02*
X39430000Y-133555000I140000J0D01*
G01*
X39770000Y-133555000D01*
G75*
G02*
X39910000Y-133695000I0J-140000D01*
G01*
X39910000Y-133975000D01*
G75*
G02*
X39770000Y-134115000I-140000J0D01*
G01*
G37*
%TD.AperFunction*%
%TO.P,C15,2*%
%TO.N,GND*%
%TA.AperFunction,SMDPad,CuDef*%
G36*
G01*
X39770000Y-133155000D02*
X39430000Y-133155000D01*
G75*
G02*
X39290000Y-133015000I0J140000D01*
G01*
X39290000Y-132735000D01*
G75*
G02*
X39430000Y-132595000I140000J0D01*
G01*
X39770000Y-132595000D01*
G75*
G02*
X39910000Y-132735000I0J-140000D01*
G01*
X39910000Y-133015000D01*
G75*
G02*
X39770000Y-133155000I-140000J0D01*
G01*
G37*
%TD.AperFunction*%
%TD*%
%TO.P,C16,1*%
%TO.N,+5V*%
%TA.AperFunction,SMDPad,CuDef*%
G36*
G01*
X33774998Y-135737500D02*
X35625002Y-135737500D01*
G75*
G02*
X35875000Y-135987498I0J-249998D01*
G01*
X35875000Y-136812502D01*
G75*
G02*
X35625002Y-137062500I-249998J0D01*
G01*
X33774998Y-137062500D01*
G75*
G02*
X33525000Y-136812502I0J249998D01*
G01*
X33525000Y-135987498D01*
G75*
G02*
X33774998Y-135737500I249998J0D01*
G01*
G37*
%TD.AperFunction*%
%TO.P,C16,2*%
%TO.N,GND*%
%TA.AperFunction,SMDPad,CuDef*%
G36*
G01*
X33774998Y-138812500D02*
X35625002Y-138812500D01*
G75*
G02*
X35875000Y-139062498I0J-249998D01*
G01*
X35875000Y-139887502D01*
G75*
G02*
X35625002Y-140137500I-249998J0D01*
G01*
X33774998Y-140137500D01*
G75*
G02*
X33525000Y-139887502I0J249998D01*
G01*
X33525000Y-139062498D01*
G75*
G02*
X33774998Y-138812500I249998J0D01*
G01*
G37*
%TD.AperFunction*%
%TD*%
%TO.P,C17,1*%
%TO.N,+5V*%
%TA.AperFunction,SMDPad,CuDef*%
G36*
G01*
X37250000Y-139575002D02*
X37250000Y-137724998D01*
G75*
G02*
X37499998Y-137475000I249998J0D01*
G01*
X38325002Y-137475000D01*
G75*
G02*
X38575000Y-137724998I0J-249998D01*
G01*
X38575000Y-139575002D01*
G75*
G02*
X38325002Y-139825000I-249998J0D01*
G01*
X37499998Y-139825000D01*
G75*
G02*
X37250000Y-139575002I0J249998D01*
G01*
G37*
%TD.AperFunction*%
%TO.P,C17,2*%
%TO.N,GND*%
%TA.AperFunction,SMDPad,CuDef*%
G36*
G01*
X40325000Y-139575002D02*
X40325000Y-137724998D01*
G75*
G02*
X40574998Y-137475000I249998J0D01*
G01*
X41400002Y-137475000D01*
G75*
G02*
X41650000Y-137724998I0J-249998D01*
G01*
X41650000Y-139575002D01*
G75*
G02*
X41400002Y-139825000I-249998J0D01*
G01*
X40574998Y-139825000D01*
G75*
G02*
X40325000Y-139575002I0J249998D01*
G01*
G37*
%TD.AperFunction*%
%TD*%
%TO.P,C18,1*%
%TO.N,+3V3*%
%TA.AperFunction,SMDPad,CuDef*%
G36*
G01*
X43810000Y-144105000D02*
X43810000Y-144445000D01*
G75*
G02*
X43670000Y-144585000I-140000J0D01*
G01*
X43390000Y-144585000D01*
G75*
G02*
X43250000Y-144445000I0J140000D01*
G01*
X43250000Y-144105000D01*
G75*
G02*
X43390000Y-143965000I140000J0D01*
G01*
X43670000Y-143965000D01*
G75*
G02*
X43810000Y-144105000I0J-140000D01*
G01*
G37*
%TD.AperFunction*%
%TO.P,C18,2*%
%TO.N,GND*%
%TA.AperFunction,SMDPad,CuDef*%
G36*
G01*
X42850000Y-144105000D02*
X42850000Y-144445000D01*
G75*
G02*
X42710000Y-144585000I-140000J0D01*
G01*
X42430000Y-144585000D01*
G75*
G02*
X42290000Y-144445000I0J140000D01*
G01*
X42290000Y-144105000D01*
G75*
G02*
X42430000Y-143965000I140000J0D01*
G01*
X42710000Y-143965000D01*
G75*
G02*
X42850000Y-144105000I0J-140000D01*
G01*
G37*
%TD.AperFunction*%
%TD*%
%TO.P,C19,2*%
%TO.N,GND*%
%TA.AperFunction,SMDPad,CuDef*%
G36*
G01*
X51420000Y-144975000D02*
X51080000Y-144975000D01*
G75*
G02*
X50940000Y-144835000I0J140000D01*
G01*
X50940000Y-144555000D01*
G75*
G02*
X51080000Y-144415000I140000J0D01*
G01*
X51420000Y-144415000D01*
G75*
G02*
X51560000Y-144555000I0J-140000D01*
G01*
X51560000Y-144835000D01*
G75*
G02*
X51420000Y-144975000I-140000J0D01*
G01*
G37*
%TD.AperFunction*%
%TO.P,C19,1*%
%TO.N,+3V3*%
%TA.AperFunction,SMDPad,CuDef*%
G36*
G01*
X51420000Y-145935000D02*
X51080000Y-145935000D01*
G75*
G02*
X50940000Y-145795000I0J140000D01*
G01*
X50940000Y-145515000D01*
G75*
G02*
X51080000Y-145375000I140000J0D01*
G01*
X51420000Y-145375000D01*
G75*
G02*
X51560000Y-145515000I0J-140000D01*
G01*
X51560000Y-145795000D01*
G75*
G02*
X51420000Y-145935000I-140000J0D01*
G01*
G37*
%TD.AperFunction*%
%TD*%
%TO.P,C20,2*%
%TO.N,GND*%
%TA.AperFunction,SMDPad,CuDef*%
G36*
G01*
X42830000Y-145180000D02*
X42830000Y-145520000D01*
G75*
G02*
X42690000Y-145660000I-140000J0D01*
G01*
X42410000Y-145660000D01*
G75*
G02*
X42270000Y-145520000I0J140000D01*
G01*
X42270000Y-145180000D01*
G75*
G02*
X42410000Y-145040000I140000J0D01*
G01*
X42690000Y-145040000D01*
G75*
G02*
X42830000Y-145180000I0J-140000D01*
G01*
G37*
%TD.AperFunction*%
%TO.P,C20,1*%
%TO.N,+3V3*%
%TA.AperFunction,SMDPad,CuDef*%
G36*
G01*
X43790000Y-145180000D02*
X43790000Y-145520000D01*
G75*
G02*
X43650000Y-145660000I-140000J0D01*
G01*
X43370000Y-145660000D01*
G75*
G02*
X43230000Y-145520000I0J140000D01*
G01*
X43230000Y-145180000D01*
G75*
G02*
X43370000Y-145040000I140000J0D01*
G01*
X43650000Y-145040000D01*
G75*
G02*
X43790000Y-145180000I0J-140000D01*
G01*
G37*
%TD.AperFunction*%
%TD*%
%TO.P,C21,1*%
%TO.N,/controller/XTAL1*%
%TA.AperFunction,SMDPad,CuDef*%
G36*
G01*
X41210000Y-145430000D02*
X41210000Y-145770000D01*
G75*
G02*
X41070000Y-145910000I-140000J0D01*
G01*
X40790000Y-145910000D01*
G75*
G02*
X40650000Y-145770000I0J140000D01*
G01*
X40650000Y-145430000D01*
G75*
G02*
X40790000Y-145290000I140000J0D01*
G01*
X41070000Y-145290000D01*
G75*
G02*
X41210000Y-145430000I0J-140000D01*
G01*
G37*
%TD.AperFunction*%
%TO.P,C21,2*%
%TO.N,GND*%
%TA.AperFunction,SMDPad,CuDef*%
G36*
G01*
X40250000Y-145430000D02*
X40250000Y-145770000D01*
G75*
G02*
X40110000Y-145910000I-140000J0D01*
G01*
X39830000Y-145910000D01*
G75*
G02*
X39690000Y-145770000I0J140000D01*
G01*
X39690000Y-145430000D01*
G75*
G02*
X39830000Y-145290000I140000J0D01*
G01*
X40110000Y-145290000D01*
G75*
G02*
X40250000Y-145430000I0J-140000D01*
G01*
G37*
%TD.AperFunction*%
%TD*%
%TO.P,C22,2*%
%TO.N,GND*%
%TA.AperFunction,SMDPad,CuDef*%
G36*
G01*
X39095000Y-148420000D02*
X38755000Y-148420000D01*
G75*
G02*
X38615000Y-148280000I0J140000D01*
G01*
X38615000Y-148000000D01*
G75*
G02*
X38755000Y-147860000I140000J0D01*
G01*
X39095000Y-147860000D01*
G75*
G02*
X39235000Y-148000000I0J-140000D01*
G01*
X39235000Y-148280000D01*
G75*
G02*
X39095000Y-148420000I-140000J0D01*
G01*
G37*
%TD.AperFunction*%
%TO.P,C22,1*%
%TO.N,/controller/XTAL2*%
%TA.AperFunction,SMDPad,CuDef*%
G36*
G01*
X39095000Y-149380000D02*
X38755000Y-149380000D01*
G75*
G02*
X38615000Y-149240000I0J140000D01*
G01*
X38615000Y-148960000D01*
G75*
G02*
X38755000Y-148820000I140000J0D01*
G01*
X39095000Y-148820000D01*
G75*
G02*
X39235000Y-148960000I0J-140000D01*
G01*
X39235000Y-149240000D01*
G75*
G02*
X39095000Y-149380000I-140000J0D01*
G01*
G37*
%TD.AperFunction*%
%TD*%
D10*
%TO.P,D1,1*%
%TO.N,/PWR_OUT*%
X22925000Y-144075000D03*
%TO.P,D1,2*%
%TO.N,VBUS*%
X22925000Y-141975000D03*
%TD*%
%TO.P,D2,1*%
%TO.N,/~PGOOD*%
%TA.AperFunction,SMDPad,CuDef*%
G36*
G01*
X20700000Y-141843750D02*
X20700000Y-142356250D01*
G75*
G02*
X20481250Y-142575000I-218750J0D01*
G01*
X20043750Y-142575000D01*
G75*
G02*
X19825000Y-142356250I0J218750D01*
G01*
X19825000Y-141843750D01*
G75*
G02*
X20043750Y-141625000I218750J0D01*
G01*
X20481250Y-141625000D01*
G75*
G02*
X20700000Y-141843750I0J-218750D01*
G01*
G37*
%TD.AperFunction*%
%TO.P,D2,2*%
%TO.N,Net-(D2-Pad2)*%
%TA.AperFunction,SMDPad,CuDef*%
G36*
G01*
X19125000Y-141843750D02*
X19125000Y-142356250D01*
G75*
G02*
X18906250Y-142575000I-218750J0D01*
G01*
X18468750Y-142575000D01*
G75*
G02*
X18250000Y-142356250I0J218750D01*
G01*
X18250000Y-141843750D01*
G75*
G02*
X18468750Y-141625000I218750J0D01*
G01*
X18906250Y-141625000D01*
G75*
G02*
X19125000Y-141843750I0J-218750D01*
G01*
G37*
%TD.AperFunction*%
%TD*%
%TO.P,D3,2*%
%TO.N,Net-(D3-Pad2)*%
%TA.AperFunction,SMDPad,CuDef*%
G36*
G01*
X19275000Y-144468750D02*
X19275000Y-144981250D01*
G75*
G02*
X19056250Y-145200000I-218750J0D01*
G01*
X18618750Y-145200000D01*
G75*
G02*
X18400000Y-144981250I0J218750D01*
G01*
X18400000Y-144468750D01*
G75*
G02*
X18618750Y-144250000I218750J0D01*
G01*
X19056250Y-144250000D01*
G75*
G02*
X19275000Y-144468750I0J-218750D01*
G01*
G37*
%TD.AperFunction*%
%TO.P,D3,1*%
%TO.N,/~CHRG*%
%TA.AperFunction,SMDPad,CuDef*%
G36*
G01*
X20850000Y-144468750D02*
X20850000Y-144981250D01*
G75*
G02*
X20631250Y-145200000I-218750J0D01*
G01*
X20193750Y-145200000D01*
G75*
G02*
X19975000Y-144981250I0J218750D01*
G01*
X19975000Y-144468750D01*
G75*
G02*
X20193750Y-144250000I218750J0D01*
G01*
X20631250Y-144250000D01*
G75*
G02*
X20850000Y-144468750I0J-218750D01*
G01*
G37*
%TD.AperFunction*%
%TD*%
D11*
%TO.P,J1,6*%
%TO.N,GND*%
X13462500Y-138050000D03*
D12*
X16162500Y-134550000D03*
D13*
%TO.P,J1,2*%
%TO.N,N/C*%
X16162500Y-136400000D03*
%TO.P,J1,1*%
%TO.N,VBUS*%
X16162500Y-135750000D03*
%TO.P,J1,5*%
%TO.N,GND*%
X16162500Y-138350000D03*
%TO.P,J1,4*%
%TO.N,N/C*%
X16162500Y-137700000D03*
%TO.P,J1,3*%
X16162500Y-137050000D03*
D12*
%TO.P,J1,6*%
%TO.N,GND*%
X16162500Y-139550000D03*
D11*
X13462500Y-136050000D03*
D14*
X13462500Y-133550000D03*
X13462500Y-140550000D03*
D15*
X13462500Y-139950000D03*
X13462500Y-134150000D03*
%TD*%
%TO.P,J2,1*%
%TO.N,/controller/HEATER_+VE*%
%TA.AperFunction,ComponentPad*%
G36*
G01*
X25350000Y-128450000D02*
X25350000Y-127000000D01*
G75*
G02*
X25600000Y-126750000I250000J0D01*
G01*
X26800000Y-126750000D01*
G75*
G02*
X27050000Y-127000000I0J-250000D01*
G01*
X27050000Y-128450000D01*
G75*
G02*
X26800000Y-128700000I-250000J0D01*
G01*
X25600000Y-128700000D01*
G75*
G02*
X25350000Y-128450000I0J250000D01*
G01*
G37*
%TD.AperFunction*%
D16*
%TO.P,J2,2*%
%TO.N,GND*%
X28700000Y-127725000D03*
%TO.P,J2,3*%
%TO.N,/controller/RTD_+VE*%
X31200000Y-127725000D03*
%TO.P,J2,4*%
%TO.N,GND*%
X33700000Y-127725000D03*
%TD*%
D17*
%TO.P,Q1,1*%
%TO.N,VBUS*%
X24900000Y-141925000D03*
%TO.P,Q1,2*%
%TO.N,/PWR_OUT*%
X24900000Y-143825000D03*
%TO.P,Q1,3*%
%TO.N,/VBAT_OUT*%
X26900000Y-142875000D03*
%TD*%
D18*
%TO.P,Q2,3*%
%TO.N,+5V*%
X28700000Y-132475000D03*
%TO.P,Q2,2*%
%TO.N,/controller/HEATER_+VE*%
X29650000Y-134475000D03*
%TO.P,Q2,1*%
%TO.N,Net-(Q2-Pad1)*%
X27750000Y-134475000D03*
%TD*%
%TO.P,R1,2*%
%TO.N,GND*%
%TA.AperFunction,SMDPad,CuDef*%
G36*
G01*
X31175000Y-141950000D02*
X30625000Y-141950000D01*
G75*
G02*
X30425000Y-141750000I0J200000D01*
G01*
X30425000Y-141350000D01*
G75*
G02*
X30625000Y-141150000I200000J0D01*
G01*
X31175000Y-141150000D01*
G75*
G02*
X31375000Y-141350000I0J-200000D01*
G01*
X31375000Y-141750000D01*
G75*
G02*
X31175000Y-141950000I-200000J0D01*
G01*
G37*
%TD.AperFunction*%
%TO.P,R1,1*%
%TO.N,Net-(R1-Pad1)*%
%TA.AperFunction,SMDPad,CuDef*%
G36*
G01*
X31175000Y-143600000D02*
X30625000Y-143600000D01*
G75*
G02*
X30425000Y-143400000I0J200000D01*
G01*
X30425000Y-143000000D01*
G75*
G02*
X30625000Y-142800000I200000J0D01*
G01*
X31175000Y-142800000D01*
G75*
G02*
X31375000Y-143000000I0J-200000D01*
G01*
X31375000Y-143400000D01*
G75*
G02*
X31175000Y-143600000I-200000J0D01*
G01*
G37*
%TD.AperFunction*%
%TD*%
%TO.P,R2,2*%
%TO.N,GND*%
%TA.AperFunction,SMDPad,CuDef*%
G36*
G01*
X35275000Y-145775000D02*
X35275000Y-145225000D01*
G75*
G02*
X35475000Y-145025000I200000J0D01*
G01*
X35875000Y-145025000D01*
G75*
G02*
X36075000Y-145225000I0J-200000D01*
G01*
X36075000Y-145775000D01*
G75*
G02*
X35875000Y-145975000I-200000J0D01*
G01*
X35475000Y-145975000D01*
G75*
G02*
X35275000Y-145775000I0J200000D01*
G01*
G37*
%TD.AperFunction*%
%TO.P,R2,1*%
%TO.N,Net-(R2-Pad1)*%
%TA.AperFunction,SMDPad,CuDef*%
G36*
G01*
X33625000Y-145775000D02*
X33625000Y-145225000D01*
G75*
G02*
X33825000Y-145025000I200000J0D01*
G01*
X34225000Y-145025000D01*
G75*
G02*
X34425000Y-145225000I0J-200000D01*
G01*
X34425000Y-145775000D01*
G75*
G02*
X34225000Y-145975000I-200000J0D01*
G01*
X33825000Y-145975000D01*
G75*
G02*
X33625000Y-145775000I0J200000D01*
G01*
G37*
%TD.AperFunction*%
%TD*%
%TO.P,R3,1*%
%TO.N,Net-(R3-Pad1)*%
%TA.AperFunction,SMDPad,CuDef*%
G36*
G01*
X29225000Y-143600000D02*
X28675000Y-143600000D01*
G75*
G02*
X28475000Y-143400000I0J200000D01*
G01*
X28475000Y-143000000D01*
G75*
G02*
X28675000Y-142800000I200000J0D01*
G01*
X29225000Y-142800000D01*
G75*
G02*
X29425000Y-143000000I0J-200000D01*
G01*
X29425000Y-143400000D01*
G75*
G02*
X29225000Y-143600000I-200000J0D01*
G01*
G37*
%TD.AperFunction*%
%TO.P,R3,2*%
%TO.N,GND*%
%TA.AperFunction,SMDPad,CuDef*%
G36*
G01*
X29225000Y-141950000D02*
X28675000Y-141950000D01*
G75*
G02*
X28475000Y-141750000I0J200000D01*
G01*
X28475000Y-141350000D01*
G75*
G02*
X28675000Y-141150000I200000J0D01*
G01*
X29225000Y-141150000D01*
G75*
G02*
X29425000Y-141350000I0J-200000D01*
G01*
X29425000Y-141750000D01*
G75*
G02*
X29225000Y-141950000I-200000J0D01*
G01*
G37*
%TD.AperFunction*%
%TD*%
%TO.P,R5,2*%
%TO.N,GND*%
%TA.AperFunction,SMDPad,CuDef*%
G36*
G01*
X26650000Y-145700000D02*
X26650000Y-146250000D01*
G75*
G02*
X26450000Y-146450000I-200000J0D01*
G01*
X26050000Y-146450000D01*
G75*
G02*
X25850000Y-146250000I0J200000D01*
G01*
X25850000Y-145700000D01*
G75*
G02*
X26050000Y-145500000I200000J0D01*
G01*
X26450000Y-145500000D01*
G75*
G02*
X26650000Y-145700000I0J-200000D01*
G01*
G37*
%TD.AperFunction*%
%TO.P,R5,1*%
%TO.N,Net-(R5-Pad1)*%
%TA.AperFunction,SMDPad,CuDef*%
G36*
G01*
X28300000Y-145700000D02*
X28300000Y-146250000D01*
G75*
G02*
X28100000Y-146450000I-200000J0D01*
G01*
X27700000Y-146450000D01*
G75*
G02*
X27500000Y-146250000I0J200000D01*
G01*
X27500000Y-145700000D01*
G75*
G02*
X27700000Y-145500000I200000J0D01*
G01*
X28100000Y-145500000D01*
G75*
G02*
X28300000Y-145700000I0J-200000D01*
G01*
G37*
%TD.AperFunction*%
%TD*%
%TO.P,R6,1*%
%TO.N,+5V*%
%TA.AperFunction,SMDPad,CuDef*%
G36*
G01*
X46675000Y-139625000D02*
X46125000Y-139625000D01*
G75*
G02*
X45925000Y-139425000I0J200000D01*
G01*
X45925000Y-139025000D01*
G75*
G02*
X46125000Y-138825000I200000J0D01*
G01*
X46675000Y-138825000D01*
G75*
G02*
X46875000Y-139025000I0J-200000D01*
G01*
X46875000Y-139425000D01*
G75*
G02*
X46675000Y-139625000I-200000J0D01*
G01*
G37*
%TD.AperFunction*%
%TO.P,R6,2*%
%TO.N,Net-(C8-Pad2)*%
%TA.AperFunction,SMDPad,CuDef*%
G36*
G01*
X46675000Y-137975000D02*
X46125000Y-137975000D01*
G75*
G02*
X45925000Y-137775000I0J200000D01*
G01*
X45925000Y-137375000D01*
G75*
G02*
X46125000Y-137175000I200000J0D01*
G01*
X46675000Y-137175000D01*
G75*
G02*
X46875000Y-137375000I0J-200000D01*
G01*
X46875000Y-137775000D01*
G75*
G02*
X46675000Y-137975000I-200000J0D01*
G01*
G37*
%TD.AperFunction*%
%TD*%
%TO.P,R7,2*%
%TO.N,GND*%
%TA.AperFunction,SMDPad,CuDef*%
G36*
G01*
X44275000Y-138850000D02*
X44825000Y-138850000D01*
G75*
G02*
X45025000Y-139050000I0J-200000D01*
G01*
X45025000Y-139450000D01*
G75*
G02*
X44825000Y-139650000I-200000J0D01*
G01*
X44275000Y-139650000D01*
G75*
G02*
X44075000Y-139450000I0J200000D01*
G01*
X44075000Y-139050000D01*
G75*
G02*
X44275000Y-138850000I200000J0D01*
G01*
G37*
%TD.AperFunction*%
%TO.P,R7,1*%
%TO.N,Net-(C8-Pad2)*%
%TA.AperFunction,SMDPad,CuDef*%
G36*
G01*
X44275000Y-137200000D02*
X44825000Y-137200000D01*
G75*
G02*
X45025000Y-137400000I0J-200000D01*
G01*
X45025000Y-137800000D01*
G75*
G02*
X44825000Y-138000000I-200000J0D01*
G01*
X44275000Y-138000000D01*
G75*
G02*
X44075000Y-137800000I0J200000D01*
G01*
X44075000Y-137400000D01*
G75*
G02*
X44275000Y-137200000I200000J0D01*
G01*
G37*
%TD.AperFunction*%
%TD*%
%TO.P,R10,1*%
%TO.N,Net-(Q2-Pad1)*%
%TA.AperFunction,SMDPad,CuDef*%
G36*
G01*
X26115000Y-133485000D02*
X26485000Y-133485000D01*
G75*
G02*
X26620000Y-133620000I0J-135000D01*
G01*
X26620000Y-133890000D01*
G75*
G02*
X26485000Y-134025000I-135000J0D01*
G01*
X26115000Y-134025000D01*
G75*
G02*
X25980000Y-133890000I0J135000D01*
G01*
X25980000Y-133620000D01*
G75*
G02*
X26115000Y-133485000I135000J0D01*
G01*
G37*
%TD.AperFunction*%
%TO.P,R10,2*%
%TO.N,/controller/HEATER_PWM_PIN*%
%TA.AperFunction,SMDPad,CuDef*%
G36*
G01*
X26115000Y-134505000D02*
X26485000Y-134505000D01*
G75*
G02*
X26620000Y-134640000I0J-135000D01*
G01*
X26620000Y-134910000D01*
G75*
G02*
X26485000Y-135045000I-135000J0D01*
G01*
X26115000Y-135045000D01*
G75*
G02*
X25980000Y-134910000I0J135000D01*
G01*
X25980000Y-134640000D01*
G75*
G02*
X26115000Y-134505000I135000J0D01*
G01*
G37*
%TD.AperFunction*%
%TD*%
%TO.P,R11,1*%
%TO.N,/controller/RTD_+VE*%
%TA.AperFunction,SMDPad,CuDef*%
G36*
G01*
X30990000Y-132020000D02*
X31360000Y-132020000D01*
G75*
G02*
X31495000Y-132155000I0J-135000D01*
G01*
X31495000Y-132425000D01*
G75*
G02*
X31360000Y-132560000I-135000J0D01*
G01*
X30990000Y-132560000D01*
G75*
G02*
X30855000Y-132425000I0J135000D01*
G01*
X30855000Y-132155000D01*
G75*
G02*
X30990000Y-132020000I135000J0D01*
G01*
G37*
%TD.AperFunction*%
%TO.P,R11,2*%
%TO.N,+5V*%
%TA.AperFunction,SMDPad,CuDef*%
G36*
G01*
X30990000Y-133040000D02*
X31360000Y-133040000D01*
G75*
G02*
X31495000Y-133175000I0J-135000D01*
G01*
X31495000Y-133445000D01*
G75*
G02*
X31360000Y-133580000I-135000J0D01*
G01*
X30990000Y-133580000D01*
G75*
G02*
X30855000Y-133445000I0J135000D01*
G01*
X30855000Y-133175000D01*
G75*
G02*
X30990000Y-133040000I135000J0D01*
G01*
G37*
%TD.AperFunction*%
%TD*%
%TO.P,R13,2*%
%TO.N,Net-(R13-Pad2)*%
%TA.AperFunction,SMDPad,CuDef*%
G36*
G01*
X19765000Y-131305000D02*
X20135000Y-131305000D01*
G75*
G02*
X20270000Y-131440000I0J-135000D01*
G01*
X20270000Y-131710000D01*
G75*
G02*
X20135000Y-131845000I-135000J0D01*
G01*
X19765000Y-131845000D01*
G75*
G02*
X19630000Y-131710000I0J135000D01*
G01*
X19630000Y-131440000D01*
G75*
G02*
X19765000Y-131305000I135000J0D01*
G01*
G37*
%TD.AperFunction*%
%TO.P,R13,1*%
%TO.N,/controller/LED_RED*%
%TA.AperFunction,SMDPad,CuDef*%
G36*
G01*
X19765000Y-130285000D02*
X20135000Y-130285000D01*
G75*
G02*
X20270000Y-130420000I0J-135000D01*
G01*
X20270000Y-130690000D01*
G75*
G02*
X20135000Y-130825000I-135000J0D01*
G01*
X19765000Y-130825000D01*
G75*
G02*
X19630000Y-130690000I0J135000D01*
G01*
X19630000Y-130420000D01*
G75*
G02*
X19765000Y-130285000I135000J0D01*
G01*
G37*
%TD.AperFunction*%
%TD*%
%TO.P,R14,1*%
%TO.N,/controller/LED_GREEN*%
%TA.AperFunction,SMDPad,CuDef*%
G36*
G01*
X20940000Y-130230000D02*
X21310000Y-130230000D01*
G75*
G02*
X21445000Y-130365000I0J-135000D01*
G01*
X21445000Y-130635000D01*
G75*
G02*
X21310000Y-130770000I-135000J0D01*
G01*
X20940000Y-130770000D01*
G75*
G02*
X20805000Y-130635000I0J135000D01*
G01*
X20805000Y-130365000D01*
G75*
G02*
X20940000Y-130230000I135000J0D01*
G01*
G37*
%TD.AperFunction*%
%TO.P,R14,2*%
%TO.N,Net-(R14-Pad2)*%
%TA.AperFunction,SMDPad,CuDef*%
G36*
G01*
X20940000Y-131250000D02*
X21310000Y-131250000D01*
G75*
G02*
X21445000Y-131385000I0J-135000D01*
G01*
X21445000Y-131655000D01*
G75*
G02*
X21310000Y-131790000I-135000J0D01*
G01*
X20940000Y-131790000D01*
G75*
G02*
X20805000Y-131655000I0J135000D01*
G01*
X20805000Y-131385000D01*
G75*
G02*
X20940000Y-131250000I135000J0D01*
G01*
G37*
%TD.AperFunction*%
%TD*%
%TO.P,R15,2*%
%TO.N,Net-(R15-Pad2)*%
%TA.AperFunction,SMDPad,CuDef*%
G36*
G01*
X22165000Y-131265000D02*
X22535000Y-131265000D01*
G75*
G02*
X22670000Y-131400000I0J-135000D01*
G01*
X22670000Y-131670000D01*
G75*
G02*
X22535000Y-131805000I-135000J0D01*
G01*
X22165000Y-131805000D01*
G75*
G02*
X22030000Y-131670000I0J135000D01*
G01*
X22030000Y-131400000D01*
G75*
G02*
X22165000Y-131265000I135000J0D01*
G01*
G37*
%TD.AperFunction*%
%TO.P,R15,1*%
%TO.N,/controller/LED_BLUE*%
%TA.AperFunction,SMDPad,CuDef*%
G36*
G01*
X22165000Y-130245000D02*
X22535000Y-130245000D01*
G75*
G02*
X22670000Y-130380000I0J-135000D01*
G01*
X22670000Y-130650000D01*
G75*
G02*
X22535000Y-130785000I-135000J0D01*
G01*
X22165000Y-130785000D01*
G75*
G02*
X22030000Y-130650000I0J135000D01*
G01*
X22030000Y-130380000D01*
G75*
G02*
X22165000Y-130245000I135000J0D01*
G01*
G37*
%TD.AperFunction*%
%TD*%
D19*
%TO.P,P_OUT,1*%
%TO.N,/PWR_OUT*%
X20575000Y-137475000D03*
%TD*%
%TO.P,GND,1*%
%TO.N,GND*%
X20650000Y-134850000D03*
%TD*%
%TO.P,GND,1*%
%TO.N,GND*%
X38375000Y-144775000D03*
%TD*%
%TO.P,5V,1*%
%TO.N,+5V*%
X34325000Y-133500000D03*
%TD*%
%TO.P,RX,1*%
%TO.N,/controller/RXD*%
X37475000Y-142175000D03*
%TD*%
%TO.P,TX,1*%
%TO.N,/controller/TXD*%
X40700000Y-142325000D03*
%TD*%
%TO.P,U1,1*%
%TO.N,Net-(R5-Pad1)*%
%TA.AperFunction,SMDPad,CuDef*%
G36*
G01*
X29075000Y-145687500D02*
X29075000Y-145562500D01*
G75*
G02*
X29137500Y-145500000I62500J0D01*
G01*
X29837500Y-145500000D01*
G75*
G02*
X29900000Y-145562500I0J-62500D01*
G01*
X29900000Y-145687500D01*
G75*
G02*
X29837500Y-145750000I-62500J0D01*
G01*
X29137500Y-145750000D01*
G75*
G02*
X29075000Y-145687500I0J62500D01*
G01*
G37*
%TD.AperFunction*%
%TO.P,U1,2*%
%TO.N,vbat+*%
%TA.AperFunction,SMDPad,CuDef*%
G36*
G01*
X29075000Y-146187500D02*
X29075000Y-146062500D01*
G75*
G02*
X29137500Y-146000000I62500J0D01*
G01*
X29837500Y-146000000D01*
G75*
G02*
X29900000Y-146062500I0J-62500D01*
G01*
X29900000Y-146187500D01*
G75*
G02*
X29837500Y-146250000I-62500J0D01*
G01*
X29137500Y-146250000D01*
G75*
G02*
X29075000Y-146187500I0J62500D01*
G01*
G37*
%TD.AperFunction*%
%TO.P,U1,3*%
%TA.AperFunction,SMDPad,CuDef*%
G36*
G01*
X29075000Y-146687500D02*
X29075000Y-146562500D01*
G75*
G02*
X29137500Y-146500000I62500J0D01*
G01*
X29837500Y-146500000D01*
G75*
G02*
X29900000Y-146562500I0J-62500D01*
G01*
X29900000Y-146687500D01*
G75*
G02*
X29837500Y-146750000I-62500J0D01*
G01*
X29137500Y-146750000D01*
G75*
G02*
X29075000Y-146687500I0J62500D01*
G01*
G37*
%TD.AperFunction*%
%TO.P,U1,4*%
%TO.N,GND*%
%TA.AperFunction,SMDPad,CuDef*%
G36*
G01*
X29075000Y-147187500D02*
X29075000Y-147062500D01*
G75*
G02*
X29137500Y-147000000I62500J0D01*
G01*
X29837500Y-147000000D01*
G75*
G02*
X29900000Y-147062500I0J-62500D01*
G01*
X29900000Y-147187500D01*
G75*
G02*
X29837500Y-147250000I-62500J0D01*
G01*
X29137500Y-147250000D01*
G75*
G02*
X29075000Y-147187500I0J62500D01*
G01*
G37*
%TD.AperFunction*%
%TO.P,U1,5*%
%TO.N,VBUS*%
%TA.AperFunction,SMDPad,CuDef*%
G36*
G01*
X30075000Y-148187500D02*
X30075000Y-147487500D01*
G75*
G02*
X30137500Y-147425000I62500J0D01*
G01*
X30262500Y-147425000D01*
G75*
G02*
X30325000Y-147487500I0J-62500D01*
G01*
X30325000Y-148187500D01*
G75*
G02*
X30262500Y-148250000I-62500J0D01*
G01*
X30137500Y-148250000D01*
G75*
G02*
X30075000Y-148187500I0J62500D01*
G01*
G37*
%TD.AperFunction*%
%TO.P,U1,6*%
%TO.N,GND*%
%TA.AperFunction,SMDPad,CuDef*%
G36*
G01*
X30575000Y-148187500D02*
X30575000Y-147487500D01*
G75*
G02*
X30637500Y-147425000I62500J0D01*
G01*
X30762500Y-147425000D01*
G75*
G02*
X30825000Y-147487500I0J-62500D01*
G01*
X30825000Y-148187500D01*
G75*
G02*
X30762500Y-148250000I-62500J0D01*
G01*
X30637500Y-148250000D01*
G75*
G02*
X30575000Y-148187500I0J62500D01*
G01*
G37*
%TD.AperFunction*%
%TO.P,U1,7*%
%TO.N,/~PGOOD*%
%TA.AperFunction,SMDPad,CuDef*%
G36*
G01*
X31075000Y-148187500D02*
X31075000Y-147487500D01*
G75*
G02*
X31137500Y-147425000I62500J0D01*
G01*
X31262500Y-147425000D01*
G75*
G02*
X31325000Y-147487500I0J-62500D01*
G01*
X31325000Y-148187500D01*
G75*
G02*
X31262500Y-148250000I-62500J0D01*
G01*
X31137500Y-148250000D01*
G75*
G02*
X31075000Y-148187500I0J62500D01*
G01*
G37*
%TD.AperFunction*%
%TO.P,U1,8*%
%TO.N,GND*%
%TA.AperFunction,SMDPad,CuDef*%
G36*
G01*
X31575000Y-148187500D02*
X31575000Y-147487500D01*
G75*
G02*
X31637500Y-147425000I62500J0D01*
G01*
X31762500Y-147425000D01*
G75*
G02*
X31825000Y-147487500I0J-62500D01*
G01*
X31825000Y-148187500D01*
G75*
G02*
X31762500Y-148250000I-62500J0D01*
G01*
X31637500Y-148250000D01*
G75*
G02*
X31575000Y-148187500I0J62500D01*
G01*
G37*
%TD.AperFunction*%
%TO.P,U1,9*%
%TO.N,/~CHRG*%
%TA.AperFunction,SMDPad,CuDef*%
G36*
G01*
X32000000Y-147187500D02*
X32000000Y-147062500D01*
G75*
G02*
X32062500Y-147000000I62500J0D01*
G01*
X32762500Y-147000000D01*
G75*
G02*
X32825000Y-147062500I0J-62500D01*
G01*
X32825000Y-147187500D01*
G75*
G02*
X32762500Y-147250000I-62500J0D01*
G01*
X32062500Y-147250000D01*
G75*
G02*
X32000000Y-147187500I0J62500D01*
G01*
G37*
%TD.AperFunction*%
%TO.P,U1,10*%
%TO.N,/VBAT_OUT*%
%TA.AperFunction,SMDPad,CuDef*%
G36*
G01*
X32000000Y-146687500D02*
X32000000Y-146562500D01*
G75*
G02*
X32062500Y-146500000I62500J0D01*
G01*
X32762500Y-146500000D01*
G75*
G02*
X32825000Y-146562500I0J-62500D01*
G01*
X32825000Y-146687500D01*
G75*
G02*
X32762500Y-146750000I-62500J0D01*
G01*
X32062500Y-146750000D01*
G75*
G02*
X32000000Y-146687500I0J62500D01*
G01*
G37*
%TD.AperFunction*%
%TO.P,U1,11*%
%TA.AperFunction,SMDPad,CuDef*%
G36*
G01*
X32000000Y-146187500D02*
X32000000Y-146062500D01*
G75*
G02*
X32062500Y-146000000I62500J0D01*
G01*
X32762500Y-146000000D01*
G75*
G02*
X32825000Y-146062500I0J-62500D01*
G01*
X32825000Y-146187500D01*
G75*
G02*
X32762500Y-146250000I-62500J0D01*
G01*
X32062500Y-146250000D01*
G75*
G02*
X32000000Y-146187500I0J62500D01*
G01*
G37*
%TD.AperFunction*%
%TO.P,U1,12*%
%TO.N,Net-(R2-Pad1)*%
%TA.AperFunction,SMDPad,CuDef*%
G36*
G01*
X32000000Y-145687500D02*
X32000000Y-145562500D01*
G75*
G02*
X32062500Y-145500000I62500J0D01*
G01*
X32762500Y-145500000D01*
G75*
G02*
X32825000Y-145562500I0J-62500D01*
G01*
X32825000Y-145687500D01*
G75*
G02*
X32762500Y-145750000I-62500J0D01*
G01*
X32062500Y-145750000D01*
G75*
G02*
X32000000Y-145687500I0J62500D01*
G01*
G37*
%TD.AperFunction*%
%TO.P,U1,13*%
%TO.N,VBUS*%
%TA.AperFunction,SMDPad,CuDef*%
G36*
G01*
X31575000Y-145262500D02*
X31575000Y-144562500D01*
G75*
G02*
X31637500Y-144500000I62500J0D01*
G01*
X31762500Y-144500000D01*
G75*
G02*
X31825000Y-144562500I0J-62500D01*
G01*
X31825000Y-145262500D01*
G75*
G02*
X31762500Y-145325000I-62500J0D01*
G01*
X31637500Y-145325000D01*
G75*
G02*
X31575000Y-145262500I0J62500D01*
G01*
G37*
%TD.AperFunction*%
%TO.P,U1,14*%
%TO.N,Net-(R1-Pad1)*%
%TA.AperFunction,SMDPad,CuDef*%
G36*
G01*
X31075000Y-145262500D02*
X31075000Y-144562500D01*
G75*
G02*
X31137500Y-144500000I62500J0D01*
G01*
X31262500Y-144500000D01*
G75*
G02*
X31325000Y-144562500I0J-62500D01*
G01*
X31325000Y-145262500D01*
G75*
G02*
X31262500Y-145325000I-62500J0D01*
G01*
X31137500Y-145325000D01*
G75*
G02*
X31075000Y-145262500I0J62500D01*
G01*
G37*
%TD.AperFunction*%
%TO.P,U1,15*%
%TO.N,GND*%
%TA.AperFunction,SMDPad,CuDef*%
G36*
G01*
X30575000Y-145262500D02*
X30575000Y-144562500D01*
G75*
G02*
X30637500Y-144500000I62500J0D01*
G01*
X30762500Y-144500000D01*
G75*
G02*
X30825000Y-144562500I0J-62500D01*
G01*
X30825000Y-145262500D01*
G75*
G02*
X30762500Y-145325000I-62500J0D01*
G01*
X30637500Y-145325000D01*
G75*
G02*
X30575000Y-145262500I0J62500D01*
G01*
G37*
%TD.AperFunction*%
%TO.P,U1,16*%
%TO.N,Net-(R3-Pad1)*%
%TA.AperFunction,SMDPad,CuDef*%
G36*
G01*
X30075000Y-145262500D02*
X30075000Y-144562500D01*
G75*
G02*
X30137500Y-144500000I62500J0D01*
G01*
X30262500Y-144500000D01*
G75*
G02*
X30325000Y-144562500I0J-62500D01*
G01*
X30325000Y-145262500D01*
G75*
G02*
X30262500Y-145325000I-62500J0D01*
G01*
X30137500Y-145325000D01*
G75*
G02*
X30075000Y-145262500I0J62500D01*
G01*
G37*
%TD.AperFunction*%
D20*
%TO.P,U1,17*%
%TO.N,GND*%
X30950000Y-146375000D03*
D21*
X30360000Y-145785000D03*
X31540000Y-145785000D03*
X30360000Y-146965000D03*
X31540000Y-146965000D03*
%TD*%
%TO.P,U2,1*%
%TO.N,Net-(L1-Pad2)*%
%TA.AperFunction,SMDPad,CuDef*%
G36*
G01*
X41075000Y-133562800D02*
X41075000Y-133337200D01*
G75*
G02*
X41082200Y-133330000I7200J0D01*
G01*
X41667800Y-133330000D01*
G75*
G02*
X41675000Y-133337200I0J-7200D01*
G01*
X41675000Y-133562800D01*
G75*
G02*
X41667800Y-133570000I-7200J0D01*
G01*
X41082200Y-133570000D01*
G75*
G02*
X41075000Y-133562800I0J7200D01*
G01*
G37*
%TD.AperFunction*%
%TO.P,U2,2*%
%TA.AperFunction,SMDPad,CuDef*%
G36*
G01*
X41075000Y-134062800D02*
X41075000Y-133837200D01*
G75*
G02*
X41082200Y-133830000I7200J0D01*
G01*
X41667800Y-133830000D01*
G75*
G02*
X41675000Y-133837200I0J-7200D01*
G01*
X41675000Y-134062800D01*
G75*
G02*
X41667800Y-134070000I-7200J0D01*
G01*
X41082200Y-134070000D01*
G75*
G02*
X41075000Y-134062800I0J7200D01*
G01*
G37*
%TD.AperFunction*%
%TO.P,U2,3*%
%TO.N,+5V*%
%TA.AperFunction,SMDPad,CuDef*%
G36*
G01*
X41075000Y-134562800D02*
X41075000Y-134337200D01*
G75*
G02*
X41082200Y-134330000I7200J0D01*
G01*
X41667800Y-134330000D01*
G75*
G02*
X41675000Y-134337200I0J-7200D01*
G01*
X41675000Y-134562800D01*
G75*
G02*
X41667800Y-134570000I-7200J0D01*
G01*
X41082200Y-134570000D01*
G75*
G02*
X41075000Y-134562800I0J7200D01*
G01*
G37*
%TD.AperFunction*%
%TO.P,U2,4*%
%TA.AperFunction,SMDPad,CuDef*%
G36*
G01*
X41075000Y-135062800D02*
X41075000Y-134837200D01*
G75*
G02*
X41082200Y-134830000I7200J0D01*
G01*
X41667800Y-134830000D01*
G75*
G02*
X41675000Y-134837200I0J-7200D01*
G01*
X41675000Y-135062800D01*
G75*
G02*
X41667800Y-135070000I-7200J0D01*
G01*
X41082200Y-135070000D01*
G75*
G02*
X41075000Y-135062800I0J7200D01*
G01*
G37*
%TD.AperFunction*%
%TO.P,U2,5*%
%TO.N,N/C*%
%TA.AperFunction,SMDPad,CuDef*%
G36*
G01*
X41075000Y-135562800D02*
X41075000Y-135337200D01*
G75*
G02*
X41082200Y-135330000I7200J0D01*
G01*
X41667800Y-135330000D01*
G75*
G02*
X41675000Y-135337200I0J-7200D01*
G01*
X41675000Y-135562800D01*
G75*
G02*
X41667800Y-135570000I-7200J0D01*
G01*
X41082200Y-135570000D01*
G75*
G02*
X41075000Y-135562800I0J7200D01*
G01*
G37*
%TD.AperFunction*%
%TO.P,U2,6*%
%TO.N,Net-(C5-Pad1)*%
%TA.AperFunction,SMDPad,CuDef*%
G36*
G01*
X43875000Y-135562800D02*
X43875000Y-135337200D01*
G75*
G02*
X43882200Y-135330000I7200J0D01*
G01*
X44467800Y-135330000D01*
G75*
G02*
X44475000Y-135337200I0J-7200D01*
G01*
X44475000Y-135562800D01*
G75*
G02*
X44467800Y-135570000I-7200J0D01*
G01*
X43882200Y-135570000D01*
G75*
G02*
X43875000Y-135562800I0J7200D01*
G01*
G37*
%TD.AperFunction*%
%TO.P,U2,7*%
%TO.N,Net-(C8-Pad2)*%
%TA.AperFunction,SMDPad,CuDef*%
G36*
G01*
X43875000Y-135062800D02*
X43875000Y-134837200D01*
G75*
G02*
X43882200Y-134830000I7200J0D01*
G01*
X44467800Y-134830000D01*
G75*
G02*
X44475000Y-134837200I0J-7200D01*
G01*
X44475000Y-135062800D01*
G75*
G02*
X44467800Y-135070000I-7200J0D01*
G01*
X43882200Y-135070000D01*
G75*
G02*
X43875000Y-135062800I0J7200D01*
G01*
G37*
%TD.AperFunction*%
%TO.P,U2,8*%
%TO.N,N/C*%
%TA.AperFunction,SMDPad,CuDef*%
G36*
G01*
X43875000Y-134562800D02*
X43875000Y-134337200D01*
G75*
G02*
X43882200Y-134330000I7200J0D01*
G01*
X44467800Y-134330000D01*
G75*
G02*
X44475000Y-134337200I0J-7200D01*
G01*
X44475000Y-134562800D01*
G75*
G02*
X44467800Y-134570000I-7200J0D01*
G01*
X43882200Y-134570000D01*
G75*
G02*
X43875000Y-134562800I0J7200D01*
G01*
G37*
%TD.AperFunction*%
%TO.P,U2,9*%
%TO.N,/PWR_OUT*%
%TA.AperFunction,SMDPad,CuDef*%
G36*
G01*
X43875000Y-134062800D02*
X43875000Y-133837200D01*
G75*
G02*
X43882200Y-133830000I7200J0D01*
G01*
X44467800Y-133830000D01*
G75*
G02*
X44475000Y-133837200I0J-7200D01*
G01*
X44475000Y-134062800D01*
G75*
G02*
X44467800Y-134070000I-7200J0D01*
G01*
X43882200Y-134070000D01*
G75*
G02*
X43875000Y-134062800I0J7200D01*
G01*
G37*
%TD.AperFunction*%
%TO.P,U2,10*%
%TA.AperFunction,SMDPad,CuDef*%
G36*
G01*
X43875000Y-133562800D02*
X43875000Y-133337200D01*
G75*
G02*
X43882200Y-133330000I7200J0D01*
G01*
X44467800Y-133330000D01*
G75*
G02*
X44475000Y-133337200I0J-7200D01*
G01*
X44475000Y-133562800D01*
G75*
G02*
X44467800Y-133570000I-7200J0D01*
G01*
X43882200Y-133570000D01*
G75*
G02*
X43875000Y-133562800I0J7200D01*
G01*
G37*
%TD.AperFunction*%
%TA.AperFunction,SMDPad,CuDef*%
D22*
%TO.P,U2,11*%
%TO.N,GND*%
G36*
X42650975Y-132745096D02*
G01*
X42651913Y-132745381D01*
X42652778Y-132745843D01*
X42653536Y-132746464D01*
X42654157Y-132747222D01*
X42654619Y-132748087D01*
X42654904Y-132749025D01*
X42655000Y-132750000D01*
X42655000Y-133245000D01*
X42895000Y-133245000D01*
X42895000Y-132750000D01*
X42895096Y-132749025D01*
X42895381Y-132748087D01*
X42895843Y-132747222D01*
X42896464Y-132746464D01*
X42897222Y-132745843D01*
X42898087Y-132745381D01*
X42899025Y-132745096D01*
X42900000Y-132745000D01*
X43150000Y-132745000D01*
X43150975Y-132745096D01*
X43151913Y-132745381D01*
X43152778Y-132745843D01*
X43153536Y-132746464D01*
X43154157Y-132747222D01*
X43154619Y-132748087D01*
X43154904Y-132749025D01*
X43155000Y-132750000D01*
X43155000Y-133245000D01*
X43600000Y-133245000D01*
X43600975Y-133245096D01*
X43601913Y-133245381D01*
X43602778Y-133245843D01*
X43603536Y-133246464D01*
X43604157Y-133247222D01*
X43604619Y-133248087D01*
X43604904Y-133249025D01*
X43605000Y-133250000D01*
X43605000Y-135650000D01*
X43604904Y-135650975D01*
X43604619Y-135651913D01*
X43604157Y-135652778D01*
X43603536Y-135653536D01*
X43602778Y-135654157D01*
X43601913Y-135654619D01*
X43600975Y-135654904D01*
X43600000Y-135655000D01*
X43155000Y-135655000D01*
X43155000Y-136150000D01*
X43154904Y-136150975D01*
X43154619Y-136151913D01*
X43154157Y-136152778D01*
X43153536Y-136153536D01*
X43152778Y-136154157D01*
X43151913Y-136154619D01*
X43150975Y-136154904D01*
X43150000Y-136155000D01*
X42900000Y-136155000D01*
X42899025Y-136154904D01*
X42898087Y-136154619D01*
X42897222Y-136154157D01*
X42896464Y-136153536D01*
X42895843Y-136152778D01*
X42895381Y-136151913D01*
X42895096Y-136150975D01*
X42895000Y-136150000D01*
X42895000Y-135655000D01*
X42655000Y-135655000D01*
X42655000Y-136150000D01*
X42654904Y-136150975D01*
X42654619Y-136151913D01*
X42654157Y-136152778D01*
X42653536Y-136153536D01*
X42652778Y-136154157D01*
X42651913Y-136154619D01*
X42650975Y-136154904D01*
X42650000Y-136155000D01*
X42400000Y-136155000D01*
X42399025Y-136154904D01*
X42398087Y-136154619D01*
X42397222Y-136154157D01*
X42396464Y-136153536D01*
X42395843Y-136152778D01*
X42395381Y-136151913D01*
X42395096Y-136150975D01*
X42395000Y-136150000D01*
X42395000Y-135655000D01*
X41950000Y-135655000D01*
X41949025Y-135654904D01*
X41948087Y-135654619D01*
X41947222Y-135654157D01*
X41946464Y-135653536D01*
X41945843Y-135652778D01*
X41945381Y-135651913D01*
X41945096Y-135650975D01*
X41945000Y-135650000D01*
X41945000Y-133250000D01*
X41945096Y-133249025D01*
X41945381Y-133248087D01*
X41945843Y-133247222D01*
X41946464Y-133246464D01*
X41947222Y-133245843D01*
X41948087Y-133245381D01*
X41949025Y-133245096D01*
X41950000Y-133245000D01*
X42395000Y-133245000D01*
X42395000Y-132750000D01*
X42395096Y-132749025D01*
X42395381Y-132748087D01*
X42395843Y-132747222D01*
X42396464Y-132746464D01*
X42397222Y-132745843D01*
X42398087Y-132745381D01*
X42399025Y-132745096D01*
X42400000Y-132745000D01*
X42650000Y-132745000D01*
X42650975Y-132745096D01*
G37*
%TD.AperFunction*%
D23*
%TO.P,U2,12*%
%TO.N,N/C*%
X42775000Y-135400000D03*
%TO.P,U2,13*%
X42200000Y-134450000D03*
%TO.P,U2,14*%
X43350000Y-134450000D03*
%TO.P,U2,15*%
X42775000Y-133500000D03*
%TD*%
%TO.P,U3,1*%
%TO.N,/controller/ON_OFF_BTN*%
%TA.AperFunction,SMDPad,CuDef*%
G36*
G01*
X44500000Y-142837500D02*
X44500000Y-142712500D01*
G75*
G02*
X44562500Y-142650000I62500J0D01*
G01*
X45312500Y-142650000D01*
G75*
G02*
X45375000Y-142712500I0J-62500D01*
G01*
X45375000Y-142837500D01*
G75*
G02*
X45312500Y-142900000I-62500J0D01*
G01*
X44562500Y-142900000D01*
G75*
G02*
X44500000Y-142837500I0J62500D01*
G01*
G37*
%TD.AperFunction*%
%TO.P,U3,2*%
%TO.N,N/C*%
%TA.AperFunction,SMDPad,CuDef*%
G36*
G01*
X44500000Y-143337500D02*
X44500000Y-143212500D01*
G75*
G02*
X44562500Y-143150000I62500J0D01*
G01*
X45312500Y-143150000D01*
G75*
G02*
X45375000Y-143212500I0J-62500D01*
G01*
X45375000Y-143337500D01*
G75*
G02*
X45312500Y-143400000I-62500J0D01*
G01*
X44562500Y-143400000D01*
G75*
G02*
X44500000Y-143337500I0J62500D01*
G01*
G37*
%TD.AperFunction*%
%TO.P,U3,3*%
%TO.N,GND*%
%TA.AperFunction,SMDPad,CuDef*%
G36*
G01*
X44500000Y-143837500D02*
X44500000Y-143712500D01*
G75*
G02*
X44562500Y-143650000I62500J0D01*
G01*
X45312500Y-143650000D01*
G75*
G02*
X45375000Y-143712500I0J-62500D01*
G01*
X45375000Y-143837500D01*
G75*
G02*
X45312500Y-143900000I-62500J0D01*
G01*
X44562500Y-143900000D01*
G75*
G02*
X44500000Y-143837500I0J62500D01*
G01*
G37*
%TD.AperFunction*%
%TO.P,U3,4*%
%TO.N,+3V3*%
%TA.AperFunction,SMDPad,CuDef*%
G36*
G01*
X44500000Y-144337500D02*
X44500000Y-144212500D01*
G75*
G02*
X44562500Y-144150000I62500J0D01*
G01*
X45312500Y-144150000D01*
G75*
G02*
X45375000Y-144212500I0J-62500D01*
G01*
X45375000Y-144337500D01*
G75*
G02*
X45312500Y-144400000I-62500J0D01*
G01*
X44562500Y-144400000D01*
G75*
G02*
X44500000Y-144337500I0J62500D01*
G01*
G37*
%TD.AperFunction*%
%TO.P,U3,5*%
%TO.N,GND*%
%TA.AperFunction,SMDPad,CuDef*%
G36*
G01*
X44500000Y-144837500D02*
X44500000Y-144712500D01*
G75*
G02*
X44562500Y-144650000I62500J0D01*
G01*
X45312500Y-144650000D01*
G75*
G02*
X45375000Y-144712500I0J-62500D01*
G01*
X45375000Y-144837500D01*
G75*
G02*
X45312500Y-144900000I-62500J0D01*
G01*
X44562500Y-144900000D01*
G75*
G02*
X44500000Y-144837500I0J62500D01*
G01*
G37*
%TD.AperFunction*%
%TO.P,U3,6*%
%TO.N,+3V3*%
%TA.AperFunction,SMDPad,CuDef*%
G36*
G01*
X44500000Y-145337500D02*
X44500000Y-145212500D01*
G75*
G02*
X44562500Y-145150000I62500J0D01*
G01*
X45312500Y-145150000D01*
G75*
G02*
X45375000Y-145212500I0J-62500D01*
G01*
X45375000Y-145337500D01*
G75*
G02*
X45312500Y-145400000I-62500J0D01*
G01*
X44562500Y-145400000D01*
G75*
G02*
X44500000Y-145337500I0J62500D01*
G01*
G37*
%TD.AperFunction*%
%TO.P,U3,7*%
%TO.N,/controller/XTAL1*%
%TA.AperFunction,SMDPad,CuDef*%
G36*
G01*
X44500000Y-145837500D02*
X44500000Y-145712500D01*
G75*
G02*
X44562500Y-145650000I62500J0D01*
G01*
X45312500Y-145650000D01*
G75*
G02*
X45375000Y-145712500I0J-62500D01*
G01*
X45375000Y-145837500D01*
G75*
G02*
X45312500Y-145900000I-62500J0D01*
G01*
X44562500Y-145900000D01*
G75*
G02*
X44500000Y-145837500I0J62500D01*
G01*
G37*
%TD.AperFunction*%
%TO.P,U3,8*%
%TO.N,/controller/XTAL2*%
%TA.AperFunction,SMDPad,CuDef*%
G36*
G01*
X44500000Y-146337500D02*
X44500000Y-146212500D01*
G75*
G02*
X44562500Y-146150000I62500J0D01*
G01*
X45312500Y-146150000D01*
G75*
G02*
X45375000Y-146212500I0J-62500D01*
G01*
X45375000Y-146337500D01*
G75*
G02*
X45312500Y-146400000I-62500J0D01*
G01*
X44562500Y-146400000D01*
G75*
G02*
X44500000Y-146337500I0J62500D01*
G01*
G37*
%TD.AperFunction*%
%TO.P,U3,9*%
%TO.N,/controller/HEATER_PWM_PIN*%
%TA.AperFunction,SMDPad,CuDef*%
G36*
G01*
X45500000Y-147337500D02*
X45500000Y-146587500D01*
G75*
G02*
X45562500Y-146525000I62500J0D01*
G01*
X45687500Y-146525000D01*
G75*
G02*
X45750000Y-146587500I0J-62500D01*
G01*
X45750000Y-147337500D01*
G75*
G02*
X45687500Y-147400000I-62500J0D01*
G01*
X45562500Y-147400000D01*
G75*
G02*
X45500000Y-147337500I0J62500D01*
G01*
G37*
%TD.AperFunction*%
%TO.P,U3,10*%
%TO.N,N/C*%
%TA.AperFunction,SMDPad,CuDef*%
G36*
G01*
X46000000Y-147337500D02*
X46000000Y-146587500D01*
G75*
G02*
X46062500Y-146525000I62500J0D01*
G01*
X46187500Y-146525000D01*
G75*
G02*
X46250000Y-146587500I0J-62500D01*
G01*
X46250000Y-147337500D01*
G75*
G02*
X46187500Y-147400000I-62500J0D01*
G01*
X46062500Y-147400000D01*
G75*
G02*
X46000000Y-147337500I0J62500D01*
G01*
G37*
%TD.AperFunction*%
%TO.P,U3,11*%
%TA.AperFunction,SMDPad,CuDef*%
G36*
G01*
X46500000Y-147337500D02*
X46500000Y-146587500D01*
G75*
G02*
X46562500Y-146525000I62500J0D01*
G01*
X46687500Y-146525000D01*
G75*
G02*
X46750000Y-146587500I0J-62500D01*
G01*
X46750000Y-147337500D01*
G75*
G02*
X46687500Y-147400000I-62500J0D01*
G01*
X46562500Y-147400000D01*
G75*
G02*
X46500000Y-147337500I0J62500D01*
G01*
G37*
%TD.AperFunction*%
%TO.P,U3,12*%
%TO.N,/controller/LED_RED*%
%TA.AperFunction,SMDPad,CuDef*%
G36*
G01*
X47000000Y-147337500D02*
X47000000Y-146587500D01*
G75*
G02*
X47062500Y-146525000I62500J0D01*
G01*
X47187500Y-146525000D01*
G75*
G02*
X47250000Y-146587500I0J-62500D01*
G01*
X47250000Y-147337500D01*
G75*
G02*
X47187500Y-147400000I-62500J0D01*
G01*
X47062500Y-147400000D01*
G75*
G02*
X47000000Y-147337500I0J62500D01*
G01*
G37*
%TD.AperFunction*%
%TO.P,U3,13*%
%TO.N,/controller/LED_GREEN*%
%TA.AperFunction,SMDPad,CuDef*%
G36*
G01*
X47500000Y-147337500D02*
X47500000Y-146587500D01*
G75*
G02*
X47562500Y-146525000I62500J0D01*
G01*
X47687500Y-146525000D01*
G75*
G02*
X47750000Y-146587500I0J-62500D01*
G01*
X47750000Y-147337500D01*
G75*
G02*
X47687500Y-147400000I-62500J0D01*
G01*
X47562500Y-147400000D01*
G75*
G02*
X47500000Y-147337500I0J62500D01*
G01*
G37*
%TD.AperFunction*%
%TO.P,U3,14*%
%TO.N,/controller/LED_BLUE*%
%TA.AperFunction,SMDPad,CuDef*%
G36*
G01*
X48000000Y-147337500D02*
X48000000Y-146587500D01*
G75*
G02*
X48062500Y-146525000I62500J0D01*
G01*
X48187500Y-146525000D01*
G75*
G02*
X48250000Y-146587500I0J-62500D01*
G01*
X48250000Y-147337500D01*
G75*
G02*
X48187500Y-147400000I-62500J0D01*
G01*
X48062500Y-147400000D01*
G75*
G02*
X48000000Y-147337500I0J62500D01*
G01*
G37*
%TD.AperFunction*%
%TO.P,U3,15*%
%TO.N,/controller/MOSI*%
%TA.AperFunction,SMDPad,CuDef*%
G36*
G01*
X48500000Y-147337500D02*
X48500000Y-146587500D01*
G75*
G02*
X48562500Y-146525000I62500J0D01*
G01*
X48687500Y-146525000D01*
G75*
G02*
X48750000Y-146587500I0J-62500D01*
G01*
X48750000Y-147337500D01*
G75*
G02*
X48687500Y-147400000I-62500J0D01*
G01*
X48562500Y-147400000D01*
G75*
G02*
X48500000Y-147337500I0J62500D01*
G01*
G37*
%TD.AperFunction*%
%TO.P,U3,16*%
%TO.N,/controller/MISO*%
%TA.AperFunction,SMDPad,CuDef*%
G36*
G01*
X49000000Y-147337500D02*
X49000000Y-146587500D01*
G75*
G02*
X49062500Y-146525000I62500J0D01*
G01*
X49187500Y-146525000D01*
G75*
G02*
X49250000Y-146587500I0J-62500D01*
G01*
X49250000Y-147337500D01*
G75*
G02*
X49187500Y-147400000I-62500J0D01*
G01*
X49062500Y-147400000D01*
G75*
G02*
X49000000Y-147337500I0J62500D01*
G01*
G37*
%TD.AperFunction*%
%TO.P,U3,17*%
%TO.N,/controller/CLK*%
%TA.AperFunction,SMDPad,CuDef*%
G36*
G01*
X49375000Y-146337500D02*
X49375000Y-146212500D01*
G75*
G02*
X49437500Y-146150000I62500J0D01*
G01*
X50187500Y-146150000D01*
G75*
G02*
X50250000Y-146212500I0J-62500D01*
G01*
X50250000Y-146337500D01*
G75*
G02*
X50187500Y-146400000I-62500J0D01*
G01*
X49437500Y-146400000D01*
G75*
G02*
X49375000Y-146337500I0J62500D01*
G01*
G37*
%TD.AperFunction*%
%TO.P,U3,18*%
%TO.N,+3V3*%
%TA.AperFunction,SMDPad,CuDef*%
G36*
G01*
X49375000Y-145837500D02*
X49375000Y-145712500D01*
G75*
G02*
X49437500Y-145650000I62500J0D01*
G01*
X50187500Y-145650000D01*
G75*
G02*
X50250000Y-145712500I0J-62500D01*
G01*
X50250000Y-145837500D01*
G75*
G02*
X50187500Y-145900000I-62500J0D01*
G01*
X49437500Y-145900000D01*
G75*
G02*
X49375000Y-145837500I0J62500D01*
G01*
G37*
%TD.AperFunction*%
%TO.P,U3,19*%
%TO.N,N/C*%
%TA.AperFunction,SMDPad,CuDef*%
G36*
G01*
X49375000Y-145337500D02*
X49375000Y-145212500D01*
G75*
G02*
X49437500Y-145150000I62500J0D01*
G01*
X50187500Y-145150000D01*
G75*
G02*
X50250000Y-145212500I0J-62500D01*
G01*
X50250000Y-145337500D01*
G75*
G02*
X50187500Y-145400000I-62500J0D01*
G01*
X49437500Y-145400000D01*
G75*
G02*
X49375000Y-145337500I0J62500D01*
G01*
G37*
%TD.AperFunction*%
%TO.P,U3,20*%
%TA.AperFunction,SMDPad,CuDef*%
G36*
G01*
X49375000Y-144837500D02*
X49375000Y-144712500D01*
G75*
G02*
X49437500Y-144650000I62500J0D01*
G01*
X50187500Y-144650000D01*
G75*
G02*
X50250000Y-144712500I0J-62500D01*
G01*
X50250000Y-144837500D01*
G75*
G02*
X50187500Y-144900000I-62500J0D01*
G01*
X49437500Y-144900000D01*
G75*
G02*
X49375000Y-144837500I0J62500D01*
G01*
G37*
%TD.AperFunction*%
%TO.P,U3,21*%
%TO.N,GND*%
%TA.AperFunction,SMDPad,CuDef*%
G36*
G01*
X49375000Y-144337500D02*
X49375000Y-144212500D01*
G75*
G02*
X49437500Y-144150000I62500J0D01*
G01*
X50187500Y-144150000D01*
G75*
G02*
X50250000Y-144212500I0J-62500D01*
G01*
X50250000Y-144337500D01*
G75*
G02*
X50187500Y-144400000I-62500J0D01*
G01*
X49437500Y-144400000D01*
G75*
G02*
X49375000Y-144337500I0J62500D01*
G01*
G37*
%TD.AperFunction*%
%TO.P,U3,22*%
%TO.N,N/C*%
%TA.AperFunction,SMDPad,CuDef*%
G36*
G01*
X49375000Y-143837500D02*
X49375000Y-143712500D01*
G75*
G02*
X49437500Y-143650000I62500J0D01*
G01*
X50187500Y-143650000D01*
G75*
G02*
X50250000Y-143712500I0J-62500D01*
G01*
X50250000Y-143837500D01*
G75*
G02*
X50187500Y-143900000I-62500J0D01*
G01*
X49437500Y-143900000D01*
G75*
G02*
X49375000Y-143837500I0J62500D01*
G01*
G37*
%TD.AperFunction*%
%TO.P,U3,23*%
%TO.N,/controller/RTD_+VE*%
%TA.AperFunction,SMDPad,CuDef*%
G36*
G01*
X49375000Y-143337500D02*
X49375000Y-143212500D01*
G75*
G02*
X49437500Y-143150000I62500J0D01*
G01*
X50187500Y-143150000D01*
G75*
G02*
X50250000Y-143212500I0J-62500D01*
G01*
X50250000Y-143337500D01*
G75*
G02*
X50187500Y-143400000I-62500J0D01*
G01*
X49437500Y-143400000D01*
G75*
G02*
X49375000Y-143337500I0J62500D01*
G01*
G37*
%TD.AperFunction*%
%TO.P,U3,24*%
%TO.N,Net-(R16-Pad2)*%
%TA.AperFunction,SMDPad,CuDef*%
G36*
G01*
X49375000Y-142837500D02*
X49375000Y-142712500D01*
G75*
G02*
X49437500Y-142650000I62500J0D01*
G01*
X50187500Y-142650000D01*
G75*
G02*
X50250000Y-142712500I0J-62500D01*
G01*
X50250000Y-142837500D01*
G75*
G02*
X50187500Y-142900000I-62500J0D01*
G01*
X49437500Y-142900000D01*
G75*
G02*
X49375000Y-142837500I0J62500D01*
G01*
G37*
%TD.AperFunction*%
%TO.P,U3,25*%
%TO.N,N/C*%
%TA.AperFunction,SMDPad,CuDef*%
G36*
G01*
X49000000Y-142462500D02*
X49000000Y-141712500D01*
G75*
G02*
X49062500Y-141650000I62500J0D01*
G01*
X49187500Y-141650000D01*
G75*
G02*
X49250000Y-141712500I0J-62500D01*
G01*
X49250000Y-142462500D01*
G75*
G02*
X49187500Y-142525000I-62500J0D01*
G01*
X49062500Y-142525000D01*
G75*
G02*
X49000000Y-142462500I0J62500D01*
G01*
G37*
%TD.AperFunction*%
%TO.P,U3,26*%
%TA.AperFunction,SMDPad,CuDef*%
G36*
G01*
X48500000Y-142462500D02*
X48500000Y-141712500D01*
G75*
G02*
X48562500Y-141650000I62500J0D01*
G01*
X48687500Y-141650000D01*
G75*
G02*
X48750000Y-141712500I0J-62500D01*
G01*
X48750000Y-142462500D01*
G75*
G02*
X48687500Y-142525000I-62500J0D01*
G01*
X48562500Y-142525000D01*
G75*
G02*
X48500000Y-142462500I0J62500D01*
G01*
G37*
%TD.AperFunction*%
%TO.P,U3,27*%
%TA.AperFunction,SMDPad,CuDef*%
G36*
G01*
X48000000Y-142462500D02*
X48000000Y-141712500D01*
G75*
G02*
X48062500Y-141650000I62500J0D01*
G01*
X48187500Y-141650000D01*
G75*
G02*
X48250000Y-141712500I0J-62500D01*
G01*
X48250000Y-142462500D01*
G75*
G02*
X48187500Y-142525000I-62500J0D01*
G01*
X48062500Y-142525000D01*
G75*
G02*
X48000000Y-142462500I0J62500D01*
G01*
G37*
%TD.AperFunction*%
%TO.P,U3,28*%
%TA.AperFunction,SMDPad,CuDef*%
G36*
G01*
X47500000Y-142462500D02*
X47500000Y-141712500D01*
G75*
G02*
X47562500Y-141650000I62500J0D01*
G01*
X47687500Y-141650000D01*
G75*
G02*
X47750000Y-141712500I0J-62500D01*
G01*
X47750000Y-142462500D01*
G75*
G02*
X47687500Y-142525000I-62500J0D01*
G01*
X47562500Y-142525000D01*
G75*
G02*
X47500000Y-142462500I0J62500D01*
G01*
G37*
%TD.AperFunction*%
%TO.P,U3,29*%
%TO.N,/controller/reset*%
%TA.AperFunction,SMDPad,CuDef*%
G36*
G01*
X47000000Y-142462500D02*
X47000000Y-141712500D01*
G75*
G02*
X47062500Y-141650000I62500J0D01*
G01*
X47187500Y-141650000D01*
G75*
G02*
X47250000Y-141712500I0J-62500D01*
G01*
X47250000Y-142462500D01*
G75*
G02*
X47187500Y-142525000I-62500J0D01*
G01*
X47062500Y-142525000D01*
G75*
G02*
X47000000Y-142462500I0J62500D01*
G01*
G37*
%TD.AperFunction*%
%TO.P,U3,30*%
%TO.N,/controller/RXD*%
%TA.AperFunction,SMDPad,CuDef*%
G36*
G01*
X46500000Y-142462500D02*
X46500000Y-141712500D01*
G75*
G02*
X46562500Y-141650000I62500J0D01*
G01*
X46687500Y-141650000D01*
G75*
G02*
X46750000Y-141712500I0J-62500D01*
G01*
X46750000Y-142462500D01*
G75*
G02*
X46687500Y-142525000I-62500J0D01*
G01*
X46562500Y-142525000D01*
G75*
G02*
X46500000Y-142462500I0J62500D01*
G01*
G37*
%TD.AperFunction*%
%TO.P,U3,31*%
%TO.N,/controller/TXD*%
%TA.AperFunction,SMDPad,CuDef*%
G36*
G01*
X46000000Y-142462500D02*
X46000000Y-141712500D01*
G75*
G02*
X46062500Y-141650000I62500J0D01*
G01*
X46187500Y-141650000D01*
G75*
G02*
X46250000Y-141712500I0J-62500D01*
G01*
X46250000Y-142462500D01*
G75*
G02*
X46187500Y-142525000I-62500J0D01*
G01*
X46062500Y-142525000D01*
G75*
G02*
X46000000Y-142462500I0J62500D01*
G01*
G37*
%TD.AperFunction*%
%TO.P,U3,32*%
%TO.N,/controller/TEMP_LVL_BTN*%
%TA.AperFunction,SMDPad,CuDef*%
G36*
G01*
X45500000Y-142462500D02*
X45500000Y-141712500D01*
G75*
G02*
X45562500Y-141650000I62500J0D01*
G01*
X45687500Y-141650000D01*
G75*
G02*
X45750000Y-141712500I0J-62500D01*
G01*
X45750000Y-142462500D01*
G75*
G02*
X45687500Y-142525000I-62500J0D01*
G01*
X45562500Y-142525000D01*
G75*
G02*
X45500000Y-142462500I0J62500D01*
G01*
G37*
%TD.AperFunction*%
D24*
%TO.P,U3,33*%
%TO.N,GND*%
X47375000Y-144525000D03*
%TD*%
D25*
%TO.P,U4,2*%
%TO.N,GND*%
X18675000Y-130275000D03*
%TO.P,U4,1*%
%TO.N,Net-(R13-Pad2)*%
X18675000Y-131625000D03*
D26*
%TO.P,U4,4*%
%TO.N,GND*%
X17950000Y-130275000D03*
%TO.P,U4,3*%
%TO.N,Net-(R14-Pad2)*%
X17950000Y-131625000D03*
D25*
%TO.P,U4,5*%
%TO.N,Net-(R15-Pad2)*%
X17225000Y-131625000D03*
%TO.P,U4,6*%
%TO.N,GND*%
X17225000Y-130275000D03*
%TD*%
D27*
%TO.P,Y1,1*%
%TO.N,/controller/XTAL1*%
X42600000Y-146950000D03*
%TO.P,Y1,2*%
%TO.N,GND*%
X40400000Y-146950000D03*
%TO.P,Y1,3*%
%TO.N,/controller/XTAL2*%
X40400000Y-148750000D03*
%TO.P,Y1,4*%
%TO.N,GND*%
X42600000Y-148750000D03*
%TD*%
D28*
%TO.P,L1,1*%
%TO.N,/PWR_OUT*%
X45650000Y-128475000D03*
%TO.P,L1,2*%
%TO.N,Net-(L1-Pad2)*%
X39600000Y-128475000D03*
%TD*%
%TO.P,R8,2*%
%TO.N,Net-(D2-Pad2)*%
%TA.AperFunction,SMDPad,CuDef*%
G36*
G01*
X16835000Y-142185000D02*
X16465000Y-142185000D01*
G75*
G02*
X16330000Y-142050000I0J135000D01*
G01*
X16330000Y-141780000D01*
G75*
G02*
X16465000Y-141645000I135000J0D01*
G01*
X16835000Y-141645000D01*
G75*
G02*
X16970000Y-141780000I0J-135000D01*
G01*
X16970000Y-142050000D01*
G75*
G02*
X16835000Y-142185000I-135000J0D01*
G01*
G37*
%TD.AperFunction*%
%TO.P,R8,1*%
%TO.N,vbat+*%
%TA.AperFunction,SMDPad,CuDef*%
G36*
G01*
X16835000Y-143205000D02*
X16465000Y-143205000D01*
G75*
G02*
X16330000Y-143070000I0J135000D01*
G01*
X16330000Y-142800000D01*
G75*
G02*
X16465000Y-142665000I135000J0D01*
G01*
X16835000Y-142665000D01*
G75*
G02*
X16970000Y-142800000I0J-135000D01*
G01*
X16970000Y-143070000D01*
G75*
G02*
X16835000Y-143205000I-135000J0D01*
G01*
G37*
%TD.AperFunction*%
%TD*%
%TO.P,R9,1*%
%TO.N,vbat+*%
%TA.AperFunction,SMDPad,CuDef*%
G36*
G01*
X16490000Y-144205000D02*
X16860000Y-144205000D01*
G75*
G02*
X16995000Y-144340000I0J-135000D01*
G01*
X16995000Y-144610000D01*
G75*
G02*
X16860000Y-144745000I-135000J0D01*
G01*
X16490000Y-144745000D01*
G75*
G02*
X16355000Y-144610000I0J135000D01*
G01*
X16355000Y-144340000D01*
G75*
G02*
X16490000Y-144205000I135000J0D01*
G01*
G37*
%TD.AperFunction*%
%TO.P,R9,2*%
%TO.N,Net-(D3-Pad2)*%
%TA.AperFunction,SMDPad,CuDef*%
G36*
G01*
X16490000Y-145225000D02*
X16860000Y-145225000D01*
G75*
G02*
X16995000Y-145360000I0J-135000D01*
G01*
X16995000Y-145630000D01*
G75*
G02*
X16860000Y-145765000I-135000J0D01*
G01*
X16490000Y-145765000D01*
G75*
G02*
X16355000Y-145630000I0J135000D01*
G01*
X16355000Y-145360000D01*
G75*
G02*
X16490000Y-145225000I135000J0D01*
G01*
G37*
%TD.AperFunction*%
%TD*%
%TO.P,R4,1*%
%TO.N,VBUS*%
%TA.AperFunction,SMDPad,CuDef*%
G36*
G01*
X23570000Y-140440000D02*
X23570000Y-140810000D01*
G75*
G02*
X23435000Y-140945000I-135000J0D01*
G01*
X23165000Y-140945000D01*
G75*
G02*
X23030000Y-140810000I0J135000D01*
G01*
X23030000Y-140440000D01*
G75*
G02*
X23165000Y-140305000I135000J0D01*
G01*
X23435000Y-140305000D01*
G75*
G02*
X23570000Y-140440000I0J-135000D01*
G01*
G37*
%TD.AperFunction*%
%TO.P,R4,2*%
%TO.N,GND*%
%TA.AperFunction,SMDPad,CuDef*%
G36*
G01*
X22550000Y-140440000D02*
X22550000Y-140810000D01*
G75*
G02*
X22415000Y-140945000I-135000J0D01*
G01*
X22145000Y-140945000D01*
G75*
G02*
X22010000Y-140810000I0J135000D01*
G01*
X22010000Y-140440000D01*
G75*
G02*
X22145000Y-140305000I135000J0D01*
G01*
X22415000Y-140305000D01*
G75*
G02*
X22550000Y-140440000I0J-135000D01*
G01*
G37*
%TD.AperFunction*%
%TD*%
D29*
%TO.P,J3,1*%
%TO.N,/controller/MISO*%
X51625000Y-134025000D03*
D30*
%TO.P,J3,2*%
%TO.N,+3V3*%
X54165000Y-134025000D03*
%TO.P,J3,3*%
%TO.N,/controller/CLK*%
X51625000Y-136565000D03*
%TO.P,J3,4*%
%TO.N,/controller/MOSI*%
X54165000Y-136565000D03*
%TO.P,J3,5*%
%TO.N,/controller/reset*%
X51625000Y-139105000D03*
%TO.P,J3,6*%
%TO.N,GND*%
X54165000Y-139105000D03*
%TD*%
D31*
%TO.P,TEMP_BTN,3*%
%TO.N,N/C*%
X15425000Y-131375000D03*
%TO.P,TEMP_BTN,1*%
%TO.N,/controller/TEMP_LVL_BTN*%
X13275000Y-131375000D03*
%TO.P,TEMP_BTN,4*%
%TO.N,N/C*%
X15425000Y-127225000D03*
%TO.P,TEMP_BTN,2*%
%TO.N,GND*%
X13275000Y-127225000D03*
%TD*%
%TO.P,PWR_BTN,2*%
%TO.N,GND*%
X13200000Y-143175000D03*
%TO.P,PWR_BTN,4*%
%TO.N,N/C*%
X15350000Y-143175000D03*
%TO.P,PWR_BTN,1*%
%TO.N,/controller/ON_OFF_BTN*%
X13200000Y-147325000D03*
%TO.P,PWR_BTN,3*%
%TO.N,N/C*%
X15350000Y-147325000D03*
%TD*%
%TO.P,C23,1*%
%TO.N,vbat+*%
%TA.AperFunction,SMDPad,CuDef*%
G36*
G01*
X51655000Y-128990000D02*
X51995000Y-128990000D01*
G75*
G02*
X52135000Y-129130000I0J-140000D01*
G01*
X52135000Y-129410000D01*
G75*
G02*
X51995000Y-129550000I-140000J0D01*
G01*
X51655000Y-129550000D01*
G75*
G02*
X51515000Y-129410000I0J140000D01*
G01*
X51515000Y-129130000D01*
G75*
G02*
X51655000Y-128990000I140000J0D01*
G01*
G37*
%TD.AperFunction*%
%TO.P,C23,2*%
%TO.N,GND*%
%TA.AperFunction,SMDPad,CuDef*%
G36*
G01*
X51655000Y-129950000D02*
X51995000Y-129950000D01*
G75*
G02*
X52135000Y-130090000I0J-140000D01*
G01*
X52135000Y-130370000D01*
G75*
G02*
X51995000Y-130510000I-140000J0D01*
G01*
X51655000Y-130510000D01*
G75*
G02*
X51515000Y-130370000I0J140000D01*
G01*
X51515000Y-130090000D01*
G75*
G02*
X51655000Y-129950000I140000J0D01*
G01*
G37*
%TD.AperFunction*%
%TD*%
%TO.P,C24,2*%
%TO.N,GND*%
%TA.AperFunction,SMDPad,CuDef*%
G36*
G01*
X49045000Y-130445000D02*
X49045000Y-130105000D01*
G75*
G02*
X49185000Y-129965000I140000J0D01*
G01*
X49465000Y-129965000D01*
G75*
G02*
X49605000Y-130105000I0J-140000D01*
G01*
X49605000Y-130445000D01*
G75*
G02*
X49465000Y-130585000I-140000J0D01*
G01*
X49185000Y-130585000D01*
G75*
G02*
X49045000Y-130445000I0J140000D01*
G01*
G37*
%TD.AperFunction*%
%TO.P,C24,1*%
%TO.N,+3V3*%
%TA.AperFunction,SMDPad,CuDef*%
G36*
G01*
X48085000Y-130445000D02*
X48085000Y-130105000D01*
G75*
G02*
X48225000Y-129965000I140000J0D01*
G01*
X48505000Y-129965000D01*
G75*
G02*
X48645000Y-130105000I0J-140000D01*
G01*
X48645000Y-130445000D01*
G75*
G02*
X48505000Y-130585000I-140000J0D01*
G01*
X48225000Y-130585000D01*
G75*
G02*
X48085000Y-130445000I0J140000D01*
G01*
G37*
%TD.AperFunction*%
%TD*%
%TO.P,R16,2*%
%TO.N,Net-(R16-Pad2)*%
%TA.AperFunction,SMDPad,CuDef*%
G36*
G01*
X53725000Y-130310000D02*
X53725000Y-129940000D01*
G75*
G02*
X53860000Y-129805000I135000J0D01*
G01*
X54130000Y-129805000D01*
G75*
G02*
X54265000Y-129940000I0J-135000D01*
G01*
X54265000Y-130310000D01*
G75*
G02*
X54130000Y-130445000I-135000J0D01*
G01*
X53860000Y-130445000D01*
G75*
G02*
X53725000Y-130310000I0J135000D01*
G01*
G37*
%TD.AperFunction*%
%TO.P,R16,1*%
%TO.N,vbat+*%
%TA.AperFunction,SMDPad,CuDef*%
G36*
G01*
X52705000Y-130310000D02*
X52705000Y-129940000D01*
G75*
G02*
X52840000Y-129805000I135000J0D01*
G01*
X53110000Y-129805000D01*
G75*
G02*
X53245000Y-129940000I0J-135000D01*
G01*
X53245000Y-130310000D01*
G75*
G02*
X53110000Y-130445000I-135000J0D01*
G01*
X52840000Y-130445000D01*
G75*
G02*
X52705000Y-130310000I0J135000D01*
G01*
G37*
%TD.AperFunction*%
%TD*%
%TO.P,R17,1*%
%TO.N,Net-(R16-Pad2)*%
%TA.AperFunction,SMDPad,CuDef*%
G36*
G01*
X54265000Y-131115000D02*
X54265000Y-131485000D01*
G75*
G02*
X54130000Y-131620000I-135000J0D01*
G01*
X53860000Y-131620000D01*
G75*
G02*
X53725000Y-131485000I0J135000D01*
G01*
X53725000Y-131115000D01*
G75*
G02*
X53860000Y-130980000I135000J0D01*
G01*
X54130000Y-130980000D01*
G75*
G02*
X54265000Y-131115000I0J-135000D01*
G01*
G37*
%TD.AperFunction*%
%TO.P,R17,2*%
%TO.N,GND*%
%TA.AperFunction,SMDPad,CuDef*%
G36*
G01*
X53245000Y-131115000D02*
X53245000Y-131485000D01*
G75*
G02*
X53110000Y-131620000I-135000J0D01*
G01*
X52840000Y-131620000D01*
G75*
G02*
X52705000Y-131485000I0J135000D01*
G01*
X52705000Y-131115000D01*
G75*
G02*
X52840000Y-130980000I135000J0D01*
G01*
X53110000Y-130980000D01*
G75*
G02*
X53245000Y-131115000I0J-135000D01*
G01*
G37*
%TD.AperFunction*%
%TD*%
D17*
%TO.P,U5,1*%
%TO.N,GND*%
X48575000Y-126950000D03*
%TO.P,U5,2*%
%TO.N,+3V3*%
X48575000Y-128850000D03*
%TO.P,U5,3*%
%TO.N,vbat+*%
X50575000Y-127900000D03*
%TD*%
D32*
%TO.N,GND*%
X46400000Y-143725000D03*
X41775000Y-145175000D03*
X43500000Y-139450000D03*
X48400000Y-143525000D03*
X51881547Y-144296346D03*
X43899954Y-143125037D03*
X41346929Y-144600010D03*
X31950000Y-148425000D03*
X25075000Y-146800000D03*
X16375000Y-130275000D03*
X47375000Y-140125000D03*
X33300000Y-149175000D03*
X37275000Y-132000000D03*
X37325000Y-130125000D03*
X41900000Y-136625000D03*
X43750000Y-148550000D03*
X35025000Y-143875000D03*
X39150000Y-145498394D03*
X39200021Y-146948405D03*
X42425000Y-132150000D03*
X14450000Y-125950000D03*
X14350000Y-129225000D03*
X14350000Y-142750000D03*
X15775000Y-148875000D03*
X38525000Y-125725000D03*
X41550000Y-125700000D03*
X44675000Y-125725000D03*
X47075000Y-125700000D03*
X37600000Y-127600000D03*
X47625000Y-127900000D03*
X47675000Y-131600000D03*
X51025000Y-130350000D03*
X47150000Y-135275000D03*
X37750001Y-148125000D03*
%TO.N,/PWR_OUT*%
X31525000Y-135400000D03*
X24900000Y-144800000D03*
X23300000Y-139000000D03*
X46025000Y-131299990D03*
%TO.N,VBUS*%
X26100000Y-141925000D03*
X29650000Y-148474969D03*
X32600000Y-144800000D03*
X34088557Y-143192045D03*
%TO.N,+5V*%
X39425000Y-138650000D03*
X48571857Y-139872032D03*
%TO.N,/VBAT_OUT*%
X27497468Y-144575010D03*
X34137430Y-148449990D03*
%TO.N,/controller/RTD_+VE*%
X51250000Y-143250000D03*
X35625000Y-132250000D03*
%TO.N,/controller/reset*%
X51419600Y-141066035D03*
%TO.N,/controller/HEATER_PWM_PIN*%
X25125000Y-134600000D03*
X44616739Y-148036169D03*
%TO.N,/controller/LED_RED*%
X22099990Y-129400010D03*
X45349998Y-149075000D03*
%TO.N,/controller/LED_GREEN*%
X21155354Y-128975010D03*
X47562861Y-148158468D03*
%TO.N,/controller/LED_BLUE*%
X23900000Y-130225000D03*
X48617763Y-148391985D03*
%TO.N,/controller/TEMP_LVL_BTN*%
X21775000Y-126825000D03*
X42582046Y-141954673D03*
%TO.N,/controller/ON_OFF_BTN*%
X36664832Y-146615151D03*
X21325000Y-146550000D03*
%TO.N,vbat+*%
X17525000Y-143750000D03*
X28823481Y-147912040D03*
X50675000Y-126775000D03*
%TO.N,+3V3*%
X43468079Y-145891022D03*
X52782752Y-141123484D03*
X53176048Y-143851048D03*
X50070458Y-140299990D03*
%TO.N,Net-(R16-Pad2)*%
X49904336Y-142076956D03*
X54950000Y-131750000D03*
%TD*%
D33*
%TO.N,GND*%
X30700000Y-146125000D02*
X30950000Y-146375000D01*
X30700000Y-144912500D02*
X30700000Y-146125000D01*
X47125000Y-144775000D02*
X47375000Y-144525000D01*
X44937500Y-144775000D02*
X47125000Y-144775000D01*
X47625000Y-144275000D02*
X47375000Y-144525000D01*
X49812500Y-144275000D02*
X47625000Y-144275000D01*
X50830000Y-144275000D02*
X51250000Y-144695000D01*
X49812500Y-144275000D02*
X50830000Y-144275000D01*
X47200000Y-144525000D02*
X46400000Y-143725000D01*
X47375000Y-144525000D02*
X47200000Y-144525000D01*
D34*
X41950000Y-145350000D02*
X41775000Y-145175000D01*
X42550000Y-145350000D02*
X41950000Y-145350000D01*
X43700000Y-139250000D02*
X43500000Y-139450000D01*
X44550000Y-139250000D02*
X43700000Y-139250000D01*
X43125000Y-139075000D02*
X43500000Y-139450000D01*
X43125000Y-138360000D02*
X43125000Y-139075000D01*
X47400000Y-144525000D02*
X48400000Y-143525000D01*
X47375000Y-144525000D02*
X47400000Y-144525000D01*
D33*
X51250000Y-144695000D02*
X51482893Y-144695000D01*
X51482893Y-144695000D02*
X51881547Y-144296346D01*
D34*
X43409963Y-143125037D02*
X43899954Y-143125037D01*
X42570000Y-143965000D02*
X43409963Y-143125037D01*
X42570000Y-144275000D02*
X42570000Y-143965000D01*
D33*
X44451978Y-143775000D02*
X43899954Y-143222976D01*
X43899954Y-143222976D02*
X43899954Y-143125037D01*
X44937500Y-143775000D02*
X44451978Y-143775000D01*
D34*
X41671939Y-144275000D02*
X41346929Y-144600010D01*
X42570000Y-144275000D02*
X41671939Y-144275000D01*
D33*
X30225010Y-147099990D02*
X30950000Y-146375000D01*
X29512510Y-147099990D02*
X30225010Y-147099990D01*
X29487500Y-147125000D02*
X29512510Y-147099990D01*
X30700000Y-146625000D02*
X30950000Y-146375000D01*
X30700000Y-147837500D02*
X30700000Y-146625000D01*
X31700000Y-148175000D02*
X31950000Y-148425000D01*
X31700000Y-147837500D02*
X31700000Y-148175000D01*
X31674990Y-147099990D02*
X30950000Y-146375000D01*
X31674990Y-147812490D02*
X31674990Y-147099990D01*
X31700000Y-147837500D02*
X31674990Y-147812490D01*
D34*
X26300000Y-146025000D02*
X26250000Y-145975000D01*
X25100000Y-146775000D02*
X25075000Y-146800000D01*
X26300000Y-146775000D02*
X25100000Y-146775000D01*
X26300000Y-147700000D02*
X26300000Y-146775000D01*
X26300000Y-146775000D02*
X26300000Y-146025000D01*
X17225000Y-130275000D02*
X16375000Y-130275000D01*
X17950000Y-130275000D02*
X17225000Y-130275000D01*
X18675000Y-130275000D02*
X17950000Y-130275000D01*
D33*
X30700000Y-144912500D02*
X30700000Y-144300000D01*
X30386400Y-144049990D02*
X30249990Y-144049990D01*
X30700000Y-144363590D02*
X30386400Y-144049990D01*
X30700000Y-144912500D02*
X30700000Y-144363590D01*
X30249990Y-144049990D02*
X29950000Y-143750000D01*
X29950000Y-143750000D02*
X29950000Y-142000000D01*
X30400000Y-141550000D02*
X30900000Y-141550000D01*
X29950000Y-142000000D02*
X30400000Y-141550000D01*
X36925000Y-132350000D02*
X37275000Y-132000000D01*
X36925000Y-132875000D02*
X36925000Y-132350000D01*
X37275000Y-130175000D02*
X37325000Y-130125000D01*
X37275000Y-132000000D02*
X37275000Y-130175000D01*
X42775000Y-134450000D02*
X42775000Y-134225000D01*
X42000010Y-136524990D02*
X41900000Y-136625000D01*
X42000010Y-135352992D02*
X42000010Y-136524990D01*
X42775000Y-134578002D02*
X42000010Y-135352992D01*
X42775000Y-134225000D02*
X42775000Y-134578002D01*
X43550000Y-148750000D02*
X43750000Y-148550000D01*
X42600000Y-148750000D02*
X43550000Y-148750000D01*
X16162500Y-138350000D02*
X16162500Y-139550000D01*
X40987500Y-138650000D02*
X40987500Y-139737500D01*
X40987500Y-139737500D02*
X40275000Y-140450000D01*
X40275000Y-140450000D02*
X36775000Y-140450000D01*
X36775000Y-140450000D02*
X36000000Y-141225000D01*
X36000000Y-141225000D02*
X36000000Y-142800000D01*
X35025000Y-143775000D02*
X35025000Y-143875000D01*
X36000000Y-142800000D02*
X35025000Y-143775000D01*
D34*
X39251606Y-145600000D02*
X39150000Y-145498394D01*
X40400000Y-146950000D02*
X39201616Y-146950000D01*
X39970000Y-145600000D02*
X39251606Y-145600000D01*
X39098394Y-145498394D02*
X39150000Y-145498394D01*
X38375000Y-144775000D02*
X39098394Y-145498394D01*
X39201616Y-146950000D02*
X39200021Y-146948405D01*
D33*
X42775000Y-134450000D02*
X42775000Y-134325000D01*
X42299999Y-133849999D02*
X42299999Y-132775001D01*
X42775000Y-134325000D02*
X42299999Y-133849999D01*
X42425000Y-132650000D02*
X42425000Y-132150000D01*
X42299999Y-132775001D02*
X42425000Y-132650000D01*
D34*
X50950000Y-130275000D02*
X51025000Y-130350000D01*
X49325000Y-130275000D02*
X50950000Y-130275000D01*
X47125000Y-134435000D02*
X47125000Y-135250000D01*
X47125000Y-135250000D02*
X47150000Y-135275000D01*
X37765001Y-148140000D02*
X37750001Y-148125000D01*
X36400000Y-148125000D02*
X37750001Y-148125000D01*
X33450000Y-149325000D02*
X36550001Y-149325000D01*
X33300000Y-149175000D02*
X33450000Y-149325000D01*
X36550001Y-149325000D02*
X37750001Y-148125000D01*
X38925000Y-148140000D02*
X37765001Y-148140000D01*
X35650000Y-147375000D02*
X36400000Y-148125000D01*
%TO.N,/PWR_OUT*%
X22925000Y-144075000D02*
X23550000Y-144075000D01*
X23800000Y-143825000D02*
X24900000Y-143825000D01*
X23550000Y-144075000D02*
X23800000Y-143825000D01*
X25087500Y-136312500D02*
X25000000Y-136225000D01*
X47115000Y-133465000D02*
X47125000Y-133475000D01*
X46025000Y-133465000D02*
X47115000Y-133465000D01*
X48240000Y-133475000D02*
X48250000Y-133465000D01*
X47125000Y-133475000D02*
X48240000Y-133475000D01*
X46025000Y-133465000D02*
X45135000Y-133465000D01*
X45135000Y-133465000D02*
X45150000Y-133480000D01*
X45150000Y-133480000D02*
X45150000Y-133850000D01*
D33*
X44175000Y-133450000D02*
X44625000Y-133450000D01*
X44655000Y-133480000D02*
X45150000Y-133480000D01*
X44625000Y-133450000D02*
X44655000Y-133480000D01*
X45050000Y-133950000D02*
X45150000Y-133850000D01*
X44175000Y-133950000D02*
X45050000Y-133950000D01*
D34*
X25087500Y-136537500D02*
X24850000Y-136300000D01*
X25087500Y-139000000D02*
X25087500Y-136537500D01*
X20575000Y-137475000D02*
X21775000Y-137475000D01*
X21775000Y-137475000D02*
X23300000Y-139000000D01*
X23300000Y-139000000D02*
X25087500Y-139000000D01*
X24900000Y-143825000D02*
X24900000Y-144800000D01*
X30474999Y-136450001D02*
X31525000Y-135400000D01*
X25000001Y-136450001D02*
X30474999Y-136450001D01*
X24850000Y-136300000D02*
X25000001Y-136450001D01*
X45650000Y-130924990D02*
X46025000Y-131299990D01*
X46025000Y-133465000D02*
X46025000Y-131299990D01*
X45650000Y-128475000D02*
X45650000Y-130924990D01*
%TO.N,VBUS*%
X24850000Y-141975000D02*
X24900000Y-141925000D01*
X23300000Y-140625000D02*
X23300000Y-141875000D01*
X23300000Y-141875000D02*
X23200000Y-141975000D01*
X23200000Y-141975000D02*
X24850000Y-141975000D01*
X22925000Y-141975000D02*
X23200000Y-141975000D01*
X24900000Y-141925000D02*
X24900000Y-142175000D01*
D33*
X31700000Y-144912500D02*
X31700000Y-144375000D01*
X31700000Y-144375000D02*
X32100000Y-143975000D01*
D34*
X32975000Y-143550000D02*
X32550000Y-143975000D01*
X32975000Y-143150000D02*
X32975000Y-143550000D01*
X32550000Y-143975000D02*
X32100000Y-143975000D01*
X24900000Y-141925000D02*
X26100000Y-141925000D01*
X16162500Y-135750000D02*
X18400000Y-135750000D01*
X18400000Y-135750000D02*
X18825000Y-136175000D01*
X18825000Y-136175000D02*
X18825000Y-138025000D01*
X20500011Y-139700011D02*
X22695011Y-139700011D01*
X18825000Y-138025000D02*
X20500011Y-139700011D01*
X22695011Y-139700011D02*
X23300000Y-140305000D01*
X23300000Y-140305000D02*
X23300000Y-140625000D01*
D33*
X30200000Y-147924969D02*
X29650000Y-148474969D01*
X30200000Y-147837500D02*
X30200000Y-147924969D01*
D34*
X32975000Y-143150000D02*
X34046512Y-143150000D01*
X34046512Y-143150000D02*
X34088557Y-143192045D01*
D33*
X32600000Y-144025000D02*
X32550000Y-143975000D01*
X32600000Y-144800000D02*
X32600000Y-144025000D01*
D34*
%TO.N,Net-(C5-Pad1)*%
X43125000Y-137400000D02*
X43300000Y-137400000D01*
X43300000Y-137400000D02*
X44150000Y-136550000D01*
X44150000Y-136550000D02*
X44150000Y-135975000D01*
D33*
X44175000Y-135950000D02*
X44150000Y-135975000D01*
X44175000Y-135450000D02*
X44175000Y-135950000D01*
%TO.N,Net-(C8-Pad2)*%
X44175000Y-134950000D02*
X44975000Y-134950000D01*
D34*
X46375000Y-137600000D02*
X46400000Y-137575000D01*
X44550000Y-137600000D02*
X46375000Y-137600000D01*
X48050000Y-137575000D02*
X48100000Y-137625000D01*
X46400000Y-137575000D02*
X48050000Y-137575000D01*
X44975000Y-134950000D02*
X44975000Y-135050000D01*
X46350000Y-136425000D02*
X46350000Y-137525000D01*
X44975000Y-135050000D02*
X46350000Y-136425000D01*
X46350000Y-137525000D02*
X46400000Y-137575000D01*
%TO.N,+5V*%
X39650000Y-133885000D02*
X39600000Y-133835000D01*
X37925000Y-135250000D02*
X37925000Y-135125000D01*
X38300000Y-134750000D02*
X38300000Y-133810000D01*
X37925000Y-135125000D02*
X38300000Y-134750000D01*
X36925000Y-133835000D02*
X36925000Y-134500000D01*
X37175000Y-134750000D02*
X38300000Y-134750000D01*
X36925000Y-134500000D02*
X37175000Y-134750000D01*
X39625000Y-134750000D02*
X39650000Y-134725000D01*
X38300000Y-134750000D02*
X39625000Y-134750000D01*
X39650000Y-134725000D02*
X39650000Y-133885000D01*
X39650000Y-135165000D02*
X39650000Y-134725000D01*
D33*
X40700000Y-134950000D02*
X40500000Y-134750000D01*
X41375000Y-134950000D02*
X40700000Y-134950000D01*
X40913186Y-134450000D02*
X40813176Y-134550010D01*
X41375000Y-134450000D02*
X40913186Y-134450000D01*
X40599990Y-134550010D02*
X40400000Y-134750000D01*
X40813176Y-134550010D02*
X40599990Y-134550010D01*
D34*
X40400000Y-134750000D02*
X40500000Y-134750000D01*
X39625000Y-134750000D02*
X40400000Y-134750000D01*
D33*
X40599990Y-134650010D02*
X40500000Y-134750000D01*
X40599990Y-134550010D02*
X40599990Y-134650010D01*
D34*
X37912500Y-138650000D02*
X37225000Y-138650000D01*
X37225000Y-138650000D02*
X36350000Y-137775000D01*
X36350000Y-137775000D02*
X35300000Y-137775000D01*
X34700000Y-137175000D02*
X34700000Y-136400000D01*
X35300000Y-137775000D02*
X34700000Y-137175000D01*
X34325000Y-133500000D02*
X34325000Y-134750000D01*
X34700000Y-135125000D02*
X34700000Y-136400000D01*
X34325000Y-134750000D02*
X34700000Y-135125000D01*
X36925000Y-134500000D02*
X36100000Y-134500000D01*
X35475000Y-135125000D02*
X34700000Y-135125000D01*
X36100000Y-134500000D02*
X35475000Y-135125000D01*
X48050000Y-139225000D02*
X48100000Y-139175000D01*
X46400000Y-139225000D02*
X48050000Y-139225000D01*
X37912500Y-138650000D02*
X39425000Y-138650000D01*
X28700000Y-132475000D02*
X29750000Y-132475000D01*
X30585000Y-133310000D02*
X31175000Y-133310000D01*
X29750000Y-132475000D02*
X30585000Y-133310000D01*
X31175000Y-133310000D02*
X31385000Y-133310000D01*
X33200000Y-135125000D02*
X34700000Y-135125000D01*
X31385000Y-133310000D02*
X33200000Y-135125000D01*
X48100000Y-139175000D02*
X48571857Y-139646857D01*
X48571857Y-139646857D02*
X48571857Y-139872032D01*
D33*
%TO.N,/VBAT_OUT*%
X32412500Y-146625000D02*
X33525000Y-146625000D01*
X34100000Y-147200000D02*
X34100000Y-147375000D01*
X33525000Y-146625000D02*
X34100000Y-147200000D01*
D34*
X26900000Y-142875000D02*
X26900000Y-143977542D01*
X26900000Y-143977542D02*
X27497468Y-144575010D01*
X34100000Y-148412560D02*
X34137430Y-148449990D01*
X34100000Y-147375000D02*
X34100000Y-148412560D01*
D33*
X32412500Y-146625000D02*
X32412500Y-146125000D01*
X32412500Y-146125000D02*
X33225000Y-146125000D01*
X33525000Y-146425000D02*
X33525000Y-146625000D01*
X33225000Y-146125000D02*
X33525000Y-146425000D01*
X33525000Y-146425000D02*
X33625000Y-146425000D01*
X34100000Y-146900000D02*
X34100000Y-147375000D01*
X33625000Y-146425000D02*
X34100000Y-146900000D01*
%TO.N,/controller/XTAL1*%
X40930000Y-145600000D02*
X41025000Y-145600000D01*
X41025000Y-145600000D02*
X41375000Y-145950000D01*
X41600000Y-145950000D02*
X42600000Y-146950000D01*
X41375000Y-145950000D02*
X41600000Y-145950000D01*
X42600000Y-146950000D02*
X43523004Y-146950000D01*
X44174990Y-146298014D02*
X44174990Y-146051988D01*
X43523004Y-146950000D02*
X44174990Y-146298014D01*
X44174990Y-146051988D02*
X44451978Y-145775000D01*
X44451978Y-145775000D02*
X44937500Y-145775000D01*
%TO.N,/controller/XTAL2*%
X40050000Y-149100000D02*
X40400000Y-148750000D01*
X38925000Y-149100000D02*
X40050000Y-149100000D01*
X43337500Y-147875000D02*
X41275000Y-147875000D01*
X44937500Y-146275000D02*
X43337500Y-147875000D01*
X41275000Y-147875000D02*
X40400000Y-148750000D01*
%TO.N,/~PGOOD*%
X20262500Y-142100000D02*
X20700000Y-142100000D01*
X22325012Y-143725012D02*
X22325012Y-145840599D01*
X20700000Y-142100000D02*
X22325012Y-143725012D01*
X22325012Y-145840599D02*
X22500012Y-146015599D01*
X31200000Y-148298022D02*
X31200000Y-148250000D01*
X22500012Y-146015599D02*
X22500012Y-146040599D01*
X25659392Y-149199979D02*
X30298043Y-149199979D01*
X22500012Y-146040599D02*
X25659392Y-149199979D01*
X31200000Y-148250000D02*
X31200000Y-147837500D01*
X30298043Y-149199979D02*
X31200000Y-148298022D01*
%TO.N,Net-(D2-Pad2)*%
X18502500Y-141915000D02*
X18687500Y-142100000D01*
X16650000Y-141915000D02*
X18502500Y-141915000D01*
%TO.N,Net-(D3-Pad2)*%
X16675000Y-145495000D02*
X18067500Y-145495000D01*
X18067500Y-145495000D02*
X18837500Y-144725000D01*
%TO.N,/~CHRG*%
X32687201Y-148714795D02*
X32687201Y-147399701D01*
X32687201Y-147399701D02*
X32412500Y-147125000D01*
X31752006Y-149649990D02*
X32687201Y-148714795D01*
X25447992Y-149649990D02*
X31752006Y-149649990D01*
X22050001Y-146251999D02*
X25447992Y-149649990D01*
X22050001Y-146201999D02*
X22050001Y-146251999D01*
X20573002Y-144725000D02*
X22050001Y-146201999D01*
X20412500Y-144725000D02*
X20573002Y-144725000D01*
D34*
%TO.N,/controller/HEATER_+VE*%
X29650000Y-134475000D02*
X28650000Y-133475000D01*
X28650000Y-133475000D02*
X27850000Y-133475000D01*
X26200000Y-131825000D02*
X26200000Y-127725000D01*
X27850000Y-133475000D02*
X26200000Y-131825000D01*
D33*
%TO.N,/controller/RTD_+VE*%
X51225000Y-143275000D02*
X51250000Y-143250000D01*
X49812500Y-143275000D02*
X51225000Y-143275000D01*
D34*
X35625000Y-132250000D02*
X35100000Y-131725000D01*
X31740000Y-131725000D02*
X31175000Y-132290000D01*
X35100000Y-131725000D02*
X31740000Y-131725000D01*
X31740000Y-131725000D02*
X31740000Y-131440000D01*
X31200000Y-130900000D02*
X31200000Y-127725000D01*
X31740000Y-131440000D02*
X31200000Y-130900000D01*
D33*
%TO.N,/controller/MISO*%
X51948912Y-146962500D02*
X54425011Y-144486401D01*
X54425011Y-141104012D02*
X52800000Y-139479001D01*
X52800000Y-135200000D02*
X51625000Y-134025000D01*
X49125000Y-146962500D02*
X51948912Y-146962500D01*
X52800000Y-139479001D02*
X52800000Y-135200000D01*
X54425011Y-144486401D02*
X54425011Y-141104012D01*
%TO.N,/controller/CLK*%
X52000001Y-146275000D02*
X53975000Y-144300001D01*
X53975000Y-141290412D02*
X52964589Y-140280001D01*
X52964589Y-140280001D02*
X51138263Y-140280001D01*
X50275011Y-139416749D02*
X50275011Y-137914989D01*
X50275011Y-137914989D02*
X51625000Y-136565000D01*
X51138263Y-140280001D02*
X50275011Y-139416749D01*
X49812500Y-146275000D02*
X52000001Y-146275000D01*
X53975000Y-144300001D02*
X53975000Y-141290412D01*
%TO.N,/controller/MOSI*%
X48625000Y-146962500D02*
X48625000Y-147448022D01*
X55340001Y-137740001D02*
X54165000Y-136565000D01*
X51822812Y-147725010D02*
X55340001Y-144207821D01*
X48901988Y-147725010D02*
X51822812Y-147725010D01*
X48625000Y-147448022D02*
X48901988Y-147725010D01*
X55340001Y-144207821D02*
X55340001Y-137740001D01*
%TO.N,/controller/reset*%
X51990000Y-142075000D02*
X51990000Y-141636435D01*
X51990000Y-141636435D02*
X51419600Y-141066035D01*
X47125000Y-142087500D02*
X47125000Y-141250000D01*
X51378565Y-141025000D02*
X51419600Y-141066035D01*
X47350000Y-141025000D02*
X51378565Y-141025000D01*
X47125000Y-141250000D02*
X47350000Y-141025000D01*
D34*
%TO.N,Net-(Q2-Pad1)*%
X27030000Y-133755000D02*
X26300000Y-133755000D01*
X27750000Y-134475000D02*
X27030000Y-133755000D01*
%TO.N,Net-(R1-Pad1)*%
X30900000Y-143625000D02*
X31200000Y-143925000D01*
X30900000Y-143200000D02*
X30900000Y-143625000D01*
D33*
X31200000Y-144912500D02*
X31200000Y-143925000D01*
%TO.N,Net-(R2-Pad1)*%
X32412500Y-145625000D02*
X32950000Y-145625000D01*
X33075000Y-145500000D02*
X34025000Y-145500000D01*
X32950000Y-145625000D02*
X33075000Y-145500000D01*
%TO.N,Net-(R3-Pad1)*%
X30200000Y-144550000D02*
X30200000Y-144912500D01*
X28950000Y-143200000D02*
X28950000Y-143300000D01*
X30200000Y-144500000D02*
X30200000Y-144912500D01*
D34*
X28950000Y-144375000D02*
X29600000Y-144375000D01*
X28950000Y-143200000D02*
X28950000Y-144375000D01*
D33*
X30200000Y-144912500D02*
X29612500Y-144912500D01*
X29600000Y-144900000D02*
X29600000Y-144375000D01*
X29612500Y-144912500D02*
X29600000Y-144900000D01*
%TO.N,Net-(R5-Pad1)*%
X28250000Y-145625000D02*
X27900000Y-145975000D01*
X29487500Y-145625000D02*
X28250000Y-145625000D01*
%TO.N,/controller/HEATER_PWM_PIN*%
X26125000Y-134600000D02*
X26300000Y-134775000D01*
X25125000Y-134600000D02*
X26125000Y-134600000D01*
X45625000Y-146962500D02*
X44616739Y-147970761D01*
X44616739Y-147970761D02*
X44616739Y-148036169D01*
%TO.N,Net-(R13-Pad2)*%
X19900000Y-131625000D02*
X19950000Y-131575000D01*
X18675000Y-131625000D02*
X19900000Y-131625000D01*
%TO.N,/controller/LED_RED*%
X22250000Y-129550020D02*
X22099990Y-129400010D01*
X22099990Y-129400010D02*
X22099990Y-128424990D01*
X22099990Y-128424990D02*
X21925000Y-128250000D01*
X21925000Y-128250000D02*
X20700000Y-128250000D01*
X19950000Y-129000000D02*
X19950000Y-130555000D01*
X20700000Y-128250000D02*
X19950000Y-129000000D01*
X47125000Y-146962500D02*
X47125000Y-147528184D01*
X47125000Y-147528184D02*
X45578184Y-149075000D01*
X45578184Y-149075000D02*
X45349998Y-149075000D01*
%TO.N,/controller/LED_GREEN*%
X21125000Y-129005364D02*
X21155354Y-128975010D01*
X21125000Y-130500000D02*
X21125000Y-129005364D01*
X47625000Y-148096329D02*
X47562861Y-148158468D01*
X47625000Y-146962500D02*
X47625000Y-148096329D01*
%TO.N,Net-(R14-Pad2)*%
X17950000Y-131625000D02*
X17950000Y-132075000D01*
X17950000Y-132075000D02*
X18650000Y-132775000D01*
X18650000Y-132775000D02*
X20500000Y-132775000D01*
X21125000Y-132150000D02*
X21125000Y-131520000D01*
X20500000Y-132775000D02*
X21125000Y-132150000D01*
%TO.N,Net-(R15-Pad2)*%
X22350000Y-132136411D02*
X22350000Y-131535000D01*
X17225000Y-131625000D02*
X17225000Y-132175000D01*
X17225000Y-132175000D02*
X18275011Y-133225011D01*
X18275011Y-133225011D02*
X21261400Y-133225011D01*
X21261400Y-133225011D02*
X22350000Y-132136411D01*
%TO.N,/controller/LED_BLUE*%
X22350000Y-130515000D02*
X22660000Y-130515000D01*
X22950000Y-130225000D02*
X23900000Y-130225000D01*
X22660000Y-130515000D02*
X22950000Y-130225000D01*
X48125000Y-146962500D02*
X48125000Y-147651946D01*
X48617763Y-148144709D02*
X48617763Y-148391985D01*
X48125000Y-147651946D02*
X48617763Y-148144709D01*
%TO.N,/controller/TEMP_LVL_BTN*%
X21209315Y-126825000D02*
X21775000Y-126825000D01*
X15350000Y-129300000D02*
X18734315Y-129300000D01*
X14075000Y-130575000D02*
X15350000Y-129300000D01*
X18734315Y-129300000D02*
X21209315Y-126825000D01*
X13300000Y-130575000D02*
X14075000Y-130575000D01*
X13275000Y-130600000D02*
X13300000Y-130575000D01*
X13275000Y-131375000D02*
X13275000Y-130600000D01*
X45092174Y-141554674D02*
X42982045Y-141554674D01*
X42982045Y-141554674D02*
X42582046Y-141954673D01*
X45625000Y-142087500D02*
X45092174Y-141554674D01*
%TO.N,/controller/ON_OFF_BTN*%
X13200000Y-147325000D02*
X13200000Y-147625000D01*
X13200000Y-147625000D02*
X14675000Y-146150000D01*
X17025000Y-146150000D02*
X17575000Y-146150000D01*
X14675000Y-146150000D02*
X17025000Y-146150000D01*
X36664832Y-144742710D02*
X36664832Y-146615151D01*
X37846154Y-143561388D02*
X36664832Y-144742710D01*
X44937500Y-142775000D02*
X44542849Y-142380349D01*
X44542849Y-142380349D02*
X43194651Y-142380349D01*
X43194651Y-142380349D02*
X42013612Y-143561388D01*
X42013612Y-143561388D02*
X37846154Y-143561388D01*
X20925001Y-146150001D02*
X21325000Y-146550000D01*
X17025000Y-146150000D02*
X20925001Y-146150001D01*
%TO.N,/controller/RXD*%
X37475000Y-142175000D02*
X38525000Y-141125000D01*
X38525000Y-141125000D02*
X40575000Y-141125000D01*
X40575000Y-141125000D02*
X41150000Y-140550000D01*
X41150000Y-140550000D02*
X46100000Y-140550000D01*
X46625000Y-141075000D02*
X46625000Y-142087500D01*
X46100000Y-140550000D02*
X46625000Y-141075000D01*
%TO.N,/controller/TXD*%
X46125000Y-142087500D02*
X46125000Y-141475000D01*
X46125000Y-141601978D02*
X45550000Y-141026978D01*
X46125000Y-142087500D02*
X46125000Y-141601978D01*
X45550000Y-141026978D02*
X41573022Y-141026978D01*
X40700000Y-141900000D02*
X40700000Y-142325000D01*
X41573022Y-141026978D02*
X40700000Y-141900000D01*
D34*
%TO.N,Net-(L1-Pad2)*%
X39600000Y-128475000D02*
X40025000Y-128475000D01*
X40025000Y-128475000D02*
X39625000Y-128875000D01*
X39625000Y-128875000D02*
X39625000Y-130500000D01*
X39625000Y-130500000D02*
X40575000Y-131450000D01*
D33*
X40675000Y-133450000D02*
X40575000Y-133350000D01*
X41375000Y-133450000D02*
X40675000Y-133450000D01*
D34*
X40575000Y-133350000D02*
X40575000Y-133975000D01*
X40575000Y-131450000D02*
X40575000Y-133350000D01*
D33*
X40600000Y-133950000D02*
X40575000Y-133975000D01*
X41375000Y-133950000D02*
X40600000Y-133950000D01*
D34*
%TO.N,vbat+*%
X27850000Y-147700000D02*
X27850000Y-147675000D01*
D33*
X29487500Y-146625000D02*
X28600000Y-146625000D01*
X29487500Y-146125000D02*
X29487500Y-146625000D01*
D34*
X27850000Y-147375000D02*
X28350000Y-146875000D01*
X27850000Y-147700000D02*
X27850000Y-147375000D01*
D33*
X28600000Y-146625000D02*
X28350000Y-146875000D01*
X16650000Y-144450000D02*
X16675000Y-144475000D01*
X16650000Y-143750000D02*
X17525000Y-143750000D01*
X16650000Y-142935000D02*
X16650000Y-143750000D01*
X16650000Y-143750000D02*
X16650000Y-144450000D01*
D34*
X27850000Y-147700000D02*
X28611441Y-147700000D01*
X28611441Y-147700000D02*
X28823481Y-147912040D01*
X50675000Y-127800000D02*
X50575000Y-127900000D01*
X50675000Y-126775000D02*
X50675000Y-127800000D01*
X50575000Y-127900000D02*
X51325000Y-127900000D01*
X51825000Y-128400000D02*
X51825000Y-129270000D01*
X51325000Y-127900000D02*
X51825000Y-128400000D01*
X51825000Y-129270000D02*
X52745000Y-129270000D01*
X52975000Y-129500000D02*
X52975000Y-130125000D01*
X52745000Y-129270000D02*
X52975000Y-129500000D01*
%TO.N,+3V3*%
X43510000Y-145849101D02*
X43468079Y-145891022D01*
X52782752Y-141123484D02*
X52782752Y-141207752D01*
X52782752Y-141207752D02*
X53010000Y-141435000D01*
X51570000Y-145655000D02*
X51724989Y-145655000D01*
X51724989Y-145655000D02*
X53176048Y-144203941D01*
X53176048Y-144203941D02*
X53176048Y-143851048D01*
X43468079Y-145391921D02*
X43510000Y-145350000D01*
X43468079Y-145891022D02*
X43468079Y-145391921D01*
X43510000Y-144295000D02*
X43530000Y-144275000D01*
X43510000Y-145350000D02*
X43510000Y-144295000D01*
D33*
X43585000Y-145275000D02*
X43510000Y-145350000D01*
X44937500Y-145275000D02*
X43585000Y-145275000D01*
X43530000Y-144275000D02*
X44937500Y-144275000D01*
X49812500Y-145775000D02*
X50675000Y-145775000D01*
X50795000Y-145655000D02*
X51250000Y-145655000D01*
X50675000Y-145775000D02*
X50795000Y-145655000D01*
X53010000Y-143685000D02*
X53176048Y-143851048D01*
X53010000Y-142075000D02*
X53010000Y-143685000D01*
D34*
X48365000Y-130275000D02*
X48365000Y-129835000D01*
X48575000Y-129625000D02*
X48575000Y-128850000D01*
X48365000Y-129835000D02*
X48575000Y-129625000D01*
X49300000Y-131900000D02*
X49500000Y-131900000D01*
X48365000Y-130965000D02*
X49300000Y-131900000D01*
X48365000Y-130275000D02*
X48365000Y-130965000D01*
X50025000Y-131900000D02*
X49500000Y-131900000D01*
X51975000Y-131900000D02*
X50025000Y-131900000D01*
X54100000Y-134025000D02*
X51975000Y-131900000D01*
X54165000Y-134025000D02*
X54100000Y-134025000D01*
X49500000Y-139729532D02*
X50070458Y-140299990D01*
X49500000Y-131900000D02*
X49500000Y-139729532D01*
X51250000Y-145655000D02*
X51724989Y-145655000D01*
X53010000Y-141350732D02*
X52782752Y-141123484D01*
X53010000Y-142075000D02*
X53010000Y-141350732D01*
%TO.N,Net-(R16-Pad2)*%
X53995000Y-131300000D02*
X53995000Y-130125000D01*
D33*
X49904336Y-142683164D02*
X49812500Y-142775000D01*
X49904336Y-142076956D02*
X49904336Y-142683164D01*
X53995000Y-131300000D02*
X54800000Y-131300000D01*
X54950000Y-131450000D02*
X54950000Y-131750000D01*
X54800000Y-131300000D02*
X54950000Y-131450000D01*
%TD*%
D35*
%TO.N,GND*%
X33477656Y-149253927D02*
X33606474Y-149340000D01*
X33136799Y-149340000D01*
X33198210Y-149278589D01*
X33227202Y-149254796D01*
X33250996Y-149225803D01*
X33251000Y-149225799D01*
X33322174Y-149139072D01*
X33322175Y-149139071D01*
X33336326Y-149112597D01*
X33477656Y-149253927D01*
%TA.AperFunction,Conductor*%
D36*
G36*
X33477656Y-149253927D02*
G01*
X33606474Y-149340000D01*
X33136799Y-149340000D01*
X33198210Y-149278589D01*
X33227202Y-149254796D01*
X33250996Y-149225803D01*
X33251000Y-149225799D01*
X33322174Y-149139072D01*
X33322175Y-149139071D01*
X33336326Y-149112597D01*
X33477656Y-149253927D01*
G37*
%TD.AperFunction*%
D35*
X16881675Y-147193919D02*
X16815000Y-147529117D01*
X16815000Y-147870883D01*
X16881675Y-148206081D01*
X17012463Y-148521831D01*
X17202337Y-148805998D01*
X17444002Y-149047663D01*
X17728169Y-149237537D01*
X17975536Y-149340000D01*
X14207278Y-149340000D01*
X13895917Y-149309471D01*
X13627464Y-149228420D01*
X13379871Y-149096773D01*
X13162555Y-148919534D01*
X12983812Y-148703471D01*
X12866915Y-148487276D01*
X12875000Y-148488072D01*
X13525000Y-148488072D01*
X13649482Y-148475812D01*
X13769180Y-148439502D01*
X13879494Y-148380537D01*
X13976185Y-148301185D01*
X14055537Y-148204494D01*
X14114502Y-148094180D01*
X14150812Y-147974482D01*
X14163072Y-147850000D01*
X14163072Y-147736729D01*
X14386928Y-147512873D01*
X14386928Y-147850000D01*
X14399188Y-147974482D01*
X14435498Y-148094180D01*
X14494463Y-148204494D01*
X14573815Y-148301185D01*
X14670506Y-148380537D01*
X14780820Y-148439502D01*
X14900518Y-148475812D01*
X15025000Y-148488072D01*
X15675000Y-148488072D01*
X15799482Y-148475812D01*
X15919180Y-148439502D01*
X16029494Y-148380537D01*
X16126185Y-148301185D01*
X16205537Y-148204494D01*
X16264502Y-148094180D01*
X16300812Y-147974482D01*
X16313072Y-147850000D01*
X16313072Y-146910000D01*
X16999278Y-146910000D01*
X16881675Y-147193919D01*
%TA.AperFunction,Conductor*%
D36*
G36*
X16881675Y-147193919D02*
G01*
X16815000Y-147529117D01*
X16815000Y-147870883D01*
X16881675Y-148206081D01*
X17012463Y-148521831D01*
X17202337Y-148805998D01*
X17444002Y-149047663D01*
X17728169Y-149237537D01*
X17975536Y-149340000D01*
X14207278Y-149340000D01*
X13895917Y-149309471D01*
X13627464Y-149228420D01*
X13379871Y-149096773D01*
X13162555Y-148919534D01*
X12983812Y-148703471D01*
X12866915Y-148487276D01*
X12875000Y-148488072D01*
X13525000Y-148488072D01*
X13649482Y-148475812D01*
X13769180Y-148439502D01*
X13879494Y-148380537D01*
X13976185Y-148301185D01*
X14055537Y-148204494D01*
X14114502Y-148094180D01*
X14150812Y-147974482D01*
X14163072Y-147850000D01*
X14163072Y-147736729D01*
X14386928Y-147512873D01*
X14386928Y-147850000D01*
X14399188Y-147974482D01*
X14435498Y-148094180D01*
X14494463Y-148204494D01*
X14573815Y-148301185D01*
X14670506Y-148380537D01*
X14780820Y-148439502D01*
X14900518Y-148475812D01*
X15025000Y-148488072D01*
X15675000Y-148488072D01*
X15799482Y-148475812D01*
X15919180Y-148439502D01*
X16029494Y-148380537D01*
X16126185Y-148301185D01*
X16205537Y-148204494D01*
X16264502Y-148094180D01*
X16300812Y-147974482D01*
X16313072Y-147850000D01*
X16313072Y-146910000D01*
X16999278Y-146910000D01*
X16881675Y-147193919D01*
G37*
%TD.AperFunction*%
D35*
X43812802Y-148695943D02*
X43956965Y-148840106D01*
X44126483Y-148953374D01*
X44314841Y-149031395D01*
X44314998Y-149031426D01*
X44314998Y-149176939D01*
X44347433Y-149340000D01*
X41679208Y-149340000D01*
X41688072Y-149250000D01*
X41688072Y-148635000D01*
X43300178Y-148635000D01*
X43337500Y-148638676D01*
X43374822Y-148635000D01*
X43374833Y-148635000D01*
X43486486Y-148624003D01*
X43629747Y-148580546D01*
X43707814Y-148538818D01*
X43812802Y-148695943D01*
%TA.AperFunction,Conductor*%
D36*
G36*
X43812802Y-148695943D02*
G01*
X43956965Y-148840106D01*
X44126483Y-148953374D01*
X44314841Y-149031395D01*
X44314998Y-149031426D01*
X44314998Y-149176939D01*
X44347433Y-149340000D01*
X41679208Y-149340000D01*
X41688072Y-149250000D01*
X41688072Y-148635000D01*
X43300178Y-148635000D01*
X43337500Y-148638676D01*
X43374822Y-148635000D01*
X43374833Y-148635000D01*
X43486486Y-148624003D01*
X43629747Y-148580546D01*
X43707814Y-148538818D01*
X43812802Y-148695943D01*
G37*
%TD.AperFunction*%
D35*
X32543470Y-135720049D02*
X32571183Y-135753817D01*
X32604951Y-135781530D01*
X32604953Y-135781532D01*
X32705941Y-135864411D01*
X32859686Y-135946589D01*
X32890050Y-135955800D01*
X32886928Y-135987498D01*
X32886928Y-136812502D01*
X32903992Y-136985756D01*
X32954528Y-137152352D01*
X33036595Y-137305887D01*
X33147038Y-137440462D01*
X33281613Y-137550905D01*
X33435148Y-137632972D01*
X33601744Y-137683508D01*
X33774998Y-137700572D01*
X33986452Y-137700572D01*
X34071183Y-137803817D01*
X34104956Y-137831534D01*
X34643470Y-138370049D01*
X34671183Y-138403817D01*
X34704951Y-138431530D01*
X34704953Y-138431532D01*
X34754501Y-138472195D01*
X34805941Y-138514411D01*
X34959687Y-138596589D01*
X35126510Y-138647195D01*
X35256523Y-138660000D01*
X35256533Y-138660000D01*
X35299999Y-138664281D01*
X35343465Y-138660000D01*
X35983422Y-138660000D01*
X36568470Y-139245049D01*
X36596183Y-139278817D01*
X36611928Y-139291739D01*
X36611928Y-139575002D01*
X36628992Y-139748256D01*
X36679528Y-139914852D01*
X36761595Y-140068387D01*
X36872038Y-140202962D01*
X37006613Y-140313405D01*
X37160148Y-140395472D01*
X37326744Y-140446008D01*
X37499998Y-140463072D01*
X38151151Y-140463072D01*
X38100724Y-140490026D01*
X37984999Y-140584999D01*
X37961201Y-140613997D01*
X37535198Y-141040000D01*
X37363212Y-141040000D01*
X37143933Y-141083617D01*
X36937376Y-141169176D01*
X36751480Y-141293388D01*
X36593388Y-141451480D01*
X36469176Y-141637376D01*
X36383617Y-141843933D01*
X36340000Y-142063212D01*
X36340000Y-142286788D01*
X36383617Y-142506067D01*
X36469176Y-142712624D01*
X36593388Y-142898520D01*
X36751480Y-143056612D01*
X36937376Y-143180824D01*
X37089079Y-143243662D01*
X36153835Y-144178906D01*
X36124831Y-144202709D01*
X36088140Y-144247418D01*
X36029858Y-144318434D01*
X35978324Y-144414847D01*
X35959286Y-144450464D01*
X35915829Y-144593725D01*
X35904832Y-144705378D01*
X35904832Y-144705388D01*
X35901156Y-144742710D01*
X35904832Y-144780033D01*
X35904833Y-145911439D01*
X35860895Y-145955377D01*
X35747627Y-146124895D01*
X35669606Y-146313253D01*
X35629832Y-146513212D01*
X35629832Y-146717090D01*
X35669606Y-146917049D01*
X35747627Y-147105407D01*
X35860895Y-147274925D01*
X36005058Y-147419088D01*
X36174576Y-147532356D01*
X36362934Y-147610377D01*
X36562893Y-147650151D01*
X36766771Y-147650151D01*
X36966730Y-147610377D01*
X37155088Y-147532356D01*
X37324606Y-147419088D01*
X37468769Y-147274925D01*
X37582037Y-147105407D01*
X37660058Y-146917049D01*
X37699832Y-146717090D01*
X37699832Y-146513212D01*
X37660058Y-146313253D01*
X37582037Y-146124895D01*
X37468769Y-145955377D01*
X37424832Y-145911440D01*
X37424832Y-145057511D01*
X38160956Y-144321388D01*
X41976290Y-144321388D01*
X42013612Y-144325064D01*
X42050934Y-144321388D01*
X42050945Y-144321388D01*
X42162598Y-144310391D01*
X42305859Y-144266934D01*
X42437888Y-144196362D01*
X42553613Y-144101389D01*
X42577416Y-144072385D01*
X42619262Y-144030540D01*
X42611928Y-144105000D01*
X42611928Y-144445000D01*
X42625001Y-144577733D01*
X42625000Y-144968465D01*
X42606878Y-145028206D01*
X42591928Y-145180000D01*
X42591928Y-145258597D01*
X42583079Y-145348444D01*
X42583079Y-145348452D01*
X42582604Y-145353279D01*
X42550874Y-145400766D01*
X42472853Y-145589124D01*
X42446485Y-145721684D01*
X42163804Y-145439002D01*
X42140001Y-145409999D01*
X42024276Y-145315026D01*
X41892247Y-145244454D01*
X41815854Y-145221281D01*
X41788845Y-145132245D01*
X41716943Y-144997726D01*
X41620180Y-144879820D01*
X41502274Y-144783057D01*
X41367755Y-144711155D01*
X41221794Y-144666878D01*
X41070000Y-144651928D01*
X40790000Y-144651928D01*
X40638206Y-144666878D01*
X40492245Y-144711155D01*
X40357726Y-144783057D01*
X40239820Y-144879820D01*
X40143057Y-144997726D01*
X40071155Y-145132245D01*
X40026878Y-145278206D01*
X40011928Y-145430000D01*
X40011928Y-145770000D01*
X40026878Y-145921794D01*
X40071155Y-146067755D01*
X40143057Y-146202274D01*
X40239820Y-146320180D01*
X40357726Y-146416943D01*
X40492245Y-146488845D01*
X40638206Y-146533122D01*
X40790000Y-146548072D01*
X40905759Y-146548072D01*
X40950724Y-146584974D01*
X41082753Y-146655546D01*
X41226014Y-146699003D01*
X41279466Y-146704268D01*
X41311928Y-146736729D01*
X41311928Y-147114961D01*
X41275000Y-147111324D01*
X41237677Y-147115000D01*
X41237667Y-147115000D01*
X41126014Y-147125997D01*
X40982753Y-147169454D01*
X40850724Y-147240026D01*
X40734999Y-147334999D01*
X40711201Y-147363997D01*
X40463270Y-147611928D01*
X39750000Y-147611928D01*
X39625518Y-147624188D01*
X39505820Y-147660498D01*
X39395506Y-147719463D01*
X39298815Y-147798815D01*
X39219463Y-147895506D01*
X39160498Y-148005820D01*
X39124188Y-148125518D01*
X39118405Y-148184233D01*
X39095000Y-148181928D01*
X38755000Y-148181928D01*
X38603206Y-148196878D01*
X38457245Y-148241155D01*
X38322726Y-148313057D01*
X38204820Y-148409820D01*
X38108057Y-148527726D01*
X38036155Y-148662245D01*
X37991878Y-148808206D01*
X37976928Y-148960000D01*
X37976928Y-149240000D01*
X37986777Y-149340000D01*
X34668386Y-149340000D01*
X34797204Y-149253927D01*
X34941367Y-149109764D01*
X35054635Y-148940246D01*
X35132656Y-148751888D01*
X35172430Y-148551929D01*
X35172430Y-148348051D01*
X35132656Y-148148092D01*
X35083172Y-148028627D01*
X35122375Y-147955283D01*
X35171488Y-147793377D01*
X35188072Y-147625000D01*
X35188072Y-147125000D01*
X35171488Y-146956623D01*
X35122375Y-146794717D01*
X35042618Y-146645503D01*
X34935284Y-146514716D01*
X34804497Y-146407382D01*
X34783085Y-146395937D01*
X34817606Y-146367606D01*
X34921831Y-146240608D01*
X34999278Y-146095716D01*
X35046969Y-145938500D01*
X35063072Y-145775000D01*
X35063072Y-145225000D01*
X35046969Y-145061500D01*
X34999278Y-144904284D01*
X34921831Y-144759392D01*
X34817606Y-144632394D01*
X34690608Y-144528169D01*
X34545716Y-144450722D01*
X34388500Y-144403031D01*
X34225000Y-144386928D01*
X33825000Y-144386928D01*
X33661500Y-144403031D01*
X33567640Y-144431503D01*
X33517205Y-144309744D01*
X33497029Y-144279549D01*
X33570044Y-144206534D01*
X33603817Y-144178817D01*
X33645026Y-144128604D01*
X33786659Y-144187271D01*
X33986618Y-144227045D01*
X34190496Y-144227045D01*
X34390455Y-144187271D01*
X34578813Y-144109250D01*
X34748331Y-143995982D01*
X34892494Y-143851819D01*
X35005762Y-143682301D01*
X35083783Y-143493943D01*
X35123557Y-143293984D01*
X35123557Y-143090106D01*
X35083783Y-142890147D01*
X35005762Y-142701789D01*
X34892494Y-142532271D01*
X34748331Y-142388108D01*
X34578813Y-142274840D01*
X34390455Y-142196819D01*
X34190496Y-142157045D01*
X33986618Y-142157045D01*
X33786659Y-142196819D01*
X33723503Y-142222979D01*
X33704497Y-142207382D01*
X33555283Y-142127625D01*
X33393377Y-142078512D01*
X33225000Y-142061928D01*
X32725000Y-142061928D01*
X32556623Y-142078512D01*
X32394717Y-142127625D01*
X32245503Y-142207382D01*
X32114716Y-142314716D01*
X32007382Y-142445503D01*
X31927625Y-142594717D01*
X31919099Y-142622824D01*
X31871831Y-142534392D01*
X31767606Y-142407394D01*
X31640608Y-142303169D01*
X31495716Y-142225722D01*
X31338500Y-142178031D01*
X31175000Y-142161928D01*
X30625000Y-142161928D01*
X30461500Y-142178031D01*
X30304284Y-142225722D01*
X30159392Y-142303169D01*
X30032394Y-142407394D01*
X29928169Y-142534392D01*
X29925000Y-142540321D01*
X29921831Y-142534392D01*
X29817606Y-142407394D01*
X29690608Y-142303169D01*
X29545716Y-142225722D01*
X29388500Y-142178031D01*
X29225000Y-142161928D01*
X28675000Y-142161928D01*
X28511500Y-142178031D01*
X28354284Y-142225722D01*
X28209392Y-142303169D01*
X28082394Y-142407394D01*
X27988072Y-142522325D01*
X27988072Y-142475000D01*
X27975812Y-142350518D01*
X27939502Y-142230820D01*
X27880537Y-142120506D01*
X27801185Y-142023815D01*
X27704494Y-141944463D01*
X27594180Y-141885498D01*
X27474482Y-141849188D01*
X27350000Y-141836928D01*
X27135000Y-141836928D01*
X27135000Y-141823061D01*
X27095226Y-141623102D01*
X27017205Y-141434744D01*
X26903937Y-141265226D01*
X26759774Y-141121063D01*
X26590256Y-141007795D01*
X26401898Y-140929774D01*
X26201939Y-140890000D01*
X25998061Y-140890000D01*
X25798102Y-140929774D01*
X25677179Y-140979862D01*
X25594180Y-140935498D01*
X25474482Y-140899188D01*
X25350000Y-140886928D01*
X24450000Y-140886928D01*
X24325518Y-140899188D01*
X24205820Y-140935498D01*
X24195150Y-140941201D01*
X24208072Y-140810000D01*
X24208072Y-140677548D01*
X24335148Y-140745472D01*
X24501744Y-140796008D01*
X24674998Y-140813072D01*
X25500002Y-140813072D01*
X25673256Y-140796008D01*
X25839852Y-140745472D01*
X25993387Y-140663405D01*
X26127962Y-140552962D01*
X26238405Y-140418387D01*
X26320472Y-140264852D01*
X26371008Y-140098256D01*
X26388072Y-139925002D01*
X26388072Y-138074998D01*
X26371008Y-137901744D01*
X26320472Y-137735148D01*
X26238405Y-137581613D01*
X26127962Y-137447038D01*
X25993387Y-137336595D01*
X25990405Y-137335001D01*
X30431530Y-137335001D01*
X30474999Y-137339282D01*
X30518468Y-137335001D01*
X30518476Y-137335001D01*
X30648489Y-137322196D01*
X30815312Y-137271590D01*
X30969058Y-137189412D01*
X31103816Y-137078818D01*
X31131533Y-137045045D01*
X31770044Y-136406535D01*
X31826898Y-136395226D01*
X32015256Y-136317205D01*
X32184774Y-136203937D01*
X32328937Y-136059774D01*
X32442205Y-135890256D01*
X32520226Y-135701898D01*
X32521071Y-135697650D01*
X32543470Y-135720049D01*
%TA.AperFunction,Conductor*%
D36*
G36*
X32543470Y-135720049D02*
G01*
X32571183Y-135753817D01*
X32604951Y-135781530D01*
X32604953Y-135781532D01*
X32705941Y-135864411D01*
X32859686Y-135946589D01*
X32890050Y-135955800D01*
X32886928Y-135987498D01*
X32886928Y-136812502D01*
X32903992Y-136985756D01*
X32954528Y-137152352D01*
X33036595Y-137305887D01*
X33147038Y-137440462D01*
X33281613Y-137550905D01*
X33435148Y-137632972D01*
X33601744Y-137683508D01*
X33774998Y-137700572D01*
X33986452Y-137700572D01*
X34071183Y-137803817D01*
X34104956Y-137831534D01*
X34643470Y-138370049D01*
X34671183Y-138403817D01*
X34704951Y-138431530D01*
X34704953Y-138431532D01*
X34754501Y-138472195D01*
X34805941Y-138514411D01*
X34959687Y-138596589D01*
X35126510Y-138647195D01*
X35256523Y-138660000D01*
X35256533Y-138660000D01*
X35299999Y-138664281D01*
X35343465Y-138660000D01*
X35983422Y-138660000D01*
X36568470Y-139245049D01*
X36596183Y-139278817D01*
X36611928Y-139291739D01*
X36611928Y-139575002D01*
X36628992Y-139748256D01*
X36679528Y-139914852D01*
X36761595Y-140068387D01*
X36872038Y-140202962D01*
X37006613Y-140313405D01*
X37160148Y-140395472D01*
X37326744Y-140446008D01*
X37499998Y-140463072D01*
X38151151Y-140463072D01*
X38100724Y-140490026D01*
X37984999Y-140584999D01*
X37961201Y-140613997D01*
X37535198Y-141040000D01*
X37363212Y-141040000D01*
X37143933Y-141083617D01*
X36937376Y-141169176D01*
X36751480Y-141293388D01*
X36593388Y-141451480D01*
X36469176Y-141637376D01*
X36383617Y-141843933D01*
X36340000Y-142063212D01*
X36340000Y-142286788D01*
X36383617Y-142506067D01*
X36469176Y-142712624D01*
X36593388Y-142898520D01*
X36751480Y-143056612D01*
X36937376Y-143180824D01*
X37089079Y-143243662D01*
X36153835Y-144178906D01*
X36124831Y-144202709D01*
X36088140Y-144247418D01*
X36029858Y-144318434D01*
X35978324Y-144414847D01*
X35959286Y-144450464D01*
X35915829Y-144593725D01*
X35904832Y-144705378D01*
X35904832Y-144705388D01*
X35901156Y-144742710D01*
X35904832Y-144780033D01*
X35904833Y-145911439D01*
X35860895Y-145955377D01*
X35747627Y-146124895D01*
X35669606Y-146313253D01*
X35629832Y-146513212D01*
X35629832Y-146717090D01*
X35669606Y-146917049D01*
X35747627Y-147105407D01*
X35860895Y-147274925D01*
X36005058Y-147419088D01*
X36174576Y-147532356D01*
X36362934Y-147610377D01*
X36562893Y-147650151D01*
X36766771Y-147650151D01*
X36966730Y-147610377D01*
X37155088Y-147532356D01*
X37324606Y-147419088D01*
X37468769Y-147274925D01*
X37582037Y-147105407D01*
X37660058Y-146917049D01*
X37699832Y-146717090D01*
X37699832Y-146513212D01*
X37660058Y-146313253D01*
X37582037Y-146124895D01*
X37468769Y-145955377D01*
X37424832Y-145911440D01*
X37424832Y-145057511D01*
X38160956Y-144321388D01*
X41976290Y-144321388D01*
X42013612Y-144325064D01*
X42050934Y-144321388D01*
X42050945Y-144321388D01*
X42162598Y-144310391D01*
X42305859Y-144266934D01*
X42437888Y-144196362D01*
X42553613Y-144101389D01*
X42577416Y-144072385D01*
X42619262Y-144030540D01*
X42611928Y-144105000D01*
X42611928Y-144445000D01*
X42625001Y-144577733D01*
X42625000Y-144968465D01*
X42606878Y-145028206D01*
X42591928Y-145180000D01*
X42591928Y-145258597D01*
X42583079Y-145348444D01*
X42583079Y-145348452D01*
X42582604Y-145353279D01*
X42550874Y-145400766D01*
X42472853Y-145589124D01*
X42446485Y-145721684D01*
X42163804Y-145439002D01*
X42140001Y-145409999D01*
X42024276Y-145315026D01*
X41892247Y-145244454D01*
X41815854Y-145221281D01*
X41788845Y-145132245D01*
X41716943Y-144997726D01*
X41620180Y-144879820D01*
X41502274Y-144783057D01*
X41367755Y-144711155D01*
X41221794Y-144666878D01*
X41070000Y-144651928D01*
X40790000Y-144651928D01*
X40638206Y-144666878D01*
X40492245Y-144711155D01*
X40357726Y-144783057D01*
X40239820Y-144879820D01*
X40143057Y-144997726D01*
X40071155Y-145132245D01*
X40026878Y-145278206D01*
X40011928Y-145430000D01*
X40011928Y-145770000D01*
X40026878Y-145921794D01*
X40071155Y-146067755D01*
X40143057Y-146202274D01*
X40239820Y-146320180D01*
X40357726Y-146416943D01*
X40492245Y-146488845D01*
X40638206Y-146533122D01*
X40790000Y-146548072D01*
X40905759Y-146548072D01*
X40950724Y-146584974D01*
X41082753Y-146655546D01*
X41226014Y-146699003D01*
X41279466Y-146704268D01*
X41311928Y-146736729D01*
X41311928Y-147114961D01*
X41275000Y-147111324D01*
X41237677Y-147115000D01*
X41237667Y-147115000D01*
X41126014Y-147125997D01*
X40982753Y-147169454D01*
X40850724Y-147240026D01*
X40734999Y-147334999D01*
X40711201Y-147363997D01*
X40463270Y-147611928D01*
X39750000Y-147611928D01*
X39625518Y-147624188D01*
X39505820Y-147660498D01*
X39395506Y-147719463D01*
X39298815Y-147798815D01*
X39219463Y-147895506D01*
X39160498Y-148005820D01*
X39124188Y-148125518D01*
X39118405Y-148184233D01*
X39095000Y-148181928D01*
X38755000Y-148181928D01*
X38603206Y-148196878D01*
X38457245Y-148241155D01*
X38322726Y-148313057D01*
X38204820Y-148409820D01*
X38108057Y-148527726D01*
X38036155Y-148662245D01*
X37991878Y-148808206D01*
X37976928Y-148960000D01*
X37976928Y-149240000D01*
X37986777Y-149340000D01*
X34668386Y-149340000D01*
X34797204Y-149253927D01*
X34941367Y-149109764D01*
X35054635Y-148940246D01*
X35132656Y-148751888D01*
X35172430Y-148551929D01*
X35172430Y-148348051D01*
X35132656Y-148148092D01*
X35083172Y-148028627D01*
X35122375Y-147955283D01*
X35171488Y-147793377D01*
X35188072Y-147625000D01*
X35188072Y-147125000D01*
X35171488Y-146956623D01*
X35122375Y-146794717D01*
X35042618Y-146645503D01*
X34935284Y-146514716D01*
X34804497Y-146407382D01*
X34783085Y-146395937D01*
X34817606Y-146367606D01*
X34921831Y-146240608D01*
X34999278Y-146095716D01*
X35046969Y-145938500D01*
X35063072Y-145775000D01*
X35063072Y-145225000D01*
X35046969Y-145061500D01*
X34999278Y-144904284D01*
X34921831Y-144759392D01*
X34817606Y-144632394D01*
X34690608Y-144528169D01*
X34545716Y-144450722D01*
X34388500Y-144403031D01*
X34225000Y-144386928D01*
X33825000Y-144386928D01*
X33661500Y-144403031D01*
X33567640Y-144431503D01*
X33517205Y-144309744D01*
X33497029Y-144279549D01*
X33570044Y-144206534D01*
X33603817Y-144178817D01*
X33645026Y-144128604D01*
X33786659Y-144187271D01*
X33986618Y-144227045D01*
X34190496Y-144227045D01*
X34390455Y-144187271D01*
X34578813Y-144109250D01*
X34748331Y-143995982D01*
X34892494Y-143851819D01*
X35005762Y-143682301D01*
X35083783Y-143493943D01*
X35123557Y-143293984D01*
X35123557Y-143090106D01*
X35083783Y-142890147D01*
X35005762Y-142701789D01*
X34892494Y-142532271D01*
X34748331Y-142388108D01*
X34578813Y-142274840D01*
X34390455Y-142196819D01*
X34190496Y-142157045D01*
X33986618Y-142157045D01*
X33786659Y-142196819D01*
X33723503Y-142222979D01*
X33704497Y-142207382D01*
X33555283Y-142127625D01*
X33393377Y-142078512D01*
X33225000Y-142061928D01*
X32725000Y-142061928D01*
X32556623Y-142078512D01*
X32394717Y-142127625D01*
X32245503Y-142207382D01*
X32114716Y-142314716D01*
X32007382Y-142445503D01*
X31927625Y-142594717D01*
X31919099Y-142622824D01*
X31871831Y-142534392D01*
X31767606Y-142407394D01*
X31640608Y-142303169D01*
X31495716Y-142225722D01*
X31338500Y-142178031D01*
X31175000Y-142161928D01*
X30625000Y-142161928D01*
X30461500Y-142178031D01*
X30304284Y-142225722D01*
X30159392Y-142303169D01*
X30032394Y-142407394D01*
X29928169Y-142534392D01*
X29925000Y-142540321D01*
X29921831Y-142534392D01*
X29817606Y-142407394D01*
X29690608Y-142303169D01*
X29545716Y-142225722D01*
X29388500Y-142178031D01*
X29225000Y-142161928D01*
X28675000Y-142161928D01*
X28511500Y-142178031D01*
X28354284Y-142225722D01*
X28209392Y-142303169D01*
X28082394Y-142407394D01*
X27988072Y-142522325D01*
X27988072Y-142475000D01*
X27975812Y-142350518D01*
X27939502Y-142230820D01*
X27880537Y-142120506D01*
X27801185Y-142023815D01*
X27704494Y-141944463D01*
X27594180Y-141885498D01*
X27474482Y-141849188D01*
X27350000Y-141836928D01*
X27135000Y-141836928D01*
X27135000Y-141823061D01*
X27095226Y-141623102D01*
X27017205Y-141434744D01*
X26903937Y-141265226D01*
X26759774Y-141121063D01*
X26590256Y-141007795D01*
X26401898Y-140929774D01*
X26201939Y-140890000D01*
X25998061Y-140890000D01*
X25798102Y-140929774D01*
X25677179Y-140979862D01*
X25594180Y-140935498D01*
X25474482Y-140899188D01*
X25350000Y-140886928D01*
X24450000Y-140886928D01*
X24325518Y-140899188D01*
X24205820Y-140935498D01*
X24195150Y-140941201D01*
X24208072Y-140810000D01*
X24208072Y-140677548D01*
X24335148Y-140745472D01*
X24501744Y-140796008D01*
X24674998Y-140813072D01*
X25500002Y-140813072D01*
X25673256Y-140796008D01*
X25839852Y-140745472D01*
X25993387Y-140663405D01*
X26127962Y-140552962D01*
X26238405Y-140418387D01*
X26320472Y-140264852D01*
X26371008Y-140098256D01*
X26388072Y-139925002D01*
X26388072Y-138074998D01*
X26371008Y-137901744D01*
X26320472Y-137735148D01*
X26238405Y-137581613D01*
X26127962Y-137447038D01*
X25993387Y-137336595D01*
X25990405Y-137335001D01*
X30431530Y-137335001D01*
X30474999Y-137339282D01*
X30518468Y-137335001D01*
X30518476Y-137335001D01*
X30648489Y-137322196D01*
X30815312Y-137271590D01*
X30969058Y-137189412D01*
X31103816Y-137078818D01*
X31131533Y-137045045D01*
X31770044Y-136406535D01*
X31826898Y-136395226D01*
X32015256Y-136317205D01*
X32184774Y-136203937D01*
X32328937Y-136059774D01*
X32442205Y-135890256D01*
X32520226Y-135701898D01*
X32521071Y-135697650D01*
X32543470Y-135720049D01*
G37*
%TD.AperFunction*%
D35*
X25998815Y-143726185D02*
X26015001Y-143739468D01*
X26015001Y-143934064D01*
X26010719Y-143977542D01*
X26027805Y-144151032D01*
X26078412Y-144317855D01*
X26160590Y-144471601D01*
X26243468Y-144572588D01*
X26243471Y-144572591D01*
X26271184Y-144606359D01*
X26304951Y-144634071D01*
X26490933Y-144820053D01*
X26502242Y-144876908D01*
X26580263Y-145065266D01*
X26693531Y-145234784D01*
X26837694Y-145378947D01*
X26910972Y-145427909D01*
X26878031Y-145536500D01*
X26861928Y-145700000D01*
X26861928Y-146250000D01*
X26878031Y-146413500D01*
X26925722Y-146570716D01*
X27003169Y-146715608D01*
X27068678Y-146795431D01*
X27014716Y-146839716D01*
X26907382Y-146970503D01*
X26827625Y-147119717D01*
X26778512Y-147281623D01*
X26761928Y-147450000D01*
X26761928Y-147950000D01*
X26778512Y-148118377D01*
X26827625Y-148280283D01*
X26907382Y-148429497D01*
X26915984Y-148439979D01*
X25974194Y-148439979D01*
X23145836Y-145611622D01*
X23134986Y-145591323D01*
X23085012Y-145530429D01*
X23085012Y-145013072D01*
X23150000Y-145013072D01*
X23274482Y-145000812D01*
X23394180Y-144964502D01*
X23402603Y-144960000D01*
X23506531Y-144960000D01*
X23550000Y-144964281D01*
X23593469Y-144960000D01*
X23593477Y-144960000D01*
X23723490Y-144947195D01*
X23865437Y-144904135D01*
X23904774Y-145101898D01*
X23982795Y-145290256D01*
X24096063Y-145459774D01*
X24240226Y-145603937D01*
X24409744Y-145717205D01*
X24598102Y-145795226D01*
X24798061Y-145835000D01*
X25001939Y-145835000D01*
X25201898Y-145795226D01*
X25390256Y-145717205D01*
X25559774Y-145603937D01*
X25703937Y-145459774D01*
X25817205Y-145290256D01*
X25895226Y-145101898D01*
X25935000Y-144901939D01*
X25935000Y-144698061D01*
X25903041Y-144537392D01*
X25939502Y-144469180D01*
X25975812Y-144349482D01*
X25988072Y-144225000D01*
X25988072Y-143713095D01*
X25998815Y-143726185D01*
%TA.AperFunction,Conductor*%
D36*
G36*
X25998815Y-143726185D02*
G01*
X26015001Y-143739468D01*
X26015001Y-143934064D01*
X26010719Y-143977542D01*
X26027805Y-144151032D01*
X26078412Y-144317855D01*
X26160590Y-144471601D01*
X26243468Y-144572588D01*
X26243471Y-144572591D01*
X26271184Y-144606359D01*
X26304951Y-144634071D01*
X26490933Y-144820053D01*
X26502242Y-144876908D01*
X26580263Y-145065266D01*
X26693531Y-145234784D01*
X26837694Y-145378947D01*
X26910972Y-145427909D01*
X26878031Y-145536500D01*
X26861928Y-145700000D01*
X26861928Y-146250000D01*
X26878031Y-146413500D01*
X26925722Y-146570716D01*
X27003169Y-146715608D01*
X27068678Y-146795431D01*
X27014716Y-146839716D01*
X26907382Y-146970503D01*
X26827625Y-147119717D01*
X26778512Y-147281623D01*
X26761928Y-147450000D01*
X26761928Y-147950000D01*
X26778512Y-148118377D01*
X26827625Y-148280283D01*
X26907382Y-148429497D01*
X26915984Y-148439979D01*
X25974194Y-148439979D01*
X23145836Y-145611622D01*
X23134986Y-145591323D01*
X23085012Y-145530429D01*
X23085012Y-145013072D01*
X23150000Y-145013072D01*
X23274482Y-145000812D01*
X23394180Y-144964502D01*
X23402603Y-144960000D01*
X23506531Y-144960000D01*
X23550000Y-144964281D01*
X23593469Y-144960000D01*
X23593477Y-144960000D01*
X23723490Y-144947195D01*
X23865437Y-144904135D01*
X23904774Y-145101898D01*
X23982795Y-145290256D01*
X24096063Y-145459774D01*
X24240226Y-145603937D01*
X24409744Y-145717205D01*
X24598102Y-145795226D01*
X24798061Y-145835000D01*
X25001939Y-145835000D01*
X25201898Y-145795226D01*
X25390256Y-145717205D01*
X25559774Y-145603937D01*
X25703937Y-145459774D01*
X25817205Y-145290256D01*
X25895226Y-145101898D01*
X25935000Y-144901939D01*
X25935000Y-144698061D01*
X25903041Y-144537392D01*
X25939502Y-144469180D01*
X25975812Y-144349482D01*
X25988072Y-144225000D01*
X25988072Y-143713095D01*
X25998815Y-143726185D01*
G37*
%TD.AperFunction*%
D35*
X30748283Y-145845004D02*
X30869403Y-145909744D01*
X31000825Y-145949611D01*
X31137500Y-145963072D01*
X31262500Y-145963072D01*
X31372790Y-145952210D01*
X31361928Y-146062500D01*
X31361928Y-146187500D01*
X31375389Y-146324175D01*
X31390807Y-146375000D01*
X31375389Y-146425825D01*
X31361928Y-146562500D01*
X31361928Y-146687500D01*
X31372790Y-146797790D01*
X31262500Y-146786928D01*
X31137500Y-146786928D01*
X31000825Y-146800389D01*
X30869403Y-146840256D01*
X30748283Y-146904996D01*
X30700000Y-146944621D01*
X30651717Y-146904996D01*
X30530597Y-146840256D01*
X30520648Y-146837238D01*
X30524611Y-146824175D01*
X30538072Y-146687500D01*
X30538072Y-146562500D01*
X30524611Y-146425825D01*
X30509193Y-146375000D01*
X30524611Y-146324175D01*
X30538072Y-146187500D01*
X30538072Y-146062500D01*
X30524611Y-145925825D01*
X30520648Y-145912762D01*
X30530597Y-145909744D01*
X30651717Y-145845004D01*
X30700000Y-145805379D01*
X30748283Y-145845004D01*
%TA.AperFunction,Conductor*%
D36*
G36*
X30748283Y-145845004D02*
G01*
X30869403Y-145909744D01*
X31000825Y-145949611D01*
X31137500Y-145963072D01*
X31262500Y-145963072D01*
X31372790Y-145952210D01*
X31361928Y-146062500D01*
X31361928Y-146187500D01*
X31375389Y-146324175D01*
X31390807Y-146375000D01*
X31375389Y-146425825D01*
X31361928Y-146562500D01*
X31361928Y-146687500D01*
X31372790Y-146797790D01*
X31262500Y-146786928D01*
X31137500Y-146786928D01*
X31000825Y-146800389D01*
X30869403Y-146840256D01*
X30748283Y-146904996D01*
X30700000Y-146944621D01*
X30651717Y-146904996D01*
X30530597Y-146840256D01*
X30520648Y-146837238D01*
X30524611Y-146824175D01*
X30538072Y-146687500D01*
X30538072Y-146562500D01*
X30524611Y-146425825D01*
X30509193Y-146375000D01*
X30524611Y-146324175D01*
X30538072Y-146187500D01*
X30538072Y-146062500D01*
X30524611Y-145925825D01*
X30520648Y-145912762D01*
X30530597Y-145909744D01*
X30651717Y-145845004D01*
X30700000Y-145805379D01*
X30748283Y-145845004D01*
G37*
%TD.AperFunction*%
D35*
X52619002Y-125802337D02*
X52377337Y-126044002D01*
X52187463Y-126328169D01*
X52056675Y-126643919D01*
X51990000Y-126979117D01*
X51990000Y-127313422D01*
X51981532Y-127304954D01*
X51953817Y-127271183D01*
X51819059Y-127160589D01*
X51668822Y-127080287D01*
X51670226Y-127076898D01*
X51710000Y-126876939D01*
X51710000Y-126673061D01*
X51670226Y-126473102D01*
X51592205Y-126284744D01*
X51478937Y-126115226D01*
X51334774Y-125971063D01*
X51165256Y-125857795D01*
X50976898Y-125779774D01*
X50776939Y-125740000D01*
X50573061Y-125740000D01*
X50373102Y-125779774D01*
X50184744Y-125857795D01*
X50015226Y-125971063D01*
X49871063Y-126115226D01*
X49757795Y-126284744D01*
X49679774Y-126473102D01*
X49640000Y-126673061D01*
X49640000Y-126876939D01*
X49674136Y-127048552D01*
X49673815Y-127048815D01*
X49594463Y-127145506D01*
X49535498Y-127255820D01*
X49499188Y-127375518D01*
X49486928Y-127500000D01*
X49486928Y-128011905D01*
X49476185Y-127998815D01*
X49379494Y-127919463D01*
X49269180Y-127860498D01*
X49149482Y-127824188D01*
X49025000Y-127811928D01*
X48125000Y-127811928D01*
X48000518Y-127824188D01*
X47880820Y-127860498D01*
X47770506Y-127919463D01*
X47673815Y-127998815D01*
X47594463Y-128095506D01*
X47535498Y-128205820D01*
X47499188Y-128325518D01*
X47486928Y-128450000D01*
X47486928Y-129250000D01*
X47499188Y-129374482D01*
X47535498Y-129494180D01*
X47540644Y-129503808D01*
X47492805Y-129661510D01*
X47480000Y-129791523D01*
X47480000Y-129791531D01*
X47475719Y-129835000D01*
X47480000Y-129878469D01*
X47480000Y-129893466D01*
X47463072Y-129949270D01*
X47463072Y-126725000D01*
X47450812Y-126600518D01*
X47414502Y-126480820D01*
X47355537Y-126370506D01*
X47276185Y-126273815D01*
X47179494Y-126194463D01*
X47069180Y-126135498D01*
X46949482Y-126099188D01*
X46825000Y-126086928D01*
X44475000Y-126086928D01*
X44350518Y-126099188D01*
X44230820Y-126135498D01*
X44120506Y-126194463D01*
X44023815Y-126273815D01*
X43944463Y-126370506D01*
X43885498Y-126480820D01*
X43849188Y-126600518D01*
X43836928Y-126725000D01*
X43836928Y-130225000D01*
X43849188Y-130349482D01*
X43885498Y-130469180D01*
X43944463Y-130579494D01*
X44023815Y-130676185D01*
X44120506Y-130755537D01*
X44230820Y-130814502D01*
X44350518Y-130850812D01*
X44475000Y-130863072D01*
X44765001Y-130863072D01*
X44765001Y-130881511D01*
X44760719Y-130924990D01*
X44777805Y-131098480D01*
X44828412Y-131265303D01*
X44910590Y-131419049D01*
X44993468Y-131520036D01*
X44993471Y-131520039D01*
X45019899Y-131552241D01*
X45029774Y-131601888D01*
X45107795Y-131790246D01*
X45140001Y-131838445D01*
X45140000Y-132576211D01*
X45135000Y-132575719D01*
X45091531Y-132580000D01*
X45091523Y-132580000D01*
X44961510Y-132592805D01*
X44794687Y-132643411D01*
X44700492Y-132693758D01*
X44662333Y-132690000D01*
X44662322Y-132690000D01*
X44625000Y-132686324D01*
X44587678Y-132690000D01*
X44137667Y-132690000D01*
X44118092Y-132691928D01*
X43916735Y-132691928D01*
X43903385Y-132683019D01*
X43902520Y-132682557D01*
X43787410Y-132634868D01*
X43786472Y-132634583D01*
X43779281Y-132633151D01*
X43765417Y-132563528D01*
X43765132Y-132562590D01*
X43717443Y-132447480D01*
X43716981Y-132446615D01*
X43647736Y-132342852D01*
X43647115Y-132342094D01*
X43557906Y-132252885D01*
X43557148Y-132252264D01*
X43453385Y-132183019D01*
X43452520Y-132182557D01*
X43337410Y-132134868D01*
X43336472Y-132134583D01*
X43213498Y-132110095D01*
X43212523Y-132109999D01*
X43150000Y-132106928D01*
X42900000Y-132106928D01*
X42837477Y-132109999D01*
X42836502Y-132110095D01*
X42775000Y-132122342D01*
X42713498Y-132110095D01*
X42712523Y-132109999D01*
X42650000Y-132106928D01*
X42400000Y-132106928D01*
X42337477Y-132109999D01*
X42336502Y-132110095D01*
X42213528Y-132134583D01*
X42212590Y-132134868D01*
X42097480Y-132182557D01*
X42096615Y-132183019D01*
X41992852Y-132252264D01*
X41992094Y-132252885D01*
X41902885Y-132342094D01*
X41902264Y-132342852D01*
X41833019Y-132446615D01*
X41832557Y-132447480D01*
X41784868Y-132562590D01*
X41784583Y-132563528D01*
X41770719Y-132633151D01*
X41763528Y-132634583D01*
X41762590Y-132634868D01*
X41647480Y-132682557D01*
X41646615Y-132683019D01*
X41633265Y-132691928D01*
X41460000Y-132691928D01*
X41460000Y-131493469D01*
X41464281Y-131450000D01*
X41460000Y-131406531D01*
X41460000Y-131406523D01*
X41447195Y-131276510D01*
X41396589Y-131109687D01*
X41314411Y-130955941D01*
X41271301Y-130903412D01*
X41231532Y-130854953D01*
X41231530Y-130854951D01*
X41203817Y-130821183D01*
X41170050Y-130793471D01*
X41130934Y-130754355D01*
X41226185Y-130676185D01*
X41305537Y-130579494D01*
X41364502Y-130469180D01*
X41400812Y-130349482D01*
X41413072Y-130225000D01*
X41413072Y-126725000D01*
X41400812Y-126600518D01*
X41364502Y-126480820D01*
X41305537Y-126370506D01*
X41226185Y-126273815D01*
X41129494Y-126194463D01*
X41019180Y-126135498D01*
X40899482Y-126099188D01*
X40775000Y-126086928D01*
X38425000Y-126086928D01*
X38300518Y-126099188D01*
X38180820Y-126135498D01*
X38070506Y-126194463D01*
X37973815Y-126273815D01*
X37894463Y-126370506D01*
X37835498Y-126480820D01*
X37799188Y-126600518D01*
X37786928Y-126725000D01*
X37786928Y-130225000D01*
X37799188Y-130349482D01*
X37835498Y-130469180D01*
X37894463Y-130579494D01*
X37973815Y-130676185D01*
X38070506Y-130755537D01*
X38180820Y-130814502D01*
X38300518Y-130850812D01*
X38425000Y-130863072D01*
X38815577Y-130863072D01*
X38885590Y-130994059D01*
X38968468Y-131095046D01*
X38968471Y-131095049D01*
X38996184Y-131128817D01*
X39029951Y-131156529D01*
X39690000Y-131816579D01*
X39690001Y-132916928D01*
X39430000Y-132916928D01*
X39278206Y-132931878D01*
X39132245Y-132976155D01*
X38997726Y-133048057D01*
X38965231Y-133074725D01*
X38902274Y-133023057D01*
X38767755Y-132951155D01*
X38621794Y-132906878D01*
X38470000Y-132891928D01*
X38130000Y-132891928D01*
X37978206Y-132906878D01*
X37832245Y-132951155D01*
X37697726Y-133023057D01*
X37597269Y-133105500D01*
X37527274Y-133048057D01*
X37392755Y-132976155D01*
X37246794Y-132931878D01*
X37095000Y-132916928D01*
X36755000Y-132916928D01*
X36603206Y-132931878D01*
X36457245Y-132976155D01*
X36322726Y-133048057D01*
X36204820Y-133144820D01*
X36108057Y-133262726D01*
X36036155Y-133397245D01*
X35991878Y-133543206D01*
X35984105Y-133622132D01*
X35926510Y-133627805D01*
X35759687Y-133678411D01*
X35605941Y-133760589D01*
X35581290Y-133780820D01*
X35504953Y-133843468D01*
X35504951Y-133843470D01*
X35471183Y-133871183D01*
X35443470Y-133904951D01*
X35344985Y-134003436D01*
X35416383Y-133831067D01*
X35460000Y-133611788D01*
X35460000Y-133388212D01*
X35436026Y-133267688D01*
X35523061Y-133285000D01*
X35726939Y-133285000D01*
X35926898Y-133245226D01*
X36115256Y-133167205D01*
X36284774Y-133053937D01*
X36428937Y-132909774D01*
X36542205Y-132740256D01*
X36620226Y-132551898D01*
X36660000Y-132351939D01*
X36660000Y-132148061D01*
X36620226Y-131948102D01*
X36542205Y-131759744D01*
X36428937Y-131590226D01*
X36284774Y-131446063D01*
X36115256Y-131332795D01*
X35926898Y-131254774D01*
X35870043Y-131243465D01*
X35756534Y-131129956D01*
X35728817Y-131096183D01*
X35594059Y-130985589D01*
X35440313Y-130903411D01*
X35273490Y-130852805D01*
X35143477Y-130840000D01*
X35143469Y-130840000D01*
X35100000Y-130835719D01*
X35056531Y-130840000D01*
X32392467Y-130840000D01*
X32368817Y-130811183D01*
X32335044Y-130783466D01*
X32085000Y-130533422D01*
X32085000Y-129044759D01*
X32255134Y-128905134D01*
X32440706Y-128679014D01*
X32578599Y-128421033D01*
X32663513Y-128141110D01*
X32685000Y-127922949D01*
X32685000Y-127527050D01*
X32663513Y-127308889D01*
X32578599Y-127028966D01*
X32440706Y-126770986D01*
X32255134Y-126544866D01*
X32029013Y-126359294D01*
X31771033Y-126221401D01*
X31491110Y-126136487D01*
X31200000Y-126107815D01*
X30908889Y-126136487D01*
X30628966Y-126221401D01*
X30370986Y-126359294D01*
X30144866Y-126544866D01*
X29959294Y-126770987D01*
X29821401Y-127028967D01*
X29736487Y-127308890D01*
X29715000Y-127527051D01*
X29715000Y-127922950D01*
X29736487Y-128141111D01*
X29821401Y-128421034D01*
X29959294Y-128679014D01*
X30144866Y-128905134D01*
X30315001Y-129044759D01*
X30315000Y-130856531D01*
X30310719Y-130900000D01*
X30315000Y-130943469D01*
X30315000Y-130943476D01*
X30322953Y-131024225D01*
X30327805Y-131073490D01*
X30331476Y-131085590D01*
X30378411Y-131240312D01*
X30460589Y-131394058D01*
X30558743Y-131513659D01*
X30443356Y-131608356D01*
X30347214Y-131725504D01*
X30312014Y-131791359D01*
X30244059Y-131735589D01*
X30090313Y-131653411D01*
X29923490Y-131602805D01*
X29793477Y-131590000D01*
X29793469Y-131590000D01*
X29750000Y-131585719D01*
X29706531Y-131590000D01*
X29564468Y-131590000D01*
X29551185Y-131573815D01*
X29454494Y-131494463D01*
X29344180Y-131435498D01*
X29224482Y-131399188D01*
X29100000Y-131386928D01*
X28300000Y-131386928D01*
X28175518Y-131399188D01*
X28055820Y-131435498D01*
X27945506Y-131494463D01*
X27848815Y-131573815D01*
X27769463Y-131670506D01*
X27710498Y-131780820D01*
X27674188Y-131900518D01*
X27661928Y-132025000D01*
X27661928Y-132035349D01*
X27085000Y-131458422D01*
X27085000Y-129287110D01*
X27139850Y-129270472D01*
X27293386Y-129188405D01*
X27427962Y-129077962D01*
X27538405Y-128943386D01*
X27620472Y-128789850D01*
X27671008Y-128623254D01*
X27688072Y-128450000D01*
X27688072Y-127000000D01*
X27671008Y-126826746D01*
X27620472Y-126660150D01*
X27538405Y-126506614D01*
X27427962Y-126372038D01*
X27293386Y-126261595D01*
X27139850Y-126179528D01*
X26973254Y-126128992D01*
X26800000Y-126111928D01*
X25600000Y-126111928D01*
X25426746Y-126128992D01*
X25260150Y-126179528D01*
X25106614Y-126261595D01*
X24972038Y-126372038D01*
X24861595Y-126506614D01*
X24779528Y-126660150D01*
X24728992Y-126826746D01*
X24711928Y-127000000D01*
X24711928Y-128450000D01*
X24728992Y-128623254D01*
X24779528Y-128789850D01*
X24861595Y-128943386D01*
X24972038Y-129077962D01*
X25106614Y-129188405D01*
X25260150Y-129270472D01*
X25315001Y-129287111D01*
X25315000Y-131781531D01*
X25310719Y-131825000D01*
X25315000Y-131868469D01*
X25315000Y-131868476D01*
X25323112Y-131950842D01*
X25327805Y-131998490D01*
X25336155Y-132026015D01*
X25378411Y-132165312D01*
X25460589Y-132319058D01*
X25571183Y-132453817D01*
X25604956Y-132481534D01*
X25983319Y-132859897D01*
X25964181Y-132861782D01*
X25819158Y-132905775D01*
X25685504Y-132977214D01*
X25568356Y-133073356D01*
X25472214Y-133190504D01*
X25400775Y-133324158D01*
X25356782Y-133469181D01*
X25345031Y-133588490D01*
X25226939Y-133565000D01*
X25023061Y-133565000D01*
X24823102Y-133604774D01*
X24634744Y-133682795D01*
X24465226Y-133796063D01*
X24321063Y-133940226D01*
X24207795Y-134109744D01*
X24129774Y-134298102D01*
X24090000Y-134498061D01*
X24090000Y-134701939D01*
X24129774Y-134901898D01*
X24207795Y-135090256D01*
X24312651Y-135247185D01*
X24294717Y-135252625D01*
X24145503Y-135332382D01*
X24014716Y-135439716D01*
X23907382Y-135570503D01*
X23827625Y-135719717D01*
X23778512Y-135881623D01*
X23761928Y-136050000D01*
X23761928Y-136550000D01*
X23778512Y-136718377D01*
X23827625Y-136880283D01*
X23907382Y-137029497D01*
X24014716Y-137160284D01*
X24145503Y-137267618D01*
X24202501Y-137298084D01*
X24202501Y-137325430D01*
X24181613Y-137336595D01*
X24047038Y-137447038D01*
X23936595Y-137581613D01*
X23854528Y-137735148D01*
X23803992Y-137901744D01*
X23786928Y-138074998D01*
X23786928Y-138081416D01*
X23601898Y-138004774D01*
X23545044Y-137993465D01*
X22431534Y-136879956D01*
X22403817Y-136846183D01*
X22269059Y-136735589D01*
X22115313Y-136653411D01*
X21948490Y-136602805D01*
X21818477Y-136590000D01*
X21818469Y-136590000D01*
X21775000Y-136585719D01*
X21731531Y-136590000D01*
X21293450Y-136590000D01*
X21112624Y-136469176D01*
X20906067Y-136383617D01*
X20686788Y-136340000D01*
X20463212Y-136340000D01*
X20243933Y-136383617D01*
X20037376Y-136469176D01*
X19851480Y-136593388D01*
X19710000Y-136734868D01*
X19710000Y-136218469D01*
X19714281Y-136175000D01*
X19710000Y-136131531D01*
X19710000Y-136131523D01*
X19697195Y-136001510D01*
X19646589Y-135834687D01*
X19564411Y-135680941D01*
X19453817Y-135546183D01*
X19420045Y-135518467D01*
X19056534Y-135154956D01*
X19028817Y-135121183D01*
X18894059Y-135010589D01*
X18740313Y-134928411D01*
X18573490Y-134877805D01*
X18443477Y-134865000D01*
X18443469Y-134865000D01*
X18400000Y-134860719D01*
X18356531Y-134865000D01*
X16119023Y-134865000D01*
X15989010Y-134877805D01*
X15876523Y-134911928D01*
X15487500Y-134911928D01*
X15363018Y-134924188D01*
X15243320Y-134960498D01*
X15133006Y-135019463D01*
X15036315Y-135098815D01*
X14956963Y-135195506D01*
X14897998Y-135305820D01*
X14861688Y-135425518D01*
X14849428Y-135550000D01*
X14849428Y-135950000D01*
X14861688Y-136074482D01*
X14861845Y-136075000D01*
X14861688Y-136075518D01*
X14849428Y-136200000D01*
X14849428Y-136600000D01*
X14861688Y-136724482D01*
X14861845Y-136725000D01*
X14861688Y-136725518D01*
X14849428Y-136850000D01*
X14849428Y-137250000D01*
X14861688Y-137374482D01*
X14861845Y-137375000D01*
X14861688Y-137375518D01*
X14849428Y-137500000D01*
X14849428Y-137900000D01*
X14861688Y-138024482D01*
X14897998Y-138144180D01*
X14956963Y-138254494D01*
X15036315Y-138351185D01*
X15133006Y-138430537D01*
X15243320Y-138489502D01*
X15363018Y-138525812D01*
X15487500Y-138538072D01*
X16837500Y-138538072D01*
X16961982Y-138525812D01*
X17081680Y-138489502D01*
X17191994Y-138430537D01*
X17288685Y-138351185D01*
X17368037Y-138254494D01*
X17427002Y-138144180D01*
X17463312Y-138024482D01*
X17475572Y-137900000D01*
X17475572Y-137500000D01*
X17463312Y-137375518D01*
X17463155Y-137375000D01*
X17463312Y-137374482D01*
X17475572Y-137250000D01*
X17475572Y-136850000D01*
X17463312Y-136725518D01*
X17463155Y-136725000D01*
X17463312Y-136724482D01*
X17472125Y-136635000D01*
X17940000Y-136635000D01*
X17940001Y-137981521D01*
X17935719Y-138025000D01*
X17952805Y-138198490D01*
X18003412Y-138365313D01*
X18085590Y-138519059D01*
X18168468Y-138620046D01*
X18168471Y-138620049D01*
X18196184Y-138653817D01*
X18229951Y-138681529D01*
X19843481Y-140295060D01*
X19871194Y-140328828D01*
X19904962Y-140356541D01*
X19904964Y-140356543D01*
X19976463Y-140415221D01*
X20005952Y-140439422D01*
X20159698Y-140521600D01*
X20326521Y-140572206D01*
X20456534Y-140585011D01*
X20456544Y-140585011D01*
X20500010Y-140589292D01*
X20543476Y-140585011D01*
X22328433Y-140585011D01*
X22391928Y-140648507D01*
X22391928Y-140810000D01*
X22406782Y-140960819D01*
X22415000Y-140987911D01*
X22415000Y-141107317D01*
X22345506Y-141144463D01*
X22248815Y-141223815D01*
X22169463Y-141320506D01*
X22110498Y-141430820D01*
X22074188Y-141550518D01*
X22061928Y-141675000D01*
X22061928Y-141771436D01*
X22052805Y-141801510D01*
X22035718Y-141975000D01*
X22052805Y-142148490D01*
X22061928Y-142178564D01*
X22061928Y-142275000D01*
X22074178Y-142399376D01*
X21308639Y-141633838D01*
X21272850Y-141515858D01*
X21193671Y-141367725D01*
X21087115Y-141237885D01*
X20957275Y-141131329D01*
X20809142Y-141052150D01*
X20648408Y-141003392D01*
X20481250Y-140986928D01*
X20043750Y-140986928D01*
X19876592Y-141003392D01*
X19715858Y-141052150D01*
X19567725Y-141131329D01*
X19475000Y-141207426D01*
X19382275Y-141131329D01*
X19234142Y-141052150D01*
X19073408Y-141003392D01*
X18906250Y-140986928D01*
X18468750Y-140986928D01*
X18301592Y-141003392D01*
X18140858Y-141052150D01*
X17992725Y-141131329D01*
X17963882Y-141155000D01*
X17286168Y-141155000D01*
X17264496Y-141137214D01*
X17130842Y-141065775D01*
X16985819Y-141021782D01*
X16835000Y-141006928D01*
X16465000Y-141006928D01*
X16314181Y-141021782D01*
X16169158Y-141065775D01*
X16035504Y-141137214D01*
X15918356Y-141233356D01*
X15822214Y-141350504D01*
X15750775Y-141484158D01*
X15706782Y-141629181D01*
X15691928Y-141780000D01*
X15691928Y-142013595D01*
X15675000Y-142011928D01*
X15025000Y-142011928D01*
X14900518Y-142024188D01*
X14780820Y-142060498D01*
X14670506Y-142119463D01*
X14573815Y-142198815D01*
X14494463Y-142295506D01*
X14435498Y-142405820D01*
X14399188Y-142525518D01*
X14386928Y-142650000D01*
X14386928Y-143700000D01*
X14399188Y-143824482D01*
X14435498Y-143944180D01*
X14494463Y-144054494D01*
X14573815Y-144151185D01*
X14670506Y-144230537D01*
X14780820Y-144289502D01*
X14900518Y-144325812D01*
X15025000Y-144338072D01*
X15675000Y-144338072D01*
X15717530Y-144333883D01*
X15716928Y-144340000D01*
X15716928Y-144610000D01*
X15731782Y-144760819D01*
X15775775Y-144905842D01*
X15818086Y-144985000D01*
X15775775Y-145064158D01*
X15731782Y-145209181D01*
X15716928Y-145360000D01*
X15716928Y-145390000D01*
X14712322Y-145390000D01*
X14674999Y-145386324D01*
X14637677Y-145390000D01*
X14637667Y-145390000D01*
X14526014Y-145400997D01*
X14397433Y-145440001D01*
X14382753Y-145444454D01*
X14250723Y-145515026D01*
X14187092Y-145567247D01*
X14134999Y-145609999D01*
X14111201Y-145638997D01*
X13582598Y-146167601D01*
X13525000Y-146161928D01*
X12875000Y-146161928D01*
X12750518Y-146174188D01*
X12735000Y-146178895D01*
X12735000Y-132498354D01*
X12825518Y-132525812D01*
X12950000Y-132538072D01*
X13600000Y-132538072D01*
X13724482Y-132525812D01*
X13844180Y-132489502D01*
X13954494Y-132430537D01*
X14051185Y-132351185D01*
X14130537Y-132254494D01*
X14189502Y-132144180D01*
X14225812Y-132024482D01*
X14238072Y-131900000D01*
X14238072Y-131319730D01*
X14367247Y-131280546D01*
X14461928Y-131229937D01*
X14461928Y-131900000D01*
X14474188Y-132024482D01*
X14510498Y-132144180D01*
X14569463Y-132254494D01*
X14648815Y-132351185D01*
X14745506Y-132430537D01*
X14855820Y-132489502D01*
X14975518Y-132525812D01*
X15100000Y-132538072D01*
X15750000Y-132538072D01*
X15874482Y-132525812D01*
X15994180Y-132489502D01*
X16104494Y-132430537D01*
X16201185Y-132351185D01*
X16280537Y-132254494D01*
X16339502Y-132144180D01*
X16375812Y-132024482D01*
X16386928Y-131911616D01*
X16386928Y-131925000D01*
X16399188Y-132049482D01*
X16435498Y-132169180D01*
X16466454Y-132227093D01*
X16475997Y-132323986D01*
X16519454Y-132467247D01*
X16539921Y-132505537D01*
X16590026Y-132599276D01*
X16645775Y-132667205D01*
X16685000Y-132715001D01*
X16713998Y-132738799D01*
X17711212Y-133736014D01*
X17735010Y-133765012D01*
X17850735Y-133859985D01*
X17982764Y-133930557D01*
X18126025Y-133974014D01*
X18237678Y-133985011D01*
X18237686Y-133985011D01*
X18275011Y-133988687D01*
X18312336Y-133985011D01*
X21224078Y-133985011D01*
X21261400Y-133988687D01*
X21298722Y-133985011D01*
X21298733Y-133985011D01*
X21410386Y-133974014D01*
X21553647Y-133930557D01*
X21685676Y-133859985D01*
X21801401Y-133765012D01*
X21825204Y-133736009D01*
X22861004Y-132700209D01*
X22890001Y-132676412D01*
X22925504Y-132633151D01*
X22984974Y-132560688D01*
X23055546Y-132428658D01*
X23059148Y-132416782D01*
X23099003Y-132285397D01*
X23109066Y-132183231D01*
X23177786Y-132099496D01*
X23249225Y-131965842D01*
X23293218Y-131820819D01*
X23308072Y-131670000D01*
X23308072Y-131400000D01*
X23293218Y-131249181D01*
X23249225Y-131104158D01*
X23213899Y-131038067D01*
X23223804Y-131025997D01*
X23230545Y-131019256D01*
X23240226Y-131028937D01*
X23409744Y-131142205D01*
X23598102Y-131220226D01*
X23798061Y-131260000D01*
X24001939Y-131260000D01*
X24201898Y-131220226D01*
X24390256Y-131142205D01*
X24559774Y-131028937D01*
X24703937Y-130884774D01*
X24817205Y-130715256D01*
X24895226Y-130526898D01*
X24935000Y-130326939D01*
X24935000Y-130123061D01*
X24895226Y-129923102D01*
X24817205Y-129734744D01*
X24703937Y-129565226D01*
X24559774Y-129421063D01*
X24390256Y-129307795D01*
X24201898Y-129229774D01*
X24001939Y-129190000D01*
X23798061Y-129190000D01*
X23598102Y-129229774D01*
X23409744Y-129307795D01*
X23240226Y-129421063D01*
X23196289Y-129465000D01*
X23134990Y-129465000D01*
X23134990Y-129298071D01*
X23095216Y-129098112D01*
X23017195Y-128909754D01*
X22903927Y-128740236D01*
X22859990Y-128696299D01*
X22859990Y-128462312D01*
X22863666Y-128424989D01*
X22859990Y-128387666D01*
X22859990Y-128387657D01*
X22848993Y-128276004D01*
X22805536Y-128132743D01*
X22734964Y-128000714D01*
X22639991Y-127884989D01*
X22610987Y-127861186D01*
X22488804Y-127739003D01*
X22465001Y-127709999D01*
X22396990Y-127654184D01*
X22434774Y-127628937D01*
X22578937Y-127484774D01*
X22692205Y-127315256D01*
X22770226Y-127126898D01*
X22810000Y-126926939D01*
X22810000Y-126723061D01*
X22770226Y-126523102D01*
X22692205Y-126334744D01*
X22578937Y-126165226D01*
X22434774Y-126021063D01*
X22265256Y-125907795D01*
X22076898Y-125829774D01*
X21876939Y-125790000D01*
X21673061Y-125790000D01*
X21473102Y-125829774D01*
X21284744Y-125907795D01*
X21115226Y-126021063D01*
X21060276Y-126076013D01*
X20917068Y-126119454D01*
X20785039Y-126190026D01*
X20669314Y-126284999D01*
X20645516Y-126313997D01*
X20155315Y-126804198D01*
X20143325Y-126743919D01*
X20012537Y-126428169D01*
X19822663Y-126144002D01*
X19580998Y-125902337D01*
X19296831Y-125712463D01*
X19170174Y-125660000D01*
X52832025Y-125660000D01*
X52619002Y-125802337D01*
%TA.AperFunction,Conductor*%
D36*
G36*
X52619002Y-125802337D02*
G01*
X52377337Y-126044002D01*
X52187463Y-126328169D01*
X52056675Y-126643919D01*
X51990000Y-126979117D01*
X51990000Y-127313422D01*
X51981532Y-127304954D01*
X51953817Y-127271183D01*
X51819059Y-127160589D01*
X51668822Y-127080287D01*
X51670226Y-127076898D01*
X51710000Y-126876939D01*
X51710000Y-126673061D01*
X51670226Y-126473102D01*
X51592205Y-126284744D01*
X51478937Y-126115226D01*
X51334774Y-125971063D01*
X51165256Y-125857795D01*
X50976898Y-125779774D01*
X50776939Y-125740000D01*
X50573061Y-125740000D01*
X50373102Y-125779774D01*
X50184744Y-125857795D01*
X50015226Y-125971063D01*
X49871063Y-126115226D01*
X49757795Y-126284744D01*
X49679774Y-126473102D01*
X49640000Y-126673061D01*
X49640000Y-126876939D01*
X49674136Y-127048552D01*
X49673815Y-127048815D01*
X49594463Y-127145506D01*
X49535498Y-127255820D01*
X49499188Y-127375518D01*
X49486928Y-127500000D01*
X49486928Y-128011905D01*
X49476185Y-127998815D01*
X49379494Y-127919463D01*
X49269180Y-127860498D01*
X49149482Y-127824188D01*
X49025000Y-127811928D01*
X48125000Y-127811928D01*
X48000518Y-127824188D01*
X47880820Y-127860498D01*
X47770506Y-127919463D01*
X47673815Y-127998815D01*
X47594463Y-128095506D01*
X47535498Y-128205820D01*
X47499188Y-128325518D01*
X47486928Y-128450000D01*
X47486928Y-129250000D01*
X47499188Y-129374482D01*
X47535498Y-129494180D01*
X47540644Y-129503808D01*
X47492805Y-129661510D01*
X47480000Y-129791523D01*
X47480000Y-129791531D01*
X47475719Y-129835000D01*
X47480000Y-129878469D01*
X47480000Y-129893466D01*
X47463072Y-129949270D01*
X47463072Y-126725000D01*
X47450812Y-126600518D01*
X47414502Y-126480820D01*
X47355537Y-126370506D01*
X47276185Y-126273815D01*
X47179494Y-126194463D01*
X47069180Y-126135498D01*
X46949482Y-126099188D01*
X46825000Y-126086928D01*
X44475000Y-126086928D01*
X44350518Y-126099188D01*
X44230820Y-126135498D01*
X44120506Y-126194463D01*
X44023815Y-126273815D01*
X43944463Y-126370506D01*
X43885498Y-126480820D01*
X43849188Y-126600518D01*
X43836928Y-126725000D01*
X43836928Y-130225000D01*
X43849188Y-130349482D01*
X43885498Y-130469180D01*
X43944463Y-130579494D01*
X44023815Y-130676185D01*
X44120506Y-130755537D01*
X44230820Y-130814502D01*
X44350518Y-130850812D01*
X44475000Y-130863072D01*
X44765001Y-130863072D01*
X44765001Y-130881511D01*
X44760719Y-130924990D01*
X44777805Y-131098480D01*
X44828412Y-131265303D01*
X44910590Y-131419049D01*
X44993468Y-131520036D01*
X44993471Y-131520039D01*
X45019899Y-131552241D01*
X45029774Y-131601888D01*
X45107795Y-131790246D01*
X45140001Y-131838445D01*
X45140000Y-132576211D01*
X45135000Y-132575719D01*
X45091531Y-132580000D01*
X45091523Y-132580000D01*
X44961510Y-132592805D01*
X44794687Y-132643411D01*
X44700492Y-132693758D01*
X44662333Y-132690000D01*
X44662322Y-132690000D01*
X44625000Y-132686324D01*
X44587678Y-132690000D01*
X44137667Y-132690000D01*
X44118092Y-132691928D01*
X43916735Y-132691928D01*
X43903385Y-132683019D01*
X43902520Y-132682557D01*
X43787410Y-132634868D01*
X43786472Y-132634583D01*
X43779281Y-132633151D01*
X43765417Y-132563528D01*
X43765132Y-132562590D01*
X43717443Y-132447480D01*
X43716981Y-132446615D01*
X43647736Y-132342852D01*
X43647115Y-132342094D01*
X43557906Y-132252885D01*
X43557148Y-132252264D01*
X43453385Y-132183019D01*
X43452520Y-132182557D01*
X43337410Y-132134868D01*
X43336472Y-132134583D01*
X43213498Y-132110095D01*
X43212523Y-132109999D01*
X43150000Y-132106928D01*
X42900000Y-132106928D01*
X42837477Y-132109999D01*
X42836502Y-132110095D01*
X42775000Y-132122342D01*
X42713498Y-132110095D01*
X42712523Y-132109999D01*
X42650000Y-132106928D01*
X42400000Y-132106928D01*
X42337477Y-132109999D01*
X42336502Y-132110095D01*
X42213528Y-132134583D01*
X42212590Y-132134868D01*
X42097480Y-132182557D01*
X42096615Y-132183019D01*
X41992852Y-132252264D01*
X41992094Y-132252885D01*
X41902885Y-132342094D01*
X41902264Y-132342852D01*
X41833019Y-132446615D01*
X41832557Y-132447480D01*
X41784868Y-132562590D01*
X41784583Y-132563528D01*
X41770719Y-132633151D01*
X41763528Y-132634583D01*
X41762590Y-132634868D01*
X41647480Y-132682557D01*
X41646615Y-132683019D01*
X41633265Y-132691928D01*
X41460000Y-132691928D01*
X41460000Y-131493469D01*
X41464281Y-131450000D01*
X41460000Y-131406531D01*
X41460000Y-131406523D01*
X41447195Y-131276510D01*
X41396589Y-131109687D01*
X41314411Y-130955941D01*
X41271301Y-130903412D01*
X41231532Y-130854953D01*
X41231530Y-130854951D01*
X41203817Y-130821183D01*
X41170050Y-130793471D01*
X41130934Y-130754355D01*
X41226185Y-130676185D01*
X41305537Y-130579494D01*
X41364502Y-130469180D01*
X41400812Y-130349482D01*
X41413072Y-130225000D01*
X41413072Y-126725000D01*
X41400812Y-126600518D01*
X41364502Y-126480820D01*
X41305537Y-126370506D01*
X41226185Y-126273815D01*
X41129494Y-126194463D01*
X41019180Y-126135498D01*
X40899482Y-126099188D01*
X40775000Y-126086928D01*
X38425000Y-126086928D01*
X38300518Y-126099188D01*
X38180820Y-126135498D01*
X38070506Y-126194463D01*
X37973815Y-126273815D01*
X37894463Y-126370506D01*
X37835498Y-126480820D01*
X37799188Y-126600518D01*
X37786928Y-126725000D01*
X37786928Y-130225000D01*
X37799188Y-130349482D01*
X37835498Y-130469180D01*
X37894463Y-130579494D01*
X37973815Y-130676185D01*
X38070506Y-130755537D01*
X38180820Y-130814502D01*
X38300518Y-130850812D01*
X38425000Y-130863072D01*
X38815577Y-130863072D01*
X38885590Y-130994059D01*
X38968468Y-131095046D01*
X38968471Y-131095049D01*
X38996184Y-131128817D01*
X39029951Y-131156529D01*
X39690000Y-131816579D01*
X39690001Y-132916928D01*
X39430000Y-132916928D01*
X39278206Y-132931878D01*
X39132245Y-132976155D01*
X38997726Y-133048057D01*
X38965231Y-133074725D01*
X38902274Y-133023057D01*
X38767755Y-132951155D01*
X38621794Y-132906878D01*
X38470000Y-132891928D01*
X38130000Y-132891928D01*
X37978206Y-132906878D01*
X37832245Y-132951155D01*
X37697726Y-133023057D01*
X37597269Y-133105500D01*
X37527274Y-133048057D01*
X37392755Y-132976155D01*
X37246794Y-132931878D01*
X37095000Y-132916928D01*
X36755000Y-132916928D01*
X36603206Y-132931878D01*
X36457245Y-132976155D01*
X36322726Y-133048057D01*
X36204820Y-133144820D01*
X36108057Y-133262726D01*
X36036155Y-133397245D01*
X35991878Y-133543206D01*
X35984105Y-133622132D01*
X35926510Y-133627805D01*
X35759687Y-133678411D01*
X35605941Y-133760589D01*
X35581290Y-133780820D01*
X35504953Y-133843468D01*
X35504951Y-133843470D01*
X35471183Y-133871183D01*
X35443470Y-133904951D01*
X35344985Y-134003436D01*
X35416383Y-133831067D01*
X35460000Y-133611788D01*
X35460000Y-133388212D01*
X35436026Y-133267688D01*
X35523061Y-133285000D01*
X35726939Y-133285000D01*
X35926898Y-133245226D01*
X36115256Y-133167205D01*
X36284774Y-133053937D01*
X36428937Y-132909774D01*
X36542205Y-132740256D01*
X36620226Y-132551898D01*
X36660000Y-132351939D01*
X36660000Y-132148061D01*
X36620226Y-131948102D01*
X36542205Y-131759744D01*
X36428937Y-131590226D01*
X36284774Y-131446063D01*
X36115256Y-131332795D01*
X35926898Y-131254774D01*
X35870043Y-131243465D01*
X35756534Y-131129956D01*
X35728817Y-131096183D01*
X35594059Y-130985589D01*
X35440313Y-130903411D01*
X35273490Y-130852805D01*
X35143477Y-130840000D01*
X35143469Y-130840000D01*
X35100000Y-130835719D01*
X35056531Y-130840000D01*
X32392467Y-130840000D01*
X32368817Y-130811183D01*
X32335044Y-130783466D01*
X32085000Y-130533422D01*
X32085000Y-129044759D01*
X32255134Y-128905134D01*
X32440706Y-128679014D01*
X32578599Y-128421033D01*
X32663513Y-128141110D01*
X32685000Y-127922949D01*
X32685000Y-127527050D01*
X32663513Y-127308889D01*
X32578599Y-127028966D01*
X32440706Y-126770986D01*
X32255134Y-126544866D01*
X32029013Y-126359294D01*
X31771033Y-126221401D01*
X31491110Y-126136487D01*
X31200000Y-126107815D01*
X30908889Y-126136487D01*
X30628966Y-126221401D01*
X30370986Y-126359294D01*
X30144866Y-126544866D01*
X29959294Y-126770987D01*
X29821401Y-127028967D01*
X29736487Y-127308890D01*
X29715000Y-127527051D01*
X29715000Y-127922950D01*
X29736487Y-128141111D01*
X29821401Y-128421034D01*
X29959294Y-128679014D01*
X30144866Y-128905134D01*
X30315001Y-129044759D01*
X30315000Y-130856531D01*
X30310719Y-130900000D01*
X30315000Y-130943469D01*
X30315000Y-130943476D01*
X30322953Y-131024225D01*
X30327805Y-131073490D01*
X30331476Y-131085590D01*
X30378411Y-131240312D01*
X30460589Y-131394058D01*
X30558743Y-131513659D01*
X30443356Y-131608356D01*
X30347214Y-131725504D01*
X30312014Y-131791359D01*
X30244059Y-131735589D01*
X30090313Y-131653411D01*
X29923490Y-131602805D01*
X29793477Y-131590000D01*
X29793469Y-131590000D01*
X29750000Y-131585719D01*
X29706531Y-131590000D01*
X29564468Y-131590000D01*
X29551185Y-131573815D01*
X29454494Y-131494463D01*
X29344180Y-131435498D01*
X29224482Y-131399188D01*
X29100000Y-131386928D01*
X28300000Y-131386928D01*
X28175518Y-131399188D01*
X28055820Y-131435498D01*
X27945506Y-131494463D01*
X27848815Y-131573815D01*
X27769463Y-131670506D01*
X27710498Y-131780820D01*
X27674188Y-131900518D01*
X27661928Y-132025000D01*
X27661928Y-132035349D01*
X27085000Y-131458422D01*
X27085000Y-129287110D01*
X27139850Y-129270472D01*
X27293386Y-129188405D01*
X27427962Y-129077962D01*
X27538405Y-128943386D01*
X27620472Y-128789850D01*
X27671008Y-128623254D01*
X27688072Y-128450000D01*
X27688072Y-127000000D01*
X27671008Y-126826746D01*
X27620472Y-126660150D01*
X27538405Y-126506614D01*
X27427962Y-126372038D01*
X27293386Y-126261595D01*
X27139850Y-126179528D01*
X26973254Y-126128992D01*
X26800000Y-126111928D01*
X25600000Y-126111928D01*
X25426746Y-126128992D01*
X25260150Y-126179528D01*
X25106614Y-126261595D01*
X24972038Y-126372038D01*
X24861595Y-126506614D01*
X24779528Y-126660150D01*
X24728992Y-126826746D01*
X24711928Y-127000000D01*
X24711928Y-128450000D01*
X24728992Y-128623254D01*
X24779528Y-128789850D01*
X24861595Y-128943386D01*
X24972038Y-129077962D01*
X25106614Y-129188405D01*
X25260150Y-129270472D01*
X25315001Y-129287111D01*
X25315000Y-131781531D01*
X25310719Y-131825000D01*
X25315000Y-131868469D01*
X25315000Y-131868476D01*
X25323112Y-131950842D01*
X25327805Y-131998490D01*
X25336155Y-132026015D01*
X25378411Y-132165312D01*
X25460589Y-132319058D01*
X25571183Y-132453817D01*
X25604956Y-132481534D01*
X25983319Y-132859897D01*
X25964181Y-132861782D01*
X25819158Y-132905775D01*
X25685504Y-132977214D01*
X25568356Y-133073356D01*
X25472214Y-133190504D01*
X25400775Y-133324158D01*
X25356782Y-133469181D01*
X25345031Y-133588490D01*
X25226939Y-133565000D01*
X25023061Y-133565000D01*
X24823102Y-133604774D01*
X24634744Y-133682795D01*
X24465226Y-133796063D01*
X24321063Y-133940226D01*
X24207795Y-134109744D01*
X24129774Y-134298102D01*
X24090000Y-134498061D01*
X24090000Y-134701939D01*
X24129774Y-134901898D01*
X24207795Y-135090256D01*
X24312651Y-135247185D01*
X24294717Y-135252625D01*
X24145503Y-135332382D01*
X24014716Y-135439716D01*
X23907382Y-135570503D01*
X23827625Y-135719717D01*
X23778512Y-135881623D01*
X23761928Y-136050000D01*
X23761928Y-136550000D01*
X23778512Y-136718377D01*
X23827625Y-136880283D01*
X23907382Y-137029497D01*
X24014716Y-137160284D01*
X24145503Y-137267618D01*
X24202501Y-137298084D01*
X24202501Y-137325430D01*
X24181613Y-137336595D01*
X24047038Y-137447038D01*
X23936595Y-137581613D01*
X23854528Y-137735148D01*
X23803992Y-137901744D01*
X23786928Y-138074998D01*
X23786928Y-138081416D01*
X23601898Y-138004774D01*
X23545044Y-137993465D01*
X22431534Y-136879956D01*
X22403817Y-136846183D01*
X22269059Y-136735589D01*
X22115313Y-136653411D01*
X21948490Y-136602805D01*
X21818477Y-136590000D01*
X21818469Y-136590000D01*
X21775000Y-136585719D01*
X21731531Y-136590000D01*
X21293450Y-136590000D01*
X21112624Y-136469176D01*
X20906067Y-136383617D01*
X20686788Y-136340000D01*
X20463212Y-136340000D01*
X20243933Y-136383617D01*
X20037376Y-136469176D01*
X19851480Y-136593388D01*
X19710000Y-136734868D01*
X19710000Y-136218469D01*
X19714281Y-136175000D01*
X19710000Y-136131531D01*
X19710000Y-136131523D01*
X19697195Y-136001510D01*
X19646589Y-135834687D01*
X19564411Y-135680941D01*
X19453817Y-135546183D01*
X19420045Y-135518467D01*
X19056534Y-135154956D01*
X19028817Y-135121183D01*
X18894059Y-135010589D01*
X18740313Y-134928411D01*
X18573490Y-134877805D01*
X18443477Y-134865000D01*
X18443469Y-134865000D01*
X18400000Y-134860719D01*
X18356531Y-134865000D01*
X16119023Y-134865000D01*
X15989010Y-134877805D01*
X15876523Y-134911928D01*
X15487500Y-134911928D01*
X15363018Y-134924188D01*
X15243320Y-134960498D01*
X15133006Y-135019463D01*
X15036315Y-135098815D01*
X14956963Y-135195506D01*
X14897998Y-135305820D01*
X14861688Y-135425518D01*
X14849428Y-135550000D01*
X14849428Y-135950000D01*
X14861688Y-136074482D01*
X14861845Y-136075000D01*
X14861688Y-136075518D01*
X14849428Y-136200000D01*
X14849428Y-136600000D01*
X14861688Y-136724482D01*
X14861845Y-136725000D01*
X14861688Y-136725518D01*
X14849428Y-136850000D01*
X14849428Y-137250000D01*
X14861688Y-137374482D01*
X14861845Y-137375000D01*
X14861688Y-137375518D01*
X14849428Y-137500000D01*
X14849428Y-137900000D01*
X14861688Y-138024482D01*
X14897998Y-138144180D01*
X14956963Y-138254494D01*
X15036315Y-138351185D01*
X15133006Y-138430537D01*
X15243320Y-138489502D01*
X15363018Y-138525812D01*
X15487500Y-138538072D01*
X16837500Y-138538072D01*
X16961982Y-138525812D01*
X17081680Y-138489502D01*
X17191994Y-138430537D01*
X17288685Y-138351185D01*
X17368037Y-138254494D01*
X17427002Y-138144180D01*
X17463312Y-138024482D01*
X17475572Y-137900000D01*
X17475572Y-137500000D01*
X17463312Y-137375518D01*
X17463155Y-137375000D01*
X17463312Y-137374482D01*
X17475572Y-137250000D01*
X17475572Y-136850000D01*
X17463312Y-136725518D01*
X17463155Y-136725000D01*
X17463312Y-136724482D01*
X17472125Y-136635000D01*
X17940000Y-136635000D01*
X17940001Y-137981521D01*
X17935719Y-138025000D01*
X17952805Y-138198490D01*
X18003412Y-138365313D01*
X18085590Y-138519059D01*
X18168468Y-138620046D01*
X18168471Y-138620049D01*
X18196184Y-138653817D01*
X18229951Y-138681529D01*
X19843481Y-140295060D01*
X19871194Y-140328828D01*
X19904962Y-140356541D01*
X19904964Y-140356543D01*
X19976463Y-140415221D01*
X20005952Y-140439422D01*
X20159698Y-140521600D01*
X20326521Y-140572206D01*
X20456534Y-140585011D01*
X20456544Y-140585011D01*
X20500010Y-140589292D01*
X20543476Y-140585011D01*
X22328433Y-140585011D01*
X22391928Y-140648507D01*
X22391928Y-140810000D01*
X22406782Y-140960819D01*
X22415000Y-140987911D01*
X22415000Y-141107317D01*
X22345506Y-141144463D01*
X22248815Y-141223815D01*
X22169463Y-141320506D01*
X22110498Y-141430820D01*
X22074188Y-141550518D01*
X22061928Y-141675000D01*
X22061928Y-141771436D01*
X22052805Y-141801510D01*
X22035718Y-141975000D01*
X22052805Y-142148490D01*
X22061928Y-142178564D01*
X22061928Y-142275000D01*
X22074178Y-142399376D01*
X21308639Y-141633838D01*
X21272850Y-141515858D01*
X21193671Y-141367725D01*
X21087115Y-141237885D01*
X20957275Y-141131329D01*
X20809142Y-141052150D01*
X20648408Y-141003392D01*
X20481250Y-140986928D01*
X20043750Y-140986928D01*
X19876592Y-141003392D01*
X19715858Y-141052150D01*
X19567725Y-141131329D01*
X19475000Y-141207426D01*
X19382275Y-141131329D01*
X19234142Y-141052150D01*
X19073408Y-141003392D01*
X18906250Y-140986928D01*
X18468750Y-140986928D01*
X18301592Y-141003392D01*
X18140858Y-141052150D01*
X17992725Y-141131329D01*
X17963882Y-141155000D01*
X17286168Y-141155000D01*
X17264496Y-141137214D01*
X17130842Y-141065775D01*
X16985819Y-141021782D01*
X16835000Y-141006928D01*
X16465000Y-141006928D01*
X16314181Y-141021782D01*
X16169158Y-141065775D01*
X16035504Y-141137214D01*
X15918356Y-141233356D01*
X15822214Y-141350504D01*
X15750775Y-141484158D01*
X15706782Y-141629181D01*
X15691928Y-141780000D01*
X15691928Y-142013595D01*
X15675000Y-142011928D01*
X15025000Y-142011928D01*
X14900518Y-142024188D01*
X14780820Y-142060498D01*
X14670506Y-142119463D01*
X14573815Y-142198815D01*
X14494463Y-142295506D01*
X14435498Y-142405820D01*
X14399188Y-142525518D01*
X14386928Y-142650000D01*
X14386928Y-143700000D01*
X14399188Y-143824482D01*
X14435498Y-143944180D01*
X14494463Y-144054494D01*
X14573815Y-144151185D01*
X14670506Y-144230537D01*
X14780820Y-144289502D01*
X14900518Y-144325812D01*
X15025000Y-144338072D01*
X15675000Y-144338072D01*
X15717530Y-144333883D01*
X15716928Y-144340000D01*
X15716928Y-144610000D01*
X15731782Y-144760819D01*
X15775775Y-144905842D01*
X15818086Y-144985000D01*
X15775775Y-145064158D01*
X15731782Y-145209181D01*
X15716928Y-145360000D01*
X15716928Y-145390000D01*
X14712322Y-145390000D01*
X14674999Y-145386324D01*
X14637677Y-145390000D01*
X14637667Y-145390000D01*
X14526014Y-145400997D01*
X14397433Y-145440001D01*
X14382753Y-145444454D01*
X14250723Y-145515026D01*
X14187092Y-145567247D01*
X14134999Y-145609999D01*
X14111201Y-145638997D01*
X13582598Y-146167601D01*
X13525000Y-146161928D01*
X12875000Y-146161928D01*
X12750518Y-146174188D01*
X12735000Y-146178895D01*
X12735000Y-132498354D01*
X12825518Y-132525812D01*
X12950000Y-132538072D01*
X13600000Y-132538072D01*
X13724482Y-132525812D01*
X13844180Y-132489502D01*
X13954494Y-132430537D01*
X14051185Y-132351185D01*
X14130537Y-132254494D01*
X14189502Y-132144180D01*
X14225812Y-132024482D01*
X14238072Y-131900000D01*
X14238072Y-131319730D01*
X14367247Y-131280546D01*
X14461928Y-131229937D01*
X14461928Y-131900000D01*
X14474188Y-132024482D01*
X14510498Y-132144180D01*
X14569463Y-132254494D01*
X14648815Y-132351185D01*
X14745506Y-132430537D01*
X14855820Y-132489502D01*
X14975518Y-132525812D01*
X15100000Y-132538072D01*
X15750000Y-132538072D01*
X15874482Y-132525812D01*
X15994180Y-132489502D01*
X16104494Y-132430537D01*
X16201185Y-132351185D01*
X16280537Y-132254494D01*
X16339502Y-132144180D01*
X16375812Y-132024482D01*
X16386928Y-131911616D01*
X16386928Y-131925000D01*
X16399188Y-132049482D01*
X16435498Y-132169180D01*
X16466454Y-132227093D01*
X16475997Y-132323986D01*
X16519454Y-132467247D01*
X16539921Y-132505537D01*
X16590026Y-132599276D01*
X16645775Y-132667205D01*
X16685000Y-132715001D01*
X16713998Y-132738799D01*
X17711212Y-133736014D01*
X17735010Y-133765012D01*
X17850735Y-133859985D01*
X17982764Y-133930557D01*
X18126025Y-133974014D01*
X18237678Y-133985011D01*
X18237686Y-133985011D01*
X18275011Y-133988687D01*
X18312336Y-133985011D01*
X21224078Y-133985011D01*
X21261400Y-133988687D01*
X21298722Y-133985011D01*
X21298733Y-133985011D01*
X21410386Y-133974014D01*
X21553647Y-133930557D01*
X21685676Y-133859985D01*
X21801401Y-133765012D01*
X21825204Y-133736009D01*
X22861004Y-132700209D01*
X22890001Y-132676412D01*
X22925504Y-132633151D01*
X22984974Y-132560688D01*
X23055546Y-132428658D01*
X23059148Y-132416782D01*
X23099003Y-132285397D01*
X23109066Y-132183231D01*
X23177786Y-132099496D01*
X23249225Y-131965842D01*
X23293218Y-131820819D01*
X23308072Y-131670000D01*
X23308072Y-131400000D01*
X23293218Y-131249181D01*
X23249225Y-131104158D01*
X23213899Y-131038067D01*
X23223804Y-131025997D01*
X23230545Y-131019256D01*
X23240226Y-131028937D01*
X23409744Y-131142205D01*
X23598102Y-131220226D01*
X23798061Y-131260000D01*
X24001939Y-131260000D01*
X24201898Y-131220226D01*
X24390256Y-131142205D01*
X24559774Y-131028937D01*
X24703937Y-130884774D01*
X24817205Y-130715256D01*
X24895226Y-130526898D01*
X24935000Y-130326939D01*
X24935000Y-130123061D01*
X24895226Y-129923102D01*
X24817205Y-129734744D01*
X24703937Y-129565226D01*
X24559774Y-129421063D01*
X24390256Y-129307795D01*
X24201898Y-129229774D01*
X24001939Y-129190000D01*
X23798061Y-129190000D01*
X23598102Y-129229774D01*
X23409744Y-129307795D01*
X23240226Y-129421063D01*
X23196289Y-129465000D01*
X23134990Y-129465000D01*
X23134990Y-129298071D01*
X23095216Y-129098112D01*
X23017195Y-128909754D01*
X22903927Y-128740236D01*
X22859990Y-128696299D01*
X22859990Y-128462312D01*
X22863666Y-128424989D01*
X22859990Y-128387666D01*
X22859990Y-128387657D01*
X22848993Y-128276004D01*
X22805536Y-128132743D01*
X22734964Y-128000714D01*
X22639991Y-127884989D01*
X22610987Y-127861186D01*
X22488804Y-127739003D01*
X22465001Y-127709999D01*
X22396990Y-127654184D01*
X22434774Y-127628937D01*
X22578937Y-127484774D01*
X22692205Y-127315256D01*
X22770226Y-127126898D01*
X22810000Y-126926939D01*
X22810000Y-126723061D01*
X22770226Y-126523102D01*
X22692205Y-126334744D01*
X22578937Y-126165226D01*
X22434774Y-126021063D01*
X22265256Y-125907795D01*
X22076898Y-125829774D01*
X21876939Y-125790000D01*
X21673061Y-125790000D01*
X21473102Y-125829774D01*
X21284744Y-125907795D01*
X21115226Y-126021063D01*
X21060276Y-126076013D01*
X20917068Y-126119454D01*
X20785039Y-126190026D01*
X20669314Y-126284999D01*
X20645516Y-126313997D01*
X20155315Y-126804198D01*
X20143325Y-126743919D01*
X20012537Y-126428169D01*
X19822663Y-126144002D01*
X19580998Y-125902337D01*
X19296831Y-125712463D01*
X19170174Y-125660000D01*
X52832025Y-125660000D01*
X52619002Y-125802337D01*
G37*
%TD.AperFunction*%
D35*
X48425825Y-143149611D02*
X48562500Y-143163072D01*
X48687500Y-143163072D01*
X48742328Y-143157672D01*
X48736928Y-143212500D01*
X48736928Y-143337500D01*
X48750389Y-143474175D01*
X48765807Y-143525000D01*
X48750389Y-143575825D01*
X48736928Y-143712500D01*
X48736928Y-143837500D01*
X48750389Y-143974175D01*
X48790256Y-144105597D01*
X48854996Y-144226717D01*
X48894621Y-144275000D01*
X48854996Y-144323283D01*
X48790256Y-144444403D01*
X48750389Y-144575825D01*
X48736928Y-144712500D01*
X48736928Y-144837500D01*
X48750389Y-144974175D01*
X48765807Y-145025000D01*
X48750389Y-145075825D01*
X48736928Y-145212500D01*
X48736928Y-145337500D01*
X48750389Y-145474175D01*
X48765807Y-145525000D01*
X48750389Y-145575825D01*
X48736928Y-145712500D01*
X48736928Y-145837500D01*
X48742328Y-145892328D01*
X48687500Y-145886928D01*
X48562500Y-145886928D01*
X48425825Y-145900389D01*
X48375000Y-145915807D01*
X48324175Y-145900389D01*
X48187500Y-145886928D01*
X48062500Y-145886928D01*
X47925825Y-145900389D01*
X47875000Y-145915807D01*
X47824175Y-145900389D01*
X47687500Y-145886928D01*
X47562500Y-145886928D01*
X47425825Y-145900389D01*
X47375000Y-145915807D01*
X47324175Y-145900389D01*
X47187500Y-145886928D01*
X47062500Y-145886928D01*
X46925825Y-145900389D01*
X46875000Y-145915807D01*
X46824175Y-145900389D01*
X46687500Y-145886928D01*
X46562500Y-145886928D01*
X46425825Y-145900389D01*
X46375000Y-145915807D01*
X46324175Y-145900389D01*
X46187500Y-145886928D01*
X46062500Y-145886928D01*
X46007672Y-145892328D01*
X46013072Y-145837500D01*
X46013072Y-145712500D01*
X45999611Y-145575825D01*
X45984193Y-145525000D01*
X45999611Y-145474175D01*
X46013072Y-145337500D01*
X46013072Y-145212500D01*
X45999611Y-145075825D01*
X45959744Y-144944403D01*
X45895004Y-144823283D01*
X45855379Y-144775000D01*
X45895004Y-144726717D01*
X45959744Y-144605597D01*
X45999611Y-144474175D01*
X46013072Y-144337500D01*
X46013072Y-144212500D01*
X45999611Y-144075825D01*
X45959744Y-143944403D01*
X45895004Y-143823283D01*
X45855379Y-143775000D01*
X45895004Y-143726717D01*
X45959744Y-143605597D01*
X45999611Y-143474175D01*
X46013072Y-143337500D01*
X46013072Y-143212500D01*
X46007672Y-143157672D01*
X46062500Y-143163072D01*
X46187500Y-143163072D01*
X46324175Y-143149611D01*
X46375000Y-143134193D01*
X46425825Y-143149611D01*
X46562500Y-143163072D01*
X46687500Y-143163072D01*
X46824175Y-143149611D01*
X46875000Y-143134193D01*
X46925825Y-143149611D01*
X47062500Y-143163072D01*
X47187500Y-143163072D01*
X47324175Y-143149611D01*
X47375000Y-143134193D01*
X47425825Y-143149611D01*
X47562500Y-143163072D01*
X47687500Y-143163072D01*
X47824175Y-143149611D01*
X47875000Y-143134193D01*
X47925825Y-143149611D01*
X48062500Y-143163072D01*
X48187500Y-143163072D01*
X48324175Y-143149611D01*
X48375000Y-143134193D01*
X48425825Y-143149611D01*
%TA.AperFunction,Conductor*%
D36*
G36*
X48425825Y-143149611D02*
G01*
X48562500Y-143163072D01*
X48687500Y-143163072D01*
X48742328Y-143157672D01*
X48736928Y-143212500D01*
X48736928Y-143337500D01*
X48750389Y-143474175D01*
X48765807Y-143525000D01*
X48750389Y-143575825D01*
X48736928Y-143712500D01*
X48736928Y-143837500D01*
X48750389Y-143974175D01*
X48790256Y-144105597D01*
X48854996Y-144226717D01*
X48894621Y-144275000D01*
X48854996Y-144323283D01*
X48790256Y-144444403D01*
X48750389Y-144575825D01*
X48736928Y-144712500D01*
X48736928Y-144837500D01*
X48750389Y-144974175D01*
X48765807Y-145025000D01*
X48750389Y-145075825D01*
X48736928Y-145212500D01*
X48736928Y-145337500D01*
X48750389Y-145474175D01*
X48765807Y-145525000D01*
X48750389Y-145575825D01*
X48736928Y-145712500D01*
X48736928Y-145837500D01*
X48742328Y-145892328D01*
X48687500Y-145886928D01*
X48562500Y-145886928D01*
X48425825Y-145900389D01*
X48375000Y-145915807D01*
X48324175Y-145900389D01*
X48187500Y-145886928D01*
X48062500Y-145886928D01*
X47925825Y-145900389D01*
X47875000Y-145915807D01*
X47824175Y-145900389D01*
X47687500Y-145886928D01*
X47562500Y-145886928D01*
X47425825Y-145900389D01*
X47375000Y-145915807D01*
X47324175Y-145900389D01*
X47187500Y-145886928D01*
X47062500Y-145886928D01*
X46925825Y-145900389D01*
X46875000Y-145915807D01*
X46824175Y-145900389D01*
X46687500Y-145886928D01*
X46562500Y-145886928D01*
X46425825Y-145900389D01*
X46375000Y-145915807D01*
X46324175Y-145900389D01*
X46187500Y-145886928D01*
X46062500Y-145886928D01*
X46007672Y-145892328D01*
X46013072Y-145837500D01*
X46013072Y-145712500D01*
X45999611Y-145575825D01*
X45984193Y-145525000D01*
X45999611Y-145474175D01*
X46013072Y-145337500D01*
X46013072Y-145212500D01*
X45999611Y-145075825D01*
X45959744Y-144944403D01*
X45895004Y-144823283D01*
X45855379Y-144775000D01*
X45895004Y-144726717D01*
X45959744Y-144605597D01*
X45999611Y-144474175D01*
X46013072Y-144337500D01*
X46013072Y-144212500D01*
X45999611Y-144075825D01*
X45959744Y-143944403D01*
X45895004Y-143823283D01*
X45855379Y-143775000D01*
X45895004Y-143726717D01*
X45959744Y-143605597D01*
X45999611Y-143474175D01*
X46013072Y-143337500D01*
X46013072Y-143212500D01*
X46007672Y-143157672D01*
X46062500Y-143163072D01*
X46187500Y-143163072D01*
X46324175Y-143149611D01*
X46375000Y-143134193D01*
X46425825Y-143149611D01*
X46562500Y-143163072D01*
X46687500Y-143163072D01*
X46824175Y-143149611D01*
X46875000Y-143134193D01*
X46925825Y-143149611D01*
X47062500Y-143163072D01*
X47187500Y-143163072D01*
X47324175Y-143149611D01*
X47375000Y-143134193D01*
X47425825Y-143149611D01*
X47562500Y-143163072D01*
X47687500Y-143163072D01*
X47824175Y-143149611D01*
X47875000Y-143134193D01*
X47925825Y-143149611D01*
X48062500Y-143163072D01*
X48187500Y-143163072D01*
X48324175Y-143149611D01*
X48375000Y-143134193D01*
X48425825Y-143149611D01*
G37*
%TD.AperFunction*%
D35*
X52141048Y-143952987D02*
X52146751Y-143981659D01*
X51391483Y-144736928D01*
X51080000Y-144736928D01*
X50928206Y-144751878D01*
X50888072Y-144764053D01*
X50888072Y-144712500D01*
X50874611Y-144575825D01*
X50834744Y-144444403D01*
X50770004Y-144323283D01*
X50730379Y-144275000D01*
X50770004Y-144226717D01*
X50794188Y-144181472D01*
X50948102Y-144245226D01*
X51148061Y-144285000D01*
X51351939Y-144285000D01*
X51551898Y-144245226D01*
X51740256Y-144167205D01*
X51909774Y-144053937D01*
X52053937Y-143909774D01*
X52141048Y-143779403D01*
X52141048Y-143952987D01*
%TA.AperFunction,Conductor*%
D36*
G36*
X52141048Y-143952987D02*
G01*
X52146751Y-143981659D01*
X51391483Y-144736928D01*
X51080000Y-144736928D01*
X50928206Y-144751878D01*
X50888072Y-144764053D01*
X50888072Y-144712500D01*
X50874611Y-144575825D01*
X50834744Y-144444403D01*
X50770004Y-144323283D01*
X50730379Y-144275000D01*
X50770004Y-144226717D01*
X50794188Y-144181472D01*
X50948102Y-144245226D01*
X51148061Y-144285000D01*
X51351939Y-144285000D01*
X51551898Y-144245226D01*
X51740256Y-144167205D01*
X51909774Y-144053937D01*
X52053937Y-143909774D01*
X52141048Y-143779403D01*
X52141048Y-143952987D01*
G37*
%TD.AperFunction*%
D35*
X43861928Y-143212500D02*
X43861928Y-143337500D01*
X43863608Y-143354562D01*
X43821794Y-143341878D01*
X43670000Y-143326928D01*
X43390000Y-143326928D01*
X43315540Y-143334261D01*
X43509453Y-143140349D01*
X43869034Y-143140349D01*
X43861928Y-143212500D01*
%TA.AperFunction,Conductor*%
D36*
G36*
X43861928Y-143212500D02*
G01*
X43861928Y-143337500D01*
X43863608Y-143354562D01*
X43821794Y-143341878D01*
X43670000Y-143326928D01*
X43390000Y-143326928D01*
X43315540Y-143334261D01*
X43509453Y-143140349D01*
X43869034Y-143140349D01*
X43861928Y-143212500D01*
G37*
%TD.AperFunction*%
D35*
X36680941Y-135489411D02*
X36834687Y-135571589D01*
X37001510Y-135622195D01*
X37016722Y-135623693D01*
X37036155Y-135687755D01*
X37108057Y-135822274D01*
X37204820Y-135940180D01*
X37322726Y-136036943D01*
X37457245Y-136108845D01*
X37603206Y-136153122D01*
X37755000Y-136168072D01*
X38095000Y-136168072D01*
X38246794Y-136153122D01*
X38392755Y-136108845D01*
X38527274Y-136036943D01*
X38645180Y-135940180D01*
X38741943Y-135822274D01*
X38810217Y-135694543D01*
X38833057Y-135737274D01*
X38929820Y-135855180D01*
X39047726Y-135951943D01*
X39182245Y-136023845D01*
X39328206Y-136068122D01*
X39480000Y-136083072D01*
X39820000Y-136083072D01*
X39971794Y-136068122D01*
X40117755Y-136023845D01*
X40252274Y-135951943D01*
X40370180Y-135855180D01*
X40464842Y-135739834D01*
X40486046Y-135809735D01*
X40545676Y-135921294D01*
X40625924Y-136019076D01*
X40723706Y-136099324D01*
X40835265Y-136158954D01*
X40956314Y-136195673D01*
X41082200Y-136208072D01*
X41633265Y-136208072D01*
X41646615Y-136216981D01*
X41647480Y-136217443D01*
X41762590Y-136265132D01*
X41763528Y-136265417D01*
X41770719Y-136266849D01*
X41784583Y-136336472D01*
X41784868Y-136337410D01*
X41832557Y-136452520D01*
X41833019Y-136453385D01*
X41902264Y-136557148D01*
X41902885Y-136557906D01*
X41992094Y-136647115D01*
X41992852Y-136647736D01*
X42096615Y-136716981D01*
X42097480Y-136717443D01*
X42212590Y-136765132D01*
X42213528Y-136765417D01*
X42336502Y-136789905D01*
X42337477Y-136790001D01*
X42338957Y-136790074D01*
X42308057Y-136827726D01*
X42236155Y-136962245D01*
X42191878Y-137108206D01*
X42176928Y-137260000D01*
X42176928Y-137540000D01*
X42191878Y-137691794D01*
X42236155Y-137837755D01*
X42308057Y-137972274D01*
X42404820Y-138090180D01*
X42522726Y-138186943D01*
X42657245Y-138258845D01*
X42803206Y-138303122D01*
X42955000Y-138318072D01*
X43295000Y-138318072D01*
X43446794Y-138303122D01*
X43577093Y-138263596D01*
X43578169Y-138265608D01*
X43682394Y-138392606D01*
X43809392Y-138496831D01*
X43954284Y-138574278D01*
X44111500Y-138621969D01*
X44275000Y-138638072D01*
X44825000Y-138638072D01*
X44988500Y-138621969D01*
X45145716Y-138574278D01*
X45290608Y-138496831D01*
X45305024Y-138485000D01*
X45489221Y-138485000D01*
X45428169Y-138559392D01*
X45350722Y-138704284D01*
X45303031Y-138861500D01*
X45286928Y-139025000D01*
X45286928Y-139425000D01*
X45303031Y-139588500D01*
X45350722Y-139745716D01*
X45374392Y-139790000D01*
X41187325Y-139790000D01*
X41150000Y-139786324D01*
X41112675Y-139790000D01*
X41112667Y-139790000D01*
X41001014Y-139800997D01*
X40857753Y-139844454D01*
X40725724Y-139915026D01*
X40609999Y-140009999D01*
X40586200Y-140038998D01*
X40260199Y-140365000D01*
X38721861Y-140365000D01*
X38818387Y-140313405D01*
X38952962Y-140202962D01*
X39063405Y-140068387D01*
X39145472Y-139914852D01*
X39196008Y-139748256D01*
X39204560Y-139661429D01*
X39323061Y-139685000D01*
X39526939Y-139685000D01*
X39726898Y-139645226D01*
X39915256Y-139567205D01*
X40084774Y-139453937D01*
X40228937Y-139309774D01*
X40342205Y-139140256D01*
X40420226Y-138951898D01*
X40460000Y-138751939D01*
X40460000Y-138548061D01*
X40420226Y-138348102D01*
X40342205Y-138159744D01*
X40228937Y-137990226D01*
X40084774Y-137846063D01*
X39915256Y-137732795D01*
X39726898Y-137654774D01*
X39526939Y-137615000D01*
X39323061Y-137615000D01*
X39204560Y-137638571D01*
X39196008Y-137551744D01*
X39145472Y-137385148D01*
X39063405Y-137231613D01*
X38952962Y-137097038D01*
X38818387Y-136986595D01*
X38664852Y-136904528D01*
X38498256Y-136853992D01*
X38325002Y-136836928D01*
X37499998Y-136836928D01*
X37326744Y-136853992D01*
X37160148Y-136904528D01*
X37006613Y-136986595D01*
X36895486Y-137077795D01*
X36844059Y-137035589D01*
X36690313Y-136953411D01*
X36523490Y-136902805D01*
X36504363Y-136900921D01*
X36513072Y-136812502D01*
X36513072Y-135987498D01*
X36496008Y-135814244D01*
X36445472Y-135647648D01*
X36363405Y-135494113D01*
X36360728Y-135490851D01*
X36466579Y-135385000D01*
X36553717Y-135385000D01*
X36680941Y-135489411D01*
%TA.AperFunction,Conductor*%
D36*
G36*
X36680941Y-135489411D02*
G01*
X36834687Y-135571589D01*
X37001510Y-135622195D01*
X37016722Y-135623693D01*
X37036155Y-135687755D01*
X37108057Y-135822274D01*
X37204820Y-135940180D01*
X37322726Y-136036943D01*
X37457245Y-136108845D01*
X37603206Y-136153122D01*
X37755000Y-136168072D01*
X38095000Y-136168072D01*
X38246794Y-136153122D01*
X38392755Y-136108845D01*
X38527274Y-136036943D01*
X38645180Y-135940180D01*
X38741943Y-135822274D01*
X38810217Y-135694543D01*
X38833057Y-135737274D01*
X38929820Y-135855180D01*
X39047726Y-135951943D01*
X39182245Y-136023845D01*
X39328206Y-136068122D01*
X39480000Y-136083072D01*
X39820000Y-136083072D01*
X39971794Y-136068122D01*
X40117755Y-136023845D01*
X40252274Y-135951943D01*
X40370180Y-135855180D01*
X40464842Y-135739834D01*
X40486046Y-135809735D01*
X40545676Y-135921294D01*
X40625924Y-136019076D01*
X40723706Y-136099324D01*
X40835265Y-136158954D01*
X40956314Y-136195673D01*
X41082200Y-136208072D01*
X41633265Y-136208072D01*
X41646615Y-136216981D01*
X41647480Y-136217443D01*
X41762590Y-136265132D01*
X41763528Y-136265417D01*
X41770719Y-136266849D01*
X41784583Y-136336472D01*
X41784868Y-136337410D01*
X41832557Y-136452520D01*
X41833019Y-136453385D01*
X41902264Y-136557148D01*
X41902885Y-136557906D01*
X41992094Y-136647115D01*
X41992852Y-136647736D01*
X42096615Y-136716981D01*
X42097480Y-136717443D01*
X42212590Y-136765132D01*
X42213528Y-136765417D01*
X42336502Y-136789905D01*
X42337477Y-136790001D01*
X42338957Y-136790074D01*
X42308057Y-136827726D01*
X42236155Y-136962245D01*
X42191878Y-137108206D01*
X42176928Y-137260000D01*
X42176928Y-137540000D01*
X42191878Y-137691794D01*
X42236155Y-137837755D01*
X42308057Y-137972274D01*
X42404820Y-138090180D01*
X42522726Y-138186943D01*
X42657245Y-138258845D01*
X42803206Y-138303122D01*
X42955000Y-138318072D01*
X43295000Y-138318072D01*
X43446794Y-138303122D01*
X43577093Y-138263596D01*
X43578169Y-138265608D01*
X43682394Y-138392606D01*
X43809392Y-138496831D01*
X43954284Y-138574278D01*
X44111500Y-138621969D01*
X44275000Y-138638072D01*
X44825000Y-138638072D01*
X44988500Y-138621969D01*
X45145716Y-138574278D01*
X45290608Y-138496831D01*
X45305024Y-138485000D01*
X45489221Y-138485000D01*
X45428169Y-138559392D01*
X45350722Y-138704284D01*
X45303031Y-138861500D01*
X45286928Y-139025000D01*
X45286928Y-139425000D01*
X45303031Y-139588500D01*
X45350722Y-139745716D01*
X45374392Y-139790000D01*
X41187325Y-139790000D01*
X41150000Y-139786324D01*
X41112675Y-139790000D01*
X41112667Y-139790000D01*
X41001014Y-139800997D01*
X40857753Y-139844454D01*
X40725724Y-139915026D01*
X40609999Y-140009999D01*
X40586200Y-140038998D01*
X40260199Y-140365000D01*
X38721861Y-140365000D01*
X38818387Y-140313405D01*
X38952962Y-140202962D01*
X39063405Y-140068387D01*
X39145472Y-139914852D01*
X39196008Y-139748256D01*
X39204560Y-139661429D01*
X39323061Y-139685000D01*
X39526939Y-139685000D01*
X39726898Y-139645226D01*
X39915256Y-139567205D01*
X40084774Y-139453937D01*
X40228937Y-139309774D01*
X40342205Y-139140256D01*
X40420226Y-138951898D01*
X40460000Y-138751939D01*
X40460000Y-138548061D01*
X40420226Y-138348102D01*
X40342205Y-138159744D01*
X40228937Y-137990226D01*
X40084774Y-137846063D01*
X39915256Y-137732795D01*
X39726898Y-137654774D01*
X39526939Y-137615000D01*
X39323061Y-137615000D01*
X39204560Y-137638571D01*
X39196008Y-137551744D01*
X39145472Y-137385148D01*
X39063405Y-137231613D01*
X38952962Y-137097038D01*
X38818387Y-136986595D01*
X38664852Y-136904528D01*
X38498256Y-136853992D01*
X38325002Y-136836928D01*
X37499998Y-136836928D01*
X37326744Y-136853992D01*
X37160148Y-136904528D01*
X37006613Y-136986595D01*
X36895486Y-137077795D01*
X36844059Y-137035589D01*
X36690313Y-136953411D01*
X36523490Y-136902805D01*
X36504363Y-136900921D01*
X36513072Y-136812502D01*
X36513072Y-135987498D01*
X36496008Y-135814244D01*
X36445472Y-135647648D01*
X36363405Y-135494113D01*
X36360728Y-135490851D01*
X36466579Y-135385000D01*
X36553717Y-135385000D01*
X36680941Y-135489411D01*
G37*
%TD.AperFunction*%
D35*
X47370503Y-140117618D02*
X47519717Y-140197375D01*
X47595917Y-140220490D01*
X47614354Y-140265000D01*
X47387322Y-140265000D01*
X47349999Y-140261324D01*
X47312676Y-140265000D01*
X47312667Y-140265000D01*
X47201014Y-140275997D01*
X47057753Y-140319454D01*
X46983790Y-140358989D01*
X46864027Y-140239225D01*
X46995716Y-140199278D01*
X47140608Y-140121831D01*
X47155024Y-140110000D01*
X47361220Y-140110000D01*
X47370503Y-140117618D01*
%TA.AperFunction,Conductor*%
D36*
G36*
X47370503Y-140117618D02*
G01*
X47519717Y-140197375D01*
X47595917Y-140220490D01*
X47614354Y-140265000D01*
X47387322Y-140265000D01*
X47349999Y-140261324D01*
X47312676Y-140265000D01*
X47312667Y-140265000D01*
X47201014Y-140275997D01*
X47057753Y-140319454D01*
X46983790Y-140358989D01*
X46864027Y-140239225D01*
X46995716Y-140199278D01*
X47140608Y-140121831D01*
X47155024Y-140110000D01*
X47361220Y-140110000D01*
X47370503Y-140117618D01*
G37*
%TD.AperFunction*%
D35*
X53731842Y-137992932D02*
X54018740Y-138050000D01*
X54311260Y-138050000D01*
X54531408Y-138006210D01*
X54580002Y-138054804D01*
X54580002Y-140184201D01*
X53560000Y-139164200D01*
X53560000Y-137921753D01*
X53731842Y-137992932D01*
%TA.AperFunction,Conductor*%
D36*
G36*
X53731842Y-137992932D02*
G01*
X54018740Y-138050000D01*
X54311260Y-138050000D01*
X54531408Y-138006210D01*
X54580002Y-138054804D01*
X54580002Y-140184201D01*
X53560000Y-139164200D01*
X53560000Y-137921753D01*
X53731842Y-137992932D01*
G37*
%TD.AperFunction*%
D35*
X46803206Y-134378122D02*
X46955000Y-134393072D01*
X47295000Y-134393072D01*
X47446794Y-134378122D01*
X47506534Y-134360000D01*
X47901431Y-134360000D01*
X47928206Y-134368122D01*
X48080000Y-134383072D01*
X48420000Y-134383072D01*
X48571794Y-134368122D01*
X48615000Y-134355015D01*
X48615001Y-136582822D01*
X48518377Y-136553512D01*
X48350000Y-136536928D01*
X47850000Y-136536928D01*
X47681623Y-136553512D01*
X47519717Y-136602625D01*
X47370503Y-136682382D01*
X47361220Y-136690000D01*
X47235000Y-136690000D01*
X47235000Y-136468469D01*
X47239281Y-136425000D01*
X47235000Y-136381531D01*
X47235000Y-136381523D01*
X47222195Y-136251510D01*
X47188588Y-136140724D01*
X47171589Y-136084686D01*
X47089411Y-135930941D01*
X47006532Y-135829953D01*
X47006530Y-135829951D01*
X46978817Y-135796183D01*
X46945050Y-135768471D01*
X45801084Y-134624506D01*
X45796589Y-134609687D01*
X45742548Y-134508582D01*
X45778817Y-134478817D01*
X45857394Y-134383072D01*
X46195000Y-134383072D01*
X46346794Y-134368122D01*
X46406534Y-134350000D01*
X46710501Y-134350000D01*
X46803206Y-134378122D01*
%TA.AperFunction,Conductor*%
D36*
G36*
X46803206Y-134378122D02*
G01*
X46955000Y-134393072D01*
X47295000Y-134393072D01*
X47446794Y-134378122D01*
X47506534Y-134360000D01*
X47901431Y-134360000D01*
X47928206Y-134368122D01*
X48080000Y-134383072D01*
X48420000Y-134383072D01*
X48571794Y-134368122D01*
X48615000Y-134355015D01*
X48615001Y-136582822D01*
X48518377Y-136553512D01*
X48350000Y-136536928D01*
X47850000Y-136536928D01*
X47681623Y-136553512D01*
X47519717Y-136602625D01*
X47370503Y-136682382D01*
X47361220Y-136690000D01*
X47235000Y-136690000D01*
X47235000Y-136468469D01*
X47239281Y-136425000D01*
X47235000Y-136381531D01*
X47235000Y-136381523D01*
X47222195Y-136251510D01*
X47188588Y-136140724D01*
X47171589Y-136084686D01*
X47089411Y-135930941D01*
X47006532Y-135829953D01*
X47006530Y-135829951D01*
X46978817Y-135796183D01*
X46945050Y-135768471D01*
X45801084Y-134624506D01*
X45796589Y-134609687D01*
X45742548Y-134508582D01*
X45778817Y-134478817D01*
X45857394Y-134383072D01*
X46195000Y-134383072D01*
X46346794Y-134368122D01*
X46406534Y-134350000D01*
X46710501Y-134350000D01*
X46803206Y-134378122D01*
G37*
%TD.AperFunction*%
D35*
X47446928Y-130445000D02*
X47461878Y-130596794D01*
X47480000Y-130656534D01*
X47480000Y-130921531D01*
X47475719Y-130965000D01*
X47480000Y-131008469D01*
X47480000Y-131008477D01*
X47490492Y-131115001D01*
X47492805Y-131138490D01*
X47543412Y-131305313D01*
X47625590Y-131459059D01*
X47708468Y-131560046D01*
X47708471Y-131560049D01*
X47736184Y-131593817D01*
X47769951Y-131621529D01*
X48615000Y-132466579D01*
X48615000Y-132574984D01*
X48571794Y-132561878D01*
X48420000Y-132546928D01*
X48080000Y-132546928D01*
X47928206Y-132561878D01*
X47835501Y-132590000D01*
X47506534Y-132590000D01*
X47446794Y-132571878D01*
X47295000Y-132556928D01*
X46955000Y-132556928D01*
X46910000Y-132561360D01*
X46910000Y-131838444D01*
X46942205Y-131790246D01*
X47020226Y-131601888D01*
X47060000Y-131401929D01*
X47060000Y-131198051D01*
X47020226Y-130998092D01*
X46958133Y-130848188D01*
X47069180Y-130814502D01*
X47179494Y-130755537D01*
X47276185Y-130676185D01*
X47355537Y-130579494D01*
X47414502Y-130469180D01*
X47446928Y-130362286D01*
X47446928Y-130445000D01*
%TA.AperFunction,Conductor*%
D36*
G36*
X47446928Y-130445000D02*
G01*
X47461878Y-130596794D01*
X47480000Y-130656534D01*
X47480000Y-130921531D01*
X47475719Y-130965000D01*
X47480000Y-131008469D01*
X47480000Y-131008477D01*
X47490492Y-131115001D01*
X47492805Y-131138490D01*
X47543412Y-131305313D01*
X47625590Y-131459059D01*
X47708468Y-131560046D01*
X47708471Y-131560049D01*
X47736184Y-131593817D01*
X47769951Y-131621529D01*
X48615000Y-132466579D01*
X48615000Y-132574984D01*
X48571794Y-132561878D01*
X48420000Y-132546928D01*
X48080000Y-132546928D01*
X47928206Y-132561878D01*
X47835501Y-132590000D01*
X47506534Y-132590000D01*
X47446794Y-132571878D01*
X47295000Y-132556928D01*
X46955000Y-132556928D01*
X46910000Y-132561360D01*
X46910000Y-131838444D01*
X46942205Y-131790246D01*
X47020226Y-131601888D01*
X47060000Y-131401929D01*
X47060000Y-131198051D01*
X47020226Y-130998092D01*
X46958133Y-130848188D01*
X47069180Y-130814502D01*
X47179494Y-130755537D01*
X47276185Y-130676185D01*
X47355537Y-130579494D01*
X47414502Y-130469180D01*
X47446928Y-130362286D01*
X47446928Y-130445000D01*
G37*
%TD.AperFunction*%
D35*
X49673815Y-128751185D02*
X49770506Y-128830537D01*
X49880820Y-128889502D01*
X50000518Y-128925812D01*
X50125000Y-128938072D01*
X50904053Y-128938072D01*
X50891878Y-128978206D01*
X50876928Y-129130000D01*
X50876928Y-129410000D01*
X50891878Y-129561794D01*
X50936155Y-129707755D01*
X51008057Y-129842274D01*
X51104820Y-129960180D01*
X51222726Y-130056943D01*
X51357245Y-130128845D01*
X51503206Y-130173122D01*
X51655000Y-130188072D01*
X51995000Y-130188072D01*
X52066928Y-130180988D01*
X52066928Y-130310000D01*
X52081782Y-130460819D01*
X52125775Y-130605842D01*
X52197214Y-130739496D01*
X52293356Y-130856644D01*
X52410504Y-130952786D01*
X52544158Y-131024225D01*
X52689181Y-131068218D01*
X52840000Y-131083072D01*
X53090073Y-131083072D01*
X53086928Y-131115000D01*
X53086928Y-131485000D01*
X53101782Y-131635819D01*
X53145775Y-131780842D01*
X53189816Y-131863238D01*
X52631534Y-131304956D01*
X52603817Y-131271183D01*
X52469059Y-131160589D01*
X52315313Y-131078411D01*
X52148490Y-131027805D01*
X52018477Y-131015000D01*
X52018469Y-131015000D01*
X51975000Y-131010719D01*
X51931531Y-131015000D01*
X49666579Y-131015000D01*
X49263525Y-130611947D01*
X49268122Y-130596794D01*
X49283072Y-130445000D01*
X49283072Y-130157245D01*
X49314411Y-130119059D01*
X49396589Y-129965313D01*
X49447195Y-129798490D01*
X49455072Y-129718512D01*
X49476185Y-129701185D01*
X49555537Y-129604494D01*
X49614502Y-129494180D01*
X49650812Y-129374482D01*
X49663072Y-129250000D01*
X49663072Y-128738095D01*
X49673815Y-128751185D01*
%TA.AperFunction,Conductor*%
D36*
G36*
X49673815Y-128751185D02*
G01*
X49770506Y-128830537D01*
X49880820Y-128889502D01*
X50000518Y-128925812D01*
X50125000Y-128938072D01*
X50904053Y-128938072D01*
X50891878Y-128978206D01*
X50876928Y-129130000D01*
X50876928Y-129410000D01*
X50891878Y-129561794D01*
X50936155Y-129707755D01*
X51008057Y-129842274D01*
X51104820Y-129960180D01*
X51222726Y-130056943D01*
X51357245Y-130128845D01*
X51503206Y-130173122D01*
X51655000Y-130188072D01*
X51995000Y-130188072D01*
X52066928Y-130180988D01*
X52066928Y-130310000D01*
X52081782Y-130460819D01*
X52125775Y-130605842D01*
X52197214Y-130739496D01*
X52293356Y-130856644D01*
X52410504Y-130952786D01*
X52544158Y-131024225D01*
X52689181Y-131068218D01*
X52840000Y-131083072D01*
X53090073Y-131083072D01*
X53086928Y-131115000D01*
X53086928Y-131485000D01*
X53101782Y-131635819D01*
X53145775Y-131780842D01*
X53189816Y-131863238D01*
X52631534Y-131304956D01*
X52603817Y-131271183D01*
X52469059Y-131160589D01*
X52315313Y-131078411D01*
X52148490Y-131027805D01*
X52018477Y-131015000D01*
X52018469Y-131015000D01*
X51975000Y-131010719D01*
X51931531Y-131015000D01*
X49666579Y-131015000D01*
X49263525Y-130611947D01*
X49268122Y-130596794D01*
X49283072Y-130445000D01*
X49283072Y-130157245D01*
X49314411Y-130119059D01*
X49396589Y-129965313D01*
X49447195Y-129798490D01*
X49455072Y-129718512D01*
X49476185Y-129701185D01*
X49555537Y-129604494D01*
X49614502Y-129494180D01*
X49650812Y-129374482D01*
X49663072Y-129250000D01*
X49663072Y-128738095D01*
X49673815Y-128751185D01*
G37*
%TD.AperFunction*%
D35*
X19122214Y-129990504D02*
X19050775Y-130124158D01*
X19006782Y-130269181D01*
X18991928Y-130420000D01*
X18991928Y-130690000D01*
X18992768Y-130698527D01*
X18875000Y-130686928D01*
X18475000Y-130686928D01*
X18451234Y-130689269D01*
X18444180Y-130685498D01*
X18324482Y-130649188D01*
X18200000Y-130636928D01*
X17700000Y-130636928D01*
X17575518Y-130649188D01*
X17455820Y-130685498D01*
X17448766Y-130689269D01*
X17425000Y-130686928D01*
X17025000Y-130686928D01*
X16900518Y-130699188D01*
X16780820Y-130735498D01*
X16670506Y-130794463D01*
X16573815Y-130873815D01*
X16494463Y-130970506D01*
X16435498Y-131080820D01*
X16399188Y-131200518D01*
X16388072Y-131313384D01*
X16388072Y-130850000D01*
X16375812Y-130725518D01*
X16339502Y-130605820D01*
X16280537Y-130495506D01*
X16201185Y-130398815D01*
X16104494Y-130319463D01*
X15994180Y-130260498D01*
X15874482Y-130224188D01*
X15750000Y-130211928D01*
X15512874Y-130211928D01*
X15664802Y-130060000D01*
X18696993Y-130060000D01*
X18734315Y-130063676D01*
X18771637Y-130060000D01*
X18771648Y-130060000D01*
X18883301Y-130049003D01*
X19026562Y-130005546D01*
X19158591Y-129934974D01*
X19186758Y-129911858D01*
X19122214Y-129990504D01*
%TA.AperFunction,Conductor*%
D36*
G36*
X19122214Y-129990504D02*
G01*
X19050775Y-130124158D01*
X19006782Y-130269181D01*
X18991928Y-130420000D01*
X18991928Y-130690000D01*
X18992768Y-130698527D01*
X18875000Y-130686928D01*
X18475000Y-130686928D01*
X18451234Y-130689269D01*
X18444180Y-130685498D01*
X18324482Y-130649188D01*
X18200000Y-130636928D01*
X17700000Y-130636928D01*
X17575518Y-130649188D01*
X17455820Y-130685498D01*
X17448766Y-130689269D01*
X17425000Y-130686928D01*
X17025000Y-130686928D01*
X16900518Y-130699188D01*
X16780820Y-130735498D01*
X16670506Y-130794463D01*
X16573815Y-130873815D01*
X16494463Y-130970506D01*
X16435498Y-131080820D01*
X16399188Y-131200518D01*
X16388072Y-131313384D01*
X16388072Y-130850000D01*
X16375812Y-130725518D01*
X16339502Y-130605820D01*
X16280537Y-130495506D01*
X16201185Y-130398815D01*
X16104494Y-130319463D01*
X15994180Y-130260498D01*
X15874482Y-130224188D01*
X15750000Y-130211928D01*
X15512874Y-130211928D01*
X15664802Y-130060000D01*
X18696993Y-130060000D01*
X18734315Y-130063676D01*
X18771637Y-130060000D01*
X18771648Y-130060000D01*
X18883301Y-130049003D01*
X19026562Y-130005546D01*
X19158591Y-129934974D01*
X19186758Y-129911858D01*
X19122214Y-129990504D01*
G37*
%TD.AperFunction*%
D35*
X17653169Y-125712463D02*
X17369002Y-125902337D01*
X17127337Y-126144002D01*
X16937463Y-126428169D01*
X16806675Y-126743919D01*
X16740000Y-127079117D01*
X16740000Y-127420883D01*
X16806675Y-127756081D01*
X16937463Y-128071831D01*
X17127337Y-128355998D01*
X17311339Y-128540000D01*
X15387322Y-128540000D01*
X15349999Y-128536324D01*
X15312676Y-128540000D01*
X15312667Y-128540000D01*
X15201014Y-128550997D01*
X15057753Y-128594454D01*
X14925724Y-128665026D01*
X14809999Y-128759999D01*
X14786201Y-128788997D01*
X13760199Y-129815000D01*
X13337322Y-129815000D01*
X13299999Y-129811324D01*
X13262677Y-129815000D01*
X13262667Y-129815000D01*
X13151014Y-129825997D01*
X13007753Y-129869454D01*
X12875724Y-129940026D01*
X12759999Y-130034999D01*
X12748728Y-130048733D01*
X12735000Y-130059999D01*
X12735000Y-127107279D01*
X12765053Y-126800775D01*
X12795478Y-126700000D01*
X14461928Y-126700000D01*
X14461928Y-127750000D01*
X14474188Y-127874482D01*
X14510498Y-127994180D01*
X14569463Y-128104494D01*
X14648815Y-128201185D01*
X14745506Y-128280537D01*
X14855820Y-128339502D01*
X14975518Y-128375812D01*
X15100000Y-128388072D01*
X15750000Y-128388072D01*
X15874482Y-128375812D01*
X15994180Y-128339502D01*
X16104494Y-128280537D01*
X16201185Y-128201185D01*
X16280537Y-128104494D01*
X16339502Y-127994180D01*
X16375812Y-127874482D01*
X16388072Y-127750000D01*
X16388072Y-126700000D01*
X16375812Y-126575518D01*
X16339502Y-126455820D01*
X16280537Y-126345506D01*
X16201185Y-126248815D01*
X16104494Y-126169463D01*
X15994180Y-126110498D01*
X15874482Y-126074188D01*
X15750000Y-126061928D01*
X15100000Y-126061928D01*
X14975518Y-126074188D01*
X14855820Y-126110498D01*
X14745506Y-126169463D01*
X14648815Y-126248815D01*
X14569463Y-126345506D01*
X14510498Y-126455820D01*
X14474188Y-126575518D01*
X14461928Y-126700000D01*
X12795478Y-126700000D01*
X12844694Y-126536992D01*
X12974051Y-126293705D01*
X13148203Y-126080174D01*
X13360514Y-125904535D01*
X13602892Y-125773482D01*
X13866111Y-125692002D01*
X14170591Y-125660000D01*
X17779826Y-125660000D01*
X17653169Y-125712463D01*
%TA.AperFunction,Conductor*%
D36*
G36*
X17653169Y-125712463D02*
G01*
X17369002Y-125902337D01*
X17127337Y-126144002D01*
X16937463Y-126428169D01*
X16806675Y-126743919D01*
X16740000Y-127079117D01*
X16740000Y-127420883D01*
X16806675Y-127756081D01*
X16937463Y-128071831D01*
X17127337Y-128355998D01*
X17311339Y-128540000D01*
X15387322Y-128540000D01*
X15349999Y-128536324D01*
X15312676Y-128540000D01*
X15312667Y-128540000D01*
X15201014Y-128550997D01*
X15057753Y-128594454D01*
X14925724Y-128665026D01*
X14809999Y-128759999D01*
X14786201Y-128788997D01*
X13760199Y-129815000D01*
X13337322Y-129815000D01*
X13299999Y-129811324D01*
X13262677Y-129815000D01*
X13262667Y-129815000D01*
X13151014Y-129825997D01*
X13007753Y-129869454D01*
X12875724Y-129940026D01*
X12759999Y-130034999D01*
X12748728Y-130048733D01*
X12735000Y-130059999D01*
X12735000Y-127107279D01*
X12765053Y-126800775D01*
X12795478Y-126700000D01*
X14461928Y-126700000D01*
X14461928Y-127750000D01*
X14474188Y-127874482D01*
X14510498Y-127994180D01*
X14569463Y-128104494D01*
X14648815Y-128201185D01*
X14745506Y-128280537D01*
X14855820Y-128339502D01*
X14975518Y-128375812D01*
X15100000Y-128388072D01*
X15750000Y-128388072D01*
X15874482Y-128375812D01*
X15994180Y-128339502D01*
X16104494Y-128280537D01*
X16201185Y-128201185D01*
X16280537Y-128104494D01*
X16339502Y-127994180D01*
X16375812Y-127874482D01*
X16388072Y-127750000D01*
X16388072Y-126700000D01*
X16375812Y-126575518D01*
X16339502Y-126455820D01*
X16280537Y-126345506D01*
X16201185Y-126248815D01*
X16104494Y-126169463D01*
X15994180Y-126110498D01*
X15874482Y-126074188D01*
X15750000Y-126061928D01*
X15100000Y-126061928D01*
X14975518Y-126074188D01*
X14855820Y-126110498D01*
X14745506Y-126169463D01*
X14648815Y-126248815D01*
X14569463Y-126345506D01*
X14510498Y-126455820D01*
X14474188Y-126575518D01*
X14461928Y-126700000D01*
X12795478Y-126700000D01*
X12844694Y-126536992D01*
X12974051Y-126293705D01*
X13148203Y-126080174D01*
X13360514Y-125904535D01*
X13602892Y-125773482D01*
X13866111Y-125692002D01*
X14170591Y-125660000D01*
X17779826Y-125660000D01*
X17653169Y-125712463D01*
G37*
%TD.AperFunction*%
%TD*%
M02*
