%TF.GenerationSoftware,KiCad,Pcbnew,(5.1.10)-1*%
%TF.CreationDate,2022-01-07T09:45:11+03:00*%
%TF.ProjectId,calve_heater,63616c76-655f-4686-9561-7465722e6b69,rev?*%
%TF.SameCoordinates,Original*%
%TF.FileFunction,Legend,Bot*%
%TF.FilePolarity,Positive*%
%FSLAX46Y46*%
G04 Gerber Fmt 4.6, Leading zero omitted, Abs format (unit mm)*
G04 Created by KiCad (PCBNEW (5.1.10)-1) date 2022-01-07 09:45:11*
%MOMM*%
%LPD*%
G01*
G04 APERTURE LIST*
%ADD10C,0.120000*%
%ADD11C,0.150000*%
G04 APERTURE END LIST*
D10*
%TO.C,bat+*%
X21025000Y-148975000D02*
X22925000Y-148975000D01*
X22925000Y-148975000D02*
X22925000Y-147075000D01*
X22925000Y-147075000D02*
X21025000Y-147075000D01*
X21025000Y-147075000D02*
X21025000Y-148975000D01*
%TO.C,bat-*%
X24300000Y-147175000D02*
X24300000Y-149075000D01*
X26200000Y-147175000D02*
X24300000Y-147175000D01*
X26200000Y-149075000D02*
X26200000Y-147175000D01*
X24300000Y-149075000D02*
X26200000Y-149075000D01*
%TO.C,bat+*%
D11*
X23003571Y-149839285D02*
X23003571Y-149089285D01*
X23003571Y-149375000D02*
X22932142Y-149339285D01*
X22789285Y-149339285D01*
X22717857Y-149375000D01*
X22682142Y-149410714D01*
X22646428Y-149482142D01*
X22646428Y-149696428D01*
X22682142Y-149767857D01*
X22717857Y-149803571D01*
X22789285Y-149839285D01*
X22932142Y-149839285D01*
X23003571Y-149803571D01*
X22003571Y-149839285D02*
X22003571Y-149446428D01*
X22039285Y-149375000D01*
X22110714Y-149339285D01*
X22253571Y-149339285D01*
X22325000Y-149375000D01*
X22003571Y-149803571D02*
X22075000Y-149839285D01*
X22253571Y-149839285D01*
X22325000Y-149803571D01*
X22360714Y-149732142D01*
X22360714Y-149660714D01*
X22325000Y-149589285D01*
X22253571Y-149553571D01*
X22075000Y-149553571D01*
X22003571Y-149517857D01*
X21753571Y-149339285D02*
X21467857Y-149339285D01*
X21646428Y-149089285D02*
X21646428Y-149732142D01*
X21610714Y-149803571D01*
X21539285Y-149839285D01*
X21467857Y-149839285D01*
X21217857Y-149553571D02*
X20646428Y-149553571D01*
X20932142Y-149839285D02*
X20932142Y-149267857D01*
%TO.C,bat-*%
X26153571Y-149839285D02*
X26153571Y-149089285D01*
X26153571Y-149375000D02*
X26082142Y-149339285D01*
X25939285Y-149339285D01*
X25867857Y-149375000D01*
X25832142Y-149410714D01*
X25796428Y-149482142D01*
X25796428Y-149696428D01*
X25832142Y-149767857D01*
X25867857Y-149803571D01*
X25939285Y-149839285D01*
X26082142Y-149839285D01*
X26153571Y-149803571D01*
X25153571Y-149839285D02*
X25153571Y-149446428D01*
X25189285Y-149375000D01*
X25260714Y-149339285D01*
X25403571Y-149339285D01*
X25475000Y-149375000D01*
X25153571Y-149803571D02*
X25225000Y-149839285D01*
X25403571Y-149839285D01*
X25475000Y-149803571D01*
X25510714Y-149732142D01*
X25510714Y-149660714D01*
X25475000Y-149589285D01*
X25403571Y-149553571D01*
X25225000Y-149553571D01*
X25153571Y-149517857D01*
X24903571Y-149339285D02*
X24617857Y-149339285D01*
X24796428Y-149089285D02*
X24796428Y-149732142D01*
X24760714Y-149803571D01*
X24689285Y-149839285D01*
X24617857Y-149839285D01*
X24367857Y-149553571D02*
X23796428Y-149553571D01*
%TD*%
M02*
