%TF.GenerationSoftware,KiCad,Pcbnew,(5.1.10)-1*%
%TF.CreationDate,2022-01-07T09:45:11+03:00*%
%TF.ProjectId,calve_heater,63616c76-655f-4686-9561-7465722e6b69,rev?*%
%TF.SameCoordinates,Original*%
%TF.FileFunction,Legend,Top*%
%TF.FilePolarity,Positive*%
%FSLAX46Y46*%
G04 Gerber Fmt 4.6, Leading zero omitted, Abs format (unit mm)*
G04 Created by KiCad (PCBNEW (5.1.10)-1) date 2022-01-07 09:45:11*
%MOMM*%
%LPD*%
G01*
G04 APERTURE LIST*
%ADD10C,0.125000*%
%ADD11C,0.150000*%
%ADD12C,0.120000*%
%ADD13C,0.187500*%
%ADD14C,0.127000*%
%ADD15C,0.200000*%
G04 APERTURE END LIST*
D10*
X50176190Y-137185714D02*
X49676190Y-137185714D01*
X50033333Y-137019047D01*
X49676190Y-136852380D01*
X50176190Y-136852380D01*
X49676190Y-136519047D02*
X49676190Y-136423809D01*
X49700000Y-136376190D01*
X49747619Y-136328571D01*
X49842857Y-136304761D01*
X50009523Y-136304761D01*
X50104761Y-136328571D01*
X50152380Y-136376190D01*
X50176190Y-136423809D01*
X50176190Y-136519047D01*
X50152380Y-136566666D01*
X50104761Y-136614285D01*
X50009523Y-136638095D01*
X49842857Y-136638095D01*
X49747619Y-136614285D01*
X49700000Y-136566666D01*
X49676190Y-136519047D01*
X50152380Y-136114285D02*
X50176190Y-136042857D01*
X50176190Y-135923809D01*
X50152380Y-135876190D01*
X50128571Y-135852380D01*
X50080952Y-135828571D01*
X50033333Y-135828571D01*
X49985714Y-135852380D01*
X49961904Y-135876190D01*
X49938095Y-135923809D01*
X49914285Y-136019047D01*
X49890476Y-136066666D01*
X49866666Y-136090476D01*
X49819047Y-136114285D01*
X49771428Y-136114285D01*
X49723809Y-136090476D01*
X49700000Y-136066666D01*
X49676190Y-136019047D01*
X49676190Y-135900000D01*
X49700000Y-135828571D01*
X50176190Y-135614285D02*
X49676190Y-135614285D01*
X54044047Y-140625000D02*
X53996428Y-140601190D01*
X53925000Y-140601190D01*
X53853571Y-140625000D01*
X53805952Y-140672619D01*
X53782142Y-140720238D01*
X53758333Y-140815476D01*
X53758333Y-140886904D01*
X53782142Y-140982142D01*
X53805952Y-141029761D01*
X53853571Y-141077380D01*
X53925000Y-141101190D01*
X53972619Y-141101190D01*
X54044047Y-141077380D01*
X54067857Y-141053571D01*
X54067857Y-140886904D01*
X53972619Y-140886904D01*
X54282142Y-141101190D02*
X54282142Y-140601190D01*
X54567857Y-141101190D01*
X54567857Y-140601190D01*
X54805952Y-141101190D02*
X54805952Y-140601190D01*
X54925000Y-140601190D01*
X54996428Y-140625000D01*
X55044047Y-140672619D01*
X55067857Y-140720238D01*
X55091666Y-140815476D01*
X55091666Y-140886904D01*
X55067857Y-140982142D01*
X55044047Y-141029761D01*
X54996428Y-141077380D01*
X54925000Y-141101190D01*
X54805952Y-141101190D01*
X50126190Y-139423809D02*
X49888095Y-139590476D01*
X50126190Y-139709523D02*
X49626190Y-139709523D01*
X49626190Y-139519047D01*
X49650000Y-139471428D01*
X49673809Y-139447619D01*
X49721428Y-139423809D01*
X49792857Y-139423809D01*
X49840476Y-139447619D01*
X49864285Y-139471428D01*
X49888095Y-139519047D01*
X49888095Y-139709523D01*
X50102380Y-139233333D02*
X50126190Y-139161904D01*
X50126190Y-139042857D01*
X50102380Y-138995238D01*
X50078571Y-138971428D01*
X50030952Y-138947619D01*
X49983333Y-138947619D01*
X49935714Y-138971428D01*
X49911904Y-138995238D01*
X49888095Y-139042857D01*
X49864285Y-139138095D01*
X49840476Y-139185714D01*
X49816666Y-139209523D01*
X49769047Y-139233333D01*
X49721428Y-139233333D01*
X49673809Y-139209523D01*
X49650000Y-139185714D01*
X49626190Y-139138095D01*
X49626190Y-139019047D01*
X49650000Y-138947619D01*
X49626190Y-138804761D02*
X49626190Y-138519047D01*
X50126190Y-138661904D02*
X49626190Y-138661904D01*
X49378571Y-136822619D02*
X49402380Y-136846428D01*
X49426190Y-136917857D01*
X49426190Y-136965476D01*
X49402380Y-137036904D01*
X49354761Y-137084523D01*
X49307142Y-137108333D01*
X49211904Y-137132142D01*
X49140476Y-137132142D01*
X49045238Y-137108333D01*
X48997619Y-137084523D01*
X48950000Y-137036904D01*
X48926190Y-136965476D01*
X48926190Y-136917857D01*
X48950000Y-136846428D01*
X48973809Y-136822619D01*
X49426190Y-136370238D02*
X49426190Y-136608333D01*
X48926190Y-136608333D01*
X49426190Y-136203571D02*
X48926190Y-136203571D01*
X49426190Y-135917857D02*
X49140476Y-136132142D01*
X48926190Y-135917857D02*
X49211904Y-136203571D01*
X53379761Y-131951190D02*
X53689285Y-131951190D01*
X53522619Y-132141666D01*
X53594047Y-132141666D01*
X53641666Y-132165476D01*
X53665476Y-132189285D01*
X53689285Y-132236904D01*
X53689285Y-132355952D01*
X53665476Y-132403571D01*
X53641666Y-132427380D01*
X53594047Y-132451190D01*
X53451190Y-132451190D01*
X53403571Y-132427380D01*
X53379761Y-132403571D01*
X53855952Y-132117857D02*
X53975000Y-132451190D01*
X54094047Y-132117857D01*
X54236904Y-131951190D02*
X54546428Y-131951190D01*
X54379761Y-132141666D01*
X54451190Y-132141666D01*
X54498809Y-132165476D01*
X54522619Y-132189285D01*
X54546428Y-132236904D01*
X54546428Y-132355952D01*
X54522619Y-132403571D01*
X54498809Y-132427380D01*
X54451190Y-132451190D01*
X54308333Y-132451190D01*
X54260714Y-132427380D01*
X54236904Y-132403571D01*
X50076190Y-134586904D02*
X49742857Y-134586904D01*
X49790476Y-134586904D02*
X49766666Y-134563095D01*
X49742857Y-134515476D01*
X49742857Y-134444047D01*
X49766666Y-134396428D01*
X49814285Y-134372619D01*
X50076190Y-134372619D01*
X49814285Y-134372619D02*
X49766666Y-134348809D01*
X49742857Y-134301190D01*
X49742857Y-134229761D01*
X49766666Y-134182142D01*
X49814285Y-134158333D01*
X50076190Y-134158333D01*
X50076190Y-133920238D02*
X49742857Y-133920238D01*
X49576190Y-133920238D02*
X49600000Y-133944047D01*
X49623809Y-133920238D01*
X49600000Y-133896428D01*
X49576190Y-133920238D01*
X49623809Y-133920238D01*
X50052380Y-133705952D02*
X50076190Y-133658333D01*
X50076190Y-133563095D01*
X50052380Y-133515476D01*
X50004761Y-133491666D01*
X49980952Y-133491666D01*
X49933333Y-133515476D01*
X49909523Y-133563095D01*
X49909523Y-133634523D01*
X49885714Y-133682142D01*
X49838095Y-133705952D01*
X49814285Y-133705952D01*
X49766666Y-133682142D01*
X49742857Y-133634523D01*
X49742857Y-133563095D01*
X49766666Y-133515476D01*
X50076190Y-133205952D02*
X50052380Y-133253571D01*
X50028571Y-133277380D01*
X49980952Y-133301190D01*
X49838095Y-133301190D01*
X49790476Y-133277380D01*
X49766666Y-133253571D01*
X49742857Y-133205952D01*
X49742857Y-133134523D01*
X49766666Y-133086904D01*
X49790476Y-133063095D01*
X49838095Y-133039285D01*
X49980952Y-133039285D01*
X50028571Y-133063095D01*
X50052380Y-133086904D01*
X50076190Y-133134523D01*
X50076190Y-133205952D01*
D11*
X60074157Y-141650210D02*
X60026585Y-141602544D01*
X59979062Y-141507258D01*
X59979300Y-141269163D01*
X60027015Y-141173972D01*
X60074681Y-141126401D01*
X60169967Y-141078877D01*
X60265205Y-141078973D01*
X60408015Y-141126735D01*
X60978870Y-141698736D01*
X60979491Y-141079689D01*
X60313683Y-140221878D02*
X60980350Y-140222546D01*
X59932492Y-140459592D02*
X60646539Y-140698402D01*
X60647159Y-140079355D01*
X60885636Y-139698641D02*
X60933303Y-139651070D01*
X60980874Y-139698737D01*
X60933208Y-139746308D01*
X60885636Y-139698641D01*
X60980874Y-139698737D01*
X60981399Y-139174928D02*
X60981590Y-138984452D01*
X60934066Y-138889166D01*
X60886495Y-138841499D01*
X60743734Y-138746118D01*
X60553305Y-138698308D01*
X60172353Y-138697926D01*
X60077067Y-138745450D01*
X60029400Y-138793021D01*
X59981686Y-138888211D01*
X59981495Y-139078688D01*
X60029019Y-139173973D01*
X60076590Y-139221640D01*
X60171780Y-139269355D01*
X60409876Y-139269593D01*
X60505161Y-139222069D01*
X60552828Y-139174498D01*
X60600542Y-139079308D01*
X60600733Y-138888832D01*
X60553210Y-138793546D01*
X60505638Y-138745879D01*
X60410448Y-138698165D01*
X59982783Y-137792974D02*
X59982306Y-138269164D01*
X60458449Y-138317260D01*
X60410878Y-138269594D01*
X60363354Y-138174308D01*
X60363592Y-137936213D01*
X60411307Y-137841022D01*
X60458974Y-137793451D01*
X60554259Y-137745927D01*
X60792355Y-137746166D01*
X60887545Y-137793881D01*
X60935116Y-137841547D01*
X60982640Y-137936833D01*
X60982401Y-138174928D01*
X60934687Y-138270118D01*
X60887020Y-138317690D01*
X59983451Y-137126308D02*
X59983547Y-137031070D01*
X60031261Y-136935879D01*
X60078928Y-136888308D01*
X60174214Y-136840784D01*
X60364738Y-136793356D01*
X60602833Y-136793595D01*
X60793261Y-136841405D01*
X60888451Y-136889119D01*
X60936023Y-136936786D01*
X60983546Y-137032072D01*
X60983451Y-137127310D01*
X60935736Y-137222500D01*
X60888070Y-137270071D01*
X60792784Y-137317595D01*
X60602260Y-137365023D01*
X60364165Y-137364784D01*
X60173737Y-137316975D01*
X60078546Y-137269260D01*
X60030975Y-137221593D01*
X59983451Y-137126308D01*
X60984978Y-135603501D02*
X60318311Y-135602833D01*
X60413550Y-135602928D02*
X60365978Y-135555262D01*
X60318455Y-135459976D01*
X60318598Y-135317119D01*
X60366312Y-135221928D01*
X60461598Y-135174405D01*
X60985407Y-135174930D01*
X60461598Y-135174405D02*
X60366408Y-135126690D01*
X60318884Y-135031405D01*
X60319027Y-134888547D01*
X60366742Y-134793357D01*
X60462027Y-134745834D01*
X60985837Y-134746358D01*
X60986314Y-134270168D02*
X60319647Y-134269500D01*
X60414886Y-134269596D02*
X60367314Y-134221929D01*
X60319791Y-134126643D01*
X60319934Y-133983786D01*
X60367648Y-133888596D01*
X60462934Y-133841072D01*
X60986743Y-133841597D01*
X60462934Y-133841072D02*
X60367744Y-133793358D01*
X60320220Y-133698072D01*
X60320363Y-133555215D01*
X60368078Y-133460024D01*
X60463363Y-133412501D01*
X60987173Y-133413026D01*
D12*
X59273190Y-125031536D02*
X59248190Y-149981536D01*
X52750000Y-125025000D02*
X59859610Y-125032124D01*
X52725000Y-149975000D02*
X59834610Y-149982124D01*
X59248190Y-149981536D02*
X58662898Y-148854445D01*
X59248190Y-149981536D02*
X59835739Y-148855620D01*
X59273190Y-125031536D02*
X58685641Y-126157452D01*
X59273190Y-125031536D02*
X59858482Y-126158627D01*
D11*
X30333333Y-121765714D02*
X30333333Y-122432380D01*
X30095238Y-121384761D02*
X29857142Y-122099047D01*
X30476190Y-122099047D01*
X30761904Y-121432380D02*
X31380952Y-121432380D01*
X31047619Y-121813333D01*
X31190476Y-121813333D01*
X31285714Y-121860952D01*
X31333333Y-121908571D01*
X31380952Y-122003809D01*
X31380952Y-122241904D01*
X31333333Y-122337142D01*
X31285714Y-122384761D01*
X31190476Y-122432380D01*
X30904761Y-122432380D01*
X30809523Y-122384761D01*
X30761904Y-122337142D01*
X31809523Y-122337142D02*
X31857142Y-122384761D01*
X31809523Y-122432380D01*
X31761904Y-122384761D01*
X31809523Y-122337142D01*
X31809523Y-122432380D01*
X32428571Y-121860952D02*
X32333333Y-121813333D01*
X32285714Y-121765714D01*
X32238095Y-121670476D01*
X32238095Y-121622857D01*
X32285714Y-121527619D01*
X32333333Y-121480000D01*
X32428571Y-121432380D01*
X32619047Y-121432380D01*
X32714285Y-121480000D01*
X32761904Y-121527619D01*
X32809523Y-121622857D01*
X32809523Y-121670476D01*
X32761904Y-121765714D01*
X32714285Y-121813333D01*
X32619047Y-121860952D01*
X32428571Y-121860952D01*
X32333333Y-121908571D01*
X32285714Y-121956190D01*
X32238095Y-122051428D01*
X32238095Y-122241904D01*
X32285714Y-122337142D01*
X32333333Y-122384761D01*
X32428571Y-122432380D01*
X32619047Y-122432380D01*
X32714285Y-122384761D01*
X32761904Y-122337142D01*
X32809523Y-122241904D01*
X32809523Y-122051428D01*
X32761904Y-121956190D01*
X32714285Y-121908571D01*
X32619047Y-121860952D01*
X33428571Y-121432380D02*
X33523809Y-121432380D01*
X33619047Y-121480000D01*
X33666666Y-121527619D01*
X33714285Y-121622857D01*
X33761904Y-121813333D01*
X33761904Y-122051428D01*
X33714285Y-122241904D01*
X33666666Y-122337142D01*
X33619047Y-122384761D01*
X33523809Y-122432380D01*
X33428571Y-122432380D01*
X33333333Y-122384761D01*
X33285714Y-122337142D01*
X33238095Y-122241904D01*
X33190476Y-122051428D01*
X33190476Y-121813333D01*
X33238095Y-121622857D01*
X33285714Y-121527619D01*
X33333333Y-121480000D01*
X33428571Y-121432380D01*
X34380952Y-121432380D02*
X34476190Y-121432380D01*
X34571428Y-121480000D01*
X34619047Y-121527619D01*
X34666666Y-121622857D01*
X34714285Y-121813333D01*
X34714285Y-122051428D01*
X34666666Y-122241904D01*
X34619047Y-122337142D01*
X34571428Y-122384761D01*
X34476190Y-122432380D01*
X34380952Y-122432380D01*
X34285714Y-122384761D01*
X34238095Y-122337142D01*
X34190476Y-122241904D01*
X34142857Y-122051428D01*
X34142857Y-121813333D01*
X34190476Y-121622857D01*
X34238095Y-121527619D01*
X34285714Y-121480000D01*
X34380952Y-121432380D01*
X35904761Y-122432380D02*
X35904761Y-121765714D01*
X35904761Y-121860952D02*
X35952380Y-121813333D01*
X36047619Y-121765714D01*
X36190476Y-121765714D01*
X36285714Y-121813333D01*
X36333333Y-121908571D01*
X36333333Y-122432380D01*
X36333333Y-121908571D02*
X36380952Y-121813333D01*
X36476190Y-121765714D01*
X36619047Y-121765714D01*
X36714285Y-121813333D01*
X36761904Y-121908571D01*
X36761904Y-122432380D01*
X37238095Y-122432380D02*
X37238095Y-121765714D01*
X37238095Y-121860952D02*
X37285714Y-121813333D01*
X37380952Y-121765714D01*
X37523809Y-121765714D01*
X37619047Y-121813333D01*
X37666666Y-121908571D01*
X37666666Y-122432380D01*
X37666666Y-121908571D02*
X37714285Y-121813333D01*
X37809523Y-121765714D01*
X37952380Y-121765714D01*
X38047619Y-121813333D01*
X38095238Y-121908571D01*
X38095238Y-122432380D01*
D12*
X12100000Y-123250000D02*
X55900000Y-123250000D01*
X12100000Y-127300000D02*
X12100000Y-122663579D01*
X55900000Y-127300000D02*
X55900000Y-122663579D01*
X55900000Y-123250000D02*
X54773496Y-123836421D01*
X55900000Y-123250000D02*
X54773496Y-122663579D01*
X12100000Y-123250000D02*
X13226504Y-123836421D01*
X12100000Y-123250000D02*
X13226504Y-122663579D01*
D13*
X16203571Y-128814285D02*
X16632142Y-128814285D01*
X16417857Y-129564285D02*
X16417857Y-128814285D01*
X16882142Y-129171428D02*
X17132142Y-129171428D01*
X17239285Y-129564285D02*
X16882142Y-129564285D01*
X16882142Y-128814285D01*
X17239285Y-128814285D01*
X17560714Y-129564285D02*
X17560714Y-128814285D01*
X17810714Y-129350000D01*
X18060714Y-128814285D01*
X18060714Y-129564285D01*
X18417857Y-129564285D02*
X18417857Y-128814285D01*
X18703571Y-128814285D01*
X18775000Y-128850000D01*
X18810714Y-128885714D01*
X18846428Y-128957142D01*
X18846428Y-129064285D01*
X18810714Y-129135714D01*
X18775000Y-129171428D01*
X18703571Y-129207142D01*
X18417857Y-129207142D01*
X18989285Y-129635714D02*
X19560714Y-129635714D01*
X20096428Y-129564285D02*
X19739285Y-129564285D01*
X19739285Y-128814285D01*
X20239285Y-128814285D02*
X20489285Y-129564285D01*
X20739285Y-128814285D01*
X21346428Y-129564285D02*
X20989285Y-129564285D01*
X20989285Y-128814285D01*
X17546428Y-146267857D02*
X17510714Y-146303571D01*
X17403571Y-146339285D01*
X17332142Y-146339285D01*
X17225000Y-146303571D01*
X17153571Y-146232142D01*
X17117857Y-146160714D01*
X17082142Y-146017857D01*
X17082142Y-145910714D01*
X17117857Y-145767857D01*
X17153571Y-145696428D01*
X17225000Y-145625000D01*
X17332142Y-145589285D01*
X17403571Y-145589285D01*
X17510714Y-145625000D01*
X17546428Y-145660714D01*
X17867857Y-146339285D02*
X17867857Y-145589285D01*
X17867857Y-145946428D02*
X18296428Y-145946428D01*
X18296428Y-146339285D02*
X18296428Y-145589285D01*
X18617857Y-146125000D02*
X18975000Y-146125000D01*
X18546428Y-146339285D02*
X18796428Y-145589285D01*
X19046428Y-146339285D01*
X19725000Y-146339285D02*
X19475000Y-145982142D01*
X19296428Y-146339285D02*
X19296428Y-145589285D01*
X19582142Y-145589285D01*
X19653571Y-145625000D01*
X19689285Y-145660714D01*
X19725000Y-145732142D01*
X19725000Y-145839285D01*
X19689285Y-145910714D01*
X19653571Y-145946428D01*
X19582142Y-145982142D01*
X19296428Y-145982142D01*
X20439285Y-145625000D02*
X20367857Y-145589285D01*
X20260714Y-145589285D01*
X20153571Y-145625000D01*
X20082142Y-145696428D01*
X20046428Y-145767857D01*
X20010714Y-145910714D01*
X20010714Y-146017857D01*
X20046428Y-146160714D01*
X20082142Y-146232142D01*
X20153571Y-146303571D01*
X20260714Y-146339285D01*
X20332142Y-146339285D01*
X20439285Y-146303571D01*
X20475000Y-146267857D01*
X20475000Y-146017857D01*
X20332142Y-146017857D01*
X20796428Y-146339285D02*
X20796428Y-145589285D01*
X21153571Y-146339285D02*
X21153571Y-145589285D01*
X21582142Y-146339285D01*
X21582142Y-145589285D01*
X22332142Y-145625000D02*
X22260714Y-145589285D01*
X22153571Y-145589285D01*
X22046428Y-145625000D01*
X21975000Y-145696428D01*
X21939285Y-145767857D01*
X21903571Y-145910714D01*
X21903571Y-146017857D01*
X21939285Y-146160714D01*
X21975000Y-146232142D01*
X22046428Y-146303571D01*
X22153571Y-146339285D01*
X22225000Y-146339285D01*
X22332142Y-146303571D01*
X22367857Y-146267857D01*
X22367857Y-146017857D01*
X22225000Y-146017857D01*
X17321428Y-141114285D02*
X17321428Y-140364285D01*
X17607142Y-140364285D01*
X17678571Y-140400000D01*
X17714285Y-140435714D01*
X17750000Y-140507142D01*
X17750000Y-140614285D01*
X17714285Y-140685714D01*
X17678571Y-140721428D01*
X17607142Y-140757142D01*
X17321428Y-140757142D01*
X18000000Y-140364285D02*
X18178571Y-141114285D01*
X18321428Y-140578571D01*
X18464285Y-141114285D01*
X18642857Y-140364285D01*
X19357142Y-141114285D02*
X19107142Y-140757142D01*
X18928571Y-141114285D02*
X18928571Y-140364285D01*
X19214285Y-140364285D01*
X19285714Y-140400000D01*
X19321428Y-140435714D01*
X19357142Y-140507142D01*
X19357142Y-140614285D01*
X19321428Y-140685714D01*
X19285714Y-140721428D01*
X19214285Y-140757142D01*
X18928571Y-140757142D01*
X19500000Y-141185714D02*
X20071428Y-141185714D01*
X20392857Y-140364285D02*
X20535714Y-140364285D01*
X20607142Y-140400000D01*
X20678571Y-140471428D01*
X20714285Y-140614285D01*
X20714285Y-140864285D01*
X20678571Y-141007142D01*
X20607142Y-141078571D01*
X20535714Y-141114285D01*
X20392857Y-141114285D01*
X20321428Y-141078571D01*
X20250000Y-141007142D01*
X20214285Y-140864285D01*
X20214285Y-140614285D01*
X20250000Y-140471428D01*
X20321428Y-140400000D01*
X20392857Y-140364285D01*
X21035714Y-141114285D02*
X21035714Y-140364285D01*
X21464285Y-141114285D02*
X21142857Y-140685714D01*
X21464285Y-140364285D02*
X21035714Y-140792857D01*
D12*
%TO.C,R12*%
X52653641Y-141695000D02*
X52346359Y-141695000D01*
X52653641Y-142455000D02*
X52346359Y-142455000D01*
%TO.C,C1*%
X45665000Y-133837164D02*
X45665000Y-134052836D01*
X46385000Y-133837164D02*
X46385000Y-134052836D01*
%TO.C,C2*%
X46765000Y-133847164D02*
X46765000Y-134062836D01*
X47485000Y-133847164D02*
X47485000Y-134062836D01*
%TO.C,C3*%
X48610000Y-133837164D02*
X48610000Y-134052836D01*
X47890000Y-133837164D02*
X47890000Y-134052836D01*
%TO.C,C4*%
X32465000Y-142515580D02*
X32465000Y-142234420D01*
X33485000Y-142515580D02*
X33485000Y-142234420D01*
%TO.C,C5*%
X43485000Y-137772164D02*
X43485000Y-137987836D01*
X42765000Y-137772164D02*
X42765000Y-137987836D01*
%TO.C,C6*%
X24215580Y-136810000D02*
X23934420Y-136810000D01*
X24215580Y-135790000D02*
X23934420Y-135790000D01*
%TO.C,C7*%
X24165000Y-140510000D02*
X28375000Y-140510000D01*
X24165000Y-137490000D02*
X24165000Y-140510000D01*
X28375000Y-137490000D02*
X24165000Y-137490000D01*
%TO.C,C8*%
X48610000Y-138540580D02*
X48610000Y-138259420D01*
X47590000Y-138540580D02*
X47590000Y-138259420D01*
%TO.C,C9*%
X27215580Y-147190000D02*
X26934420Y-147190000D01*
X27215580Y-148210000D02*
X26934420Y-148210000D01*
%TO.C,C10*%
X40010000Y-135537164D02*
X40010000Y-135752836D01*
X39290000Y-135537164D02*
X39290000Y-135752836D01*
%TO.C,C11*%
X34734420Y-146865000D02*
X35015580Y-146865000D01*
X34734420Y-147885000D02*
X35015580Y-147885000D01*
%TO.C,C12*%
X37565000Y-135622164D02*
X37565000Y-135837836D01*
X38285000Y-135622164D02*
X38285000Y-135837836D01*
%TO.C,C13*%
X36565000Y-133462836D02*
X36565000Y-133247164D01*
X37285000Y-133462836D02*
X37285000Y-133247164D01*
%TO.C,C14*%
X38660000Y-133437836D02*
X38660000Y-133222164D01*
X37940000Y-133437836D02*
X37940000Y-133222164D01*
%TO.C,C15*%
X39240000Y-133462836D02*
X39240000Y-133247164D01*
X39960000Y-133462836D02*
X39960000Y-133247164D01*
%TO.C,C16*%
X36210000Y-139687500D02*
X36210000Y-135477500D01*
X36210000Y-135477500D02*
X33190000Y-135477500D01*
X33190000Y-135477500D02*
X33190000Y-139687500D01*
%TO.C,C17*%
X41200000Y-137140000D02*
X36990000Y-137140000D01*
X36990000Y-137140000D02*
X36990000Y-140160000D01*
X36990000Y-140160000D02*
X41200000Y-140160000D01*
%TO.C,C18*%
X43157836Y-144635000D02*
X42942164Y-144635000D01*
X43157836Y-143915000D02*
X42942164Y-143915000D01*
%TO.C,C19*%
X51610000Y-145282836D02*
X51610000Y-145067164D01*
X50890000Y-145282836D02*
X50890000Y-145067164D01*
%TO.C,C20*%
X43137836Y-144990000D02*
X42922164Y-144990000D01*
X43137836Y-145710000D02*
X42922164Y-145710000D01*
%TO.C,C21*%
X40557836Y-145960000D02*
X40342164Y-145960000D01*
X40557836Y-145240000D02*
X40342164Y-145240000D01*
%TO.C,C22*%
X39285000Y-148727836D02*
X39285000Y-148512164D01*
X38565000Y-148727836D02*
X38565000Y-148512164D01*
%TO.C,D1*%
X22075000Y-144525000D02*
X23775000Y-144525000D01*
X23775000Y-144525000D02*
X23775000Y-141975000D01*
X22075000Y-144525000D02*
X22075000Y-141975000D01*
%TO.C,D2*%
X18675000Y-142835000D02*
X20960000Y-142835000D01*
X20960000Y-142835000D02*
X20960000Y-141365000D01*
X20960000Y-141365000D02*
X18675000Y-141365000D01*
%TO.C,D3*%
X21110000Y-143990000D02*
X18825000Y-143990000D01*
X21110000Y-145460000D02*
X21110000Y-143990000D01*
X18825000Y-145460000D02*
X21110000Y-145460000D01*
%TO.C,J1*%
X16462500Y-133150000D02*
X16462500Y-133600000D01*
X14612500Y-133150000D02*
X16462500Y-133150000D01*
X12062500Y-140950000D02*
X12312500Y-140950000D01*
X12062500Y-133150000D02*
X12312500Y-133150000D01*
X14612500Y-140950000D02*
X16462500Y-140950000D01*
X16462500Y-140950000D02*
X16462500Y-140500000D01*
X17012500Y-135350000D02*
X17012500Y-135800000D01*
X17012500Y-135350000D02*
X16562500Y-135350000D01*
%TO.C,J2*%
X23640000Y-125265000D02*
X23640000Y-131235000D01*
X23640000Y-131235000D02*
X36260000Y-131235000D01*
X36260000Y-131235000D02*
X36260000Y-125265000D01*
X36260000Y-125265000D02*
X23640000Y-125265000D01*
X26950000Y-125275000D02*
X26950000Y-126025000D01*
X26950000Y-126025000D02*
X32950000Y-126025000D01*
X32950000Y-126025000D02*
X32950000Y-125275000D01*
X32950000Y-125275000D02*
X26950000Y-125275000D01*
X23650000Y-125275000D02*
X23650000Y-126025000D01*
X23650000Y-126025000D02*
X25450000Y-126025000D01*
X25450000Y-126025000D02*
X25450000Y-125275000D01*
X25450000Y-125275000D02*
X23650000Y-125275000D01*
X34450000Y-125275000D02*
X34450000Y-126025000D01*
X34450000Y-126025000D02*
X36250000Y-126025000D01*
X36250000Y-126025000D02*
X36250000Y-125275000D01*
X36250000Y-125275000D02*
X34450000Y-125275000D01*
X23650000Y-127525000D02*
X24400000Y-127525000D01*
X24400000Y-127525000D02*
X24400000Y-130475000D01*
X24400000Y-130475000D02*
X29950000Y-130475000D01*
X36250000Y-127525000D02*
X35500000Y-127525000D01*
X35500000Y-127525000D02*
X35500000Y-130475000D01*
X35500000Y-130475000D02*
X29950000Y-130475000D01*
X24600000Y-124975000D02*
X23350000Y-124975000D01*
X23350000Y-124975000D02*
X23350000Y-126225000D01*
%TO.C,Q1*%
X26660000Y-144455000D02*
X26660000Y-143525000D01*
X26660000Y-141295000D02*
X26660000Y-142225000D01*
X26660000Y-141295000D02*
X24500000Y-141295000D01*
X26660000Y-144455000D02*
X25200000Y-144455000D01*
%TO.C,Q2*%
X30280000Y-132715000D02*
X30280000Y-134175000D01*
X27120000Y-132715000D02*
X27120000Y-134875000D01*
X27120000Y-132715000D02*
X28050000Y-132715000D01*
X30280000Y-132715000D02*
X29350000Y-132715000D01*
%TO.C,R1*%
X31422500Y-142612258D02*
X31422500Y-142137742D01*
X30377500Y-142612258D02*
X30377500Y-142137742D01*
%TO.C,R2*%
X34612742Y-146022500D02*
X35087258Y-146022500D01*
X34612742Y-144977500D02*
X35087258Y-144977500D01*
%TO.C,R3*%
X28427500Y-142612258D02*
X28427500Y-142137742D01*
X29472500Y-142612258D02*
X29472500Y-142137742D01*
%TO.C,R5*%
X27312258Y-145452500D02*
X26837742Y-145452500D01*
X27312258Y-146497500D02*
X26837742Y-146497500D01*
%TO.C,R6*%
X45877500Y-138637258D02*
X45877500Y-138162742D01*
X46922500Y-138637258D02*
X46922500Y-138162742D01*
%TO.C,R7*%
X44027500Y-138187742D02*
X44027500Y-138662258D01*
X45072500Y-138187742D02*
X45072500Y-138662258D01*
%TO.C,R10*%
X26680000Y-134111359D02*
X26680000Y-134418641D01*
X25920000Y-134111359D02*
X25920000Y-134418641D01*
%TO.C,R11*%
X31555000Y-132646359D02*
X31555000Y-132953641D01*
X30795000Y-132646359D02*
X30795000Y-132953641D01*
%TO.C,R13*%
X19570000Y-130911359D02*
X19570000Y-131218641D01*
X20330000Y-130911359D02*
X20330000Y-131218641D01*
%TO.C,R14*%
X21505000Y-130856359D02*
X21505000Y-131163641D01*
X20745000Y-130856359D02*
X20745000Y-131163641D01*
%TO.C,R15*%
X21970000Y-130871359D02*
X21970000Y-131178641D01*
X22730000Y-130871359D02*
X22730000Y-131178641D01*
%TO.C,P_OUT*%
X21275000Y-137475000D02*
G75*
G03*
X21275000Y-137475000I-700000J0D01*
G01*
%TO.C,GND*%
X21350000Y-134850000D02*
G75*
G03*
X21350000Y-134850000I-700000J0D01*
G01*
X39075000Y-144775000D02*
G75*
G03*
X39075000Y-144775000I-700000J0D01*
G01*
%TO.C,5V*%
X35025000Y-133500000D02*
G75*
G03*
X35025000Y-133500000I-700000J0D01*
G01*
%TO.C,RX*%
X38175000Y-142175000D02*
G75*
G03*
X38175000Y-142175000I-700000J0D01*
G01*
%TO.C,TX*%
X41400000Y-142325000D02*
G75*
G03*
X41400000Y-142325000I-700000J0D01*
G01*
%TO.C,U1*%
X32085000Y-144765000D02*
X32560000Y-144765000D01*
X32560000Y-144765000D02*
X32560000Y-145240000D01*
X29815000Y-147985000D02*
X29340000Y-147985000D01*
X29340000Y-147985000D02*
X29340000Y-147510000D01*
X32085000Y-147985000D02*
X32560000Y-147985000D01*
X32560000Y-147985000D02*
X32560000Y-147510000D01*
X29815000Y-144765000D02*
X29340000Y-144765000D01*
D14*
%TO.C,U2*%
X43470000Y-135950000D02*
X44275000Y-135950000D01*
X43470000Y-132950000D02*
X44275000Y-132950000D01*
X41275000Y-135950000D02*
X42080000Y-135950000D01*
X41275000Y-132950000D02*
X42080000Y-132950000D01*
D15*
X40480000Y-133250000D02*
G75*
G03*
X40480000Y-133250000I-100000J0D01*
G01*
D12*
%TO.C,U3*%
X49510000Y-141915000D02*
X49985000Y-141915000D01*
X49985000Y-141915000D02*
X49985000Y-142390000D01*
X45240000Y-147135000D02*
X44765000Y-147135000D01*
X44765000Y-147135000D02*
X44765000Y-146660000D01*
X49510000Y-147135000D02*
X49985000Y-147135000D01*
X49985000Y-147135000D02*
X49985000Y-146660000D01*
X45240000Y-141915000D02*
X44765000Y-141915000D01*
%TO.C,U4*%
X19015000Y-129815000D02*
X16905000Y-129815000D01*
X16905000Y-129815000D02*
X16905000Y-132095000D01*
X16905000Y-132095000D02*
X19015000Y-132095000D01*
X19015000Y-132095000D02*
X19015000Y-129815000D01*
%TO.C,Y1*%
X43450000Y-149450000D02*
X43450000Y-146250000D01*
X43450000Y-146250000D02*
X39550000Y-146250000D01*
%TO.C,L1*%
X45700000Y-131775000D02*
X39425000Y-131775000D01*
%TO.C,R8*%
X17030000Y-142578641D02*
X17030000Y-142271359D01*
X16270000Y-142578641D02*
X16270000Y-142271359D01*
%TO.C,R9*%
X17055000Y-144831359D02*
X17055000Y-145138641D01*
X16295000Y-144831359D02*
X16295000Y-145138641D01*
%TO.C,R4*%
X22943641Y-141005000D02*
X22636359Y-141005000D01*
X22943641Y-140245000D02*
X22636359Y-140245000D01*
%TO.C,J3*%
X50295000Y-140435000D02*
X55495000Y-140435000D01*
X50295000Y-135295000D02*
X50295000Y-140435000D01*
X55495000Y-132695000D02*
X55495000Y-140435000D01*
X50295000Y-135295000D02*
X52895000Y-135295000D01*
X52895000Y-135295000D02*
X52895000Y-132695000D01*
X52895000Y-132695000D02*
X55495000Y-132695000D01*
X50295000Y-134025000D02*
X50295000Y-132695000D01*
X50295000Y-132695000D02*
X51625000Y-132695000D01*
%TO.C,SW1*%
X16075000Y-131425000D02*
X15825000Y-131425000D01*
X12525000Y-131425000D02*
X12775000Y-131425000D01*
X16075000Y-127125000D02*
X15875000Y-127125000D01*
X12525000Y-127125000D02*
X12775000Y-127125000D01*
X16075000Y-131425000D02*
X16075000Y-127125000D01*
X12525000Y-131425000D02*
X12525000Y-127125000D01*
X15425000Y-129300000D02*
G75*
G03*
X15425000Y-129300000I-1075000J0D01*
G01*
%TO.C,SW2*%
X15350000Y-145250000D02*
G75*
G03*
X15350000Y-145250000I-1075000J0D01*
G01*
X12450000Y-147375000D02*
X12450000Y-143075000D01*
X16000000Y-147375000D02*
X16000000Y-143075000D01*
X12450000Y-143075000D02*
X12700000Y-143075000D01*
X16000000Y-143075000D02*
X15800000Y-143075000D01*
X12450000Y-147375000D02*
X12700000Y-147375000D01*
X16000000Y-147375000D02*
X15750000Y-147375000D01*
%TO.C,C23*%
X52185000Y-129642164D02*
X52185000Y-129857836D01*
X51465000Y-129642164D02*
X51465000Y-129857836D01*
%TO.C,C24*%
X48737164Y-130635000D02*
X48952836Y-130635000D01*
X48737164Y-129915000D02*
X48952836Y-129915000D01*
%TO.C,R16*%
X53331359Y-130505000D02*
X53638641Y-130505000D01*
X53331359Y-129745000D02*
X53638641Y-129745000D01*
%TO.C,R17*%
X53638641Y-131680000D02*
X53331359Y-131680000D01*
X53638641Y-130920000D02*
X53331359Y-130920000D01*
%TO.C,U5*%
X50335000Y-129480000D02*
X50335000Y-128550000D01*
X50335000Y-126320000D02*
X50335000Y-127250000D01*
X50335000Y-126320000D02*
X48175000Y-126320000D01*
X50335000Y-129480000D02*
X48875000Y-129480000D01*
%TO.C,H2*%
D11*
X19688095Y-126402380D02*
X19688095Y-125402380D01*
X19688095Y-125878571D02*
X20259523Y-125878571D01*
X20259523Y-126402380D02*
X20259523Y-125402380D01*
X20688095Y-125497619D02*
X20735714Y-125450000D01*
X20830952Y-125402380D01*
X21069047Y-125402380D01*
X21164285Y-125450000D01*
X21211904Y-125497619D01*
X21259523Y-125592857D01*
X21259523Y-125688095D01*
X21211904Y-125830952D01*
X20640476Y-126402380D01*
X21259523Y-126402380D01*
%TO.C,R12*%
D10*
X52378571Y-143151190D02*
X52211904Y-142913095D01*
X52092857Y-143151190D02*
X52092857Y-142651190D01*
X52283333Y-142651190D01*
X52330952Y-142675000D01*
X52354761Y-142698809D01*
X52378571Y-142746428D01*
X52378571Y-142817857D01*
X52354761Y-142865476D01*
X52330952Y-142889285D01*
X52283333Y-142913095D01*
X52092857Y-142913095D01*
X52854761Y-143151190D02*
X52569047Y-143151190D01*
X52711904Y-143151190D02*
X52711904Y-142651190D01*
X52664285Y-142722619D01*
X52616666Y-142770238D01*
X52569047Y-142794047D01*
X53045238Y-142698809D02*
X53069047Y-142675000D01*
X53116666Y-142651190D01*
X53235714Y-142651190D01*
X53283333Y-142675000D01*
X53307142Y-142698809D01*
X53330952Y-142746428D01*
X53330952Y-142794047D01*
X53307142Y-142865476D01*
X53021428Y-143151190D01*
X53330952Y-143151190D01*
%TO.C,C1*%
D11*
X46267857Y-135600000D02*
X46303571Y-135635714D01*
X46339285Y-135742857D01*
X46339285Y-135814285D01*
X46303571Y-135921428D01*
X46232142Y-135992857D01*
X46160714Y-136028571D01*
X46017857Y-136064285D01*
X45910714Y-136064285D01*
X45767857Y-136028571D01*
X45696428Y-135992857D01*
X45625000Y-135921428D01*
X45589285Y-135814285D01*
X45589285Y-135742857D01*
X45625000Y-135635714D01*
X45660714Y-135600000D01*
X46339285Y-134885714D02*
X46339285Y-135314285D01*
X46339285Y-135100000D02*
X45589285Y-135100000D01*
X45696428Y-135171428D01*
X45767857Y-135242857D01*
X45803571Y-135314285D01*
%TO.C,C2*%
X47567857Y-132450000D02*
X47603571Y-132485714D01*
X47639285Y-132592857D01*
X47639285Y-132664285D01*
X47603571Y-132771428D01*
X47532142Y-132842857D01*
X47460714Y-132878571D01*
X47317857Y-132914285D01*
X47210714Y-132914285D01*
X47067857Y-132878571D01*
X46996428Y-132842857D01*
X46925000Y-132771428D01*
X46889285Y-132664285D01*
X46889285Y-132592857D01*
X46925000Y-132485714D01*
X46960714Y-132450000D01*
X46960714Y-132164285D02*
X46925000Y-132128571D01*
X46889285Y-132057142D01*
X46889285Y-131878571D01*
X46925000Y-131807142D01*
X46960714Y-131771428D01*
X47032142Y-131735714D01*
X47103571Y-131735714D01*
X47210714Y-131771428D01*
X47639285Y-132200000D01*
X47639285Y-131735714D01*
%TO.C,C3*%
X48592857Y-135700000D02*
X48628571Y-135735714D01*
X48664285Y-135842857D01*
X48664285Y-135914285D01*
X48628571Y-136021428D01*
X48557142Y-136092857D01*
X48485714Y-136128571D01*
X48342857Y-136164285D01*
X48235714Y-136164285D01*
X48092857Y-136128571D01*
X48021428Y-136092857D01*
X47950000Y-136021428D01*
X47914285Y-135914285D01*
X47914285Y-135842857D01*
X47950000Y-135735714D01*
X47985714Y-135700000D01*
X47914285Y-135450000D02*
X47914285Y-134985714D01*
X48200000Y-135235714D01*
X48200000Y-135128571D01*
X48235714Y-135057142D01*
X48271428Y-135021428D01*
X48342857Y-134985714D01*
X48521428Y-134985714D01*
X48592857Y-135021428D01*
X48628571Y-135057142D01*
X48664285Y-135128571D01*
X48664285Y-135342857D01*
X48628571Y-135414285D01*
X48592857Y-135450000D01*
%TO.C,C4*%
X34567857Y-142500000D02*
X34603571Y-142535714D01*
X34639285Y-142642857D01*
X34639285Y-142714285D01*
X34603571Y-142821428D01*
X34532142Y-142892857D01*
X34460714Y-142928571D01*
X34317857Y-142964285D01*
X34210714Y-142964285D01*
X34067857Y-142928571D01*
X33996428Y-142892857D01*
X33925000Y-142821428D01*
X33889285Y-142714285D01*
X33889285Y-142642857D01*
X33925000Y-142535714D01*
X33960714Y-142500000D01*
X34139285Y-141857142D02*
X34639285Y-141857142D01*
X33853571Y-142035714D02*
X34389285Y-142214285D01*
X34389285Y-141750000D01*
%TO.C,C5*%
X43417857Y-139700000D02*
X43453571Y-139735714D01*
X43489285Y-139842857D01*
X43489285Y-139914285D01*
X43453571Y-140021428D01*
X43382142Y-140092857D01*
X43310714Y-140128571D01*
X43167857Y-140164285D01*
X43060714Y-140164285D01*
X42917857Y-140128571D01*
X42846428Y-140092857D01*
X42775000Y-140021428D01*
X42739285Y-139914285D01*
X42739285Y-139842857D01*
X42775000Y-139735714D01*
X42810714Y-139700000D01*
X42739285Y-139021428D02*
X42739285Y-139378571D01*
X43096428Y-139414285D01*
X43060714Y-139378571D01*
X43025000Y-139307142D01*
X43025000Y-139128571D01*
X43060714Y-139057142D01*
X43096428Y-139021428D01*
X43167857Y-138985714D01*
X43346428Y-138985714D01*
X43417857Y-139021428D01*
X43453571Y-139057142D01*
X43489285Y-139128571D01*
X43489285Y-139307142D01*
X43453571Y-139378571D01*
X43417857Y-139414285D01*
%TO.C,C6*%
X26150000Y-136442857D02*
X26114285Y-136478571D01*
X26007142Y-136514285D01*
X25935714Y-136514285D01*
X25828571Y-136478571D01*
X25757142Y-136407142D01*
X25721428Y-136335714D01*
X25685714Y-136192857D01*
X25685714Y-136085714D01*
X25721428Y-135942857D01*
X25757142Y-135871428D01*
X25828571Y-135800000D01*
X25935714Y-135764285D01*
X26007142Y-135764285D01*
X26114285Y-135800000D01*
X26150000Y-135835714D01*
X26792857Y-135764285D02*
X26650000Y-135764285D01*
X26578571Y-135800000D01*
X26542857Y-135835714D01*
X26471428Y-135942857D01*
X26435714Y-136085714D01*
X26435714Y-136371428D01*
X26471428Y-136442857D01*
X26507142Y-136478571D01*
X26578571Y-136514285D01*
X26721428Y-136514285D01*
X26792857Y-136478571D01*
X26828571Y-136442857D01*
X26864285Y-136371428D01*
X26864285Y-136192857D01*
X26828571Y-136121428D01*
X26792857Y-136085714D01*
X26721428Y-136050000D01*
X26578571Y-136050000D01*
X26507142Y-136085714D01*
X26471428Y-136121428D01*
X26435714Y-136192857D01*
%TO.C,C7*%
X23250000Y-138367857D02*
X23214285Y-138403571D01*
X23107142Y-138439285D01*
X23035714Y-138439285D01*
X22928571Y-138403571D01*
X22857142Y-138332142D01*
X22821428Y-138260714D01*
X22785714Y-138117857D01*
X22785714Y-138010714D01*
X22821428Y-137867857D01*
X22857142Y-137796428D01*
X22928571Y-137725000D01*
X23035714Y-137689285D01*
X23107142Y-137689285D01*
X23214285Y-137725000D01*
X23250000Y-137760714D01*
X23500000Y-137689285D02*
X24000000Y-137689285D01*
X23678571Y-138439285D01*
%TO.C,C8*%
X48217857Y-140700000D02*
X48253571Y-140735714D01*
X48289285Y-140842857D01*
X48289285Y-140914285D01*
X48253571Y-141021428D01*
X48182142Y-141092857D01*
X48110714Y-141128571D01*
X47967857Y-141164285D01*
X47860714Y-141164285D01*
X47717857Y-141128571D01*
X47646428Y-141092857D01*
X47575000Y-141021428D01*
X47539285Y-140914285D01*
X47539285Y-140842857D01*
X47575000Y-140735714D01*
X47610714Y-140700000D01*
X47860714Y-140271428D02*
X47825000Y-140342857D01*
X47789285Y-140378571D01*
X47717857Y-140414285D01*
X47682142Y-140414285D01*
X47610714Y-140378571D01*
X47575000Y-140342857D01*
X47539285Y-140271428D01*
X47539285Y-140128571D01*
X47575000Y-140057142D01*
X47610714Y-140021428D01*
X47682142Y-139985714D01*
X47717857Y-139985714D01*
X47789285Y-140021428D01*
X47825000Y-140057142D01*
X47860714Y-140128571D01*
X47860714Y-140271428D01*
X47896428Y-140342857D01*
X47932142Y-140378571D01*
X48003571Y-140414285D01*
X48146428Y-140414285D01*
X48217857Y-140378571D01*
X48253571Y-140342857D01*
X48289285Y-140271428D01*
X48289285Y-140128571D01*
X48253571Y-140057142D01*
X48217857Y-140021428D01*
X48146428Y-139985714D01*
X48003571Y-139985714D01*
X47932142Y-140021428D01*
X47896428Y-140057142D01*
X47860714Y-140128571D01*
%TO.C,C9*%
X24800000Y-147992857D02*
X24764285Y-148028571D01*
X24657142Y-148064285D01*
X24585714Y-148064285D01*
X24478571Y-148028571D01*
X24407142Y-147957142D01*
X24371428Y-147885714D01*
X24335714Y-147742857D01*
X24335714Y-147635714D01*
X24371428Y-147492857D01*
X24407142Y-147421428D01*
X24478571Y-147350000D01*
X24585714Y-147314285D01*
X24657142Y-147314285D01*
X24764285Y-147350000D01*
X24800000Y-147385714D01*
X25157142Y-148064285D02*
X25300000Y-148064285D01*
X25371428Y-148028571D01*
X25407142Y-147992857D01*
X25478571Y-147885714D01*
X25514285Y-147742857D01*
X25514285Y-147457142D01*
X25478571Y-147385714D01*
X25442857Y-147350000D01*
X25371428Y-147314285D01*
X25228571Y-147314285D01*
X25157142Y-147350000D01*
X25121428Y-147385714D01*
X25085714Y-147457142D01*
X25085714Y-147635714D01*
X25121428Y-147707142D01*
X25157142Y-147742857D01*
X25228571Y-147778571D01*
X25371428Y-147778571D01*
X25442857Y-147742857D01*
X25478571Y-147707142D01*
X25514285Y-147635714D01*
%TO.C,C10*%
D10*
X39003571Y-136096428D02*
X39027380Y-136120238D01*
X39051190Y-136191666D01*
X39051190Y-136239285D01*
X39027380Y-136310714D01*
X38979761Y-136358333D01*
X38932142Y-136382142D01*
X38836904Y-136405952D01*
X38765476Y-136405952D01*
X38670238Y-136382142D01*
X38622619Y-136358333D01*
X38575000Y-136310714D01*
X38551190Y-136239285D01*
X38551190Y-136191666D01*
X38575000Y-136120238D01*
X38598809Y-136096428D01*
X39051190Y-135620238D02*
X39051190Y-135905952D01*
X39051190Y-135763095D02*
X38551190Y-135763095D01*
X38622619Y-135810714D01*
X38670238Y-135858333D01*
X38694047Y-135905952D01*
X38551190Y-135310714D02*
X38551190Y-135263095D01*
X38575000Y-135215476D01*
X38598809Y-135191666D01*
X38646428Y-135167857D01*
X38741666Y-135144047D01*
X38860714Y-135144047D01*
X38955952Y-135167857D01*
X39003571Y-135191666D01*
X39027380Y-135215476D01*
X39051190Y-135263095D01*
X39051190Y-135310714D01*
X39027380Y-135358333D01*
X39003571Y-135382142D01*
X38955952Y-135405952D01*
X38860714Y-135429761D01*
X38741666Y-135429761D01*
X38646428Y-135405952D01*
X38598809Y-135382142D01*
X38575000Y-135358333D01*
X38551190Y-135310714D01*
%TO.C,C11*%
D11*
X34267857Y-148917857D02*
X34232142Y-148953571D01*
X34125000Y-148989285D01*
X34053571Y-148989285D01*
X33946428Y-148953571D01*
X33875000Y-148882142D01*
X33839285Y-148810714D01*
X33803571Y-148667857D01*
X33803571Y-148560714D01*
X33839285Y-148417857D01*
X33875000Y-148346428D01*
X33946428Y-148275000D01*
X34053571Y-148239285D01*
X34125000Y-148239285D01*
X34232142Y-148275000D01*
X34267857Y-148310714D01*
X34982142Y-148989285D02*
X34553571Y-148989285D01*
X34767857Y-148989285D02*
X34767857Y-148239285D01*
X34696428Y-148346428D01*
X34625000Y-148417857D01*
X34553571Y-148453571D01*
X35696428Y-148989285D02*
X35267857Y-148989285D01*
X35482142Y-148989285D02*
X35482142Y-148239285D01*
X35410714Y-148346428D01*
X35339285Y-148417857D01*
X35267857Y-148453571D01*
%TO.C,C12*%
D10*
X37303571Y-136146428D02*
X37327380Y-136170238D01*
X37351190Y-136241666D01*
X37351190Y-136289285D01*
X37327380Y-136360714D01*
X37279761Y-136408333D01*
X37232142Y-136432142D01*
X37136904Y-136455952D01*
X37065476Y-136455952D01*
X36970238Y-136432142D01*
X36922619Y-136408333D01*
X36875000Y-136360714D01*
X36851190Y-136289285D01*
X36851190Y-136241666D01*
X36875000Y-136170238D01*
X36898809Y-136146428D01*
X37351190Y-135670238D02*
X37351190Y-135955952D01*
X37351190Y-135813095D02*
X36851190Y-135813095D01*
X36922619Y-135860714D01*
X36970238Y-135908333D01*
X36994047Y-135955952D01*
X36898809Y-135479761D02*
X36875000Y-135455952D01*
X36851190Y-135408333D01*
X36851190Y-135289285D01*
X36875000Y-135241666D01*
X36898809Y-135217857D01*
X36946428Y-135194047D01*
X36994047Y-135194047D01*
X37065476Y-135217857D01*
X37351190Y-135503571D01*
X37351190Y-135194047D01*
%TO.C,C13*%
D11*
X36242857Y-133832142D02*
X36278571Y-133867857D01*
X36314285Y-133975000D01*
X36314285Y-134046428D01*
X36278571Y-134153571D01*
X36207142Y-134225000D01*
X36135714Y-134260714D01*
X35992857Y-134296428D01*
X35885714Y-134296428D01*
X35742857Y-134260714D01*
X35671428Y-134225000D01*
X35600000Y-134153571D01*
X35564285Y-134046428D01*
X35564285Y-133975000D01*
X35600000Y-133867857D01*
X35635714Y-133832142D01*
X36314285Y-133117857D02*
X36314285Y-133546428D01*
X36314285Y-133332142D02*
X35564285Y-133332142D01*
X35671428Y-133403571D01*
X35742857Y-133475000D01*
X35778571Y-133546428D01*
X35564285Y-132867857D02*
X35564285Y-132403571D01*
X35850000Y-132653571D01*
X35850000Y-132546428D01*
X35885714Y-132475000D01*
X35921428Y-132439285D01*
X35992857Y-132403571D01*
X36171428Y-132403571D01*
X36242857Y-132439285D01*
X36278571Y-132475000D01*
X36314285Y-132546428D01*
X36314285Y-132760714D01*
X36278571Y-132832142D01*
X36242857Y-132867857D01*
%TO.C,C14*%
D10*
X37928571Y-134678571D02*
X37904761Y-134702380D01*
X37833333Y-134726190D01*
X37785714Y-134726190D01*
X37714285Y-134702380D01*
X37666666Y-134654761D01*
X37642857Y-134607142D01*
X37619047Y-134511904D01*
X37619047Y-134440476D01*
X37642857Y-134345238D01*
X37666666Y-134297619D01*
X37714285Y-134250000D01*
X37785714Y-134226190D01*
X37833333Y-134226190D01*
X37904761Y-134250000D01*
X37928571Y-134273809D01*
X38404761Y-134726190D02*
X38119047Y-134726190D01*
X38261904Y-134726190D02*
X38261904Y-134226190D01*
X38214285Y-134297619D01*
X38166666Y-134345238D01*
X38119047Y-134369047D01*
X38833333Y-134392857D02*
X38833333Y-134726190D01*
X38714285Y-134202380D02*
X38595238Y-134559523D01*
X38904761Y-134559523D01*
%TO.C,C15*%
X39453571Y-134628571D02*
X39429761Y-134652380D01*
X39358333Y-134676190D01*
X39310714Y-134676190D01*
X39239285Y-134652380D01*
X39191666Y-134604761D01*
X39167857Y-134557142D01*
X39144047Y-134461904D01*
X39144047Y-134390476D01*
X39167857Y-134295238D01*
X39191666Y-134247619D01*
X39239285Y-134200000D01*
X39310714Y-134176190D01*
X39358333Y-134176190D01*
X39429761Y-134200000D01*
X39453571Y-134223809D01*
X39929761Y-134676190D02*
X39644047Y-134676190D01*
X39786904Y-134676190D02*
X39786904Y-134176190D01*
X39739285Y-134247619D01*
X39691666Y-134295238D01*
X39644047Y-134319047D01*
X40382142Y-134176190D02*
X40144047Y-134176190D01*
X40120238Y-134414285D01*
X40144047Y-134390476D01*
X40191666Y-134366666D01*
X40310714Y-134366666D01*
X40358333Y-134390476D01*
X40382142Y-134414285D01*
X40405952Y-134461904D01*
X40405952Y-134580952D01*
X40382142Y-134628571D01*
X40358333Y-134652380D01*
X40310714Y-134676190D01*
X40191666Y-134676190D01*
X40144047Y-134652380D01*
X40120238Y-134628571D01*
%TO.C,C16*%
D11*
X34217857Y-135242857D02*
X34182142Y-135278571D01*
X34075000Y-135314285D01*
X34003571Y-135314285D01*
X33896428Y-135278571D01*
X33825000Y-135207142D01*
X33789285Y-135135714D01*
X33753571Y-134992857D01*
X33753571Y-134885714D01*
X33789285Y-134742857D01*
X33825000Y-134671428D01*
X33896428Y-134600000D01*
X34003571Y-134564285D01*
X34075000Y-134564285D01*
X34182142Y-134600000D01*
X34217857Y-134635714D01*
X34932142Y-135314285D02*
X34503571Y-135314285D01*
X34717857Y-135314285D02*
X34717857Y-134564285D01*
X34646428Y-134671428D01*
X34575000Y-134742857D01*
X34503571Y-134778571D01*
X35575000Y-134564285D02*
X35432142Y-134564285D01*
X35360714Y-134600000D01*
X35325000Y-134635714D01*
X35253571Y-134742857D01*
X35217857Y-134885714D01*
X35217857Y-135171428D01*
X35253571Y-135242857D01*
X35289285Y-135278571D01*
X35360714Y-135314285D01*
X35503571Y-135314285D01*
X35575000Y-135278571D01*
X35610714Y-135242857D01*
X35646428Y-135171428D01*
X35646428Y-134992857D01*
X35610714Y-134921428D01*
X35575000Y-134885714D01*
X35503571Y-134850000D01*
X35360714Y-134850000D01*
X35289285Y-134885714D01*
X35253571Y-134921428D01*
X35217857Y-134992857D01*
%TO.C,C17*%
D10*
X38803571Y-140828571D02*
X38779761Y-140852380D01*
X38708333Y-140876190D01*
X38660714Y-140876190D01*
X38589285Y-140852380D01*
X38541666Y-140804761D01*
X38517857Y-140757142D01*
X38494047Y-140661904D01*
X38494047Y-140590476D01*
X38517857Y-140495238D01*
X38541666Y-140447619D01*
X38589285Y-140400000D01*
X38660714Y-140376190D01*
X38708333Y-140376190D01*
X38779761Y-140400000D01*
X38803571Y-140423809D01*
X39279761Y-140876190D02*
X38994047Y-140876190D01*
X39136904Y-140876190D02*
X39136904Y-140376190D01*
X39089285Y-140447619D01*
X39041666Y-140495238D01*
X38994047Y-140519047D01*
X39446428Y-140376190D02*
X39779761Y-140376190D01*
X39565476Y-140876190D01*
%TO.C,C18*%
X42728571Y-143603571D02*
X42704761Y-143627380D01*
X42633333Y-143651190D01*
X42585714Y-143651190D01*
X42514285Y-143627380D01*
X42466666Y-143579761D01*
X42442857Y-143532142D01*
X42419047Y-143436904D01*
X42419047Y-143365476D01*
X42442857Y-143270238D01*
X42466666Y-143222619D01*
X42514285Y-143175000D01*
X42585714Y-143151190D01*
X42633333Y-143151190D01*
X42704761Y-143175000D01*
X42728571Y-143198809D01*
X43204761Y-143651190D02*
X42919047Y-143651190D01*
X43061904Y-143651190D02*
X43061904Y-143151190D01*
X43014285Y-143222619D01*
X42966666Y-143270238D01*
X42919047Y-143294047D01*
X43490476Y-143365476D02*
X43442857Y-143341666D01*
X43419047Y-143317857D01*
X43395238Y-143270238D01*
X43395238Y-143246428D01*
X43419047Y-143198809D01*
X43442857Y-143175000D01*
X43490476Y-143151190D01*
X43585714Y-143151190D01*
X43633333Y-143175000D01*
X43657142Y-143198809D01*
X43680952Y-143246428D01*
X43680952Y-143270238D01*
X43657142Y-143317857D01*
X43633333Y-143341666D01*
X43585714Y-143365476D01*
X43490476Y-143365476D01*
X43442857Y-143389285D01*
X43419047Y-143413095D01*
X43395238Y-143460714D01*
X43395238Y-143555952D01*
X43419047Y-143603571D01*
X43442857Y-143627380D01*
X43490476Y-143651190D01*
X43585714Y-143651190D01*
X43633333Y-143627380D01*
X43657142Y-143603571D01*
X43680952Y-143555952D01*
X43680952Y-143460714D01*
X43657142Y-143413095D01*
X43633333Y-143389285D01*
X43585714Y-143365476D01*
%TO.C,C19*%
X52303571Y-145671428D02*
X52327380Y-145695238D01*
X52351190Y-145766666D01*
X52351190Y-145814285D01*
X52327380Y-145885714D01*
X52279761Y-145933333D01*
X52232142Y-145957142D01*
X52136904Y-145980952D01*
X52065476Y-145980952D01*
X51970238Y-145957142D01*
X51922619Y-145933333D01*
X51875000Y-145885714D01*
X51851190Y-145814285D01*
X51851190Y-145766666D01*
X51875000Y-145695238D01*
X51898809Y-145671428D01*
X52351190Y-145195238D02*
X52351190Y-145480952D01*
X52351190Y-145338095D02*
X51851190Y-145338095D01*
X51922619Y-145385714D01*
X51970238Y-145433333D01*
X51994047Y-145480952D01*
X52351190Y-144957142D02*
X52351190Y-144861904D01*
X52327380Y-144814285D01*
X52303571Y-144790476D01*
X52232142Y-144742857D01*
X52136904Y-144719047D01*
X51946428Y-144719047D01*
X51898809Y-144742857D01*
X51875000Y-144766666D01*
X51851190Y-144814285D01*
X51851190Y-144909523D01*
X51875000Y-144957142D01*
X51898809Y-144980952D01*
X51946428Y-145004761D01*
X52065476Y-145004761D01*
X52113095Y-144980952D01*
X52136904Y-144957142D01*
X52160714Y-144909523D01*
X52160714Y-144814285D01*
X52136904Y-144766666D01*
X52113095Y-144742857D01*
X52065476Y-144719047D01*
%TO.C,C20*%
X42728571Y-146353571D02*
X42704761Y-146377380D01*
X42633333Y-146401190D01*
X42585714Y-146401190D01*
X42514285Y-146377380D01*
X42466666Y-146329761D01*
X42442857Y-146282142D01*
X42419047Y-146186904D01*
X42419047Y-146115476D01*
X42442857Y-146020238D01*
X42466666Y-145972619D01*
X42514285Y-145925000D01*
X42585714Y-145901190D01*
X42633333Y-145901190D01*
X42704761Y-145925000D01*
X42728571Y-145948809D01*
X42919047Y-145948809D02*
X42942857Y-145925000D01*
X42990476Y-145901190D01*
X43109523Y-145901190D01*
X43157142Y-145925000D01*
X43180952Y-145948809D01*
X43204761Y-145996428D01*
X43204761Y-146044047D01*
X43180952Y-146115476D01*
X42895238Y-146401190D01*
X43204761Y-146401190D01*
X43514285Y-145901190D02*
X43561904Y-145901190D01*
X43609523Y-145925000D01*
X43633333Y-145948809D01*
X43657142Y-145996428D01*
X43680952Y-146091666D01*
X43680952Y-146210714D01*
X43657142Y-146305952D01*
X43633333Y-146353571D01*
X43609523Y-146377380D01*
X43561904Y-146401190D01*
X43514285Y-146401190D01*
X43466666Y-146377380D01*
X43442857Y-146353571D01*
X43419047Y-146305952D01*
X43395238Y-146210714D01*
X43395238Y-146091666D01*
X43419047Y-145996428D01*
X43442857Y-145948809D01*
X43466666Y-145925000D01*
X43514285Y-145901190D01*
%TO.C,C21*%
X40053571Y-145003571D02*
X40029761Y-145027380D01*
X39958333Y-145051190D01*
X39910714Y-145051190D01*
X39839285Y-145027380D01*
X39791666Y-144979761D01*
X39767857Y-144932142D01*
X39744047Y-144836904D01*
X39744047Y-144765476D01*
X39767857Y-144670238D01*
X39791666Y-144622619D01*
X39839285Y-144575000D01*
X39910714Y-144551190D01*
X39958333Y-144551190D01*
X40029761Y-144575000D01*
X40053571Y-144598809D01*
X40244047Y-144598809D02*
X40267857Y-144575000D01*
X40315476Y-144551190D01*
X40434523Y-144551190D01*
X40482142Y-144575000D01*
X40505952Y-144598809D01*
X40529761Y-144646428D01*
X40529761Y-144694047D01*
X40505952Y-144765476D01*
X40220238Y-145051190D01*
X40529761Y-145051190D01*
X41005952Y-145051190D02*
X40720238Y-145051190D01*
X40863095Y-145051190D02*
X40863095Y-144551190D01*
X40815476Y-144622619D01*
X40767857Y-144670238D01*
X40720238Y-144694047D01*
%TO.C,C22*%
X38278571Y-148961428D02*
X38302380Y-148985238D01*
X38326190Y-149056666D01*
X38326190Y-149104285D01*
X38302380Y-149175714D01*
X38254761Y-149223333D01*
X38207142Y-149247142D01*
X38111904Y-149270952D01*
X38040476Y-149270952D01*
X37945238Y-149247142D01*
X37897619Y-149223333D01*
X37850000Y-149175714D01*
X37826190Y-149104285D01*
X37826190Y-149056666D01*
X37850000Y-148985238D01*
X37873809Y-148961428D01*
X37873809Y-148770952D02*
X37850000Y-148747142D01*
X37826190Y-148699523D01*
X37826190Y-148580476D01*
X37850000Y-148532857D01*
X37873809Y-148509047D01*
X37921428Y-148485238D01*
X37969047Y-148485238D01*
X38040476Y-148509047D01*
X38326190Y-148794761D01*
X38326190Y-148485238D01*
X37873809Y-148294761D02*
X37850000Y-148270952D01*
X37826190Y-148223333D01*
X37826190Y-148104285D01*
X37850000Y-148056666D01*
X37873809Y-148032857D01*
X37921428Y-148009047D01*
X37969047Y-148009047D01*
X38040476Y-148032857D01*
X38326190Y-148318571D01*
X38326190Y-148009047D01*
%TO.C,D1*%
D11*
X22746428Y-145464285D02*
X22746428Y-144714285D01*
X22925000Y-144714285D01*
X23032142Y-144750000D01*
X23103571Y-144821428D01*
X23139285Y-144892857D01*
X23175000Y-145035714D01*
X23175000Y-145142857D01*
X23139285Y-145285714D01*
X23103571Y-145357142D01*
X23032142Y-145428571D01*
X22925000Y-145464285D01*
X22746428Y-145464285D01*
X23889285Y-145464285D02*
X23460714Y-145464285D01*
X23675000Y-145464285D02*
X23675000Y-144714285D01*
X23603571Y-144821428D01*
X23532142Y-144892857D01*
X23460714Y-144928571D01*
%TO.C,D2*%
D10*
X19371428Y-143714285D02*
X19371428Y-142964285D01*
X19550000Y-142964285D01*
X19657142Y-143000000D01*
X19728571Y-143071428D01*
X19764285Y-143142857D01*
X19800000Y-143285714D01*
X19800000Y-143392857D01*
X19764285Y-143535714D01*
X19728571Y-143607142D01*
X19657142Y-143678571D01*
X19550000Y-143714285D01*
X19371428Y-143714285D01*
X20085714Y-143035714D02*
X20121428Y-143000000D01*
X20192857Y-142964285D01*
X20371428Y-142964285D01*
X20442857Y-143000000D01*
X20478571Y-143035714D01*
X20514285Y-143107142D01*
X20514285Y-143178571D01*
X20478571Y-143285714D01*
X20050000Y-143714285D01*
X20514285Y-143714285D01*
%TO.C,D3*%
D11*
X18039285Y-145103571D02*
X17289285Y-145103571D01*
X17289285Y-144925000D01*
X17325000Y-144817857D01*
X17396428Y-144746428D01*
X17467857Y-144710714D01*
X17610714Y-144675000D01*
X17717857Y-144675000D01*
X17860714Y-144710714D01*
X17932142Y-144746428D01*
X18003571Y-144817857D01*
X18039285Y-144925000D01*
X18039285Y-145103571D01*
X17289285Y-144425000D02*
X17289285Y-143960714D01*
X17575000Y-144210714D01*
X17575000Y-144103571D01*
X17610714Y-144032142D01*
X17646428Y-143996428D01*
X17717857Y-143960714D01*
X17896428Y-143960714D01*
X17967857Y-143996428D01*
X18003571Y-144032142D01*
X18039285Y-144103571D01*
X18039285Y-144317857D01*
X18003571Y-144389285D01*
X17967857Y-144425000D01*
%TO.C,H1*%
X19363095Y-149752380D02*
X19363095Y-148752380D01*
X19363095Y-149228571D02*
X19934523Y-149228571D01*
X19934523Y-149752380D02*
X19934523Y-148752380D01*
X20934523Y-149752380D02*
X20363095Y-149752380D01*
X20648809Y-149752380D02*
X20648809Y-148752380D01*
X20553571Y-148895238D01*
X20458333Y-148990476D01*
X20363095Y-149038095D01*
%TO.C,H3*%
D10*
X51144047Y-125776190D02*
X51144047Y-125276190D01*
X51144047Y-125514285D02*
X51429761Y-125514285D01*
X51429761Y-125776190D02*
X51429761Y-125276190D01*
X51620238Y-125276190D02*
X51929761Y-125276190D01*
X51763095Y-125466666D01*
X51834523Y-125466666D01*
X51882142Y-125490476D01*
X51905952Y-125514285D01*
X51929761Y-125561904D01*
X51929761Y-125680952D01*
X51905952Y-125728571D01*
X51882142Y-125752380D01*
X51834523Y-125776190D01*
X51691666Y-125776190D01*
X51644047Y-125752380D01*
X51620238Y-125728571D01*
%TO.C,H4*%
D11*
X53613095Y-145602380D02*
X53613095Y-144602380D01*
X53613095Y-145078571D02*
X54184523Y-145078571D01*
X54184523Y-145602380D02*
X54184523Y-144602380D01*
X55089285Y-144935714D02*
X55089285Y-145602380D01*
X54851190Y-144554761D02*
X54613095Y-145269047D01*
X55232142Y-145269047D01*
%TO.C,J1*%
X17264880Y-137383333D02*
X17979166Y-137383333D01*
X18122023Y-137430952D01*
X18217261Y-137526190D01*
X18264880Y-137669047D01*
X18264880Y-137764285D01*
X18264880Y-136383333D02*
X18264880Y-136954761D01*
X18264880Y-136669047D02*
X17264880Y-136669047D01*
X17407738Y-136764285D01*
X17502976Y-136859523D01*
X17550595Y-136954761D01*
%TO.C,J2*%
X23766666Y-131452380D02*
X23766666Y-132166666D01*
X23719047Y-132309523D01*
X23623809Y-132404761D01*
X23480952Y-132452380D01*
X23385714Y-132452380D01*
X24195238Y-131547619D02*
X24242857Y-131500000D01*
X24338095Y-131452380D01*
X24576190Y-131452380D01*
X24671428Y-131500000D01*
X24719047Y-131547619D01*
X24766666Y-131642857D01*
X24766666Y-131738095D01*
X24719047Y-131880952D01*
X24147619Y-132452380D01*
X24766666Y-132452380D01*
%TO.C,Q1*%
X27403571Y-141910714D02*
X27332142Y-141875000D01*
X27260714Y-141803571D01*
X27153571Y-141696428D01*
X27082142Y-141660714D01*
X27010714Y-141660714D01*
X27046428Y-141839285D02*
X26975000Y-141803571D01*
X26903571Y-141732142D01*
X26867857Y-141589285D01*
X26867857Y-141339285D01*
X26903571Y-141196428D01*
X26975000Y-141125000D01*
X27046428Y-141089285D01*
X27189285Y-141089285D01*
X27260714Y-141125000D01*
X27332142Y-141196428D01*
X27367857Y-141339285D01*
X27367857Y-141589285D01*
X27332142Y-141732142D01*
X27260714Y-141803571D01*
X27189285Y-141839285D01*
X27046428Y-141839285D01*
X28082142Y-141839285D02*
X27653571Y-141839285D01*
X27867857Y-141839285D02*
X27867857Y-141089285D01*
X27796428Y-141196428D01*
X27725000Y-141267857D01*
X27653571Y-141303571D01*
%TO.C,Q2*%
X31279761Y-135322619D02*
X31184523Y-135275000D01*
X31089285Y-135179761D01*
X30946428Y-135036904D01*
X30851190Y-134989285D01*
X30755952Y-134989285D01*
X30803571Y-135227380D02*
X30708333Y-135179761D01*
X30613095Y-135084523D01*
X30565476Y-134894047D01*
X30565476Y-134560714D01*
X30613095Y-134370238D01*
X30708333Y-134275000D01*
X30803571Y-134227380D01*
X30994047Y-134227380D01*
X31089285Y-134275000D01*
X31184523Y-134370238D01*
X31232142Y-134560714D01*
X31232142Y-134894047D01*
X31184523Y-135084523D01*
X31089285Y-135179761D01*
X30994047Y-135227380D01*
X30803571Y-135227380D01*
X31613095Y-134322619D02*
X31660714Y-134275000D01*
X31755952Y-134227380D01*
X31994047Y-134227380D01*
X32089285Y-134275000D01*
X32136904Y-134322619D01*
X32184523Y-134417857D01*
X32184523Y-134513095D01*
X32136904Y-134655952D01*
X31565476Y-135227380D01*
X32184523Y-135227380D01*
%TO.C,R1*%
X31527380Y-140241666D02*
X31051190Y-140575000D01*
X31527380Y-140813095D02*
X30527380Y-140813095D01*
X30527380Y-140432142D01*
X30575000Y-140336904D01*
X30622619Y-140289285D01*
X30717857Y-140241666D01*
X30860714Y-140241666D01*
X30955952Y-140289285D01*
X31003571Y-140336904D01*
X31051190Y-140432142D01*
X31051190Y-140813095D01*
X31527380Y-139289285D02*
X31527380Y-139860714D01*
X31527380Y-139575000D02*
X30527380Y-139575000D01*
X30670238Y-139670238D01*
X30765476Y-139765476D01*
X30813095Y-139860714D01*
%TO.C,R2*%
X34625000Y-144664285D02*
X34375000Y-144307142D01*
X34196428Y-144664285D02*
X34196428Y-143914285D01*
X34482142Y-143914285D01*
X34553571Y-143950000D01*
X34589285Y-143985714D01*
X34625000Y-144057142D01*
X34625000Y-144164285D01*
X34589285Y-144235714D01*
X34553571Y-144271428D01*
X34482142Y-144307142D01*
X34196428Y-144307142D01*
X34910714Y-143985714D02*
X34946428Y-143950000D01*
X35017857Y-143914285D01*
X35196428Y-143914285D01*
X35267857Y-143950000D01*
X35303571Y-143985714D01*
X35339285Y-144057142D01*
X35339285Y-144128571D01*
X35303571Y-144235714D01*
X34875000Y-144664285D01*
X35339285Y-144664285D01*
%TO.C,R3*%
X29689285Y-140350000D02*
X29332142Y-140600000D01*
X29689285Y-140778571D02*
X28939285Y-140778571D01*
X28939285Y-140492857D01*
X28975000Y-140421428D01*
X29010714Y-140385714D01*
X29082142Y-140350000D01*
X29189285Y-140350000D01*
X29260714Y-140385714D01*
X29296428Y-140421428D01*
X29332142Y-140492857D01*
X29332142Y-140778571D01*
X28939285Y-140100000D02*
X28939285Y-139635714D01*
X29225000Y-139885714D01*
X29225000Y-139778571D01*
X29260714Y-139707142D01*
X29296428Y-139671428D01*
X29367857Y-139635714D01*
X29546428Y-139635714D01*
X29617857Y-139671428D01*
X29653571Y-139707142D01*
X29689285Y-139778571D01*
X29689285Y-139992857D01*
X29653571Y-140064285D01*
X29617857Y-140100000D01*
%TO.C,R5*%
X24725000Y-146389285D02*
X24475000Y-146032142D01*
X24296428Y-146389285D02*
X24296428Y-145639285D01*
X24582142Y-145639285D01*
X24653571Y-145675000D01*
X24689285Y-145710714D01*
X24725000Y-145782142D01*
X24725000Y-145889285D01*
X24689285Y-145960714D01*
X24653571Y-145996428D01*
X24582142Y-146032142D01*
X24296428Y-146032142D01*
X25403571Y-145639285D02*
X25046428Y-145639285D01*
X25010714Y-145996428D01*
X25046428Y-145960714D01*
X25117857Y-145925000D01*
X25296428Y-145925000D01*
X25367857Y-145960714D01*
X25403571Y-145996428D01*
X25439285Y-146067857D01*
X25439285Y-146246428D01*
X25403571Y-146317857D01*
X25367857Y-146353571D01*
X25296428Y-146389285D01*
X25117857Y-146389285D01*
X25046428Y-146353571D01*
X25010714Y-146317857D01*
%TO.C,R6*%
X46764285Y-140700000D02*
X46407142Y-140950000D01*
X46764285Y-141128571D02*
X46014285Y-141128571D01*
X46014285Y-140842857D01*
X46050000Y-140771428D01*
X46085714Y-140735714D01*
X46157142Y-140700000D01*
X46264285Y-140700000D01*
X46335714Y-140735714D01*
X46371428Y-140771428D01*
X46407142Y-140842857D01*
X46407142Y-141128571D01*
X46014285Y-140057142D02*
X46014285Y-140200000D01*
X46050000Y-140271428D01*
X46085714Y-140307142D01*
X46192857Y-140378571D01*
X46335714Y-140414285D01*
X46621428Y-140414285D01*
X46692857Y-140378571D01*
X46728571Y-140342857D01*
X46764285Y-140271428D01*
X46764285Y-140128571D01*
X46728571Y-140057142D01*
X46692857Y-140021428D01*
X46621428Y-139985714D01*
X46442857Y-139985714D01*
X46371428Y-140021428D01*
X46335714Y-140057142D01*
X46300000Y-140128571D01*
X46300000Y-140271428D01*
X46335714Y-140342857D01*
X46371428Y-140378571D01*
X46442857Y-140414285D01*
%TO.C,R7*%
X45089285Y-140700000D02*
X44732142Y-140950000D01*
X45089285Y-141128571D02*
X44339285Y-141128571D01*
X44339285Y-140842857D01*
X44375000Y-140771428D01*
X44410714Y-140735714D01*
X44482142Y-140700000D01*
X44589285Y-140700000D01*
X44660714Y-140735714D01*
X44696428Y-140771428D01*
X44732142Y-140842857D01*
X44732142Y-141128571D01*
X44339285Y-140450000D02*
X44339285Y-139950000D01*
X45089285Y-140271428D01*
%TO.C,R10*%
X26714285Y-132757142D02*
X26357142Y-133007142D01*
X26714285Y-133185714D02*
X25964285Y-133185714D01*
X25964285Y-132900000D01*
X26000000Y-132828571D01*
X26035714Y-132792857D01*
X26107142Y-132757142D01*
X26214285Y-132757142D01*
X26285714Y-132792857D01*
X26321428Y-132828571D01*
X26357142Y-132900000D01*
X26357142Y-133185714D01*
X26714285Y-132042857D02*
X26714285Y-132471428D01*
X26714285Y-132257142D02*
X25964285Y-132257142D01*
X26071428Y-132328571D01*
X26142857Y-132400000D01*
X26178571Y-132471428D01*
X25964285Y-131578571D02*
X25964285Y-131507142D01*
X26000000Y-131435714D01*
X26035714Y-131400000D01*
X26107142Y-131364285D01*
X26250000Y-131328571D01*
X26428571Y-131328571D01*
X26571428Y-131364285D01*
X26642857Y-131400000D01*
X26678571Y-131435714D01*
X26714285Y-131507142D01*
X26714285Y-131578571D01*
X26678571Y-131650000D01*
X26642857Y-131685714D01*
X26571428Y-131721428D01*
X26428571Y-131757142D01*
X26250000Y-131757142D01*
X26107142Y-131721428D01*
X26035714Y-131685714D01*
X26000000Y-131650000D01*
X25964285Y-131578571D01*
%TO.C,R11*%
X32464285Y-133232142D02*
X32107142Y-133482142D01*
X32464285Y-133660714D02*
X31714285Y-133660714D01*
X31714285Y-133375000D01*
X31750000Y-133303571D01*
X31785714Y-133267857D01*
X31857142Y-133232142D01*
X31964285Y-133232142D01*
X32035714Y-133267857D01*
X32071428Y-133303571D01*
X32107142Y-133375000D01*
X32107142Y-133660714D01*
X32464285Y-132517857D02*
X32464285Y-132946428D01*
X32464285Y-132732142D02*
X31714285Y-132732142D01*
X31821428Y-132803571D01*
X31892857Y-132875000D01*
X31928571Y-132946428D01*
X32464285Y-131803571D02*
X32464285Y-132232142D01*
X32464285Y-132017857D02*
X31714285Y-132017857D01*
X31821428Y-132089285D01*
X31892857Y-132160714D01*
X31928571Y-132232142D01*
%TO.C,R13*%
X20339285Y-133462142D02*
X19982142Y-133712142D01*
X20339285Y-133890714D02*
X19589285Y-133890714D01*
X19589285Y-133605000D01*
X19625000Y-133533571D01*
X19660714Y-133497857D01*
X19732142Y-133462142D01*
X19839285Y-133462142D01*
X19910714Y-133497857D01*
X19946428Y-133533571D01*
X19982142Y-133605000D01*
X19982142Y-133890714D01*
X20339285Y-132747857D02*
X20339285Y-133176428D01*
X20339285Y-132962142D02*
X19589285Y-132962142D01*
X19696428Y-133033571D01*
X19767857Y-133105000D01*
X19803571Y-133176428D01*
X19589285Y-132497857D02*
X19589285Y-132033571D01*
X19875000Y-132283571D01*
X19875000Y-132176428D01*
X19910714Y-132105000D01*
X19946428Y-132069285D01*
X20017857Y-132033571D01*
X20196428Y-132033571D01*
X20267857Y-132069285D01*
X20303571Y-132105000D01*
X20339285Y-132176428D01*
X20339285Y-132390714D01*
X20303571Y-132462142D01*
X20267857Y-132497857D01*
%TO.C,R14*%
X21514285Y-133407142D02*
X21157142Y-133657142D01*
X21514285Y-133835714D02*
X20764285Y-133835714D01*
X20764285Y-133550000D01*
X20800000Y-133478571D01*
X20835714Y-133442857D01*
X20907142Y-133407142D01*
X21014285Y-133407142D01*
X21085714Y-133442857D01*
X21121428Y-133478571D01*
X21157142Y-133550000D01*
X21157142Y-133835714D01*
X21514285Y-132692857D02*
X21514285Y-133121428D01*
X21514285Y-132907142D02*
X20764285Y-132907142D01*
X20871428Y-132978571D01*
X20942857Y-133050000D01*
X20978571Y-133121428D01*
X21014285Y-132050000D02*
X21514285Y-132050000D01*
X20728571Y-132228571D02*
X21264285Y-132407142D01*
X21264285Y-131942857D01*
%TO.C,R15*%
X22739285Y-133497142D02*
X22382142Y-133747142D01*
X22739285Y-133925714D02*
X21989285Y-133925714D01*
X21989285Y-133640000D01*
X22025000Y-133568571D01*
X22060714Y-133532857D01*
X22132142Y-133497142D01*
X22239285Y-133497142D01*
X22310714Y-133532857D01*
X22346428Y-133568571D01*
X22382142Y-133640000D01*
X22382142Y-133925714D01*
X22739285Y-132782857D02*
X22739285Y-133211428D01*
X22739285Y-132997142D02*
X21989285Y-132997142D01*
X22096428Y-133068571D01*
X22167857Y-133140000D01*
X22203571Y-133211428D01*
X21989285Y-132104285D02*
X21989285Y-132461428D01*
X22346428Y-132497142D01*
X22310714Y-132461428D01*
X22275000Y-132390000D01*
X22275000Y-132211428D01*
X22310714Y-132140000D01*
X22346428Y-132104285D01*
X22417857Y-132068571D01*
X22596428Y-132068571D01*
X22667857Y-132104285D01*
X22703571Y-132140000D01*
X22739285Y-132211428D01*
X22739285Y-132390000D01*
X22703571Y-132461428D01*
X22667857Y-132497142D01*
%TO.C,P_OUT*%
X19021428Y-139139285D02*
X19021428Y-138389285D01*
X19307142Y-138389285D01*
X19378571Y-138425000D01*
X19414285Y-138460714D01*
X19450000Y-138532142D01*
X19450000Y-138639285D01*
X19414285Y-138710714D01*
X19378571Y-138746428D01*
X19307142Y-138782142D01*
X19021428Y-138782142D01*
X19592857Y-139210714D02*
X20164285Y-139210714D01*
X20485714Y-138389285D02*
X20628571Y-138389285D01*
X20700000Y-138425000D01*
X20771428Y-138496428D01*
X20807142Y-138639285D01*
X20807142Y-138889285D01*
X20771428Y-139032142D01*
X20700000Y-139103571D01*
X20628571Y-139139285D01*
X20485714Y-139139285D01*
X20414285Y-139103571D01*
X20342857Y-139032142D01*
X20307142Y-138889285D01*
X20307142Y-138639285D01*
X20342857Y-138496428D01*
X20414285Y-138425000D01*
X20485714Y-138389285D01*
X21128571Y-138389285D02*
X21128571Y-138996428D01*
X21164285Y-139067857D01*
X21200000Y-139103571D01*
X21271428Y-139139285D01*
X21414285Y-139139285D01*
X21485714Y-139103571D01*
X21521428Y-139067857D01*
X21557142Y-138996428D01*
X21557142Y-138389285D01*
X21807142Y-138389285D02*
X22235714Y-138389285D01*
X22021428Y-139139285D02*
X22021428Y-138389285D01*
%TO.C,GND*%
X21978571Y-134525000D02*
X21907142Y-134489285D01*
X21800000Y-134489285D01*
X21692857Y-134525000D01*
X21621428Y-134596428D01*
X21585714Y-134667857D01*
X21550000Y-134810714D01*
X21550000Y-134917857D01*
X21585714Y-135060714D01*
X21621428Y-135132142D01*
X21692857Y-135203571D01*
X21800000Y-135239285D01*
X21871428Y-135239285D01*
X21978571Y-135203571D01*
X22014285Y-135167857D01*
X22014285Y-134917857D01*
X21871428Y-134917857D01*
X22335714Y-135239285D02*
X22335714Y-134489285D01*
X22764285Y-135239285D01*
X22764285Y-134489285D01*
X23121428Y-135239285D02*
X23121428Y-134489285D01*
X23300000Y-134489285D01*
X23407142Y-134525000D01*
X23478571Y-134596428D01*
X23514285Y-134667857D01*
X23550000Y-134810714D01*
X23550000Y-134917857D01*
X23514285Y-135060714D01*
X23478571Y-135132142D01*
X23407142Y-135203571D01*
X23300000Y-135239285D01*
X23121428Y-135239285D01*
D10*
X37694047Y-145625000D02*
X37646428Y-145601190D01*
X37575000Y-145601190D01*
X37503571Y-145625000D01*
X37455952Y-145672619D01*
X37432142Y-145720238D01*
X37408333Y-145815476D01*
X37408333Y-145886904D01*
X37432142Y-145982142D01*
X37455952Y-146029761D01*
X37503571Y-146077380D01*
X37575000Y-146101190D01*
X37622619Y-146101190D01*
X37694047Y-146077380D01*
X37717857Y-146053571D01*
X37717857Y-145886904D01*
X37622619Y-145886904D01*
X37932142Y-146101190D02*
X37932142Y-145601190D01*
X38217857Y-146101190D01*
X38217857Y-145601190D01*
X38455952Y-146101190D02*
X38455952Y-145601190D01*
X38575000Y-145601190D01*
X38646428Y-145625000D01*
X38694047Y-145672619D01*
X38717857Y-145720238D01*
X38741666Y-145815476D01*
X38741666Y-145886904D01*
X38717857Y-145982142D01*
X38694047Y-146029761D01*
X38646428Y-146077380D01*
X38575000Y-146101190D01*
X38455952Y-146101190D01*
%TO.C,5V*%
X34204761Y-132076190D02*
X33966666Y-132076190D01*
X33942857Y-132314285D01*
X33966666Y-132290476D01*
X34014285Y-132266666D01*
X34133333Y-132266666D01*
X34180952Y-132290476D01*
X34204761Y-132314285D01*
X34228571Y-132361904D01*
X34228571Y-132480952D01*
X34204761Y-132528571D01*
X34180952Y-132552380D01*
X34133333Y-132576190D01*
X34014285Y-132576190D01*
X33966666Y-132552380D01*
X33942857Y-132528571D01*
X34371428Y-132076190D02*
X34538095Y-132576190D01*
X34704761Y-132076190D01*
%TO.C,RX*%
X37366666Y-143551190D02*
X37200000Y-143313095D01*
X37080952Y-143551190D02*
X37080952Y-143051190D01*
X37271428Y-143051190D01*
X37319047Y-143075000D01*
X37342857Y-143098809D01*
X37366666Y-143146428D01*
X37366666Y-143217857D01*
X37342857Y-143265476D01*
X37319047Y-143289285D01*
X37271428Y-143313095D01*
X37080952Y-143313095D01*
X37533333Y-143051190D02*
X37866666Y-143551190D01*
X37866666Y-143051190D02*
X37533333Y-143551190D01*
%TO.C,TX*%
X40269047Y-143151190D02*
X40554761Y-143151190D01*
X40411904Y-143651190D02*
X40411904Y-143151190D01*
X40673809Y-143151190D02*
X41007142Y-143651190D01*
X41007142Y-143151190D02*
X40673809Y-143651190D01*
%TO.C,U1*%
X28169047Y-144301190D02*
X28169047Y-144705952D01*
X28192857Y-144753571D01*
X28216666Y-144777380D01*
X28264285Y-144801190D01*
X28359523Y-144801190D01*
X28407142Y-144777380D01*
X28430952Y-144753571D01*
X28454761Y-144705952D01*
X28454761Y-144301190D01*
X28954761Y-144801190D02*
X28669047Y-144801190D01*
X28811904Y-144801190D02*
X28811904Y-144301190D01*
X28764285Y-144372619D01*
X28716666Y-144420238D01*
X28669047Y-144444047D01*
%TO.C,U2*%
D11*
X40662380Y-136174523D02*
X40662380Y-136692619D01*
X40692857Y-136753571D01*
X40723333Y-136784047D01*
X40784285Y-136814523D01*
X40906190Y-136814523D01*
X40967142Y-136784047D01*
X40997619Y-136753571D01*
X41028095Y-136692619D01*
X41028095Y-136174523D01*
X41302380Y-136235476D02*
X41332857Y-136205000D01*
X41393809Y-136174523D01*
X41546190Y-136174523D01*
X41607142Y-136205000D01*
X41637619Y-136235476D01*
X41668095Y-136296428D01*
X41668095Y-136357380D01*
X41637619Y-136448809D01*
X41271904Y-136814523D01*
X41668095Y-136814523D01*
%TO.C,U3*%
X43053571Y-141689285D02*
X43053571Y-142296428D01*
X43089285Y-142367857D01*
X43125000Y-142403571D01*
X43196428Y-142439285D01*
X43339285Y-142439285D01*
X43410714Y-142403571D01*
X43446428Y-142367857D01*
X43482142Y-142296428D01*
X43482142Y-141689285D01*
X43767857Y-141689285D02*
X44232142Y-141689285D01*
X43982142Y-141975000D01*
X44089285Y-141975000D01*
X44160714Y-142010714D01*
X44196428Y-142046428D01*
X44232142Y-142117857D01*
X44232142Y-142296428D01*
X44196428Y-142367857D01*
X44160714Y-142403571D01*
X44089285Y-142439285D01*
X43875000Y-142439285D01*
X43803571Y-142403571D01*
X43767857Y-142367857D01*
%TO.C,U4*%
X17388095Y-132277380D02*
X17388095Y-133086904D01*
X17435714Y-133182142D01*
X17483333Y-133229761D01*
X17578571Y-133277380D01*
X17769047Y-133277380D01*
X17864285Y-133229761D01*
X17911904Y-133182142D01*
X17959523Y-133086904D01*
X17959523Y-132277380D01*
X18864285Y-132610714D02*
X18864285Y-133277380D01*
X18626190Y-132229761D02*
X18388095Y-132944047D01*
X19007142Y-132944047D01*
%TO.C,Y1*%
X43892857Y-149332142D02*
X43892857Y-149689285D01*
X43642857Y-148939285D02*
X43892857Y-149332142D01*
X44142857Y-148939285D01*
X44785714Y-149689285D02*
X44357142Y-149689285D01*
X44571428Y-149689285D02*
X44571428Y-148939285D01*
X44500000Y-149046428D01*
X44428571Y-149117857D01*
X44357142Y-149153571D01*
%TO.C,L1*%
X47658333Y-128702380D02*
X47182142Y-128702380D01*
X47182142Y-127702380D01*
X48515476Y-128702380D02*
X47944047Y-128702380D01*
X48229761Y-128702380D02*
X48229761Y-127702380D01*
X48134523Y-127845238D01*
X48039285Y-127940476D01*
X47944047Y-127988095D01*
%TO.C,R8*%
D10*
X15591666Y-142151190D02*
X15425000Y-141913095D01*
X15305952Y-142151190D02*
X15305952Y-141651190D01*
X15496428Y-141651190D01*
X15544047Y-141675000D01*
X15567857Y-141698809D01*
X15591666Y-141746428D01*
X15591666Y-141817857D01*
X15567857Y-141865476D01*
X15544047Y-141889285D01*
X15496428Y-141913095D01*
X15305952Y-141913095D01*
X15877380Y-141865476D02*
X15829761Y-141841666D01*
X15805952Y-141817857D01*
X15782142Y-141770238D01*
X15782142Y-141746428D01*
X15805952Y-141698809D01*
X15829761Y-141675000D01*
X15877380Y-141651190D01*
X15972619Y-141651190D01*
X16020238Y-141675000D01*
X16044047Y-141698809D01*
X16067857Y-141746428D01*
X16067857Y-141770238D01*
X16044047Y-141817857D01*
X16020238Y-141841666D01*
X15972619Y-141865476D01*
X15877380Y-141865476D01*
X15829761Y-141889285D01*
X15805952Y-141913095D01*
X15782142Y-141960714D01*
X15782142Y-142055952D01*
X15805952Y-142103571D01*
X15829761Y-142127380D01*
X15877380Y-142151190D01*
X15972619Y-142151190D01*
X16020238Y-142127380D01*
X16044047Y-142103571D01*
X16067857Y-142055952D01*
X16067857Y-141960714D01*
X16044047Y-141913095D01*
X16020238Y-141889285D01*
X15972619Y-141865476D01*
%TO.C,R9*%
X16591666Y-144036190D02*
X16425000Y-143798095D01*
X16305952Y-144036190D02*
X16305952Y-143536190D01*
X16496428Y-143536190D01*
X16544047Y-143560000D01*
X16567857Y-143583809D01*
X16591666Y-143631428D01*
X16591666Y-143702857D01*
X16567857Y-143750476D01*
X16544047Y-143774285D01*
X16496428Y-143798095D01*
X16305952Y-143798095D01*
X16829761Y-144036190D02*
X16925000Y-144036190D01*
X16972619Y-144012380D01*
X16996428Y-143988571D01*
X17044047Y-143917142D01*
X17067857Y-143821904D01*
X17067857Y-143631428D01*
X17044047Y-143583809D01*
X17020238Y-143560000D01*
X16972619Y-143536190D01*
X16877380Y-143536190D01*
X16829761Y-143560000D01*
X16805952Y-143583809D01*
X16782142Y-143631428D01*
X16782142Y-143750476D01*
X16805952Y-143798095D01*
X16829761Y-143821904D01*
X16877380Y-143845714D01*
X16972619Y-143845714D01*
X17020238Y-143821904D01*
X17044047Y-143798095D01*
X17067857Y-143750476D01*
%TO.C,R4*%
D11*
X22625000Y-140039285D02*
X22375000Y-139682142D01*
X22196428Y-140039285D02*
X22196428Y-139289285D01*
X22482142Y-139289285D01*
X22553571Y-139325000D01*
X22589285Y-139360714D01*
X22625000Y-139432142D01*
X22625000Y-139539285D01*
X22589285Y-139610714D01*
X22553571Y-139646428D01*
X22482142Y-139682142D01*
X22196428Y-139682142D01*
X23267857Y-139539285D02*
X23267857Y-140039285D01*
X23089285Y-139253571D02*
X22910714Y-139789285D01*
X23375000Y-139789285D01*
%TO.C,J3*%
X51750000Y-140714285D02*
X51750000Y-141250000D01*
X51714285Y-141357142D01*
X51642857Y-141428571D01*
X51535714Y-141464285D01*
X51464285Y-141464285D01*
X52035714Y-140714285D02*
X52500000Y-140714285D01*
X52250000Y-141000000D01*
X52357142Y-141000000D01*
X52428571Y-141035714D01*
X52464285Y-141071428D01*
X52500000Y-141142857D01*
X52500000Y-141321428D01*
X52464285Y-141392857D01*
X52428571Y-141428571D01*
X52357142Y-141464285D01*
X52142857Y-141464285D01*
X52071428Y-141428571D01*
X52035714Y-141392857D01*
%TO.C,SW1*%
X13325000Y-126128571D02*
X13432142Y-126164285D01*
X13610714Y-126164285D01*
X13682142Y-126128571D01*
X13717857Y-126092857D01*
X13753571Y-126021428D01*
X13753571Y-125950000D01*
X13717857Y-125878571D01*
X13682142Y-125842857D01*
X13610714Y-125807142D01*
X13467857Y-125771428D01*
X13396428Y-125735714D01*
X13360714Y-125700000D01*
X13325000Y-125628571D01*
X13325000Y-125557142D01*
X13360714Y-125485714D01*
X13396428Y-125450000D01*
X13467857Y-125414285D01*
X13646428Y-125414285D01*
X13753571Y-125450000D01*
X14003571Y-125414285D02*
X14182142Y-126164285D01*
X14325000Y-125628571D01*
X14467857Y-126164285D01*
X14646428Y-125414285D01*
X15325000Y-126164285D02*
X14896428Y-126164285D01*
X15110714Y-126164285D02*
X15110714Y-125414285D01*
X15039285Y-125521428D01*
X14967857Y-125592857D01*
X14896428Y-125628571D01*
%TO.C,SW2*%
X13075000Y-148878571D02*
X13182142Y-148914285D01*
X13360714Y-148914285D01*
X13432142Y-148878571D01*
X13467857Y-148842857D01*
X13503571Y-148771428D01*
X13503571Y-148700000D01*
X13467857Y-148628571D01*
X13432142Y-148592857D01*
X13360714Y-148557142D01*
X13217857Y-148521428D01*
X13146428Y-148485714D01*
X13110714Y-148450000D01*
X13075000Y-148378571D01*
X13075000Y-148307142D01*
X13110714Y-148235714D01*
X13146428Y-148200000D01*
X13217857Y-148164285D01*
X13396428Y-148164285D01*
X13503571Y-148200000D01*
X13753571Y-148164285D02*
X13932142Y-148914285D01*
X14075000Y-148378571D01*
X14217857Y-148914285D01*
X14396428Y-148164285D01*
X14646428Y-148235714D02*
X14682142Y-148200000D01*
X14753571Y-148164285D01*
X14932142Y-148164285D01*
X15003571Y-148200000D01*
X15039285Y-148235714D01*
X15075000Y-148307142D01*
X15075000Y-148378571D01*
X15039285Y-148485714D01*
X14610714Y-148914285D01*
X15075000Y-148914285D01*
%TO.C,C23*%
D10*
X51903571Y-128396428D02*
X51927380Y-128420238D01*
X51951190Y-128491666D01*
X51951190Y-128539285D01*
X51927380Y-128610714D01*
X51879761Y-128658333D01*
X51832142Y-128682142D01*
X51736904Y-128705952D01*
X51665476Y-128705952D01*
X51570238Y-128682142D01*
X51522619Y-128658333D01*
X51475000Y-128610714D01*
X51451190Y-128539285D01*
X51451190Y-128491666D01*
X51475000Y-128420238D01*
X51498809Y-128396428D01*
X51498809Y-128205952D02*
X51475000Y-128182142D01*
X51451190Y-128134523D01*
X51451190Y-128015476D01*
X51475000Y-127967857D01*
X51498809Y-127944047D01*
X51546428Y-127920238D01*
X51594047Y-127920238D01*
X51665476Y-127944047D01*
X51951190Y-128229761D01*
X51951190Y-127920238D01*
X51451190Y-127753571D02*
X51451190Y-127444047D01*
X51641666Y-127610714D01*
X51641666Y-127539285D01*
X51665476Y-127491666D01*
X51689285Y-127467857D01*
X51736904Y-127444047D01*
X51855952Y-127444047D01*
X51903571Y-127467857D01*
X51927380Y-127491666D01*
X51951190Y-127539285D01*
X51951190Y-127682142D01*
X51927380Y-127729761D01*
X51903571Y-127753571D01*
%TO.C,C24*%
D11*
X48202142Y-129472142D02*
X48154523Y-129519761D01*
X48011666Y-129567380D01*
X47916428Y-129567380D01*
X47773571Y-129519761D01*
X47678333Y-129424523D01*
X47630714Y-129329285D01*
X47583095Y-129138809D01*
X47583095Y-128995952D01*
X47630714Y-128805476D01*
X47678333Y-128710238D01*
X47773571Y-128615000D01*
X47916428Y-128567380D01*
X48011666Y-128567380D01*
X48154523Y-128615000D01*
X48202142Y-128662619D01*
X48583095Y-128662619D02*
X48630714Y-128615000D01*
X48725952Y-128567380D01*
X48964047Y-128567380D01*
X49059285Y-128615000D01*
X49106904Y-128662619D01*
X49154523Y-128757857D01*
X49154523Y-128853095D01*
X49106904Y-128995952D01*
X48535476Y-129567380D01*
X49154523Y-129567380D01*
X50011666Y-128900714D02*
X50011666Y-129567380D01*
X49773571Y-128519761D02*
X49535476Y-129234047D01*
X50154523Y-129234047D01*
%TO.C,R16*%
D10*
X54853571Y-130376190D02*
X54686904Y-130138095D01*
X54567857Y-130376190D02*
X54567857Y-129876190D01*
X54758333Y-129876190D01*
X54805952Y-129900000D01*
X54829761Y-129923809D01*
X54853571Y-129971428D01*
X54853571Y-130042857D01*
X54829761Y-130090476D01*
X54805952Y-130114285D01*
X54758333Y-130138095D01*
X54567857Y-130138095D01*
X55329761Y-130376190D02*
X55044047Y-130376190D01*
X55186904Y-130376190D02*
X55186904Y-129876190D01*
X55139285Y-129947619D01*
X55091666Y-129995238D01*
X55044047Y-130019047D01*
X55758333Y-129876190D02*
X55663095Y-129876190D01*
X55615476Y-129900000D01*
X55591666Y-129923809D01*
X55544047Y-129995238D01*
X55520238Y-130090476D01*
X55520238Y-130280952D01*
X55544047Y-130328571D01*
X55567857Y-130352380D01*
X55615476Y-130376190D01*
X55710714Y-130376190D01*
X55758333Y-130352380D01*
X55782142Y-130328571D01*
X55805952Y-130280952D01*
X55805952Y-130161904D01*
X55782142Y-130114285D01*
X55758333Y-130090476D01*
X55710714Y-130066666D01*
X55615476Y-130066666D01*
X55567857Y-130090476D01*
X55544047Y-130114285D01*
X55520238Y-130161904D01*
%TO.C,R17*%
X54828571Y-131276190D02*
X54661904Y-131038095D01*
X54542857Y-131276190D02*
X54542857Y-130776190D01*
X54733333Y-130776190D01*
X54780952Y-130800000D01*
X54804761Y-130823809D01*
X54828571Y-130871428D01*
X54828571Y-130942857D01*
X54804761Y-130990476D01*
X54780952Y-131014285D01*
X54733333Y-131038095D01*
X54542857Y-131038095D01*
X55304761Y-131276190D02*
X55019047Y-131276190D01*
X55161904Y-131276190D02*
X55161904Y-130776190D01*
X55114285Y-130847619D01*
X55066666Y-130895238D01*
X55019047Y-130919047D01*
X55471428Y-130776190D02*
X55804761Y-130776190D01*
X55590476Y-131276190D01*
%TO.C,U5*%
X48369047Y-125526190D02*
X48369047Y-125930952D01*
X48392857Y-125978571D01*
X48416666Y-126002380D01*
X48464285Y-126026190D01*
X48559523Y-126026190D01*
X48607142Y-126002380D01*
X48630952Y-125978571D01*
X48654761Y-125930952D01*
X48654761Y-125526190D01*
X49130952Y-125526190D02*
X48892857Y-125526190D01*
X48869047Y-125764285D01*
X48892857Y-125740476D01*
X48940476Y-125716666D01*
X49059523Y-125716666D01*
X49107142Y-125740476D01*
X49130952Y-125764285D01*
X49154761Y-125811904D01*
X49154761Y-125930952D01*
X49130952Y-125978571D01*
X49107142Y-126002380D01*
X49059523Y-126026190D01*
X48940476Y-126026190D01*
X48892857Y-126002380D01*
X48869047Y-125978571D01*
%TD*%
M02*
