%TF.GenerationSoftware,KiCad,Pcbnew,(5.1.10)-1*%
%TF.CreationDate,2022-01-07T09:45:11+03:00*%
%TF.ProjectId,calve_heater,63616c76-655f-4686-9561-7465722e6b69,rev?*%
%TF.SameCoordinates,Original*%
%TF.FileFunction,Copper,L2,Bot*%
%TF.FilePolarity,Positive*%
%FSLAX46Y46*%
G04 Gerber Fmt 4.6, Leading zero omitted, Abs format (unit mm)*
G04 Created by KiCad (PCBNEW (5.1.10)-1) date 2022-01-07 09:45:11*
%MOMM*%
%LPD*%
G01*
G04 APERTURE LIST*
%TA.AperFunction,ComponentPad*%
%ADD10C,1.450000*%
%TD*%
%TA.AperFunction,ComponentPad*%
%ADD11O,1.900000X1.200000*%
%TD*%
%TA.AperFunction,ComponentPad*%
%ADD12O,1.700000X1.950000*%
%TD*%
%TA.AperFunction,ComponentPad*%
%ADD13C,0.500000*%
%TD*%
%TA.AperFunction,SMDPad,CuDef*%
%ADD14R,1.680000X1.680000*%
%TD*%
%TA.AperFunction,ComponentPad*%
%ADD15C,0.300000*%
%TD*%
%TA.AperFunction,ComponentPad*%
%ADD16R,1.700000X1.700000*%
%TD*%
%TA.AperFunction,ComponentPad*%
%ADD17O,1.700000X1.700000*%
%TD*%
%TA.AperFunction,SMDPad,CuDef*%
%ADD18R,1.500000X1.500000*%
%TD*%
%TA.AperFunction,ViaPad*%
%ADD19C,0.800000*%
%TD*%
%TA.AperFunction,Conductor*%
%ADD20C,0.250000*%
%TD*%
%TA.AperFunction,Conductor*%
%ADD21C,0.500000*%
%TD*%
%TA.AperFunction,Conductor*%
%ADD22C,0.254000*%
%TD*%
%TA.AperFunction,Conductor*%
%ADD23C,0.100000*%
%TD*%
G04 APERTURE END LIST*
D10*
%TO.P,J1,6*%
%TO.N,GND*%
X16162500Y-134550000D03*
X16162500Y-139550000D03*
D11*
X13462500Y-133550000D03*
X13462500Y-140550000D03*
%TD*%
%TO.P,J2,1*%
%TO.N,/controller/HEATER_+VE*%
%TA.AperFunction,ComponentPad*%
G36*
G01*
X25350000Y-128450000D02*
X25350000Y-127000000D01*
G75*
G02*
X25600000Y-126750000I250000J0D01*
G01*
X26800000Y-126750000D01*
G75*
G02*
X27050000Y-127000000I0J-250000D01*
G01*
X27050000Y-128450000D01*
G75*
G02*
X26800000Y-128700000I-250000J0D01*
G01*
X25600000Y-128700000D01*
G75*
G02*
X25350000Y-128450000I0J250000D01*
G01*
G37*
%TD.AperFunction*%
D12*
%TO.P,J2,2*%
%TO.N,GND*%
X28700000Y-127725000D03*
%TO.P,J2,3*%
%TO.N,/controller/RTD_+VE*%
X31200000Y-127725000D03*
%TO.P,J2,4*%
%TO.N,GND*%
X33700000Y-127725000D03*
%TD*%
D13*
%TO.P,U1,17*%
%TO.N,GND*%
X30360000Y-145785000D03*
X31540000Y-145785000D03*
X30360000Y-146965000D03*
X31540000Y-146965000D03*
D14*
X30950000Y-146375000D03*
%TD*%
D15*
%TO.P,U2,12*%
%TO.N,N/C*%
X42775000Y-135400000D03*
%TO.P,U2,13*%
X42200000Y-134450000D03*
%TO.P,U2,14*%
X43350000Y-134450000D03*
%TO.P,U2,15*%
X42775000Y-133500000D03*
%TD*%
D16*
%TO.P,J3,1*%
%TO.N,/controller/MISO*%
X51625000Y-134025000D03*
D17*
%TO.P,J3,2*%
%TO.N,+3V3*%
X54165000Y-134025000D03*
%TO.P,J3,3*%
%TO.N,/controller/CLK*%
X51625000Y-136565000D03*
%TO.P,J3,4*%
%TO.N,/controller/MOSI*%
X54165000Y-136565000D03*
%TO.P,J3,5*%
%TO.N,/controller/reset*%
X51625000Y-139105000D03*
%TO.P,J3,6*%
%TO.N,GND*%
X54165000Y-139105000D03*
%TD*%
D18*
%TO.P,bat+,1*%
%TO.N,vbat+*%
X21975000Y-148025000D03*
%TD*%
%TO.P,bat-,1*%
%TO.N,GND*%
X25250000Y-148125000D03*
%TD*%
D19*
%TO.N,GND*%
X46400000Y-143725000D03*
X41775000Y-145175000D03*
X43500000Y-139450000D03*
X48400000Y-143525000D03*
X51881547Y-144296346D03*
X43899954Y-143125037D03*
X41346929Y-144600010D03*
X31950000Y-148425000D03*
X25075000Y-146800000D03*
X16375000Y-130275000D03*
X47375000Y-140125000D03*
X33300000Y-149175000D03*
X37275000Y-132000000D03*
X37325000Y-130125000D03*
X41900000Y-136625000D03*
X43750000Y-148550000D03*
X35025000Y-143875000D03*
X39150000Y-145498394D03*
X39200021Y-146948405D03*
X42425000Y-132150000D03*
X14450000Y-125950000D03*
X14350000Y-129225000D03*
X14350000Y-142750000D03*
X15775000Y-148875000D03*
X38525000Y-125725000D03*
X41550000Y-125700000D03*
X44675000Y-125725000D03*
X47075000Y-125700000D03*
X37600000Y-127600000D03*
X47625000Y-127900000D03*
X47675000Y-131600000D03*
X51025000Y-130350000D03*
X47150000Y-135275000D03*
X37750001Y-148125000D03*
%TO.N,/PWR_OUT*%
X31525000Y-135400000D03*
X24900000Y-144800000D03*
X23300000Y-139000000D03*
X46025000Y-131299990D03*
%TO.N,VBUS*%
X26100000Y-141925000D03*
X29650000Y-148474969D03*
X32600000Y-144800000D03*
X34088557Y-143192045D03*
%TO.N,+5V*%
X39425000Y-138650000D03*
X48571857Y-139872032D03*
%TO.N,/VBAT_OUT*%
X27497468Y-144575010D03*
X34137430Y-148449990D03*
%TO.N,/controller/RTD_+VE*%
X51250000Y-143250000D03*
X35625000Y-132250000D03*
%TO.N,/controller/reset*%
X51419600Y-141066035D03*
%TO.N,/controller/HEATER_PWM_PIN*%
X25125000Y-134600000D03*
X44616739Y-148036169D03*
%TO.N,/controller/LED_RED*%
X22099990Y-129400010D03*
X45349998Y-149075000D03*
%TO.N,/controller/LED_GREEN*%
X21155354Y-128975010D03*
X47562861Y-148158468D03*
%TO.N,/controller/LED_BLUE*%
X23900000Y-130225000D03*
X48617763Y-148391985D03*
%TO.N,/controller/TEMP_LVL_BTN*%
X21775000Y-126825000D03*
X42582046Y-141954673D03*
%TO.N,/controller/ON_OFF_BTN*%
X36664832Y-146615151D03*
X21325000Y-146550000D03*
%TO.N,vbat+*%
X17525000Y-143750000D03*
X28823481Y-147912040D03*
X50675000Y-126775000D03*
%TO.N,+3V3*%
X43468079Y-145891022D03*
X52782752Y-141123484D03*
X53176048Y-143851048D03*
X50070458Y-140299990D03*
%TO.N,Net-(R16-Pad2)*%
X49904336Y-142076956D03*
X54950000Y-131750000D03*
%TD*%
D20*
%TO.N,*%
X42200000Y-134450000D02*
X43350000Y-134450000D01*
X42775000Y-133500000D02*
X42775000Y-135400000D01*
D21*
%TO.N,GND*%
X25075000Y-147950000D02*
X25250000Y-148125000D01*
X25075000Y-146800000D02*
X25075000Y-147950000D01*
X51881547Y-144296346D02*
X51881547Y-143943453D01*
X51881547Y-143943453D02*
X54425000Y-141400000D01*
X54425000Y-139365000D02*
X54165000Y-139105000D01*
X54425000Y-141400000D02*
X54425000Y-139365000D01*
X48400000Y-143525000D02*
X49200000Y-144325000D01*
X51852893Y-144325000D02*
X51881547Y-144296346D01*
X49200000Y-144325000D02*
X51852893Y-144325000D01*
X43500000Y-139450000D02*
X44275000Y-139450000D01*
X44950000Y-140125000D02*
X47375000Y-140125000D01*
X44275000Y-139450000D02*
X44950000Y-140125000D01*
D20*
X36225000Y-145075000D02*
X36425000Y-145275000D01*
X35025000Y-143875000D02*
X36225000Y-145075000D01*
D21*
X51025000Y-130350000D02*
X51500000Y-130350000D01*
X46500000Y-132150000D02*
X42425000Y-132150000D01*
X47150000Y-132800000D02*
X46500000Y-132150000D01*
X47150000Y-135275000D02*
X47150000Y-132800000D01*
D20*
X37750001Y-147559315D02*
X37750001Y-148125000D01*
X37750001Y-146600001D02*
X37750001Y-147559315D01*
X31950000Y-148425000D02*
X32700000Y-149175000D01*
X36700001Y-149175000D02*
X37750001Y-148125000D01*
X36225000Y-145075000D02*
X37750001Y-146600001D01*
X32700000Y-149175000D02*
X36700001Y-149175000D01*
D21*
%TO.N,/PWR_OUT*%
X24900000Y-144800000D02*
X24900000Y-139225000D01*
X24675000Y-139000000D02*
X23300000Y-139000000D01*
X24900000Y-139225000D02*
X24675000Y-139000000D01*
X35309314Y-131050001D02*
X45775011Y-131050001D01*
X45775011Y-131050001D02*
X46025000Y-131299990D01*
X31525000Y-135400000D02*
X31525000Y-134834315D01*
X31525000Y-134834315D02*
X35309314Y-131050001D01*
%TO.N,VBUS*%
X26100000Y-141925000D02*
X32821512Y-141925000D01*
X32821512Y-141925000D02*
X34088557Y-143192045D01*
D20*
X32600000Y-146990002D02*
X32600000Y-144800000D01*
X31890003Y-147699999D02*
X32600000Y-146990002D01*
X29650000Y-148474969D02*
X30424970Y-147699999D01*
X30424970Y-147699999D02*
X31890003Y-147699999D01*
D21*
%TO.N,+5V*%
X39824999Y-138250001D02*
X46949826Y-138250001D01*
X39425000Y-138650000D02*
X39824999Y-138250001D01*
X46949826Y-138250001D02*
X48571857Y-139872032D01*
%TO.N,/VBAT_OUT*%
X27497468Y-144575010D02*
X28122480Y-143949998D01*
X33008002Y-143949998D02*
X33450002Y-144391998D01*
X28122480Y-143949998D02*
X33008002Y-143949998D01*
X33450002Y-144391998D02*
X33450002Y-147762562D01*
X33450002Y-147762562D02*
X34137430Y-148449990D01*
%TO.N,/controller/RTD_+VE*%
X31200000Y-127725000D02*
X31200000Y-128375000D01*
X35625000Y-136825000D02*
X39904671Y-141104671D01*
X47418518Y-141104671D02*
X49563847Y-143250000D01*
X35625000Y-132250000D02*
X35625000Y-136825000D01*
X39904671Y-141104671D02*
X47418518Y-141104671D01*
X49563847Y-143250000D02*
X51250000Y-143250000D01*
D20*
%TO.N,/controller/reset*%
X51625000Y-140860635D02*
X51419600Y-141066035D01*
X51625000Y-139105000D02*
X51625000Y-140860635D01*
%TO.N,/controller/HEATER_PWM_PIN*%
X28625000Y-138100000D02*
X30959413Y-138100000D01*
X44309171Y-148036169D02*
X44616739Y-148036169D01*
X30959413Y-138100000D02*
X36200012Y-143340599D01*
X36200012Y-143577028D02*
X38846388Y-146223404D01*
X42496406Y-146223404D02*
X44309171Y-148036169D01*
X38846388Y-146223404D02*
X42496406Y-146223404D01*
X36200012Y-143340599D02*
X36200012Y-143577028D01*
X25125000Y-134600000D02*
X28625000Y-138100000D01*
%TO.N,/controller/LED_RED*%
X38475011Y-149075011D02*
X38874999Y-149474999D01*
X35750001Y-143805487D02*
X38475011Y-146530497D01*
X38475011Y-146530497D02*
X38475011Y-149075011D01*
X35750001Y-143526999D02*
X35750001Y-143805487D01*
X38874999Y-149474999D02*
X44949999Y-149474999D01*
X30773013Y-138550011D02*
X35750001Y-143526999D01*
X28002007Y-138550011D02*
X30773013Y-138550011D01*
X22099990Y-132647994D02*
X28002007Y-138550011D01*
X22099990Y-129400010D02*
X22099990Y-132647994D01*
X44949999Y-149474999D02*
X45349998Y-149075000D01*
%TO.N,/controller/LED_GREEN*%
X22525011Y-128575011D02*
X22825000Y-128875000D01*
X22825000Y-131001996D02*
X29472993Y-137649989D01*
X21155354Y-128975010D02*
X21555353Y-128575011D01*
X21555353Y-128575011D02*
X22525011Y-128575011D01*
X22825000Y-128875000D02*
X22825000Y-131001996D01*
X29472993Y-137649989D02*
X31145813Y-137649989D01*
X31145813Y-137649989D02*
X36620813Y-143124989D01*
X36620813Y-143124989D02*
X42238179Y-143124989D01*
X42238179Y-143124989D02*
X47271658Y-148158468D01*
X47271658Y-148158468D02*
X47562861Y-148158468D01*
%TO.N,/controller/LED_BLUE*%
X43100022Y-143275423D02*
X43100022Y-143350417D01*
X42499577Y-142674978D02*
X43100022Y-143275423D01*
X43100022Y-143350417D02*
X43724606Y-143975001D01*
X31332212Y-137199978D02*
X36807212Y-142674978D01*
X29699978Y-137199978D02*
X31332212Y-137199978D01*
X23900000Y-131400000D02*
X29699978Y-137199978D01*
X23900000Y-130225000D02*
X23900000Y-131400000D01*
X48617763Y-147826300D02*
X48617763Y-148391985D01*
X36807212Y-142674978D02*
X42499577Y-142674978D01*
X43724606Y-143975001D02*
X44766464Y-143975001D01*
X44766464Y-143975001D02*
X48617763Y-147826300D01*
%TO.N,/controller/TEMP_LVL_BTN*%
X31518612Y-136749967D02*
X36723318Y-141954673D01*
X36723318Y-141954673D02*
X42582046Y-141954673D01*
X24625001Y-131275001D02*
X30099967Y-136749967D01*
X30099967Y-136749967D02*
X31518612Y-136749967D01*
X21775000Y-126825000D02*
X24625001Y-129675001D01*
X24625001Y-129675001D02*
X24625001Y-131275001D01*
%TO.N,/controller/ON_OFF_BTN*%
X21824999Y-146050001D02*
X21325000Y-146550000D01*
X24899999Y-146050001D02*
X21824999Y-146050001D01*
X27575013Y-143374987D02*
X24899999Y-146050001D01*
X33246179Y-143374987D02*
X27575013Y-143374987D01*
X36664832Y-146615151D02*
X36486343Y-146615151D01*
X36486343Y-146615151D02*
X33246179Y-143374987D01*
D21*
%TO.N,vbat+*%
X27410520Y-149325001D02*
X28823481Y-147912040D01*
X21975000Y-148025000D02*
X23275001Y-149325001D01*
X23275001Y-149325001D02*
X27410520Y-149325001D01*
X17525000Y-143750000D02*
X19500000Y-141775000D01*
X20025001Y-141249999D02*
X20025001Y-127124999D01*
X19500000Y-141775000D02*
X20025001Y-141249999D01*
X20025001Y-127124999D02*
X21300000Y-125850000D01*
X21300000Y-125850000D02*
X37050000Y-125850000D01*
X37975000Y-126775000D02*
X50675000Y-126775000D01*
X37050000Y-125850000D02*
X37975000Y-126775000D01*
X20475000Y-146700000D02*
X17525000Y-143750000D01*
X20475000Y-147000000D02*
X20475000Y-146700000D01*
X21500000Y-148025000D02*
X20475000Y-147000000D01*
X21975000Y-148025000D02*
X21500000Y-148025000D01*
%TO.N,+3V3*%
X44033764Y-145891022D02*
X46225000Y-148082258D01*
X43468079Y-145891022D02*
X44033764Y-145891022D01*
X46225000Y-148082258D02*
X46225000Y-148500000D01*
X53176048Y-145598952D02*
X53176048Y-143851048D01*
X46225000Y-148550000D02*
X47050000Y-149375000D01*
X46225000Y-148082258D02*
X46225000Y-148550000D01*
X47050000Y-149375000D02*
X49400000Y-149375000D01*
X49400000Y-149375000D02*
X53176048Y-145598952D01*
X50070458Y-140985074D02*
X50070458Y-140299990D01*
X52782752Y-141123484D02*
X51631236Y-142275000D01*
X51360384Y-142275000D02*
X50070458Y-140985074D01*
X51631236Y-142275000D02*
X51360384Y-142275000D01*
D20*
%TO.N,Net-(R16-Pad2)*%
X49904336Y-142076956D02*
X49345457Y-141518077D01*
X49345457Y-141518077D02*
X49345457Y-133304543D01*
X49345457Y-133304543D02*
X50900000Y-131750000D01*
X50900000Y-131750000D02*
X54950000Y-131750000D01*
%TD*%
D22*
%TO.N,GND*%
X17653169Y-125712463D02*
X17369002Y-125902337D01*
X17127337Y-126144002D01*
X16937463Y-126428169D01*
X16806675Y-126743919D01*
X16740000Y-127079117D01*
X16740000Y-127420883D01*
X16806675Y-127756081D01*
X16937463Y-128071831D01*
X17127337Y-128355998D01*
X17369002Y-128597663D01*
X17653169Y-128787537D01*
X17968919Y-128918325D01*
X18304117Y-128985000D01*
X18645883Y-128985000D01*
X18981081Y-128918325D01*
X19140002Y-128852498D01*
X19140001Y-140883421D01*
X18904959Y-141118463D01*
X18904953Y-141118468D01*
X17279957Y-142743465D01*
X17223102Y-142754774D01*
X17034744Y-142832795D01*
X16865226Y-142946063D01*
X16721063Y-143090226D01*
X16607795Y-143259744D01*
X16529774Y-143448102D01*
X16490000Y-143648061D01*
X16490000Y-143851939D01*
X16529774Y-144051898D01*
X16607795Y-144240256D01*
X16721063Y-144409774D01*
X16865226Y-144553937D01*
X17034744Y-144667205D01*
X17223102Y-144745226D01*
X17279957Y-144756535D01*
X18488421Y-145965000D01*
X18379117Y-145965000D01*
X18043919Y-146031675D01*
X17728169Y-146162463D01*
X17444002Y-146352337D01*
X17202337Y-146594002D01*
X17012463Y-146878169D01*
X16881675Y-147193919D01*
X16815000Y-147529117D01*
X16815000Y-147870883D01*
X16881675Y-148206081D01*
X17012463Y-148521831D01*
X17202337Y-148805998D01*
X17444002Y-149047663D01*
X17728169Y-149237537D01*
X17975536Y-149340000D01*
X14207278Y-149340000D01*
X13895917Y-149309471D01*
X13627464Y-149228420D01*
X13379871Y-149096773D01*
X13162555Y-148919534D01*
X12983812Y-148703471D01*
X12850434Y-148456795D01*
X12767511Y-148188913D01*
X12735000Y-147879591D01*
X12735000Y-127107279D01*
X12765053Y-126800775D01*
X12844694Y-126536992D01*
X12974051Y-126293705D01*
X13148203Y-126080174D01*
X13360514Y-125904535D01*
X13602892Y-125773482D01*
X13866111Y-125692002D01*
X14170591Y-125660000D01*
X17779826Y-125660000D01*
X17653169Y-125712463D01*
%TA.AperFunction,Conductor*%
D23*
G36*
X17653169Y-125712463D02*
G01*
X17369002Y-125902337D01*
X17127337Y-126144002D01*
X16937463Y-126428169D01*
X16806675Y-126743919D01*
X16740000Y-127079117D01*
X16740000Y-127420883D01*
X16806675Y-127756081D01*
X16937463Y-128071831D01*
X17127337Y-128355998D01*
X17369002Y-128597663D01*
X17653169Y-128787537D01*
X17968919Y-128918325D01*
X18304117Y-128985000D01*
X18645883Y-128985000D01*
X18981081Y-128918325D01*
X19140002Y-128852498D01*
X19140001Y-140883421D01*
X18904959Y-141118463D01*
X18904953Y-141118468D01*
X17279957Y-142743465D01*
X17223102Y-142754774D01*
X17034744Y-142832795D01*
X16865226Y-142946063D01*
X16721063Y-143090226D01*
X16607795Y-143259744D01*
X16529774Y-143448102D01*
X16490000Y-143648061D01*
X16490000Y-143851939D01*
X16529774Y-144051898D01*
X16607795Y-144240256D01*
X16721063Y-144409774D01*
X16865226Y-144553937D01*
X17034744Y-144667205D01*
X17223102Y-144745226D01*
X17279957Y-144756535D01*
X18488421Y-145965000D01*
X18379117Y-145965000D01*
X18043919Y-146031675D01*
X17728169Y-146162463D01*
X17444002Y-146352337D01*
X17202337Y-146594002D01*
X17012463Y-146878169D01*
X16881675Y-147193919D01*
X16815000Y-147529117D01*
X16815000Y-147870883D01*
X16881675Y-148206081D01*
X17012463Y-148521831D01*
X17202337Y-148805998D01*
X17444002Y-149047663D01*
X17728169Y-149237537D01*
X17975536Y-149340000D01*
X14207278Y-149340000D01*
X13895917Y-149309471D01*
X13627464Y-149228420D01*
X13379871Y-149096773D01*
X13162555Y-148919534D01*
X12983812Y-148703471D01*
X12850434Y-148456795D01*
X12767511Y-148188913D01*
X12735000Y-147879591D01*
X12735000Y-127107279D01*
X12765053Y-126800775D01*
X12844694Y-126536992D01*
X12974051Y-126293705D01*
X13148203Y-126080174D01*
X13360514Y-125904535D01*
X13602892Y-125773482D01*
X13866111Y-125692002D01*
X14170591Y-125660000D01*
X17779826Y-125660000D01*
X17653169Y-125712463D01*
G37*
%TD.AperFunction*%
D22*
X32628414Y-148102875D02*
X32710592Y-148256621D01*
X32793470Y-148357608D01*
X32793473Y-148357611D01*
X32821186Y-148391379D01*
X32854953Y-148419091D01*
X33130895Y-148695033D01*
X33142204Y-148751888D01*
X33220225Y-148940246D01*
X33333493Y-149109764D01*
X33477656Y-149253927D01*
X33606474Y-149340000D01*
X30218340Y-149340000D01*
X30309774Y-149278906D01*
X30453937Y-149134743D01*
X30567205Y-148965225D01*
X30645226Y-148776867D01*
X30685000Y-148576908D01*
X30685000Y-148514771D01*
X30739772Y-148459999D01*
X31852681Y-148459999D01*
X31890003Y-148463675D01*
X31927325Y-148459999D01*
X31927336Y-148459999D01*
X32038989Y-148449002D01*
X32182250Y-148405545D01*
X32314279Y-148334973D01*
X32430004Y-148240000D01*
X32453806Y-148210997D01*
X32612939Y-148051864D01*
X32628414Y-148102875D01*
%TA.AperFunction,Conductor*%
D23*
G36*
X32628414Y-148102875D02*
G01*
X32710592Y-148256621D01*
X32793470Y-148357608D01*
X32793473Y-148357611D01*
X32821186Y-148391379D01*
X32854953Y-148419091D01*
X33130895Y-148695033D01*
X33142204Y-148751888D01*
X33220225Y-148940246D01*
X33333493Y-149109764D01*
X33477656Y-149253927D01*
X33606474Y-149340000D01*
X30218340Y-149340000D01*
X30309774Y-149278906D01*
X30453937Y-149134743D01*
X30567205Y-148965225D01*
X30645226Y-148776867D01*
X30685000Y-148576908D01*
X30685000Y-148514771D01*
X30739772Y-148459999D01*
X31852681Y-148459999D01*
X31890003Y-148463675D01*
X31927325Y-148459999D01*
X31927336Y-148459999D01*
X32038989Y-148449002D01*
X32182250Y-148405545D01*
X32314279Y-148334973D01*
X32430004Y-148240000D01*
X32453806Y-148210997D01*
X32612939Y-148051864D01*
X32628414Y-148102875D01*
G37*
%TD.AperFunction*%
D22*
X35658722Y-146862332D02*
X35669606Y-146917049D01*
X35747627Y-147105407D01*
X35860895Y-147274925D01*
X36005058Y-147419088D01*
X36174576Y-147532356D01*
X36362934Y-147610377D01*
X36562893Y-147650151D01*
X36766771Y-147650151D01*
X36966730Y-147610377D01*
X37155088Y-147532356D01*
X37324606Y-147419088D01*
X37468769Y-147274925D01*
X37582037Y-147105407D01*
X37660058Y-146917049D01*
X37681079Y-146811367D01*
X37715011Y-146845299D01*
X37715012Y-149037679D01*
X37711335Y-149075011D01*
X37715012Y-149112344D01*
X37726009Y-149223997D01*
X37736567Y-149258802D01*
X37761197Y-149340000D01*
X34668386Y-149340000D01*
X34797204Y-149253927D01*
X34941367Y-149109764D01*
X35054635Y-148940246D01*
X35132656Y-148751888D01*
X35172430Y-148551929D01*
X35172430Y-148348051D01*
X35132656Y-148148092D01*
X35054635Y-147959734D01*
X34941367Y-147790216D01*
X34797204Y-147646053D01*
X34627686Y-147532785D01*
X34439328Y-147454764D01*
X34382473Y-147443455D01*
X34335002Y-147395984D01*
X34335002Y-145538612D01*
X35658722Y-146862332D01*
%TA.AperFunction,Conductor*%
D23*
G36*
X35658722Y-146862332D02*
G01*
X35669606Y-146917049D01*
X35747627Y-147105407D01*
X35860895Y-147274925D01*
X36005058Y-147419088D01*
X36174576Y-147532356D01*
X36362934Y-147610377D01*
X36562893Y-147650151D01*
X36766771Y-147650151D01*
X36966730Y-147610377D01*
X37155088Y-147532356D01*
X37324606Y-147419088D01*
X37468769Y-147274925D01*
X37582037Y-147105407D01*
X37660058Y-146917049D01*
X37681079Y-146811367D01*
X37715011Y-146845299D01*
X37715012Y-149037679D01*
X37711335Y-149075011D01*
X37715012Y-149112344D01*
X37726009Y-149223997D01*
X37736567Y-149258802D01*
X37761197Y-149340000D01*
X34668386Y-149340000D01*
X34797204Y-149253927D01*
X34941367Y-149109764D01*
X35054635Y-148940246D01*
X35132656Y-148751888D01*
X35172430Y-148551929D01*
X35172430Y-148348051D01*
X35132656Y-148148092D01*
X35054635Y-147959734D01*
X34941367Y-147790216D01*
X34797204Y-147646053D01*
X34627686Y-147532785D01*
X34439328Y-147454764D01*
X34382473Y-147443455D01*
X34335002Y-147395984D01*
X34335002Y-145538612D01*
X35658722Y-146862332D01*
G37*
%TD.AperFunction*%
D22*
X43681792Y-148483592D02*
X43699534Y-148526425D01*
X43812802Y-148695943D01*
X43831858Y-148714999D01*
X39235011Y-148714999D01*
X39235011Y-146983404D01*
X42181605Y-146983404D01*
X43681792Y-148483592D01*
%TA.AperFunction,Conductor*%
D23*
G36*
X43681792Y-148483592D02*
G01*
X43699534Y-148526425D01*
X43812802Y-148695943D01*
X43831858Y-148714999D01*
X39235011Y-148714999D01*
X39235011Y-146983404D01*
X42181605Y-146983404D01*
X43681792Y-148483592D01*
G37*
%TD.AperFunction*%
D22*
X31565000Y-144901939D02*
X31604774Y-145101898D01*
X31682795Y-145290256D01*
X31796063Y-145459774D01*
X31840001Y-145503712D01*
X31840000Y-146675199D01*
X31575201Y-146939999D01*
X30462292Y-146939999D01*
X30424969Y-146936323D01*
X30387646Y-146939999D01*
X30387637Y-146939999D01*
X30275984Y-146950996D01*
X30157029Y-146987080D01*
X30132723Y-146994453D01*
X30000693Y-147065025D01*
X29934969Y-147118964D01*
X29884969Y-147159998D01*
X29861171Y-147188997D01*
X29695704Y-147354463D01*
X29627418Y-147252266D01*
X29483255Y-147108103D01*
X29313737Y-146994835D01*
X29125379Y-146916814D01*
X28925420Y-146877040D01*
X28721542Y-146877040D01*
X28521583Y-146916814D01*
X28333225Y-146994835D01*
X28163707Y-147108103D01*
X28019544Y-147252266D01*
X27906276Y-147421784D01*
X27828255Y-147610142D01*
X27816946Y-147666996D01*
X27043942Y-148440001D01*
X23641580Y-148440001D01*
X23363072Y-148161493D01*
X23363072Y-147275000D01*
X23350812Y-147150518D01*
X23314502Y-147030820D01*
X23255537Y-146920506D01*
X23176185Y-146823815D01*
X23159353Y-146810001D01*
X24862677Y-146810001D01*
X24899999Y-146813677D01*
X24937321Y-146810001D01*
X24937332Y-146810001D01*
X25048985Y-146799004D01*
X25192246Y-146755547D01*
X25324275Y-146684975D01*
X25440000Y-146590002D01*
X25463803Y-146560998D01*
X26741774Y-145283027D01*
X26837694Y-145378947D01*
X27007212Y-145492215D01*
X27195570Y-145570236D01*
X27395529Y-145610010D01*
X27599407Y-145610010D01*
X27799366Y-145570236D01*
X27987724Y-145492215D01*
X28157242Y-145378947D01*
X28301405Y-145234784D01*
X28414673Y-145065266D01*
X28492694Y-144876908D01*
X28501030Y-144834998D01*
X31565000Y-144834998D01*
X31565000Y-144901939D01*
%TA.AperFunction,Conductor*%
D23*
G36*
X31565000Y-144901939D02*
G01*
X31604774Y-145101898D01*
X31682795Y-145290256D01*
X31796063Y-145459774D01*
X31840001Y-145503712D01*
X31840000Y-146675199D01*
X31575201Y-146939999D01*
X30462292Y-146939999D01*
X30424969Y-146936323D01*
X30387646Y-146939999D01*
X30387637Y-146939999D01*
X30275984Y-146950996D01*
X30157029Y-146987080D01*
X30132723Y-146994453D01*
X30000693Y-147065025D01*
X29934969Y-147118964D01*
X29884969Y-147159998D01*
X29861171Y-147188997D01*
X29695704Y-147354463D01*
X29627418Y-147252266D01*
X29483255Y-147108103D01*
X29313737Y-146994835D01*
X29125379Y-146916814D01*
X28925420Y-146877040D01*
X28721542Y-146877040D01*
X28521583Y-146916814D01*
X28333225Y-146994835D01*
X28163707Y-147108103D01*
X28019544Y-147252266D01*
X27906276Y-147421784D01*
X27828255Y-147610142D01*
X27816946Y-147666996D01*
X27043942Y-148440001D01*
X23641580Y-148440001D01*
X23363072Y-148161493D01*
X23363072Y-147275000D01*
X23350812Y-147150518D01*
X23314502Y-147030820D01*
X23255537Y-146920506D01*
X23176185Y-146823815D01*
X23159353Y-146810001D01*
X24862677Y-146810001D01*
X24899999Y-146813677D01*
X24937321Y-146810001D01*
X24937332Y-146810001D01*
X25048985Y-146799004D01*
X25192246Y-146755547D01*
X25324275Y-146684975D01*
X25440000Y-146590002D01*
X25463803Y-146560998D01*
X26741774Y-145283027D01*
X26837694Y-145378947D01*
X27007212Y-145492215D01*
X27195570Y-145570236D01*
X27395529Y-145610010D01*
X27599407Y-145610010D01*
X27799366Y-145570236D01*
X27987724Y-145492215D01*
X28157242Y-145378947D01*
X28301405Y-145234784D01*
X28414673Y-145065266D01*
X28492694Y-144876908D01*
X28501030Y-144834998D01*
X31565000Y-144834998D01*
X31565000Y-144901939D01*
G37*
%TD.AperFunction*%
D22*
X48907317Y-143845049D02*
X48935030Y-143878817D01*
X48968798Y-143906530D01*
X48968800Y-143906532D01*
X49025406Y-143952987D01*
X49069788Y-143989411D01*
X49223534Y-144071589D01*
X49390357Y-144122195D01*
X49520370Y-144135000D01*
X49520380Y-144135000D01*
X49563846Y-144139281D01*
X49607312Y-144135000D01*
X50711546Y-144135000D01*
X50759744Y-144167205D01*
X50948102Y-144245226D01*
X51148061Y-144285000D01*
X51351939Y-144285000D01*
X51551898Y-144245226D01*
X51740256Y-144167205D01*
X51909774Y-144053937D01*
X52053937Y-143909774D01*
X52141048Y-143779403D01*
X52141048Y-143952987D01*
X52180822Y-144152946D01*
X52258843Y-144341304D01*
X52291049Y-144389503D01*
X52291048Y-145232373D01*
X49560369Y-147963053D01*
X49534968Y-147901729D01*
X49421700Y-147732211D01*
X49366750Y-147677261D01*
X49323309Y-147534053D01*
X49252737Y-147402024D01*
X49157764Y-147286299D01*
X49128767Y-147262502D01*
X45330268Y-143464004D01*
X45306465Y-143435000D01*
X45190740Y-143340027D01*
X45058711Y-143269455D01*
X44915450Y-143225998D01*
X44803797Y-143215001D01*
X44803786Y-143215001D01*
X44766464Y-143211325D01*
X44729142Y-143215001D01*
X44039408Y-143215001D01*
X43803255Y-142978849D01*
X43734996Y-142851147D01*
X43706191Y-142816048D01*
X43663821Y-142764419D01*
X43663817Y-142764415D01*
X43640023Y-142735422D01*
X43611031Y-142711629D01*
X43437199Y-142537797D01*
X43499251Y-142444929D01*
X43577272Y-142256571D01*
X43617046Y-142056612D01*
X43617046Y-141989671D01*
X47051940Y-141989671D01*
X48907317Y-143845049D01*
%TA.AperFunction,Conductor*%
D23*
G36*
X48907317Y-143845049D02*
G01*
X48935030Y-143878817D01*
X48968798Y-143906530D01*
X48968800Y-143906532D01*
X49025406Y-143952987D01*
X49069788Y-143989411D01*
X49223534Y-144071589D01*
X49390357Y-144122195D01*
X49520370Y-144135000D01*
X49520380Y-144135000D01*
X49563846Y-144139281D01*
X49607312Y-144135000D01*
X50711546Y-144135000D01*
X50759744Y-144167205D01*
X50948102Y-144245226D01*
X51148061Y-144285000D01*
X51351939Y-144285000D01*
X51551898Y-144245226D01*
X51740256Y-144167205D01*
X51909774Y-144053937D01*
X52053937Y-143909774D01*
X52141048Y-143779403D01*
X52141048Y-143952987D01*
X52180822Y-144152946D01*
X52258843Y-144341304D01*
X52291049Y-144389503D01*
X52291048Y-145232373D01*
X49560369Y-147963053D01*
X49534968Y-147901729D01*
X49421700Y-147732211D01*
X49366750Y-147677261D01*
X49323309Y-147534053D01*
X49252737Y-147402024D01*
X49157764Y-147286299D01*
X49128767Y-147262502D01*
X45330268Y-143464004D01*
X45306465Y-143435000D01*
X45190740Y-143340027D01*
X45058711Y-143269455D01*
X44915450Y-143225998D01*
X44803797Y-143215001D01*
X44803786Y-143215001D01*
X44766464Y-143211325D01*
X44729142Y-143215001D01*
X44039408Y-143215001D01*
X43803255Y-142978849D01*
X43734996Y-142851147D01*
X43706191Y-142816048D01*
X43663821Y-142764419D01*
X43663817Y-142764415D01*
X43640023Y-142735422D01*
X43611031Y-142711629D01*
X43437199Y-142537797D01*
X43499251Y-142444929D01*
X43577272Y-142256571D01*
X43617046Y-142056612D01*
X43617046Y-141989671D01*
X47051940Y-141989671D01*
X48907317Y-143845049D01*
G37*
%TD.AperFunction*%
D22*
X53011525Y-137511632D02*
X53218368Y-137718475D01*
X53461589Y-137880990D01*
X53731842Y-137992932D01*
X54018740Y-138050000D01*
X54311260Y-138050000D01*
X54598158Y-137992932D01*
X54868411Y-137880990D01*
X55111632Y-137718475D01*
X55215000Y-137615107D01*
X55215000Y-146957025D01*
X55072663Y-146744002D01*
X54830998Y-146502337D01*
X54546831Y-146312463D01*
X54231081Y-146181675D01*
X53897198Y-146115262D01*
X53904618Y-146106221D01*
X53915459Y-146093011D01*
X53997637Y-145939265D01*
X54048243Y-145772442D01*
X54061048Y-145642429D01*
X54061048Y-145642419D01*
X54065329Y-145598953D01*
X54061048Y-145555487D01*
X54061048Y-144389502D01*
X54093253Y-144341304D01*
X54171274Y-144152946D01*
X54211048Y-143952987D01*
X54211048Y-143749109D01*
X54171274Y-143549150D01*
X54093253Y-143360792D01*
X53979985Y-143191274D01*
X53835822Y-143047111D01*
X53666304Y-142933843D01*
X53477946Y-142855822D01*
X53277987Y-142816048D01*
X53074109Y-142816048D01*
X52874150Y-142855822D01*
X52685792Y-142933843D01*
X52516274Y-143047111D01*
X52372111Y-143191274D01*
X52285000Y-143321645D01*
X52285000Y-143148061D01*
X52245226Y-142948102D01*
X52235298Y-142924133D01*
X52260053Y-142903817D01*
X52287770Y-142870044D01*
X53027796Y-142130019D01*
X53084650Y-142118710D01*
X53273008Y-142040689D01*
X53442526Y-141927421D01*
X53586689Y-141783258D01*
X53699957Y-141613740D01*
X53777978Y-141425382D01*
X53817752Y-141225423D01*
X53817752Y-141021545D01*
X53777978Y-140821586D01*
X53699957Y-140633228D01*
X53586689Y-140463710D01*
X53442526Y-140319547D01*
X53273008Y-140206279D01*
X53084650Y-140128258D01*
X52884691Y-140088484D01*
X52741623Y-140088484D01*
X52778475Y-140051632D01*
X52940990Y-139808411D01*
X53052932Y-139538158D01*
X53110000Y-139251260D01*
X53110000Y-138958740D01*
X53052932Y-138671842D01*
X52940990Y-138401589D01*
X52778475Y-138158368D01*
X52571632Y-137951525D01*
X52397240Y-137835000D01*
X52571632Y-137718475D01*
X52778475Y-137511632D01*
X52895000Y-137337240D01*
X53011525Y-137511632D01*
%TA.AperFunction,Conductor*%
D23*
G36*
X53011525Y-137511632D02*
G01*
X53218368Y-137718475D01*
X53461589Y-137880990D01*
X53731842Y-137992932D01*
X54018740Y-138050000D01*
X54311260Y-138050000D01*
X54598158Y-137992932D01*
X54868411Y-137880990D01*
X55111632Y-137718475D01*
X55215000Y-137615107D01*
X55215000Y-146957025D01*
X55072663Y-146744002D01*
X54830998Y-146502337D01*
X54546831Y-146312463D01*
X54231081Y-146181675D01*
X53897198Y-146115262D01*
X53904618Y-146106221D01*
X53915459Y-146093011D01*
X53997637Y-145939265D01*
X54048243Y-145772442D01*
X54061048Y-145642429D01*
X54061048Y-145642419D01*
X54065329Y-145598953D01*
X54061048Y-145555487D01*
X54061048Y-144389502D01*
X54093253Y-144341304D01*
X54171274Y-144152946D01*
X54211048Y-143952987D01*
X54211048Y-143749109D01*
X54171274Y-143549150D01*
X54093253Y-143360792D01*
X53979985Y-143191274D01*
X53835822Y-143047111D01*
X53666304Y-142933843D01*
X53477946Y-142855822D01*
X53277987Y-142816048D01*
X53074109Y-142816048D01*
X52874150Y-142855822D01*
X52685792Y-142933843D01*
X52516274Y-143047111D01*
X52372111Y-143191274D01*
X52285000Y-143321645D01*
X52285000Y-143148061D01*
X52245226Y-142948102D01*
X52235298Y-142924133D01*
X52260053Y-142903817D01*
X52287770Y-142870044D01*
X53027796Y-142130019D01*
X53084650Y-142118710D01*
X53273008Y-142040689D01*
X53442526Y-141927421D01*
X53586689Y-141783258D01*
X53699957Y-141613740D01*
X53777978Y-141425382D01*
X53817752Y-141225423D01*
X53817752Y-141021545D01*
X53777978Y-140821586D01*
X53699957Y-140633228D01*
X53586689Y-140463710D01*
X53442526Y-140319547D01*
X53273008Y-140206279D01*
X53084650Y-140128258D01*
X52884691Y-140088484D01*
X52741623Y-140088484D01*
X52778475Y-140051632D01*
X52940990Y-139808411D01*
X53052932Y-139538158D01*
X53110000Y-139251260D01*
X53110000Y-138958740D01*
X53052932Y-138671842D01*
X52940990Y-138401589D01*
X52778475Y-138158368D01*
X52571632Y-137951525D01*
X52397240Y-137835000D01*
X52571632Y-137718475D01*
X52778475Y-137511632D01*
X52895000Y-137337240D01*
X53011525Y-137511632D01*
G37*
%TD.AperFunction*%
D22*
X43002135Y-144963746D02*
X42977823Y-144973817D01*
X42808305Y-145087085D01*
X42664142Y-145231248D01*
X42550874Y-145400766D01*
X42525273Y-145462571D01*
X42496406Y-145459728D01*
X42459084Y-145463404D01*
X39161190Y-145463404D01*
X37582774Y-143884989D01*
X41923378Y-143884989D01*
X43002135Y-144963746D01*
%TA.AperFunction,Conductor*%
D23*
G36*
X43002135Y-144963746D02*
G01*
X42977823Y-144973817D01*
X42808305Y-145087085D01*
X42664142Y-145231248D01*
X42550874Y-145400766D01*
X42525273Y-145462571D01*
X42496406Y-145459728D01*
X42459084Y-145463404D01*
X39161190Y-145463404D01*
X37582774Y-143884989D01*
X41923378Y-143884989D01*
X43002135Y-144963746D01*
G37*
%TD.AperFunction*%
D22*
X34989891Y-143841691D02*
X34990001Y-143842809D01*
X34990001Y-143842820D01*
X35000998Y-143954473D01*
X35044455Y-144097734D01*
X35045291Y-144099297D01*
X34845153Y-143899160D01*
X34892494Y-143851819D01*
X34935562Y-143787362D01*
X34989891Y-143841691D01*
%TA.AperFunction,Conductor*%
D23*
G36*
X34989891Y-143841691D02*
G01*
X34990001Y-143842809D01*
X34990001Y-143842820D01*
X35000998Y-143954473D01*
X35044455Y-144097734D01*
X35045291Y-144099297D01*
X34845153Y-143899160D01*
X34892494Y-143851819D01*
X34935562Y-143787362D01*
X34989891Y-143841691D01*
G37*
%TD.AperFunction*%
D22*
X47565322Y-140117076D02*
X47576631Y-140173930D01*
X47602157Y-140235555D01*
X47592008Y-140232476D01*
X47461995Y-140219671D01*
X47461987Y-140219671D01*
X47418518Y-140215390D01*
X47375049Y-140219671D01*
X40271250Y-140219671D01*
X39701798Y-139650219D01*
X39726898Y-139645226D01*
X39915256Y-139567205D01*
X40084774Y-139453937D01*
X40228937Y-139309774D01*
X40342205Y-139140256D01*
X40344382Y-139135001D01*
X46583248Y-139135001D01*
X47565322Y-140117076D01*
%TA.AperFunction,Conductor*%
D23*
G36*
X47565322Y-140117076D02*
G01*
X47576631Y-140173930D01*
X47602157Y-140235555D01*
X47592008Y-140232476D01*
X47461995Y-140219671D01*
X47461987Y-140219671D01*
X47418518Y-140215390D01*
X47375049Y-140219671D01*
X40271250Y-140219671D01*
X39701798Y-139650219D01*
X39726898Y-139645226D01*
X39915256Y-139567205D01*
X40084774Y-139453937D01*
X40228937Y-139309774D01*
X40342205Y-139140256D01*
X40344382Y-139135001D01*
X46583248Y-139135001D01*
X47565322Y-140117076D01*
G37*
%TD.AperFunction*%
D22*
X52619002Y-125802337D02*
X52377337Y-126044002D01*
X52187463Y-126328169D01*
X52056675Y-126643919D01*
X51990000Y-126979117D01*
X51990000Y-127320883D01*
X52056675Y-127656081D01*
X52187463Y-127971831D01*
X52377337Y-128255998D01*
X52619002Y-128497663D01*
X52903169Y-128687537D01*
X53218919Y-128818325D01*
X53554117Y-128885000D01*
X53895883Y-128885000D01*
X54231081Y-128818325D01*
X54546831Y-128687537D01*
X54830998Y-128497663D01*
X55072663Y-128255998D01*
X55215001Y-128042974D01*
X55215001Y-130747435D01*
X55051939Y-130715000D01*
X54848061Y-130715000D01*
X54648102Y-130754774D01*
X54459744Y-130832795D01*
X54290226Y-130946063D01*
X54246289Y-130990000D01*
X50937325Y-130990000D01*
X50900000Y-130986324D01*
X50862675Y-130990000D01*
X50862667Y-130990000D01*
X50751014Y-131000997D01*
X50607753Y-131044454D01*
X50475724Y-131115026D01*
X50359999Y-131209999D01*
X50336201Y-131238997D01*
X48834455Y-132740744D01*
X48805457Y-132764542D01*
X48781659Y-132793540D01*
X48781658Y-132793541D01*
X48710483Y-132880267D01*
X48639911Y-133012297D01*
X48596455Y-133155558D01*
X48581781Y-133304543D01*
X48585458Y-133341875D01*
X48585457Y-138634054D01*
X47606360Y-137654957D01*
X47578643Y-137621184D01*
X47443885Y-137510590D01*
X47290139Y-137428412D01*
X47123316Y-137377806D01*
X46993303Y-137365001D01*
X46993295Y-137365001D01*
X46949826Y-137360720D01*
X46906357Y-137365001D01*
X39868465Y-137365001D01*
X39824998Y-137360720D01*
X39781532Y-137365001D01*
X39781522Y-137365001D01*
X39651509Y-137377806D01*
X39484686Y-137428412D01*
X39330940Y-137510590D01*
X39196182Y-137621184D01*
X39177494Y-137643955D01*
X39123102Y-137654774D01*
X38934744Y-137732795D01*
X38765226Y-137846063D01*
X38621063Y-137990226D01*
X38507795Y-138159744D01*
X38429774Y-138348102D01*
X38424781Y-138373203D01*
X36510000Y-136458422D01*
X36510000Y-134372684D01*
X41415000Y-134372684D01*
X41415000Y-134527316D01*
X41445167Y-134678976D01*
X41504342Y-134821837D01*
X41590251Y-134950408D01*
X41699592Y-135059749D01*
X41828163Y-135145658D01*
X41971024Y-135204833D01*
X42011828Y-135212949D01*
X41990000Y-135322684D01*
X41990000Y-135477316D01*
X42020167Y-135628976D01*
X42079342Y-135771837D01*
X42165251Y-135900408D01*
X42274592Y-136009749D01*
X42403163Y-136095658D01*
X42546024Y-136154833D01*
X42697684Y-136185000D01*
X42852316Y-136185000D01*
X43003976Y-136154833D01*
X43146837Y-136095658D01*
X43275408Y-136009749D01*
X43384749Y-135900408D01*
X43470658Y-135771837D01*
X43529833Y-135628976D01*
X43560000Y-135477316D01*
X43560000Y-135322684D01*
X43538172Y-135212949D01*
X43578976Y-135204833D01*
X43721837Y-135145658D01*
X43850408Y-135059749D01*
X43959749Y-134950408D01*
X44045658Y-134821837D01*
X44104833Y-134678976D01*
X44135000Y-134527316D01*
X44135000Y-134372684D01*
X44104833Y-134221024D01*
X44045658Y-134078163D01*
X43959749Y-133949592D01*
X43850408Y-133840251D01*
X43721837Y-133754342D01*
X43578976Y-133695167D01*
X43538172Y-133687051D01*
X43560000Y-133577316D01*
X43560000Y-133422684D01*
X43529833Y-133271024D01*
X43470658Y-133128163D01*
X43384749Y-132999592D01*
X43275408Y-132890251D01*
X43146837Y-132804342D01*
X43003976Y-132745167D01*
X42852316Y-132715000D01*
X42697684Y-132715000D01*
X42546024Y-132745167D01*
X42403163Y-132804342D01*
X42274592Y-132890251D01*
X42165251Y-132999592D01*
X42079342Y-133128163D01*
X42020167Y-133271024D01*
X41990000Y-133422684D01*
X41990000Y-133577316D01*
X42011828Y-133687051D01*
X41971024Y-133695167D01*
X41828163Y-133754342D01*
X41699592Y-133840251D01*
X41590251Y-133949592D01*
X41504342Y-134078163D01*
X41445167Y-134221024D01*
X41415000Y-134372684D01*
X36510000Y-134372684D01*
X36510000Y-132788454D01*
X36542205Y-132740256D01*
X36620226Y-132551898D01*
X36660000Y-132351939D01*
X36660000Y-132148061D01*
X36620226Y-131948102D01*
X36614799Y-131935001D01*
X45204517Y-131935001D01*
X45221063Y-131959764D01*
X45365226Y-132103927D01*
X45534744Y-132217195D01*
X45723102Y-132295216D01*
X45923061Y-132334990D01*
X46126939Y-132334990D01*
X46326898Y-132295216D01*
X46515256Y-132217195D01*
X46684774Y-132103927D01*
X46828937Y-131959764D01*
X46942205Y-131790246D01*
X47020226Y-131601888D01*
X47060000Y-131401929D01*
X47060000Y-131198051D01*
X47020226Y-130998092D01*
X46942205Y-130809734D01*
X46828937Y-130640216D01*
X46684774Y-130496053D01*
X46515256Y-130382785D01*
X46326898Y-130304764D01*
X46217434Y-130282991D01*
X46115324Y-130228412D01*
X45948501Y-130177806D01*
X45818488Y-130165001D01*
X45818480Y-130165001D01*
X45775011Y-130160720D01*
X45731542Y-130165001D01*
X35352779Y-130165001D01*
X35309313Y-130160720D01*
X35265847Y-130165001D01*
X35265837Y-130165001D01*
X35135824Y-130177806D01*
X34969001Y-130228412D01*
X34815255Y-130310590D01*
X34795334Y-130326939D01*
X34714267Y-130393469D01*
X34714265Y-130393471D01*
X34680497Y-130421184D01*
X34652784Y-130454952D01*
X30929951Y-134177785D01*
X30896184Y-134205498D01*
X30868471Y-134239266D01*
X30868468Y-134239269D01*
X30820185Y-134298102D01*
X30785590Y-134340256D01*
X30703411Y-134494002D01*
X30652805Y-134660825D01*
X30640000Y-134790838D01*
X30640000Y-134790846D01*
X30635719Y-134834315D01*
X30638606Y-134863632D01*
X30607795Y-134909744D01*
X30529774Y-135098102D01*
X30490000Y-135298061D01*
X30490000Y-135501939D01*
X30529774Y-135701898D01*
X30607795Y-135890256D01*
X30674420Y-135989967D01*
X30414769Y-135989967D01*
X25385001Y-130960200D01*
X25385001Y-129712323D01*
X25388677Y-129675000D01*
X25385001Y-129637677D01*
X25385001Y-129637668D01*
X25374004Y-129526015D01*
X25330547Y-129382754D01*
X25319816Y-129362678D01*
X25272539Y-129274230D01*
X25426746Y-129321008D01*
X25600000Y-129338072D01*
X26800000Y-129338072D01*
X26973254Y-129321008D01*
X27139850Y-129270472D01*
X27293386Y-129188405D01*
X27427962Y-129077962D01*
X27538405Y-128943386D01*
X27620472Y-128789850D01*
X27671008Y-128623254D01*
X27688072Y-128450000D01*
X27688072Y-127000000D01*
X27671008Y-126826746D01*
X27643177Y-126735000D01*
X29988828Y-126735000D01*
X29959294Y-126770987D01*
X29821401Y-127028967D01*
X29736487Y-127308890D01*
X29715000Y-127527051D01*
X29715000Y-127922950D01*
X29736487Y-128141111D01*
X29821401Y-128421034D01*
X29959294Y-128679014D01*
X30144866Y-128905134D01*
X30370987Y-129090706D01*
X30628967Y-129228599D01*
X30908890Y-129313513D01*
X31200000Y-129342185D01*
X31491111Y-129313513D01*
X31771034Y-129228599D01*
X32029014Y-129090706D01*
X32255134Y-128905134D01*
X32440706Y-128679014D01*
X32578599Y-128421033D01*
X32663513Y-128141110D01*
X32685000Y-127922949D01*
X32685000Y-127527050D01*
X32663513Y-127308889D01*
X32578599Y-127028966D01*
X32440706Y-126770986D01*
X32411173Y-126735000D01*
X36683422Y-126735000D01*
X37318470Y-127370049D01*
X37346183Y-127403817D01*
X37379951Y-127431530D01*
X37379953Y-127431532D01*
X37480941Y-127514411D01*
X37634686Y-127596589D01*
X37708756Y-127619058D01*
X37801510Y-127647195D01*
X37931523Y-127660000D01*
X37931531Y-127660000D01*
X37975000Y-127664281D01*
X38018469Y-127660000D01*
X50136546Y-127660000D01*
X50184744Y-127692205D01*
X50373102Y-127770226D01*
X50573061Y-127810000D01*
X50776939Y-127810000D01*
X50976898Y-127770226D01*
X51165256Y-127692205D01*
X51334774Y-127578937D01*
X51478937Y-127434774D01*
X51592205Y-127265256D01*
X51670226Y-127076898D01*
X51710000Y-126876939D01*
X51710000Y-126673061D01*
X51670226Y-126473102D01*
X51592205Y-126284744D01*
X51478937Y-126115226D01*
X51334774Y-125971063D01*
X51165256Y-125857795D01*
X50976898Y-125779774D01*
X50776939Y-125740000D01*
X50573061Y-125740000D01*
X50373102Y-125779774D01*
X50184744Y-125857795D01*
X50136546Y-125890000D01*
X38341579Y-125890000D01*
X38111578Y-125660000D01*
X52832025Y-125660000D01*
X52619002Y-125802337D01*
%TA.AperFunction,Conductor*%
D23*
G36*
X52619002Y-125802337D02*
G01*
X52377337Y-126044002D01*
X52187463Y-126328169D01*
X52056675Y-126643919D01*
X51990000Y-126979117D01*
X51990000Y-127320883D01*
X52056675Y-127656081D01*
X52187463Y-127971831D01*
X52377337Y-128255998D01*
X52619002Y-128497663D01*
X52903169Y-128687537D01*
X53218919Y-128818325D01*
X53554117Y-128885000D01*
X53895883Y-128885000D01*
X54231081Y-128818325D01*
X54546831Y-128687537D01*
X54830998Y-128497663D01*
X55072663Y-128255998D01*
X55215001Y-128042974D01*
X55215001Y-130747435D01*
X55051939Y-130715000D01*
X54848061Y-130715000D01*
X54648102Y-130754774D01*
X54459744Y-130832795D01*
X54290226Y-130946063D01*
X54246289Y-130990000D01*
X50937325Y-130990000D01*
X50900000Y-130986324D01*
X50862675Y-130990000D01*
X50862667Y-130990000D01*
X50751014Y-131000997D01*
X50607753Y-131044454D01*
X50475724Y-131115026D01*
X50359999Y-131209999D01*
X50336201Y-131238997D01*
X48834455Y-132740744D01*
X48805457Y-132764542D01*
X48781659Y-132793540D01*
X48781658Y-132793541D01*
X48710483Y-132880267D01*
X48639911Y-133012297D01*
X48596455Y-133155558D01*
X48581781Y-133304543D01*
X48585458Y-133341875D01*
X48585457Y-138634054D01*
X47606360Y-137654957D01*
X47578643Y-137621184D01*
X47443885Y-137510590D01*
X47290139Y-137428412D01*
X47123316Y-137377806D01*
X46993303Y-137365001D01*
X46993295Y-137365001D01*
X46949826Y-137360720D01*
X46906357Y-137365001D01*
X39868465Y-137365001D01*
X39824998Y-137360720D01*
X39781532Y-137365001D01*
X39781522Y-137365001D01*
X39651509Y-137377806D01*
X39484686Y-137428412D01*
X39330940Y-137510590D01*
X39196182Y-137621184D01*
X39177494Y-137643955D01*
X39123102Y-137654774D01*
X38934744Y-137732795D01*
X38765226Y-137846063D01*
X38621063Y-137990226D01*
X38507795Y-138159744D01*
X38429774Y-138348102D01*
X38424781Y-138373203D01*
X36510000Y-136458422D01*
X36510000Y-134372684D01*
X41415000Y-134372684D01*
X41415000Y-134527316D01*
X41445167Y-134678976D01*
X41504342Y-134821837D01*
X41590251Y-134950408D01*
X41699592Y-135059749D01*
X41828163Y-135145658D01*
X41971024Y-135204833D01*
X42011828Y-135212949D01*
X41990000Y-135322684D01*
X41990000Y-135477316D01*
X42020167Y-135628976D01*
X42079342Y-135771837D01*
X42165251Y-135900408D01*
X42274592Y-136009749D01*
X42403163Y-136095658D01*
X42546024Y-136154833D01*
X42697684Y-136185000D01*
X42852316Y-136185000D01*
X43003976Y-136154833D01*
X43146837Y-136095658D01*
X43275408Y-136009749D01*
X43384749Y-135900408D01*
X43470658Y-135771837D01*
X43529833Y-135628976D01*
X43560000Y-135477316D01*
X43560000Y-135322684D01*
X43538172Y-135212949D01*
X43578976Y-135204833D01*
X43721837Y-135145658D01*
X43850408Y-135059749D01*
X43959749Y-134950408D01*
X44045658Y-134821837D01*
X44104833Y-134678976D01*
X44135000Y-134527316D01*
X44135000Y-134372684D01*
X44104833Y-134221024D01*
X44045658Y-134078163D01*
X43959749Y-133949592D01*
X43850408Y-133840251D01*
X43721837Y-133754342D01*
X43578976Y-133695167D01*
X43538172Y-133687051D01*
X43560000Y-133577316D01*
X43560000Y-133422684D01*
X43529833Y-133271024D01*
X43470658Y-133128163D01*
X43384749Y-132999592D01*
X43275408Y-132890251D01*
X43146837Y-132804342D01*
X43003976Y-132745167D01*
X42852316Y-132715000D01*
X42697684Y-132715000D01*
X42546024Y-132745167D01*
X42403163Y-132804342D01*
X42274592Y-132890251D01*
X42165251Y-132999592D01*
X42079342Y-133128163D01*
X42020167Y-133271024D01*
X41990000Y-133422684D01*
X41990000Y-133577316D01*
X42011828Y-133687051D01*
X41971024Y-133695167D01*
X41828163Y-133754342D01*
X41699592Y-133840251D01*
X41590251Y-133949592D01*
X41504342Y-134078163D01*
X41445167Y-134221024D01*
X41415000Y-134372684D01*
X36510000Y-134372684D01*
X36510000Y-132788454D01*
X36542205Y-132740256D01*
X36620226Y-132551898D01*
X36660000Y-132351939D01*
X36660000Y-132148061D01*
X36620226Y-131948102D01*
X36614799Y-131935001D01*
X45204517Y-131935001D01*
X45221063Y-131959764D01*
X45365226Y-132103927D01*
X45534744Y-132217195D01*
X45723102Y-132295216D01*
X45923061Y-132334990D01*
X46126939Y-132334990D01*
X46326898Y-132295216D01*
X46515256Y-132217195D01*
X46684774Y-132103927D01*
X46828937Y-131959764D01*
X46942205Y-131790246D01*
X47020226Y-131601888D01*
X47060000Y-131401929D01*
X47060000Y-131198051D01*
X47020226Y-130998092D01*
X46942205Y-130809734D01*
X46828937Y-130640216D01*
X46684774Y-130496053D01*
X46515256Y-130382785D01*
X46326898Y-130304764D01*
X46217434Y-130282991D01*
X46115324Y-130228412D01*
X45948501Y-130177806D01*
X45818488Y-130165001D01*
X45818480Y-130165001D01*
X45775011Y-130160720D01*
X45731542Y-130165001D01*
X35352779Y-130165001D01*
X35309313Y-130160720D01*
X35265847Y-130165001D01*
X35265837Y-130165001D01*
X35135824Y-130177806D01*
X34969001Y-130228412D01*
X34815255Y-130310590D01*
X34795334Y-130326939D01*
X34714267Y-130393469D01*
X34714265Y-130393471D01*
X34680497Y-130421184D01*
X34652784Y-130454952D01*
X30929951Y-134177785D01*
X30896184Y-134205498D01*
X30868471Y-134239266D01*
X30868468Y-134239269D01*
X30820185Y-134298102D01*
X30785590Y-134340256D01*
X30703411Y-134494002D01*
X30652805Y-134660825D01*
X30640000Y-134790838D01*
X30640000Y-134790846D01*
X30635719Y-134834315D01*
X30638606Y-134863632D01*
X30607795Y-134909744D01*
X30529774Y-135098102D01*
X30490000Y-135298061D01*
X30490000Y-135501939D01*
X30529774Y-135701898D01*
X30607795Y-135890256D01*
X30674420Y-135989967D01*
X30414769Y-135989967D01*
X25385001Y-130960200D01*
X25385001Y-129712323D01*
X25388677Y-129675000D01*
X25385001Y-129637677D01*
X25385001Y-129637668D01*
X25374004Y-129526015D01*
X25330547Y-129382754D01*
X25319816Y-129362678D01*
X25272539Y-129274230D01*
X25426746Y-129321008D01*
X25600000Y-129338072D01*
X26800000Y-129338072D01*
X26973254Y-129321008D01*
X27139850Y-129270472D01*
X27293386Y-129188405D01*
X27427962Y-129077962D01*
X27538405Y-128943386D01*
X27620472Y-128789850D01*
X27671008Y-128623254D01*
X27688072Y-128450000D01*
X27688072Y-127000000D01*
X27671008Y-126826746D01*
X27643177Y-126735000D01*
X29988828Y-126735000D01*
X29959294Y-126770987D01*
X29821401Y-127028967D01*
X29736487Y-127308890D01*
X29715000Y-127527051D01*
X29715000Y-127922950D01*
X29736487Y-128141111D01*
X29821401Y-128421034D01*
X29959294Y-128679014D01*
X30144866Y-128905134D01*
X30370987Y-129090706D01*
X30628967Y-129228599D01*
X30908890Y-129313513D01*
X31200000Y-129342185D01*
X31491111Y-129313513D01*
X31771034Y-129228599D01*
X32029014Y-129090706D01*
X32255134Y-128905134D01*
X32440706Y-128679014D01*
X32578599Y-128421033D01*
X32663513Y-128141110D01*
X32685000Y-127922949D01*
X32685000Y-127527050D01*
X32663513Y-127308889D01*
X32578599Y-127028966D01*
X32440706Y-126770986D01*
X32411173Y-126735000D01*
X36683422Y-126735000D01*
X37318470Y-127370049D01*
X37346183Y-127403817D01*
X37379951Y-127431530D01*
X37379953Y-127431532D01*
X37480941Y-127514411D01*
X37634686Y-127596589D01*
X37708756Y-127619058D01*
X37801510Y-127647195D01*
X37931523Y-127660000D01*
X37931531Y-127660000D01*
X37975000Y-127664281D01*
X38018469Y-127660000D01*
X50136546Y-127660000D01*
X50184744Y-127692205D01*
X50373102Y-127770226D01*
X50573061Y-127810000D01*
X50776939Y-127810000D01*
X50976898Y-127770226D01*
X51165256Y-127692205D01*
X51334774Y-127578937D01*
X51478937Y-127434774D01*
X51592205Y-127265256D01*
X51670226Y-127076898D01*
X51710000Y-126876939D01*
X51710000Y-126673061D01*
X51670226Y-126473102D01*
X51592205Y-126284744D01*
X51478937Y-126115226D01*
X51334774Y-125971063D01*
X51165256Y-125857795D01*
X50976898Y-125779774D01*
X50776939Y-125740000D01*
X50573061Y-125740000D01*
X50373102Y-125779774D01*
X50184744Y-125857795D01*
X50136546Y-125890000D01*
X38341579Y-125890000D01*
X38111578Y-125660000D01*
X52832025Y-125660000D01*
X52619002Y-125802337D01*
G37*
%TD.AperFunction*%
%TD*%
M02*
